<svg width="209" height="86" viewBox="0 0 209 86" fill="none" xmlns="http://www.w3.org/2000/svg">
<path d="M123.588 29.1212C123.588 30.6133 123.243 31.983 122.553 33.2305C121.864 34.4536 120.804 35.4442 119.375 36.2025C117.947 36.9607 116.173 37.3399 114.054 37.3399H110.137V46.5859H103.818V20.8291H114.054C116.124 20.8291 117.873 21.1838 119.302 21.8931C120.73 22.6025 121.802 23.5809 122.516 24.8284C123.231 26.0759 123.588 27.5068 123.588 29.1212ZM113.574 32.35C114.781 32.35 115.68 32.0687 116.271 31.5061C116.863 30.9435 117.158 30.1485 117.158 29.1212C117.158 28.0938 116.863 27.2989 116.271 26.7363C115.68 26.1737 114.781 25.8924 113.574 25.8924H110.137V32.35H113.574Z" fill="#1C1F5A"/>
<path d="M133.197 29.5248C133.936 28.3996 134.86 27.519 135.968 26.8831C137.077 26.2226 138.309 25.8924 139.663 25.8924V32.5334H137.927C136.35 32.5334 135.168 32.8759 134.379 33.5607C133.591 34.2212 133.197 35.3953 133.197 37.083V46.5859H126.878V26.1126H133.197V29.5248Z" fill="#1C1F5A"/>
<path d="M152.07 46.8794C150.05 46.8794 148.227 46.4514 146.601 45.5953C145 44.7392 143.731 43.5161 142.795 41.9262C141.883 40.3363 141.427 38.4773 141.427 36.3492C141.427 34.2456 141.895 32.3989 142.832 30.809C143.768 29.1946 145.049 27.9593 146.675 27.1032C148.301 26.2471 150.124 25.819 152.144 25.819C154.164 25.819 155.987 26.2471 157.613 27.1032C159.239 27.9593 160.52 29.1946 161.456 30.809C162.392 32.3989 162.86 34.2456 162.86 36.3492C162.86 38.4528 162.38 40.3118 161.419 41.9262C160.483 43.5161 159.189 44.7392 157.539 45.5953C155.913 46.4514 154.09 46.8794 152.07 46.8794ZM152.07 41.4492C153.277 41.4492 154.299 41.0089 155.137 40.1284C155.999 39.2478 156.43 37.9881 156.43 36.3492C156.43 34.7104 156.012 33.4507 155.174 32.5701C154.361 31.6895 153.351 31.2492 152.144 31.2492C150.912 31.2492 149.89 31.6895 149.077 32.5701C148.264 33.4262 147.857 34.6859 147.857 36.3492C147.857 37.9881 148.251 39.2478 149.04 40.1284C149.853 41.0089 150.863 41.4492 152.07 41.4492Z" fill="#1C1F5A"/>
<path d="M178.407 46.5859L174.453 40.8989L171.127 46.5859H164.291L171.09 36.1291L164.106 26.1126H171.201L175.155 31.7629L178.481 26.1126H185.317L178.407 36.4226L185.502 46.5859H178.407Z" fill="#1C1F5A"/>
<path d="M209 26.1126L196.066 56.3089H189.267L193.997 45.8888L185.609 26.1126H192.667L197.434 38.9176L202.164 26.1126H209Z" fill="#1C1F5A"/>
<path d="M118.748 54.7464L116.024 65.0615H112.943L111.276 58.2729L109.549 65.0615H106.468L103.818 54.7464H106.542L108.046 62.2549L109.906 54.7464H112.705L114.491 62.2549L116.009 54.7464H118.748Z" fill="#1C1F5A"/>
<path d="M119.518 60.9472C119.518 60.1047 119.677 59.3651 119.995 58.7284C120.322 58.0917 120.764 57.6019 121.319 57.259C121.875 56.9162 122.495 56.7447 123.18 56.7447C123.765 56.7447 124.277 56.8623 124.713 57.0974C125.16 57.3325 125.502 57.6411 125.74 58.0231V56.8623H128.286V65.0615H125.74V63.9007C125.492 64.2827 125.145 64.5913 124.698 64.8264C124.262 65.0615 123.751 65.179 123.165 65.179C122.49 65.179 121.875 65.0076 121.319 64.6647C120.764 64.3121 120.322 63.8174 119.995 63.1807C119.677 62.5341 119.518 61.7896 119.518 60.9472ZM125.74 60.9619C125.74 60.3349 125.562 59.8402 125.204 59.4778C124.857 59.1153 124.43 58.9341 123.924 58.9341C123.418 58.9341 122.986 59.1153 122.629 59.4778C122.282 59.8304 122.108 60.3202 122.108 60.9472C122.108 61.5741 122.282 62.0737 122.629 62.446C122.986 62.8084 123.418 62.9896 123.924 62.9896C124.43 62.9896 124.857 62.8084 125.204 62.446C125.562 62.0835 125.74 61.5888 125.74 60.9619Z" fill="#1C1F5A"/>
<path d="M132.672 54.188V65.0615H130.127V54.188H132.672Z" fill="#1C1F5A"/>
<path d="M137.062 54.188V65.0615H134.517V54.188H137.062Z" fill="#1C1F5A"/>
<path d="M146.736 60.8296C146.736 61.0647 146.721 61.3096 146.692 61.5643H140.931C140.971 62.0737 141.135 62.4655 141.422 62.7398C141.72 63.0043 142.082 63.1366 142.509 63.1366C143.144 63.1366 143.586 62.8721 143.834 62.3431H146.543C146.404 62.8819 146.151 63.3668 145.784 63.7978C145.426 64.2288 144.975 64.5668 144.429 64.8117C143.883 65.0566 143.273 65.179 142.598 65.179C141.785 65.179 141.06 65.0076 140.425 64.6647C139.79 64.3219 139.294 63.8321 138.937 63.1953C138.579 62.5586 138.401 61.8141 138.401 60.9619C138.401 60.1096 138.574 59.3651 138.922 58.7284C139.279 58.0917 139.775 57.6019 140.41 57.259C141.045 56.9162 141.775 56.7447 142.598 56.7447C143.402 56.7447 144.117 56.9113 144.742 57.2443C145.367 57.5774 145.853 58.0525 146.2 58.6696C146.558 59.2868 146.736 60.0068 146.736 60.8296ZM144.131 60.1684C144.131 59.7374 143.983 59.3945 143.685 59.1398C143.387 58.8851 143.015 58.7578 142.568 58.7578C142.142 58.7578 141.78 58.8802 141.482 59.1251C141.194 59.37 141.015 59.7178 140.946 60.1684H144.131Z" fill="#1C1F5A"/>
<path d="M152.708 62.9309V65.0615H151.413C150.49 65.0615 149.771 64.8411 149.255 64.4002C148.739 63.9496 148.481 63.2198 148.481 62.2109V58.9488H147.469V56.8623H148.481V54.8639H151.026V56.8623H152.693V58.9488H151.026V62.2402C151.026 62.4851 151.086 62.6615 151.205 62.7692C151.324 62.877 151.522 62.9309 151.8 62.9309H152.708Z" fill="#1C1F5A"/>
<ellipse cx="43.4362" cy="43.0039" rx="43.4362" ry="43" fill="#F5F7FB"/>
<g clip-path="url(#clip0_1147_12141)">
<path d="M59.0917 24.3853C59.0917 24.3853 62.8795 21.1681 67.449 20.6318C67.449 20.6318 68.8319 21.2872 70.5154 26.3515C72.1387 31.3561 69.1325 41.3059 69.1325 41.3059L59.0917 24.3853Z" fill="url(#paint0_linear_1147_12141)"/>
<path d="M65.044 31.4155C65.044 31.4155 64.082 25.9938 67.6895 21.9424C67.6895 21.9424 71.778 23.8489 73.4615 30.9389C75.1449 38.0288 70.7558 42.259 70.7558 42.259L65.044 31.4155Z" fill="#22E0FF"/>
<path d="M65.8256 21.6448C65.6452 21.4065 63.7212 21.8235 62.9396 22.2406L65.8256 21.6448Z" fill="#F5F7FB"/>
<path d="M27.5262 25.2193C27.5262 25.2193 23.7383 22.002 19.1688 21.4658C19.1688 21.4658 17.786 22.1212 16.1025 27.1855C14.4791 32.1901 17.4853 42.1399 17.4853 42.1399L27.5262 25.2193Z" fill="url(#paint1_linear_1147_12141)"/>
<path d="M19.1688 21.4062C19.1688 21.4062 22.8966 25.3385 22.8966 31.7135L19.1688 21.4062Z" fill="url(#paint2_linear_1147_12141)"/>
<path d="M21.634 32.2495C21.634 32.2495 22.596 26.8278 18.9885 22.7764C18.9885 22.7764 14.9 24.6829 13.2165 31.7729C11.533 38.8628 16.4031 43.5696 16.4031 43.5696L21.634 32.2495Z" fill="#22E0FF"/>
<path d="M22.8965 23.968C21.4535 23.7893 20.6719 22.6573 20.8523 22.4189L22.8965 23.968Z" fill="#F5F7FB"/>
<path d="M17.0043 59.6565C22.7763 72.8236 65.8857 68.7126 71.0564 57.9287C76.7081 46.0724 63.7212 16.8785 43.0984 18.2488C25.6021 19.3212 9.60895 42.736 17.0043 59.6565Z" fill="url(#paint3_linear_1147_12141)"/>
<path d="M19.3492 57.7497C24.8806 68.5932 62.5187 66.8058 67.9901 56.8561C72.6798 48.3958 61.6168 22.7766 42.7377 23.6703C23.8585 24.564 14.0582 47.3829 19.3492 57.7497Z" fill="url(#paint4_linear_1147_12141)"/>
<path d="M60.234 45.0593C59.5125 47.0255 49.5919 46.7872 49.5919 46.0722C49.652 42.14 51.7564 37.0161 55.7246 37.0161C59.8131 37.0757 61.6169 41.3654 60.234 45.0593Z" fill="#37F3E2"/>
<path d="M26.8046 45.2976C27.6464 47.2041 37.567 46.4296 37.5068 45.7146C37.2062 41.7824 34.8012 36.7777 30.8931 37.016C26.7445 37.3139 25.1813 41.7228 26.8046 45.2976Z" fill="#45FFE9"/>
<path d="M37.6271 52.5664C36.124 52.9239 39.2505 57.869 44.2408 57.869C48.69 57.869 51.2153 52.8047 50.614 52.5664C50.0729 52.3281 47.3673 53.6984 43.6997 53.6984C40.0321 53.6984 38.2885 52.4473 37.6271 52.5664Z" fill="#2F95CD"/>
<path d="M49.1109 20.6318C48.69 21.1085 53.3196 23.0746 53.9208 22.7767L49.1109 20.6318Z" fill="#F5F7FB"/>
<path opacity="0.5" d="M26.023 34.5136C25.6022 37.0755 30.5324 36.7776 38.3486 36.5393C47.7882 36.2414 57.2879 44.2846 62.8193 38.5054C63.7212 37.5521 54.7025 25.0404 43.7598 25.2788C32.8772 25.5766 26.3838 32.2496 26.023 34.5136Z" fill="url(#paint5_linear_1147_12141)"/>
</g>
<defs>
<linearGradient id="paint0_linear_1147_12141" x1="65.0464" y1="41.2834" x2="65.0464" y2="20.624" gradientUnits="userSpaceOnUse">
<stop stop-color="#B9ACF4"/>
<stop offset="1" stop-color="#E1D1F5"/>
</linearGradient>
<linearGradient id="paint1_linear_1147_12141" x1="21.6128" y1="42.089" x2="21.6128" y2="21.4296" gradientUnits="userSpaceOnUse">
<stop stop-color="#B9ACF4"/>
<stop offset="1" stop-color="#E1D1F5"/>
</linearGradient>
<linearGradient id="paint2_linear_1147_12141" x1="21.054" y1="31.7593" x2="21.054" y2="21.4296" gradientUnits="userSpaceOnUse">
<stop stop-color="#BE9DEA"/>
<stop offset="1" stop-color="#9E8CEF"/>
</linearGradient>
<linearGradient id="paint3_linear_1147_12141" x1="41.4618" y1="68.5641" x2="47.7079" y2="18.3772" gradientUnits="userSpaceOnUse">
<stop stop-color="#CBC1F7"/>
<stop offset="1" stop-color="#E8DCF7"/>
</linearGradient>
<linearGradient id="paint4_linear_1147_12141" x1="43.5094" y1="65.1285" x2="43.5094" y2="23.6522" gradientUnits="userSpaceOnUse">
<stop stop-color="#0665BD"/>
<stop offset="1" stop-color="#1A1F77"/>
</linearGradient>
<linearGradient id="paint5_linear_1147_12141" x1="25.978" y1="32.928" x2="62.9006" y2="32.928" gradientUnits="userSpaceOnUse">
<stop stop-color="#2548A5"/>
<stop offset="1" stop-color="#6A9BFF"/>
</linearGradient>
<clipPath id="clip0_1147_12141">
<rect width="60.9665" height="49.7489" fill="white" transform="translate(12.8557 18.1294)"/>
</clipPath>
</defs>
</svg>
