<svg width="97" height="40" viewBox="0 0 97 40" fill="none" xmlns="http://www.w3.org/2000/svg">
<path d="M57.162 13.5429C57.162 14.2369 57.0025 14.874 56.6835 15.4543C56.3644 16.0231 55.8745 16.4839 55.2136 16.8366C54.5527 17.1892 53.7323 17.3656 52.7524 17.3656H50.9407V21.6661H48.0181V9.68616H52.7524C53.7095 9.68616 54.5185 9.85112 55.1794 10.1811C55.8403 10.511 56.3359 10.9661 56.6664 11.5463C56.9968 12.1265 57.162 12.7921 57.162 13.5429ZM52.5302 15.0447C53.0885 15.0447 53.5044 14.9139 53.7779 14.6522C54.0514 14.3905 54.1881 14.0208 54.1881 13.5429C54.1881 13.0651 54.0514 12.6954 53.7779 12.4337C53.5044 12.172 53.0885 12.0412 52.5302 12.0412H50.9407V15.0447H52.5302Z" fill="#1C1F5A"/>
<path d="M61.6062 13.7307C61.948 13.2073 62.3753 12.7977 62.8881 12.5019C63.4008 12.1948 63.9705 12.0412 64.5972 12.0412V15.13H63.7939C63.0647 15.13 62.5177 15.2893 62.1531 15.6079C61.7885 15.915 61.6062 16.4611 61.6062 17.2461V21.6661H58.6836V12.1436H61.6062V13.7307Z" fill="#1C1F5A"/>
<path d="M70.3354 21.8026C69.4011 21.8026 68.5579 21.6035 67.8059 21.2053C67.0652 20.8071 66.4784 20.2383 66.0454 19.4988C65.6239 18.7593 65.4131 17.8946 65.4131 16.9048C65.4131 15.9264 65.6296 15.0674 66.0625 14.3279C66.4955 13.5771 67.088 13.0025 67.8401 12.6043C68.5921 12.2061 69.4353 12.0071 70.3696 12.0071C71.3039 12.0071 72.1471 12.2061 72.8991 12.6043C73.6512 13.0025 74.2437 13.5771 74.6767 14.3279C75.1096 15.0674 75.3261 15.9264 75.3261 16.9048C75.3261 17.8832 75.1039 18.7479 74.6596 19.4988C74.2266 20.2383 73.6284 20.8071 72.865 21.2053C72.1129 21.6035 71.2697 21.8026 70.3354 21.8026ZM70.3354 19.2769C70.8937 19.2769 71.3666 19.0721 71.754 18.6626C72.1528 18.253 72.3522 17.6671 72.3522 16.9048C72.3522 16.1426 72.1585 15.5567 71.7711 15.1471C71.3951 14.7375 70.9279 14.5327 70.3696 14.5327C69.7999 14.5327 69.327 14.7375 68.951 15.1471C68.575 15.5453 68.387 16.1312 68.387 16.9048C68.387 17.6671 68.5693 18.253 68.9339 18.6626C69.3099 19.0721 69.7771 19.2769 70.3354 19.2769Z" fill="#1C1F5A"/>
<path d="M82.5168 21.6661L80.688 19.0209L79.1498 21.6661H75.9879L79.1327 16.8024L75.9024 12.1436H79.184L81.0128 14.7716L82.551 12.1436H85.7129L82.5168 16.939L85.7984 21.6661H82.5168Z" fill="#1C1F5A"/>
<path d="M96.6667 12.1436L90.6847 26.1884H87.5399L89.7276 21.3418L85.8478 12.1436H89.1123L91.3171 18.0994L93.5048 12.1436H96.6667Z" fill="#1C1F5A"/>
<path d="M54.9233 25.4616L53.6634 30.2593H52.2383L51.4673 27.1019L50.6686 30.2593H49.2435L48.0181 25.4616H49.2779L49.9733 28.954L50.8339 25.4616H52.1282L52.9543 28.954L53.6566 25.4616H54.9233Z" fill="#1C1F5A"/>
<path d="M55.2796 28.3457C55.2796 27.9539 55.3531 27.6099 55.5 27.3137C55.6514 27.0176 55.8557 26.7898 56.1127 26.6303C56.3697 26.4708 56.6566 26.3911 56.9733 26.3911C57.2441 26.3911 57.4804 26.4458 57.6824 26.5551C57.8889 26.6645 58.0473 26.808 58.1574 26.9857V26.4458H59.3347V30.2593H58.1574V29.7194C58.0427 29.8971 57.882 30.0406 57.6755 30.15C57.4735 30.2593 57.2372 30.314 56.9664 30.314C56.6543 30.314 56.3697 30.2343 56.1127 30.0748C55.8557 29.9108 55.6514 29.6807 55.5 29.3845C55.3531 29.0838 55.2796 28.7376 55.2796 28.3457ZM58.1574 28.3525C58.1574 28.0609 58.0748 27.8309 57.9096 27.6623C57.7489 27.4937 57.5516 27.4094 57.3175 27.4094C57.0834 27.4094 56.8838 27.4937 56.7185 27.6623C56.5579 27.8263 56.4776 28.0541 56.4776 28.3457C56.4776 28.6373 56.5579 28.8697 56.7185 29.0428C56.8838 29.2114 57.0834 29.2957 57.3175 29.2957C57.5516 29.2957 57.7489 29.2114 57.9096 29.0428C58.0748 28.8742 58.1574 28.6441 58.1574 28.3525Z" fill="#1C1F5A"/>
<path d="M61.3636 25.2019V30.2593H60.1864V25.2019H61.3636Z" fill="#1C1F5A"/>
<path d="M63.3941 25.2019V30.2593H62.2168V25.2019H63.3941Z" fill="#1C1F5A"/>
<path d="M67.8685 28.291C67.8685 28.4004 67.8616 28.5143 67.8479 28.6328H65.1835C65.2019 28.8697 65.2776 29.0519 65.4107 29.1795C65.5484 29.3025 65.7159 29.364 65.9133 29.364C66.207 29.364 66.4113 29.241 66.526 28.995H67.779C67.7148 29.2456 67.5977 29.4711 67.4279 29.6716C67.2627 29.8721 67.0538 30.0292 66.8014 30.1432C66.549 30.2571 66.2667 30.314 65.9546 30.314C65.5782 30.314 65.2432 30.2343 64.9494 30.0748C64.6557 29.9153 64.4262 29.6875 64.261 29.3914C64.0957 29.0952 64.0131 28.7489 64.0131 28.3525C64.0131 27.9562 64.0935 27.6099 64.2541 27.3137C64.4193 27.0176 64.6488 26.7898 64.9426 26.6303C65.2363 26.4708 65.5736 26.3911 65.9546 26.3911C66.3264 26.3911 66.6568 26.4685 66.946 26.6235C67.2351 26.7784 67.46 26.9993 67.6207 27.2864C67.7859 27.5734 67.8685 27.9083 67.8685 28.291ZM66.6637 27.9835C66.6637 27.783 66.5949 27.6235 66.4572 27.5051C66.3195 27.3866 66.1474 27.3274 65.9408 27.3274C65.7435 27.3274 65.5759 27.3843 65.4382 27.4983C65.3051 27.6122 65.2225 27.7739 65.1904 27.9835H66.6637Z" fill="#1C1F5A"/>
<path d="M70.6307 29.2684V30.2593H70.0317C69.6049 30.2593 69.2721 30.1568 69.0335 29.9518C68.7948 29.7422 68.6755 29.4028 68.6755 28.9335V27.4162H68.2073V26.4458H68.6755V25.5163H69.8527V26.4458H70.6238V27.4162H69.8527V28.9471C69.8527 29.061 69.8803 29.1431 69.9353 29.1932C69.9904 29.2433 70.0822 29.2684 70.2107 29.2684H70.6307Z" fill="#1C1F5A"/>
<ellipse cx="20.0901" cy="20" rx="20.0901" ry="20" fill="#F5F7FB"/>
<g clip-path="url(#clip0_1147_7285)">
<path d="M27.3311 11.3402C27.3311 11.3402 29.083 9.84376 31.1965 9.59436C31.1965 9.59436 31.8361 9.89919 32.6147 12.2547C33.3656 14.5824 31.9751 19.2102 31.9751 19.2102L27.3311 11.3402Z" fill="url(#paint0_linear_1147_7285)"/>
<path d="M30.0841 14.6102C30.0841 14.6102 29.6392 12.0885 31.3077 10.2041C31.3077 10.2041 33.1987 11.0909 33.9773 14.3885C34.756 17.6862 32.7259 19.6537 32.7259 19.6537L30.0841 14.6102Z" fill="#22E0FF"/>
<path d="M30.4457 10.0656C30.3622 9.95473 29.4724 10.1487 29.1108 10.3427L30.4457 10.0656Z" fill="#F5F7FB"/>
<path d="M12.7314 11.7282C12.7314 11.7282 10.9794 10.2318 8.86595 9.98242C8.86595 9.98242 8.22634 10.2872 7.44769 12.6427C6.69685 14.9705 8.0873 19.5983 8.0873 19.5983L12.7314 11.7282Z" fill="url(#paint1_linear_1147_7285)"/>
<path d="M8.86597 9.95471C8.86597 9.95471 10.5901 11.7837 10.5901 14.7488L8.86597 9.95471Z" fill="url(#paint2_linear_1147_7285)"/>
<path d="M10.0063 14.9982C10.0063 14.9982 10.4512 12.4764 8.78266 10.592C8.78266 10.592 6.89166 11.4788 6.11301 14.7765C5.33436 18.0741 7.58688 20.2633 7.58688 20.2633L10.0063 14.9982Z" fill="#22E0FF"/>
<path d="M10.5902 11.1463C9.92275 11.0631 9.56123 10.5366 9.64466 10.4258L10.5902 11.1463Z" fill="#F5F7FB"/>
<path d="M7.86482 27.7453C10.5345 33.8696 30.4734 31.9575 32.865 26.9417C35.479 21.4271 29.4723 7.84856 19.9339 8.48592C11.8415 8.98473 4.44432 19.8753 7.86482 27.7453Z" fill="url(#paint3_linear_1147_7285)"/>
<path d="M8.94935 26.8586C11.5078 31.9021 28.9161 31.0707 31.4467 26.4429C33.6158 22.5079 28.499 10.592 19.767 11.0077C11.035 11.4233 6.50216 22.0368 8.94935 26.8586Z" fill="url(#paint4_linear_1147_7285)"/>
<path d="M27.8594 20.9561C27.5257 21.8706 22.9373 21.7598 22.9373 21.4272C22.9651 19.5983 23.9384 17.2151 25.7738 17.2151C27.6648 17.2428 28.499 19.238 27.8594 20.9561Z" fill="#37F3E2"/>
<path d="M12.3977 21.0669C12.7871 21.9536 17.3755 21.5934 17.3477 21.2609C17.2087 19.4319 16.0963 17.1042 14.2887 17.215C12.3699 17.3536 11.6469 19.4042 12.3977 21.0669Z" fill="#45FFE9"/>
<path d="M17.4034 24.4478C16.7081 24.614 18.1542 26.9141 20.4623 26.9141C22.5202 26.9141 23.6882 24.5586 23.4101 24.4478C23.1598 24.3369 21.9084 24.9743 20.2121 24.9743C18.5157 24.9743 17.7093 24.3923 17.4034 24.4478Z" fill="#2F95CD"/>
<path d="M22.7148 9.59436C22.5201 9.81605 24.6614 10.7305 24.9395 10.592L22.7148 9.59436Z" fill="#F5F7FB"/>
<path opacity="0.5" d="M12.0362 16.0512C11.8415 17.2428 14.1219 17.1043 17.737 16.9934C22.103 16.8549 26.4968 20.5959 29.0552 17.9079C29.4724 17.4645 25.301 11.6451 20.2398 11.756C15.2064 11.8945 12.2031 14.9982 12.0362 16.0512Z" fill="url(#paint5_linear_1147_7285)"/>
</g>
<defs>
<linearGradient id="paint0_linear_1147_7285" x1="30.0852" y1="19.1997" x2="30.0852" y2="9.59073" gradientUnits="userSpaceOnUse">
<stop stop-color="#B9ACF4"/>
<stop offset="1" stop-color="#E1D1F5"/>
</linearGradient>
<linearGradient id="paint1_linear_1147_7285" x1="9.99632" y1="19.5746" x2="9.99632" y2="9.96557" gradientUnits="userSpaceOnUse">
<stop stop-color="#B9ACF4"/>
<stop offset="1" stop-color="#E1D1F5"/>
</linearGradient>
<linearGradient id="paint2_linear_1147_7285" x1="9.73789" y1="14.7701" x2="9.73789" y2="9.96557" gradientUnits="userSpaceOnUse">
<stop stop-color="#BE9DEA"/>
<stop offset="1" stop-color="#9E8CEF"/>
</linearGradient>
<linearGradient id="paint3_linear_1147_7285" x1="19.1769" y1="31.8884" x2="22.0979" y2="8.54967" gradientUnits="userSpaceOnUse">
<stop stop-color="#CBC1F7"/>
<stop offset="1" stop-color="#E8DCF7"/>
</linearGradient>
<linearGradient id="paint4_linear_1147_7285" x1="20.1239" y1="30.2906" x2="20.1239" y2="10.9993" gradientUnits="userSpaceOnUse">
<stop stop-color="#0665BD"/>
<stop offset="1" stop-color="#1A1F77"/>
</linearGradient>
<linearGradient id="paint5_linear_1147_7285" x1="12.0154" y1="15.3138" x2="29.0928" y2="15.3138" gradientUnits="userSpaceOnUse">
<stop stop-color="#2548A5"/>
<stop offset="1" stop-color="#6A9BFF"/>
</linearGradient>
<clipPath id="clip0_1147_7285">
<rect width="28.1982" height="23.139" fill="white" transform="translate(5.94604 8.43054)"/>
</clipPath>
</defs>
</svg>
