<svg width="61" height="60" viewBox="0 0 61 60" fill="none" xmlns="http://www.w3.org/2000/svg">
<ellipse cx="30.343" cy="30" rx="30.343" ry="30" fill="#F5F7FB"/>
<g clip-path="url(#clip0_1184_4955)">
<path d="M41.2793 17.0098C41.2793 17.0098 43.9254 14.7652 47.1174 14.3911C47.1174 14.3911 48.0835 14.8484 49.2595 18.3816C50.3935 21.8732 48.2935 28.8149 48.2935 28.8149L41.2793 17.0098Z" fill="url(#paint0_linear_1184_4955)"/>
<path d="M45.4373 21.9148C45.4373 21.9148 44.7652 18.1322 47.2853 15.3057C47.2853 15.3057 50.1414 16.6358 51.3174 21.5823C52.4934 26.5288 49.4274 29.48 49.4274 29.48L45.4373 21.9148Z" fill="#22E0FF"/>
<path d="M45.9833 15.0979C45.8573 14.9316 44.5133 15.2226 43.9673 15.5135L45.9833 15.0979Z" fill="#F5F7FB"/>
<path d="M19.2288 17.5919C19.2288 17.5919 16.5827 15.3472 13.3907 14.9731C13.3907 14.9731 12.4246 15.4304 11.2486 18.9636C10.1146 22.4552 12.2146 29.3969 12.2146 29.3969L19.2288 17.5919Z" fill="url(#paint1_linear_1184_4955)"/>
<path d="M13.3906 14.9316C13.3906 14.9316 15.9947 17.6751 15.9947 22.1227L13.3906 14.9316Z" fill="url(#paint2_linear_1184_4955)"/>
<path d="M15.1127 22.4969C15.1127 22.4969 15.7847 18.7143 13.2646 15.8877C13.2646 15.8877 10.4086 17.2178 9.23255 22.1643C8.05652 27.1108 11.4586 30.3946 11.4586 30.3946L15.1127 22.4969Z" fill="#22E0FF"/>
<path d="M15.9948 16.7189C14.9867 16.5942 14.4407 15.8045 14.5667 15.6382L15.9948 16.7189Z" fill="#F5F7FB"/>
<path d="M11.8784 41.6179C15.9105 50.8043 46.0252 47.9361 49.6373 40.4125C53.5854 32.1407 44.5132 11.7728 30.1068 12.7288C17.8845 13.477 6.71229 29.8129 11.8784 41.6179Z" fill="url(#paint3_linear_1184_4955)"/>
<path d="M13.5168 40.2874C17.3809 47.8526 43.6735 46.6056 47.4956 39.6639C50.7716 33.7614 43.0435 15.8875 29.8552 16.511C16.6669 17.1345 9.82069 33.0547 13.5168 40.2874Z" fill="url(#paint4_linear_1184_4955)"/>
<path d="M42.0772 31.4338C41.5732 32.8055 34.6431 32.6393 34.6431 32.1405C34.6851 29.397 36.1551 25.8223 38.9272 25.8223C41.7832 25.8638 43.0433 28.8567 42.0772 31.4338Z" fill="#37F3E2"/>
<path d="M18.7247 31.6C19.3127 32.9301 26.2428 32.3897 26.2008 31.8909C25.9908 29.1475 24.3108 25.6559 21.5807 25.8221C18.6827 26.03 17.5906 29.1059 18.7247 31.6Z" fill="#45FFE9"/>
<path d="M26.2846 36.6713C25.2346 36.9207 27.4187 40.3707 30.9047 40.3707C34.0128 40.3707 35.7769 36.8375 35.3569 36.6713C34.9788 36.505 33.0888 37.4611 30.5267 37.4611C27.9647 37.4611 26.7467 36.5881 26.2846 36.6713Z" fill="#2F95CD"/>
<path d="M34.3069 14.3911C34.0129 14.7236 37.247 16.0954 37.667 15.8875L34.3069 14.3911Z" fill="#F5F7FB"/>
<path opacity="0.5" d="M18.1786 24.0766C17.8846 25.864 21.3287 25.6561 26.7888 25.4899C33.3829 25.282 40.0191 30.8936 43.8832 26.8616C44.5132 26.1965 38.2131 17.4674 30.5689 17.6337C22.9667 17.8415 18.4306 22.497 18.1786 24.0766Z" fill="url(#paint5_linear_1184_4955)"/>
</g>
<defs>
<linearGradient id="paint0_linear_1184_4955" x1="45.439" y1="28.7992" x2="45.439" y2="14.3857" gradientUnits="userSpaceOnUse">
<stop stop-color="#B9ACF4"/>
<stop offset="1" stop-color="#E1D1F5"/>
</linearGradient>
<linearGradient id="paint1_linear_1184_4955" x1="15.0979" y1="29.3614" x2="15.0979" y2="14.9479" gradientUnits="userSpaceOnUse">
<stop stop-color="#B9ACF4"/>
<stop offset="1" stop-color="#E1D1F5"/>
</linearGradient>
<linearGradient id="paint2_linear_1184_4955" x1="14.7075" y1="22.1547" x2="14.7075" y2="14.9479" gradientUnits="userSpaceOnUse">
<stop stop-color="#BE9DEA"/>
<stop offset="1" stop-color="#9E8CEF"/>
</linearGradient>
<linearGradient id="paint3_linear_1184_4955" x1="28.9636" y1="47.8325" x2="33.3159" y2="12.8171" gradientUnits="userSpaceOnUse">
<stop stop-color="#CBC1F7"/>
<stop offset="1" stop-color="#E8DCF7"/>
</linearGradient>
<linearGradient id="paint4_linear_1184_4955" x1="30.3942" y1="45.4354" x2="30.3942" y2="16.4984" gradientUnits="userSpaceOnUse">
<stop stop-color="#0665BD"/>
<stop offset="1" stop-color="#1A1F77"/>
</linearGradient>
<linearGradient id="paint5_linear_1184_4955" x1="18.1471" y1="22.9704" x2="43.94" y2="22.9704" gradientUnits="userSpaceOnUse">
<stop stop-color="#2548A5"/>
<stop offset="1" stop-color="#6A9BFF"/>
</linearGradient>
<clipPath id="clip0_1184_4955">
<rect width="42.589" height="34.7085" fill="white" transform="translate(8.98047 12.6455)"/>
</clipPath>
</defs>
</svg>
