<svg width="18" height="18" viewBox="0 0 18 18" fill="none" xmlns="http://www.w3.org/2000/svg">
<mask id="mask0_1209_1972" style="mask-type:luminance" maskUnits="userSpaceOnUse" x="0" y="0" width="18" height="19">
<path fill-rule="evenodd" clip-rule="evenodd" d="M9 18.0007C13.9706 18.0007 18 13.9713 18 9.00073C18 4.03017 13.9706 0.000732422 9 0.000732422C4.02944 0.000732422 0 4.03017 0 9.00073C0 13.9713 4.02944 18.0007 9 18.0007Z" fill="white"/>
</mask>
<g mask="url(#mask0_1209_1972)">
<path fill-rule="evenodd" clip-rule="evenodd" d="M5.50447 7.56442L9.00006 4.06897L12.4975 7.56627L14.5315 5.53229L9.00006 0.000732422L3.47049 5.53044L5.50447 7.56442ZM2.03414 6.96641L4.06808 9.00035L2.03394 11.0345L0 9.00055L2.03414 6.96641ZM9.00005 13.9324L5.50445 10.4369L3.46749 12.4682L3.47033 12.471L9.00005 18.0007L14.5315 12.4692L14.5325 12.468L12.4973 10.4352L9.00005 13.9324ZM18.0002 9.0016L15.9662 11.0356L13.9323 9.0017L15.9663 6.96766L18.0002 9.0016ZM11.0639 8.99975H11.0631L11.0649 9.00074L11.0639 9.00188L8.99996 11.0657L6.93784 9.00358L6.935 9.00074L6.93784 8.99776L7.29937 8.63623L7.47452 8.46108H7.47466L8.99996 6.93563L11.0639 8.99975Z" fill="#F5BC00"/>
</g>
</svg>
