<svg width="24" height="24" viewBox="0 0 24 24" fill="none" xmlns="http://www.w3.org/2000/svg">
<path d="M11.655 12.3948L7.65503 8.39478" stroke="#FFC400" stroke-width="1.5" stroke-linecap="round" stroke-linejoin="round"/>
<path d="M11.394 4.65479L15.394 8.65479" stroke="#FFC400" stroke-width="1.5" stroke-linecap="round" stroke-linejoin="round"/>
<path d="M3 21.0007H13.586" stroke="#FFC400" stroke-width="1.5" stroke-linecap="round" stroke-linejoin="round"/>
<path d="M3.90002 21.0007L4.44502 19.3687C4.57745 18.9711 4.83143 18.6252 5.17109 18.3797C5.51076 18.1342 5.91895 18.0017 6.33802 18.0007H10.248C10.6683 18.0002 11.0781 18.1321 11.4191 18.3777C11.7602 18.6232 12.0152 18.97 12.148 19.3687L12.689 21.0007" stroke="#FFC400" stroke-width="1.5" stroke-linecap="round" stroke-linejoin="round"/>
<path d="M8.89206 7.30085L6.69206 9.05585C6.49092 9.21671 6.3259 9.41811 6.20773 9.64695C6.08956 9.87579 6.02089 10.1269 6.00617 10.3841C5.99146 10.6412 6.03103 10.8985 6.12233 11.1394C6.21362 11.3802 6.35459 11.5991 6.53606 11.7819L8.21206 13.4659C8.39202 13.6468 8.60813 13.7877 8.84627 13.8794C9.0844 13.971 9.3392 14.0115 9.59403 13.998C9.84885 13.9845 10.098 13.9174 10.3251 13.801C10.5522 13.6847 10.7522 13.5218 10.9121 13.3229L12.6881 11.1169C13.1083 10.5944 13.5844 10.1196 14.1081 9.70085L16.3081 7.94585C16.5092 7.78499 16.6742 7.58359 16.7924 7.35475C16.9105 7.12592 16.9792 6.87477 16.9939 6.61764C17.0087 6.36051 16.9691 6.10317 16.8778 5.86234C16.7865 5.62152 16.6455 5.40261 16.4641 5.21985L14.7911 3.53685C14.6111 3.35594 14.395 3.21504 14.1568 3.12335C13.9187 3.03166 13.6639 2.99124 13.4091 3.00474C13.1543 3.01823 12.9052 3.08534 12.678 3.20167C12.4509 3.318 12.2509 3.48095 12.0911 3.67985L10.3131 5.88585C9.89275 6.40824 9.41622 6.88276 8.89206 7.30085V7.30085Z" stroke="#FFC400" stroke-width="1.5" stroke-linecap="round" stroke-linejoin="round"/>
<path d="M14.376 9.48779L20.3 14.5008C20.5069 14.6766 20.6755 14.8929 20.7955 15.1364C20.9155 15.3799 20.9843 15.6454 20.9976 15.9166C21.011 16.1877 20.9686 16.4587 20.8731 16.7128C20.7776 16.9669 20.631 17.1988 20.4424 17.394C20.2538 17.5893 20.0272 17.7438 19.7765 17.848C19.5259 17.9522 19.2565 18.004 18.9851 18C18.7136 17.9961 18.4459 17.9365 18.1984 17.825C17.9509 17.7135 17.7288 17.5525 17.546 17.3518L12.312 11.5878" stroke="#FFC400" stroke-width="1.5" stroke-linecap="round" stroke-linejoin="round"/>
</svg>
