<svg width="16" height="16" viewBox="0 0 16 16" fill="none" xmlns="http://www.w3.org/2000/svg">
<path d="M6.66667 8.00073H3.33333C2.97971 8.00073 2.64057 7.86026 2.39052 7.61021C2.14048 7.36016 2 7.02102 2 6.6674V3.33407C2 2.98044 2.14048 2.64131 2.39052 2.39126C2.64057 2.14121 2.97971 2.00073 3.33333 2.00073H6.66667C7.02029 2.00073 7.35943 2.14121 7.60948 2.39126C7.85952 2.64131 8 2.98044 8 3.33407V6.6674C8 7.02102 7.85952 7.36016 7.60948 7.61021C7.35943 7.86026 7.02029 8.00073 6.66667 8.00073Z" stroke="#585A93" stroke-width="1.25" stroke-linecap="round" stroke-linejoin="round"/>
<path d="M12.3334 13.334H10.3334C10.0682 13.334 9.8138 13.2286 9.62627 13.0411C9.43873 12.8536 9.33337 12.5992 9.33337 12.334V10.334C9.33337 10.0688 9.43873 9.81441 9.62627 9.62688C9.8138 9.43934 10.0682 9.33398 10.3334 9.33398H12.3334C12.5986 9.33398 12.8529 9.43934 13.0405 9.62688C13.228 9.81441 13.3334 10.0688 13.3334 10.334V12.334C13.3334 12.5992 13.228 12.8536 13.0405 13.0411C12.8529 13.2286 12.5986 13.334 12.3334 13.334Z" stroke="#585A93" stroke-width="1.25" stroke-linecap="round" stroke-linejoin="round"/>
<path d="M13 7.33398H11C10.7348 7.33398 10.4804 7.22863 10.2929 7.04109C10.1054 6.85356 10 6.5992 10 6.33398V4.33398C10 4.06877 10.1054 3.81441 10.2929 3.62688C10.4804 3.43934 10.7348 3.33398 11 3.33398H13C13.2652 3.33398 13.5196 3.43934 13.7071 3.62688C13.8946 3.81441 14 4.06877 14 4.33398V6.33398C14 6.5992 13.8946 6.85356 13.7071 7.04109C13.5196 7.22863 13.2652 7.33398 13 7.33398Z" stroke="#585A93" stroke-width="1.25" stroke-linecap="round" stroke-linejoin="round"/>
<path d="M6.33337 14.0007H4.33337C4.06816 14.0007 3.8138 13.8954 3.62627 13.7078C3.43873 13.5203 3.33337 13.2659 3.33337 13.0007V11.0007C3.33337 10.7355 3.43873 10.4812 3.62627 10.2936C3.8138 10.1061 4.06816 10.0007 4.33337 10.0007H6.33337C6.59859 10.0007 6.85294 10.1061 7.04048 10.2936C7.22802 10.4812 7.33337 10.7355 7.33337 11.0007V13.0007C7.33337 13.2659 7.22802 13.5203 7.04048 13.7078C6.85294 13.8954 6.59859 14.0007 6.33337 14.0007Z" stroke="#585A93" stroke-width="1.25" stroke-linecap="round" stroke-linejoin="round"/>
</svg>
