<svg width="48" height="48" viewBox="0 0 80 80" fill="none" xmlns="http://www.w3.org/2000/svg">
<g clip-path="url(#clip0_147_4347)">
<path opacity="0.5" d="M34.781 79.9615C43.4601 79.9615 50.4959 78.3923 50.4959 76.4565C50.4959 74.5207 43.4601 72.9514 34.781 72.9514C26.1018 72.9514 19.066 74.5207 19.066 76.4565C19.066 78.3923 26.1018 79.9615 34.781 79.9615Z" fill="url(#paint0_radial_147_4347)"/>
<path d="M10.6693 64.4392C13.8662 69.7545 40.7511 68.2909 50.8041 63.3992C60.857 58.469 60.0482 23.534 55.2721 17.2172C50.496 10.9004 22.1859 0.423783 9.74487 7.27982C-2.69615 14.1359 6.39388 57.352 10.6693 64.4392Z" fill="#E5F6FF"/>
<path d="M44.4872 5.08423C44.5258 2.50359 51.921 -0.73185 55.272 0.115526C58.623 0.962902 59.1623 12.5565 54.0395 12.9417C48.9552 13.3654 44.4872 8.31967 44.4872 5.08423Z" fill="#E5F6FF"/>
<path d="M0.0770598 61.6273C-0.539214 58.8926 3.11991 55.349 5.04576 55.8497C6.97162 56.3504 9.16709 65.479 6.23979 65.7101C3.27398 65.9412 0.500748 63.4376 0.0770598 61.6273Z" fill="#E5F6FF"/>
<path d="M37.5542 62.6286C37.5542 62.6286 45.7198 66.1722 47.222 64.747C48.8397 63.2064 43.3702 56.0037 41.5985 56.0037C38.9793 56.0037 37.2845 61.5501 37.5542 62.6286Z" fill="url(#paint1_linear_147_4347)"/>
<path opacity="0.3" d="M42.9466 56.8897C42.9466 56.8897 40.443 58.8926 40.7511 60.7029C41.0592 62.4746 45.2961 65.0553 45.2961 65.0553C45.2961 65.0553 41.5985 64.3235 38.286 63.0139L42.5229 56.7356L42.9466 56.8897Z" fill="url(#paint2_linear_147_4347)"/>
<path d="M39.8267 32.5082C39.8267 32.5082 46.259 29.658 51.4973 24.2271C51.4973 24.2271 53.1921 26.0374 51.844 30.1202C51.844 30.1202 41.9066 40.7509 36.2831 41.4442C30.6596 42.1375 32.778 34.357 32.778 34.357C32.778 34.357 37.4771 34.1259 39.8267 32.5082Z" fill="url(#paint3_linear_147_4347)"/>
<path d="M28.6567 7.74194C28.6567 7.74194 32.4314 8.70487 35.4357 12.9803C38.4401 17.2557 29.35 14.0587 29.35 14.0587L28.6567 7.74194Z" fill="url(#paint4_linear_147_4347)"/>
<path d="M33.1247 11.6706C33.1247 11.6706 28.6953 6.85596 26.2687 6.77893C23.8421 6.66337 21.454 9.62919 21.454 9.62919L33.1247 11.6706Z" fill="url(#paint5_linear_147_4347)"/>
<path d="M15.0217 40.7126C22.6481 44.3332 42.2533 33.3943 43.6399 28.3486C44.1791 26.3457 44.0251 24.2273 43.3318 22.1859C40.2504 13.481 27.2316 5.81609 16.6779 10.8618C9.51374 14.2898 7.3953 23.3028 8.78192 30.6596C9.59078 35.2431 11.8248 39.2104 15.0217 40.7126Z" fill="url(#paint6_linear_147_4347)"/>
<path d="M20.5296 41.2901C23.5339 40.8664 27.6553 39.6339 30.2359 38.4399C35.012 36.2829 38.2089 34.1645 39.7881 32.5082C40.8281 31.4298 41.1748 30.5439 40.7896 29.9661C40.5585 29.6195 39.48 29.6965 37.8623 30.1202C33.1632 31.3142 24.0732 35.1274 19.5667 38.0932C19.1815 38.3628 18.8348 38.5939 18.5267 38.825C18.4497 38.8636 18.4112 38.9406 18.3341 38.9791C18.3341 38.9791 18.2956 38.9791 18.2956 39.0176C17.5638 39.5954 17.0631 40.1346 16.9475 40.5583C16.909 40.6739 16.909 40.7509 16.909 40.8665C17.0245 41.5212 18.5267 41.5983 20.5296 41.2901Z" fill="url(#paint7_linear_147_4347)"/>
<path opacity="0.3" d="M15.0217 40.7125C22.6481 44.3331 42.2533 33.3943 43.6399 28.3485C44.1791 26.3456 44.0251 24.2272 43.3318 22.1858C43.3318 22.1858 43.1777 25.4597 39.2875 27.8478C35.3972 30.2359 23.0332 35.089 19.7593 34.3957C16.4853 33.7024 13.6736 24.9975 13.6736 24.9975L8.74341 30.6596C9.59078 35.2431 11.8248 39.2103 15.0217 40.7125Z" fill="url(#paint8_linear_147_4347)"/>
<path opacity="0.5" d="M20.5296 41.2901C22.1858 39.4413 27.1545 34.3956 32.4699 33.2786C38.9793 31.9305 39.7881 32.5082 39.7881 32.5082C40.8281 31.4298 41.1748 30.5439 40.7896 29.9661C40.5585 29.6195 39.48 29.6965 37.8623 30.1202C33.1632 31.3142 24.0732 35.1274 19.5667 38.0932C19.1045 38.4014 18.6808 38.7095 18.3341 38.9791C18.3341 38.9791 18.2956 38.9791 18.2956 39.0176C17.5638 39.5954 17.0631 40.1346 16.9475 40.5583C16.909 40.6739 16.909 40.7509 16.909 40.8665C17.0245 41.5212 18.5267 41.5983 20.5296 41.2901Z" fill="url(#paint9_linear_147_4347)"/>
<path d="M18.5267 38.825C20.1445 39.4028 25.999 37.8621 29.0804 36.4755C34.6269 33.9719 37.5927 31.5453 37.9008 30.1587C32.8166 31.3912 22.494 35.8207 18.5267 38.825Z" fill="url(#paint10_linear_147_4347)"/>
<path d="M43.5243 22.5709C43.7939 25.4982 26.6538 34.3956 20.1444 32.0076C13.635 29.6195 11.2085 13.0186 21.1074 10.1298C30.544 7.39513 43.0236 17.294 43.5243 22.5709Z" fill="#DFE3FB"/>
<path d="M43.2932 22.1859C43.5629 25.1132 26.4228 34.0106 19.9134 31.6225C13.4425 29.273 10.9774 12.6336 20.8763 9.74484C30.313 7.01012 42.7925 16.909 43.2932 22.1859Z" fill="url(#paint11_linear_147_4347)"/>
<path d="M12.2484 16.1001C12.2484 16.1001 16.6009 24.6124 12.3255 29.8122C12.3255 29.8122 9.74483 31.1218 7.54935 30.0818C7.54935 30.0818 10.8618 31.4299 12.5181 28.0789C14.1743 24.728 11.0544 18.4112 8.3197 16.986C5.54647 15.5994 2.96582 17.2171 2.96582 17.2171L3.69765 15.792C3.69765 15.8305 7.51084 13.4039 12.2484 16.1001Z" fill="url(#paint12_linear_147_4347)"/>
<path d="M3.69763 15.8305C3.69763 15.8305 6.62493 14.4053 10.0915 17.1015C13.7891 19.9903 14.598 27.116 12.2484 29.1188C9.86037 31.1603 3.08136 21.7236 3.08136 21.7236V16.9474C3.11988 16.9474 3.19691 16.2541 3.69763 15.8305Z" fill="url(#paint13_linear_147_4347)"/>
<path d="M3.15841 26.2686C4.31393 28.156 5.77757 29.5041 7.27974 30.1204L7.70343 30.2744C8.85894 30.6596 10.053 30.5826 11.1315 30.0048C14.675 28.1175 13.0958 22.571 11.5166 19.6822C9.6678 16.3698 5.85461 15.4068 3.5821 16.6009C0.885904 18.0645 0.885904 22.571 3.15841 26.2686Z" fill="url(#paint14_linear_147_4347)"/>
<path opacity="0.5" d="M34.0491 13.1342C33.8951 13.9046 29.8122 13.4424 26.2302 15.2912C22.6481 17.1015 19.9519 22.3398 16.7164 23.0716C14.1358 23.6494 13.9817 13.6735 19.8748 10.5151C25.768 7.31815 34.2417 12.3639 34.0491 13.1342Z" fill="url(#paint15_linear_147_4347)"/>
<path opacity="0.5" d="M39.7111 24.4968C39.7111 24.4968 35.4357 24.959 30.8137 27.3471C26.2302 29.7352 25.6524 30.544 25.922 30.9677C26.1916 31.3914 30.0433 30.9677 34.2417 28.8107C38.4786 26.6153 39.7111 24.4968 39.7111 24.4968Z" fill="url(#paint16_linear_147_4347)"/>
<path opacity="0.5" d="M42.8696 21.5694C42.8696 21.5694 42.0607 17.9873 37.169 14.4052C37.169 14.4052 36.2061 13.9045 36.0135 14.2897C35.8209 14.6363 40.2119 16.9474 42.8696 21.5694Z" fill="url(#paint17_linear_147_4347)"/>
<path opacity="0.72" d="M12.5566 24.1887C12.5566 24.1887 13.4039 27.6167 11.2855 29.273C9.12854 30.8907 6.50938 29.8893 4.93018 27.6553C4.93018 27.6553 6.50938 29.5041 9.43668 27.7708C12.364 26.0375 12.5566 24.1887 12.5566 24.1887Z" fill="url(#paint18_linear_147_4347)"/>
<path opacity="0.72" d="M9.74482 18.1414C9.9374 18.7577 5.00721 19.1813 3.69763 19.9132C2.34953 20.645 2.42657 22.6094 2.15695 22.6479C1.92585 22.6864 0.962919 18.411 3.50505 17.1014C6.00866 15.8304 9.59075 17.7177 9.74482 18.1414Z" fill="url(#paint19_linear_147_4347)"/>
<path d="M34.7424 20.0674C34.7424 20.0674 30.2744 22.5325 27.5397 22.8406C27.5397 22.8406 30.313 26.5768 33.1632 25.4598C36.052 24.3813 34.7424 20.0674 34.7424 20.0674Z" fill="#2F95CD"/>
<path d="M23.4569 54.1936C24.2658 60.4719 27.5397 63.4377 33.8565 63.8999C40.0578 64.3621 44.4487 58.0068 43.1391 49.9567C42.3303 44.8339 41.2133 40.2119 38.8252 37.2075C37.4771 35.5128 35.7053 34.3187 33.3173 33.818C31.4299 33.4329 29.7737 34.3187 28.3871 35.9365C24.728 40.1348 22.8406 49.3789 23.4569 54.1936Z" fill="url(#paint20_linear_147_4347)"/>
<path opacity="0.3" d="M32.7781 40.597C32.7781 40.597 28.9649 46.9908 28.9264 50.2262C28.8493 61.1651 33.818 63.8998 33.818 63.8998C33.818 63.8998 29.3886 63.5531 27.5398 61.9354C25.5369 60.1636 22.9177 56.9282 23.3799 50.1877C23.7266 44.8723 26.3457 39.1333 26.3457 39.1333L32.7781 40.597Z" fill="url(#paint21_linear_147_4347)"/>
<path d="M43.3318 50.0336C43.3318 50.0336 42.677 45.296 39.326 44.9878C35.3202 44.6412 32.0848 50.3032 31.9692 54.309C31.8537 58.3148 32.4314 62.1665 36.2061 62.6287C36.2446 62.6672 43.3318 63.0524 43.3318 50.0336Z" fill="url(#paint22_linear_147_4347)"/>
<path d="M43.2547 50.6113C43.2547 50.6113 42.5999 45.8737 39.2489 45.5656C35.2431 45.2189 32.0077 50.8424 31.8922 54.8867C31.7766 58.8925 32.3544 62.7442 36.129 63.2064C36.129 63.2064 43.2547 63.6301 43.2547 50.6113Z" fill="url(#paint23_radial_147_4347)"/>
<path opacity="0.5" d="M28.4642 35.8593C28.4642 35.8593 34.7425 38.9022 37.2846 38.8251C39.7497 38.7866 38.9408 37.2459 38.9023 37.1304C37.5542 35.4356 35.7824 34.2416 33.3944 33.7409C31.5455 33.3557 29.8508 34.2416 28.4642 35.8593Z" fill="url(#paint24_linear_147_4347)"/>
<path opacity="0.72" d="M42.8695 50.1492C42.2533 51.3817 40.52 49.5714 38.1319 49.7255C35.7439 49.8796 34.3572 51.4202 33.7025 50.9195C33.0862 50.4188 35.5898 45.9123 39.2104 46.0664C42.1377 46.1434 43.0621 49.7255 42.8695 50.1492Z" fill="url(#paint25_linear_147_4347)"/>
<path opacity="0.72" d="M39.2104 61.5117C39.2104 61.5117 38.0935 62.7442 36.4757 62.6672C34.858 62.5901 34.3958 61.5117 34.3958 61.5117C34.3958 61.5117 35.1662 61.165 36.2831 61.5502C37.4001 61.9739 38.4401 61.8583 39.2104 61.5117Z" fill="url(#paint26_linear_147_4347)"/>
<path d="M32.3159 40.0576C32.701 40.0961 33.0092 43.8323 32.701 43.9478C32.3929 44.0249 32.0463 43.216 31.8537 41.9835C31.6611 40.7509 31.9307 40.0191 32.3159 40.0576Z" fill="white"/>
<path d="M29.7352 41.9064C29.3115 43.9478 28.1945 46.2203 27.2316 47.1833C26.885 47.5299 26.5768 47.684 26.3072 47.6455C25.2672 47.4914 24.651 44.6026 26.0376 41.059C27.1931 38.1317 28.7723 37.0147 29.3501 37.2073C29.6197 37.2844 29.8893 37.708 30.0048 38.5939C30.0819 39.3258 30.0434 40.4042 29.7352 41.9064Z" fill="url(#paint27_linear_147_4347)"/>
<path d="M29.7352 41.9065C29.3115 43.9479 28.1945 46.2204 27.2316 47.1833C27.2316 47.1833 25.8835 40.4043 30.0048 38.594C30.0819 39.3258 30.0433 40.4043 29.7352 41.9065Z" fill="#6340A2"/>
<path opacity="0.5" d="M28.002 46.4515C28.002 46.4515 33.1247 48.647 37.5542 47.6455C41.9837 46.6441 41.8681 43.6398 41.8681 43.6398L41.56 42.5613L28.002 46.4515Z" fill="url(#paint28_linear_147_4347)"/>
<path d="M30.7752 59.0852C30.7752 59.0852 29.4271 70.2167 26.5768 71.0641C26.4998 71.1026 26.4228 71.1026 26.3457 71.1026C24.0732 71.3722 21.4926 60.2408 21.8392 56.3505C21.9163 55.3491 22.34 54.6943 22.9177 54.3091C24.9591 52.9225 29.2345 55.0024 30.7752 59.0852Z" fill="url(#paint29_linear_147_4347)"/>
<path d="M50.6885 36.5141C50.65 36.5526 50.6885 36.5141 50.6885 36.5141C39.0949 46.259 28.0019 46.4515 28.0019 46.4515C26.7309 44.025 27.3086 38.3244 28.5797 37.5156C28.6567 37.4771 28.6952 37.4385 28.7723 37.4385C35.975 35.7823 43.1006 33.5868 46.9138 32.3158H46.9524C48.339 31.8536 49.2634 31.5454 49.5715 31.4299L49.6871 31.3914C49.6871 31.3914 49.6871 31.3914 49.7256 31.4299C49.9182 31.5069 50.0722 31.5839 50.1878 31.738C51.2663 32.8935 50.6885 36.3215 50.6885 36.5141Z" fill="url(#paint30_linear_147_4347)"/>
<path d="M49.6485 31.4299C49.6485 31.4299 47.2605 33.3173 47.1064 35.6283C46.9523 37.9393 49.6871 37.4771 50.65 36.5527C50.65 36.5527 52.1521 32.1618 49.6485 31.4299Z" fill="url(#paint31_linear_147_4347)"/>
<path d="M80 26.2302C80 26.2302 79.8459 26.5383 79.6148 27.0005C78.0741 29.8123 75.0698 32.7396 74.9543 32.8551C65.402 36.8609 54.8869 38.8253 54.8869 38.8253C49.9567 29.8893 47.6456 18.8734 47.5301 18.2957V18.2571C60.8955 10.7078 73.298 8.16566 73.6832 8.08862C73.6832 8.08862 73.6832 8.12714 73.7217 8.12714C74.2609 8.97452 74.7617 10.0145 75.2624 11.1315V11.17C76.649 14.3669 77.8816 18.2957 78.7675 21.3385C79.4608 23.9962 79.923 25.922 80 26.2302Z" fill="url(#paint32_linear_147_4347)"/>
<path d="M80 26.23C80 26.23 79.846 26.5382 79.6149 27.0004C78.883 28.4255 77.1113 31.4684 74.9543 32.855C74.9543 32.855 72.027 20.3369 68.8301 12.0943L73.6832 8.16553C73.6832 8.16553 73.6832 8.20404 73.7217 8.20404C73.8758 8.43515 74.4536 9.51363 75.2624 11.2084V11.2469C76.3409 13.5194 77.7275 16.8319 78.806 20.6451C79.2682 22.3783 79.6919 24.2657 80 26.23Z" fill="url(#paint33_linear_147_4347)"/>
<path d="M47.4916 18.2955C47.4916 18.2955 60.1252 13.4038 68.7915 12.0942L73.6447 8.12695C73.6832 8.12695 55.6957 11.555 47.4916 18.2955Z" fill="url(#paint34_linear_147_4347)"/>
<path d="M33.741 17.371C33.0862 17.3325 32.8166 14.2126 33.9721 13.6349C35.1276 13.0571 37.5542 14.5978 37.6312 15.7148C37.6697 16.2155 36.3602 16.0999 35.7824 16.4081C35.0891 16.7547 34.3573 17.4095 33.741 17.371Z" fill="url(#paint35_linear_147_4347)"/>
<path opacity="0.5" d="M69.9086 31.4299L70.7559 31.8151L73.8758 28.6182L76.7261 27.1545L75.3009 26.3457L65.7102 20.0674L62.8214 22.4169L69.9086 31.4299Z" fill="url(#paint36_linear_147_4347)"/>
<path d="M25.3443 20.3754C25.922 19.3739 20.2215 17.2555 18.1416 19.0658C16.0617 20.8761 17.1016 23.4182 18.026 23.996C18.5653 24.3426 19.9134 22.7249 21.8007 21.9546C23.5725 21.1842 25.0361 20.9146 25.3443 20.3754Z" fill="url(#paint37_linear_147_4347)"/>
<path d="M65.2865 36.2445C65.2865 36.2445 58.0838 26.5381 56.5046 15.1756C56.5046 15.1756 59.3163 13.2498 64.131 10.5536L65.0169 10.2839L58.5075 14.5593C58.5075 14.5593 59.8556 24.4967 66.1339 36.1289L65.2865 36.2445Z" fill="url(#paint38_radial_147_4347)"/>
<path opacity="0.3" d="M30.7752 59.0852C30.7752 59.0852 29.4271 70.2167 26.5768 71.0641C29.0034 68.9071 30.5055 60.2793 26.5768 55.3491C25.4598 53.9625 23.6495 54.1936 22.9177 54.3091C24.9591 52.9225 29.2345 55.0024 30.7752 59.0852Z" fill="url(#paint39_linear_147_4347)"/>
<path opacity="0.5" d="M74.9543 32.8551C65.402 36.8609 54.8869 38.8253 54.8869 38.8253C49.9567 29.8893 47.6456 18.8734 47.5301 18.2957C47.6842 18.7964 49.9181 26.6153 52.2677 27.6553C54.6943 28.7338 59.3934 28.156 59.3934 28.156C59.3934 28.156 63.091 30.9293 67.9441 32.0463C72.7973 33.1633 74.9543 32.8551 74.9543 32.8551Z" fill="url(#paint40_linear_147_4347)"/>
<path opacity="0.3" d="M50.6885 36.5141C50.65 36.5526 50.6885 36.5141 50.6885 36.5141C39.0949 46.259 28.0019 46.4515 28.0019 46.4515C26.7309 44.025 27.3086 38.3244 28.5797 37.5156L28.7723 37.4385C28.6567 37.5926 26.2302 41.4058 28.5412 43.7168C30.8907 46.1049 43.1777 40.7125 45.2961 36.9378C47.4146 33.1631 46.7212 32.3928 46.7212 32.3928L46.9138 32.3158H46.9524L49.5715 31.4299L49.6871 31.3914C49.6871 31.3914 49.6871 31.3914 49.7256 31.4299C49.8026 31.4684 49.9952 31.5839 50.1878 31.738C50.9196 32.3543 51.9981 33.7794 50.6885 36.5141Z" fill="url(#paint41_linear_147_4347)"/>
<path d="M48.2234 34.5111C47.9153 36.8992 51.844 37.7851 54.6173 36.2059C57.3905 34.6267 58.546 32.5853 59.2008 31.0831C59.8171 29.5809 58.9697 27.2699 58.392 26.9233C57.8142 26.5766 52.1907 28.7336 51.2278 29.1958C48.2234 30.7365 48.416 33.1245 48.2234 34.5111Z" fill="url(#paint42_linear_147_4347)"/>
<path d="M48.493 32.4697C48.493 32.4697 55.6572 30.775 58.5075 27.0773C58.5075 27.0773 58.3919 26.5766 57.1594 26.9233L50.9196 29.1958C50.8811 29.1958 48.6086 30.8905 48.493 32.4697Z" fill="url(#paint43_linear_147_4347)"/>
<path d="M48.7626 32.0077C48.7626 32.0077 48.8397 30.2359 49.4174 29.0419C50.8426 26.1531 53.1536 25.1902 53.1536 25.1902C53.1536 25.1902 53.8469 25.845 54.001 26.6924C54.155 27.5397 52.2677 30.7366 52.2677 30.7366C52.2677 30.7366 50.4959 32.0462 48.7626 32.0077Z" fill="url(#paint44_linear_147_4347)"/>
<path opacity="0.5" d="M53.5002 28.3484L56.1579 29.1958C56.1579 29.1958 54.2321 30.3898 52.2677 30.7365L53.5002 28.3484Z" fill="url(#paint45_linear_147_4347)"/>
<path d="M67.8671 18.488L65.0939 19.1428L62.6288 21.6464L61.897 24.5737L69.3693 31.892L75.7246 25.9218L67.8671 18.488ZM65.9413 22.7634C65.5176 23.2256 64.7858 23.2256 64.3621 22.802C63.8999 22.3783 63.8999 21.6464 64.3621 21.2227C64.7858 20.7991 65.5176 20.7605 65.9413 21.2227C66.365 21.6079 66.365 22.3397 65.9413 22.7634Z" fill="url(#paint46_linear_147_4347)"/>
<path d="M58.5075 14.5593C58.5075 14.5593 62.0125 19.6821 64.0925 21.6464L64.7087 20.9531C64.7087 20.9531 61.6274 19.2198 58.8156 14.4822L60.5874 13.2112C60.5874 13.2112 58.469 14.3667 58.5075 14.5593Z" fill="url(#paint47_radial_147_4347)"/>
<path d="M26.3457 60.2021C25.922 60.1251 25.8065 63.8612 26.3457 64.2079C26.885 64.516 27.0005 60.3562 26.3457 60.2021Z" fill="white"/>
<path d="M30.5441 38.9406C30.6211 39.4028 33.6254 38.8636 33.6254 38.2473C33.6254 37.6311 30.467 38.4399 30.5441 38.9406Z" fill="white"/>
<path d="M34.1647 38.0163C34.0877 37.8238 35.2817 37.4771 35.4743 37.6312C35.6669 37.7852 35.2047 38.0549 34.8965 38.1704C34.5884 38.286 34.2417 38.1704 34.1647 38.0163Z" fill="white"/>
<path d="M50.2648 28.8108C49.6871 28.8878 50.727 27.1545 51.0737 27.1545C51.4588 27.1545 50.6885 28.7723 50.2648 28.8108Z" fill="white"/>
<path d="M43.871 58.8925C43.6013 59.0081 44.3332 60.3177 44.7568 60.048C45.142 59.7784 44.5257 58.6229 43.871 58.8925Z" fill="white"/>
<path d="M5.85461 26.3456C5.85461 26.3456 7.70343 26.1145 8.39674 28.5796C8.39674 28.5796 8.16564 33.972 11.5551 36.6682C14.4439 38.9792 21.5311 32.4313 21.5311 32.4313L21.8392 33.7024C21.8392 33.7024 16.3313 39.2103 12.7877 39.557C12.7877 39.557 10.3611 39.5955 8.35823 35.012C6.35534 30.4284 5.85461 26.3456 5.85461 26.3456Z" fill="url(#paint48_linear_147_4347)"/>
<path d="M21.4541 32.9706C21.4155 34.3573 23.611 34.0106 24.9591 33.1247C26.4613 32.1233 28.4642 29.5811 27.1931 28.2716C25.922 27.0005 21.5696 29.7352 21.4541 32.9706Z" fill="url(#paint49_linear_147_4347)"/>
<path d="M21.6851 33.0476C21.8392 33.3172 26.8079 29.3114 26.2301 28.31C25.6139 27.3471 20.5681 31.0062 21.6851 33.0476Z" fill="url(#paint50_linear_147_4347)"/>
<path d="M6.77899 29.6965C6.77899 29.6965 8.20412 34.8578 8.55078 34.8193C8.89743 34.8193 7.2412 29.7736 6.77899 29.6965Z" fill="url(#paint51_linear_147_4347)"/>
<path opacity="0.3" d="M80 26.23C80 26.23 79.846 26.5381 79.6148 27.0003C78.883 28.4255 77.1112 31.4683 74.9543 32.8549C75.0698 32.6624 78.3823 26.6537 78.729 21.4154C78.7675 21.1457 78.7675 20.8761 78.7675 20.645C79.2682 22.3783 79.6919 24.2656 80 26.23Z" fill="url(#paint52_linear_147_4347)"/>
<path opacity="0.72" d="M47.5301 18.334C47.5301 18.334 62.051 12.7105 66.7886 11.2468C71.5262 9.78319 73.6832 8.12695 73.6832 8.12695L68.83 12.0942C68.7915 12.0942 55.5416 14.6749 47.5301 18.334Z" fill="url(#paint53_linear_147_4347)"/>
</g>
<defs>
<radialGradient id="paint0_radial_147_4347" cx="0" cy="0" r="1" gradientUnits="userSpaceOnUse" gradientTransform="translate(34.777 76.438) scale(15.7101 3.4955)">
<stop stop-color="#BE9DEA"/>
<stop offset="0.3883" stop-color="#E0BFF5"/>
<stop offset="1" stop-color="white"/>
</radialGradient>
<linearGradient id="paint1_linear_147_4347" x1="42.1592" y1="64.3239" x2="44.2187" y2="56.6596" gradientUnits="userSpaceOnUse">
<stop stop-color="#CBC1F7"/>
<stop offset="1" stop-color="#E8DCF7"/>
</linearGradient>
<linearGradient id="paint2_linear_147_4347" x1="41.7653" y1="65.0173" x2="41.7653" y2="56.6799" gradientUnits="userSpaceOnUse">
<stop stop-color="#9D68C2"/>
<stop offset="1" stop-color="#CCEDFF"/>
</linearGradient>
<linearGradient id="paint3_linear_147_4347" x1="42.0358" y1="41.7307" x2="42.6876" y2="23.9207" gradientUnits="userSpaceOnUse">
<stop stop-color="#BE9DEA"/>
<stop offset="1" stop-color="#9E8CEF"/>
</linearGradient>
<linearGradient id="paint4_linear_147_4347" x1="33.965" y1="16.042" x2="28.7281" y2="7.66973" gradientUnits="userSpaceOnUse">
<stop stop-color="#45FFCD"/>
<stop offset="1" stop-color="#22E0FF"/>
</linearGradient>
<linearGradient id="paint5_linear_147_4347" x1="29.4114" y1="13.9871" x2="24.9409" y2="6.83991" gradientUnits="userSpaceOnUse">
<stop stop-color="#B9ACF4"/>
<stop offset="1" stop-color="#E1D1F5"/>
</linearGradient>
<linearGradient id="paint6_linear_147_4347" x1="34.1111" y1="37.4468" x2="13.91" y2="12.6642" gradientUnits="userSpaceOnUse">
<stop stop-color="#CBC1F7"/>
<stop offset="1" stop-color="#E8DCF7"/>
</linearGradient>
<linearGradient id="paint7_linear_147_4347" x1="40.2027" y1="28.9925" x2="18.125" y2="42.8021" gradientUnits="userSpaceOnUse">
<stop stop-color="#8879EA"/>
<stop offset="1" stop-color="#9E8CEF"/>
</linearGradient>
<linearGradient id="paint8_linear_147_4347" x1="32.2944" y1="37.7528" x2="21.3101" y2="20.192" gradientUnits="userSpaceOnUse">
<stop stop-color="#9D68C2"/>
<stop offset="1" stop-color="#CCEDFF"/>
</linearGradient>
<linearGradient id="paint9_linear_147_4347" x1="30.6432" y1="38.2623" x2="27.449" y2="33.1559" gradientUnits="userSpaceOnUse">
<stop stop-color="#8DA4E5"/>
<stop offset="1" stop-color="#755CBB"/>
</linearGradient>
<linearGradient id="paint10_linear_147_4347" x1="29.5323" y1="36.6003" x2="27.4628" y2="33.2308" gradientUnits="userSpaceOnUse">
<stop stop-color="#5E36CC"/>
<stop offset="1" stop-color="#6C4A96"/>
</linearGradient>
<linearGradient id="paint11_linear_147_4347" x1="33.1179" y1="30.0318" x2="20.3819" y2="9.6705" gradientUnits="userSpaceOnUse">
<stop stop-color="#0665BD"/>
<stop offset="1" stop-color="#1A1F77"/>
</linearGradient>
<linearGradient id="paint12_linear_147_4347" x1="12.4778" y1="29.7794" x2="6.69609" y2="14.5837" gradientUnits="userSpaceOnUse">
<stop stop-color="#B9ACF4"/>
<stop offset="1" stop-color="#E1D1F5"/>
</linearGradient>
<linearGradient id="paint13_linear_147_4347" x1="11.0943" y1="29.6453" x2="5.55898" y2="15.0971" gradientUnits="userSpaceOnUse">
<stop stop-color="#BE9DEA"/>
<stop offset="1" stop-color="#9E8CEF"/>
</linearGradient>
<linearGradient id="paint14_linear_147_4347" x1="10.1338" y1="30.4244" x2="4.70809" y2="16.1644" gradientUnits="userSpaceOnUse">
<stop stop-color="#45FFCD"/>
<stop offset="1" stop-color="#22E0FF"/>
</linearGradient>
<linearGradient id="paint15_linear_147_4347" x1="31.5279" y1="8.99494" x2="14.0288" y2="19.9407" gradientUnits="userSpaceOnUse">
<stop/>
<stop offset="1" stop-color="#6A9BFF"/>
</linearGradient>
<linearGradient id="paint16_linear_147_4347" x1="39.2879" y1="23.8042" x2="26.4644" y2="31.8253" gradientUnits="userSpaceOnUse">
<stop/>
<stop offset="1" stop-color="#6A9BFF"/>
</linearGradient>
<linearGradient id="paint17_linear_147_4347" x1="42.181" y1="21.9938" x2="36.9542" y2="13.6376" gradientUnits="userSpaceOnUse">
<stop/>
<stop offset="1" stop-color="#6A9BFF"/>
</linearGradient>
<linearGradient id="paint18_linear_147_4347" x1="10.2293" y1="29.8547" x2="8.64473" y2="25.6901" gradientUnits="userSpaceOnUse">
<stop stop-color="#D4E2FF"/>
<stop offset="1"/>
</linearGradient>
<linearGradient id="paint19_linear_147_4347" x1="9.43568" y1="17.3513" x2="1.2756" y2="20.4561" gradientUnits="userSpaceOnUse">
<stop/>
<stop offset="1" stop-color="#D4E2FF"/>
</linearGradient>
<linearGradient id="paint20_linear_147_4347" x1="33.7652" y1="63.959" x2="32.6689" y2="33.7113" gradientUnits="userSpaceOnUse">
<stop stop-color="#CBC1F7"/>
<stop offset="1" stop-color="#E8DCF7"/>
</linearGradient>
<linearGradient id="paint21_linear_147_4347" x1="28.0546" y1="63.3881" x2="30.1822" y2="39.4677" gradientUnits="userSpaceOnUse">
<stop stop-color="#9D68C2"/>
<stop offset="1" stop-color="#CCEDFF"/>
</linearGradient>
<linearGradient id="paint22_linear_147_4347" x1="43.0859" y1="54.2973" x2="32.0592" y2="53.3165" gradientUnits="userSpaceOnUse">
<stop stop-color="#BE9DEA"/>
<stop offset="1" stop-color="#9E8CEF"/>
</linearGradient>
<radialGradient id="paint23_radial_147_4347" cx="0" cy="0" r="1" gradientUnits="userSpaceOnUse" gradientTransform="translate(36.7545 60.4866) rotate(-174.917) scale(8.36612 11.1306)">
<stop stop-color="#45FFCD"/>
<stop offset="1" stop-color="#22E0FF"/>
</radialGradient>
<linearGradient id="paint24_linear_147_4347" x1="33.6088" y1="38.5423" x2="34.0312" y2="33.7925" gradientUnits="userSpaceOnUse">
<stop stop-color="#8DA4E5"/>
<stop offset="1" stop-color="#755CBB"/>
</linearGradient>
<linearGradient id="paint25_linear_147_4347" x1="42.9706" y1="49.0916" x2="33.8213" y2="48.2778" gradientUnits="userSpaceOnUse">
<stop/>
<stop offset="1" stop-color="#D4E2FF"/>
</linearGradient>
<linearGradient id="paint26_linear_147_4347" x1="36.691" y1="62.7132" x2="36.8161" y2="61.3076" gradientUnits="userSpaceOnUse">
<stop stop-color="#D4E2FF"/>
<stop offset="1"/>
</linearGradient>
<linearGradient id="paint27_linear_147_4347" x1="29.7729" y1="42.5992" x2="25.432" y2="42.2133" gradientUnits="userSpaceOnUse">
<stop stop-color="#8879EA"/>
<stop offset="1" stop-color="#9E8CEF"/>
</linearGradient>
<linearGradient id="paint28_linear_147_4347" x1="34.9122" y1="47.9202" x2="34.9122" y2="42.5656" gradientUnits="userSpaceOnUse">
<stop stop-color="#8DA4E5"/>
<stop offset="1" stop-color="#755CBB"/>
</linearGradient>
<linearGradient id="paint29_linear_147_4347" x1="23.1527" y1="70.3108" x2="27.3931" y2="54.5302" gradientUnits="userSpaceOnUse">
<stop stop-color="#CBC1F7"/>
<stop offset="1" stop-color="#E8DCF7"/>
</linearGradient>
<linearGradient id="paint30_linear_147_4347" x1="36.2668" y1="48.6776" x2="41.4949" y2="29.2208" gradientUnits="userSpaceOnUse">
<stop stop-color="#CBC1F7"/>
<stop offset="1" stop-color="#E8DCF7"/>
</linearGradient>
<linearGradient id="paint31_linear_147_4347" x1="51.0721" y1="34.5247" x2="47.2356" y2="34.1837" gradientUnits="userSpaceOnUse">
<stop stop-color="#8879EA"/>
<stop offset="1" stop-color="#9E8CEF"/>
</linearGradient>
<linearGradient id="paint32_linear_147_4347" x1="60.2407" y1="39.9162" x2="66.834" y2="6.78212" gradientUnits="userSpaceOnUse">
<stop stop-color="#D93DE3"/>
<stop offset="1" stop-color="#DB63C3"/>
</linearGradient>
<linearGradient id="paint33_linear_147_4347" x1="77.0692" y1="32.4435" x2="72.2885" y2="8.41855" gradientUnits="userSpaceOnUse">
<stop stop-color="#A242EA"/>
<stop offset="1" stop-color="#FE117E"/>
</linearGradient>
<linearGradient id="paint34_linear_147_4347" x1="61.0654" y1="15.6013" x2="60.1182" y2="10.8415" gradientUnits="userSpaceOnUse">
<stop stop-color="#E88AEE"/>
<stop offset="1" stop-color="#FF6DBA"/>
</linearGradient>
<linearGradient id="paint35_linear_147_4347" x1="35.6406" y1="17.0109" x2="34.9137" y2="13.4168" gradientUnits="userSpaceOnUse">
<stop stop-color="#45FFCD"/>
<stop offset="1" stop-color="#22E0FF"/>
</linearGradient>
<linearGradient id="paint36_linear_147_4347" x1="69.7823" y1="31.8253" x2="69.7823" y2="20.0767" gradientUnits="userSpaceOnUse">
<stop stop-color="#9D68C2"/>
<stop offset="1" stop-color="#CCEDFF"/>
</linearGradient>
<linearGradient id="paint37_linear_147_4347" x1="21.6282" y1="23.3263" x2="20.593" y2="18.2079" gradientUnits="userSpaceOnUse">
<stop stop-color="#45FFCD"/>
<stop offset="1" stop-color="#22E0FF"/>
</linearGradient>
<radialGradient id="paint38_radial_147_4347" cx="0" cy="0" r="1" gradientUnits="userSpaceOnUse" gradientTransform="translate(61.3279 23.2756) scale(9.79651 9.79651)">
<stop stop-color="#45FFCD"/>
<stop offset="1" stop-color="#22E0FF"/>
</radialGradient>
<linearGradient id="paint39_linear_147_4347" x1="26.8444" y1="71.0723" x2="26.8444" y2="53.8859" gradientUnits="userSpaceOnUse">
<stop stop-color="#9D68C2"/>
<stop offset="1" stop-color="#CCEDFF"/>
</linearGradient>
<linearGradient id="paint40_linear_147_4347" x1="58.4498" y1="39.5598" x2="62.0983" y2="21.2248" gradientUnits="userSpaceOnUse">
<stop stop-color="#9D68C2"/>
<stop offset="1" stop-color="#CCEDFF"/>
</linearGradient>
<linearGradient id="paint41_linear_147_4347" x1="39.2863" y1="46.4521" x2="39.2863" y2="31.4112" gradientUnits="userSpaceOnUse">
<stop stop-color="#9D68C2"/>
<stop offset="1" stop-color="#CCEDFF"/>
</linearGradient>
<linearGradient id="paint42_linear_147_4347" x1="52.3285" y1="37.4188" x2="55.3622" y2="26.1285" gradientUnits="userSpaceOnUse">
<stop stop-color="#CBC1F7"/>
<stop offset="1" stop-color="#E8DCF7"/>
</linearGradient>
<linearGradient id="paint43_linear_147_4347" x1="57.7882" y1="26.0793" x2="48.7089" y2="32.7491" gradientUnits="userSpaceOnUse">
<stop stop-color="#BE9DEA"/>
<stop offset="1" stop-color="#9E8CEF"/>
</linearGradient>
<linearGradient id="paint44_linear_147_4347" x1="50.4597" y1="32.4692" x2="52.4609" y2="25.0216" gradientUnits="userSpaceOnUse">
<stop stop-color="#CBC1F7"/>
<stop offset="1" stop-color="#E8DCF7"/>
</linearGradient>
<linearGradient id="paint45_linear_147_4347" x1="55.4989" y1="28.2794" x2="52.2345" y2="30.6774" gradientUnits="userSpaceOnUse">
<stop stop-color="#8DA4E5"/>
<stop offset="1" stop-color="#755CBB"/>
</linearGradient>
<linearGradient id="paint46_linear_147_4347" x1="72.6634" y1="29.0499" x2="63.8533" y2="20.4431" gradientUnits="userSpaceOnUse">
<stop stop-color="#CBC1F7"/>
<stop offset="1" stop-color="#E8DCF7"/>
</linearGradient>
<radialGradient id="paint47_radial_147_4347" cx="0" cy="0" r="1" gradientUnits="userSpaceOnUse" gradientTransform="translate(61.6076 17.4448) scale(3.70199 3.70199)">
<stop stop-color="#45FFCD"/>
<stop offset="1" stop-color="#22E0FF"/>
</radialGradient>
<linearGradient id="paint48_linear_147_4347" x1="17.2536" y1="37.5106" x2="8.96129" y2="24.3887" gradientUnits="userSpaceOnUse">
<stop stop-color="#BE9DEA"/>
<stop offset="1" stop-color="#9E8CEF"/>
</linearGradient>
<linearGradient id="paint49_linear_147_4347" x1="25.4472" y1="32.9262" x2="23.5187" y2="29.0068" gradientUnits="userSpaceOnUse">
<stop stop-color="#DD1A8F"/>
<stop offset="1" stop-color="#FE117E"/>
</linearGradient>
<linearGradient id="paint50_linear_147_4347" x1="24.3114" y1="31.1212" x2="23.133" y2="29.6892" gradientUnits="userSpaceOnUse">
<stop stop-color="#D93DE3"/>
<stop offset="1" stop-color="#FF6DBA"/>
</linearGradient>
<linearGradient id="paint51_linear_147_4347" x1="9.45089" y1="33.4887" x2="5.85364" y2="31.0667" gradientUnits="userSpaceOnUse">
<stop stop-color="#CBC1F7"/>
<stop offset="1" stop-color="#E8DCF7"/>
</linearGradient>
<linearGradient id="paint52_linear_147_4347" x1="76.7399" y1="33.2204" x2="79.228" y2="20.7168" gradientUnits="userSpaceOnUse">
<stop stop-color="#9D68C2"/>
<stop offset="1" stop-color="#CCEDFF"/>
</linearGradient>
<linearGradient id="paint53_linear_147_4347" x1="47.5165" y1="13.2337" x2="73.6745" y2="13.2337" gradientUnits="userSpaceOnUse">
<stop/>
<stop offset="1" stop-color="#9295BB"/>
</linearGradient>
<clipPath id="clip0_147_4347">
<rect width="80" height="79.923" fill="white"/>
</clipPath>
</defs>
</svg>
