<svg width="47" height="48" viewBox="0 0 80 80" fill="none" xmlns="http://www.w3.org/2000/svg">
<g clip-path="url(#clip0_147_5138)">
<path d="M15.743 6.74962C1.05461 11.4668 -4.31452 34.554 6.38538 46.9797C17.0853 59.4054 30.8533 57.9864 38.8686 63.3172C48.8782 69.9903 58.8878 71.5243 66.8264 58.1398C77.7564 39.6931 39.8274 -0.958916 15.743 6.74962Z" fill="#E5F6FF"/>
<path d="M73.1543 32.6748C71.8887 32.5597 70.5465 32.7131 69.3576 33.1734C69.1658 33.2501 68.9741 33.3268 68.8207 33.4802C68.5522 33.7486 68.5139 34.2088 68.5906 34.6307C68.8207 35.5895 69.7027 36.3181 70.6999 36.4332C71.6586 36.5482 72.6941 36.088 73.3077 35.3594C73.6529 34.9375 73.9213 34.4389 73.883 33.902C73.8446 33.3651 73.4228 32.8282 72.8859 32.8282C72.7708 32.9433 72.8475 33.2117 73.0393 33.2117L73.1543 32.6748Z" fill="#E5F6FF"/>
<path d="M15.2827 6.13598C14.0172 6.02092 12.6749 6.17433 11.486 6.63454C11.2942 6.71124 11.1025 6.78794 10.9491 6.94135C10.6806 7.2098 10.6423 7.67001 10.719 8.09187C10.9491 9.05065 11.8312 9.77931 12.8283 9.89437C13.7871 10.0094 14.8225 9.54921 15.4361 8.82054C15.7813 8.39868 16.0498 7.90012 16.0114 7.36321C15.9731 6.82629 15.5512 6.28938 15.0143 6.28938C14.8992 6.40443 14.9759 6.67289 15.1677 6.67289L15.2827 6.13598Z" fill="#E5F6FF"/>
<path d="M70.2013 35.3595C69.8178 35.0143 69.2425 34.8609 68.744 35.0143C68.6289 35.5129 68.7056 36.1265 69.0508 36.51C69.3959 36.8935 70.0862 36.9702 70.4698 36.5867C70.8149 36.2032 70.5465 35.3978 70.0479 35.4362L70.2013 35.3595Z" fill="#E5F6FF"/>
<path d="M65.5224 35.858C65.484 35.6279 65.2923 35.3978 65.1005 35.2827C65.0622 35.3594 64.9855 35.4745 64.9855 35.5895C64.9855 35.7046 65.0238 35.8196 65.1005 35.858C65.2156 35.9347 65.4073 35.858 65.5224 35.7429C65.5224 35.7813 65.5224 35.8196 65.484 35.858H65.5224Z" fill="#E5F6FF"/>
<path d="M66.4428 35.5511C66.5195 35.5511 66.5962 35.5511 66.6729 35.5511C66.5962 35.7045 66.3661 35.7812 66.1744 35.7812C66.0593 35.7812 65.9443 35.7812 65.9059 35.7045C65.8676 35.6278 65.9059 35.5511 65.9059 35.4744C65.9059 35.321 65.7525 35.1676 65.8292 35.0526C65.8676 34.9759 65.9826 34.9759 66.0593 35.0142C66.136 35.0526 66.1744 35.1293 66.2127 35.206C66.3278 35.3594 66.4045 35.5128 66.5195 35.6662L66.4428 35.5511Z" fill="#E5F6FF"/>
<path opacity="0.5" d="M54.2857 38.1973C54.1706 38.1206 54.0172 38.3124 54.0556 38.4658C54.0939 38.6192 54.2857 38.6575 54.4391 38.7342C54.5541 38.5425 54.5158 38.3124 54.3624 38.1206L54.2857 38.1973Z" fill="#E5F6FF"/>
<path d="M54.8608 43.6815C54.8992 43.7198 54.8992 43.8349 54.8608 43.8732C54.8225 43.9116 54.7458 43.9499 54.6691 43.9499C54.6307 43.9499 54.5924 43.9499 54.554 43.9116C54.4773 43.8732 54.439 43.7198 54.5157 43.6431C54.5924 43.5664 54.7074 43.5664 54.7841 43.6048C54.8608 43.6815 54.8992 43.7965 54.8225 43.8732L54.8608 43.6815Z" fill="#E5F6FF"/>
<path d="M64.3718 37.8523C64.5252 37.7756 64.4869 37.5455 64.3335 37.4688C64.2568 37.5071 64.2184 37.5838 64.1801 37.6605C64.1417 37.7372 64.1801 37.8139 64.2568 37.8906C64.3335 37.929 64.4485 37.8906 64.4485 37.8139L64.3718 37.8523Z" fill="#E5F6FF"/>
<path d="M67.1716 35.7813C67.2099 35.5895 67.1332 35.3978 66.9798 35.2827C66.8648 35.3978 66.7881 35.5128 66.673 35.6279C66.6347 35.6662 66.5963 35.7429 66.558 35.8196C66.5196 35.973 66.673 36.0881 66.8264 36.0881C66.9798 36.0497 67.0949 35.9347 67.1716 35.7813Z" fill="#E5F6FF"/>
<path opacity="0.5" d="M56.3182 42.1859C56.2798 42.2242 56.2415 42.2626 56.2031 42.3009C56.2415 42.3776 56.3182 42.4543 56.3949 42.416C56.4716 42.416 56.5483 42.3009 56.5099 42.2242C56.5099 42.1475 56.3949 42.1092 56.3182 42.1859Z" fill="#E5F6FF"/>
<path d="M65.1389 37.0468C65.1772 37.1618 65.2923 37.1618 65.369 37.0851C65.4457 37.0084 65.4841 36.9317 65.5608 36.855C65.6375 36.7783 65.7525 36.74 65.8292 36.74C65.9059 36.74 65.9443 36.7783 65.9826 36.8167C65.9826 36.855 65.9826 36.8934 65.9826 36.9317C65.9443 37.1235 65.9059 37.3153 65.7525 37.4687C65.6375 37.6221 65.4074 37.6988 65.2156 37.6221C65.1006 37.5837 64.9855 37.4687 64.9471 37.3153C64.9855 37.2386 65.0622 37.0851 65.1389 37.0468Z" fill="#E5F6FF"/>
<path d="M65.2156 34.3622C65.2156 34.2471 65.1005 34.1321 64.9855 34.1321C64.8704 34.1321 64.7554 34.2088 64.6787 34.3238C64.6403 34.3622 64.6403 34.4389 64.6787 34.4772C64.717 34.5156 64.7554 34.4772 64.7937 34.4772C64.9471 34.4389 65.1005 34.4005 65.2156 34.3622Z" fill="#E5F6FF"/>
<path d="M59.6163 36.2032C59.7314 36.4333 59.5396 36.7401 59.3095 36.7784C59.2328 36.5867 59.1945 36.3949 59.2328 36.2032C59.2712 36.0114 59.5013 35.858 59.693 35.9347C59.7314 36.0498 59.7697 36.1265 59.8464 36.2415L59.6163 36.2032Z" fill="#E5F6FF"/>
<path d="M79.0987 32.6365C79.1371 32.5982 79.2138 32.6365 79.2521 32.7132C79.2521 32.7516 79.2521 32.8283 79.2138 32.8666C79.2138 32.905 79.1754 32.9433 79.1371 32.9817C79.0604 33.0584 78.9453 33.02 78.8686 32.9817C78.7919 32.9433 78.7536 32.8283 78.7919 32.7132C78.7919 32.6749 78.8303 32.6365 78.8686 32.5982C78.907 32.5598 78.9837 32.5982 78.9837 32.6365H79.0987Z" fill="#E5F6FF"/>
<path d="M63.068 37.3153C63.0297 37.2769 62.9913 37.2386 62.953 37.2002C62.8763 37.2386 62.8379 37.3153 62.7996 37.392C62.7996 37.4687 62.8763 37.5837 62.953 37.507C62.9913 37.507 62.9913 37.4687 62.9913 37.4303C63.0297 37.3536 63.068 37.2386 63.1447 37.1619L63.068 37.3153Z" fill="#E5F6FF"/>
<path d="M60.4217 38.389C60.3067 38.3123 60.1916 38.2739 60.0766 38.2356C59.9615 38.2356 59.8081 38.2739 59.7314 38.389C59.693 38.4657 59.693 38.5041 59.7314 38.5808C59.7698 38.7725 59.9999 38.8876 60.1916 38.8492C60.3834 38.8109 60.4984 38.5808 60.4217 38.389Z" fill="#E5F6FF"/>
<path d="M59.1945 37.7754C59.1178 37.7754 59.0027 37.7754 58.926 37.8137C58.926 37.8904 58.926 37.9671 58.926 38.0055C59.0411 38.0438 59.1945 37.9671 59.2328 37.8521L59.1945 37.7754Z" fill="#E5F6FF"/>
<path d="M63.3748 30.3354C62.8762 30.4889 62.4544 30.7957 62.0709 31.1408C61.9942 31.2175 61.9558 31.2559 61.9175 31.3326C61.8791 31.486 61.9175 31.6394 62.0325 31.7928C62.2626 32.0996 62.7228 32.2146 63.1063 32.0996C63.4898 31.9845 63.7583 31.6394 63.8734 31.2559C63.9501 31.0641 63.9501 30.7957 63.835 30.6423C63.72 30.4505 63.4898 30.3355 63.2981 30.4122C63.2597 30.4889 63.3364 30.5656 63.4131 30.5272L63.3748 30.3354Z" fill="#E5F6FF"/>
<path d="M69.3575 39.1944C69.1658 39.041 68.8973 38.9643 68.6672 39.0027C68.6672 39.1177 68.7056 39.2328 68.7439 39.3095C68.7823 39.3862 68.8973 39.4629 69.0124 39.4629C69.1658 39.4246 69.2425 39.2712 69.2808 39.1177C69.2808 39.1561 69.3192 39.1944 69.3192 39.2328L69.3575 39.1944Z" fill="#E5F6FF"/>
<path d="M67.9002 40.1916C67.8235 40.1916 67.7468 40.1533 67.7084 40.1916C67.6317 40.23 67.5933 40.2683 67.555 40.345C67.4399 40.4984 67.3249 40.6518 67.2098 40.7669C67.5166 40.7285 67.8235 40.6902 68.1303 40.6518C68.1686 40.6518 68.1686 40.6518 68.207 40.6518C68.2837 40.6902 68.2837 40.8052 68.3604 40.8436C68.4371 40.9203 68.5905 40.8819 68.7055 40.8436C69.4342 40.4217 68.2453 40.2683 67.9002 40.1916Z" fill="#E5F6FF"/>
<path d="M70.6231 38.1591C70.5464 38.0057 70.3546 37.8906 70.1629 37.8523C70.1629 38.0057 70.1629 38.1591 70.1245 38.3125C70.1245 38.3892 70.1245 38.4659 70.1629 38.5043C70.2396 38.6193 70.4313 38.6577 70.508 38.5426C70.6614 38.4659 70.6998 38.3125 70.6231 38.1591Z" fill="#E5F6FF"/>
<path d="M68.207 38.1589C68.1303 38.0439 67.9769 38.0439 67.8619 38.1206C67.7468 38.1973 67.7085 38.3124 67.7468 38.4658C67.7468 38.5041 67.7852 38.5808 67.8235 38.5808C67.8619 38.5808 67.9002 38.5425 67.9002 38.5425C68.0153 38.4274 68.092 38.3123 68.207 38.1973V38.1589Z" fill="#E5F6FF"/>
<path d="M68.4754 36.0113C68.3604 35.9346 68.2453 35.8963 68.1303 35.8579C68.0152 35.8579 67.8618 35.8963 67.7851 36.0113C67.7468 36.088 67.7468 36.1264 67.7851 36.2031C67.8235 36.3948 68.0536 36.5099 68.2453 36.4715C68.3987 36.4332 68.5138 36.2031 68.4754 36.0113Z" fill="#E5F6FF"/>
<path d="M61.9174 35.0143C61.8024 35.091 61.8407 35.2444 61.879 35.3978C61.9174 35.5128 61.9558 35.6662 61.879 35.7813C61.8407 35.8196 61.8023 35.8196 61.8023 35.8196C61.7256 35.8196 61.6873 35.6662 61.6873 35.5895C61.6489 35.5128 61.6106 35.4745 61.5722 35.3978C61.4572 35.2444 61.4955 35.0526 61.5722 34.8992C61.6489 34.8609 61.764 34.8609 61.8407 34.9376C61.9174 35.0143 61.9558 35.091 61.9174 35.206V35.0143Z" fill="#E5F6FF"/>
<path d="M59.8848 37.6222C59.7698 37.6989 59.8081 37.8523 59.8465 38.0057C59.8848 38.1207 59.9232 38.2741 59.8465 38.3892C59.8081 38.4275 59.7698 38.4275 59.7698 38.4275C59.6931 38.4275 59.6547 38.2741 59.6547 38.1974C59.6164 38.1207 59.578 38.0824 59.5397 38.0057C59.4246 37.8523 59.463 37.6605 59.5397 37.5071C59.6164 37.4688 59.7314 37.4688 59.8081 37.5455C59.8848 37.6222 59.9232 37.6989 59.8848 37.8139V37.6222Z" fill="#E5F6FF"/>
<path d="M57.4304 37.7754C57.3154 37.7754 57.2003 37.7754 57.1236 37.8137C57.1236 37.8137 57.0853 37.8137 57.0853 37.8521C57.0469 37.8904 57.0469 37.9288 57.0853 37.9288C57.1236 38.0055 57.2003 38.0822 57.277 38.0822C57.3537 38.0822 57.4304 38.0438 57.5071 37.9671C57.5455 37.9288 57.5455 37.8904 57.5455 37.8521C57.4688 37.8137 57.4304 37.7754 57.4304 37.7754C57.3921 37.7754 57.3921 37.8137 57.4304 37.8137V37.7754Z" fill="#E5F6FF"/>
<path d="M72.8858 35.1293C72.694 34.9759 72.4255 34.8992 72.1954 34.9375C72.1954 35.0526 72.2338 35.1676 72.2721 35.2443C72.3105 35.321 72.4255 35.3977 72.5406 35.3977C72.694 35.3594 72.7707 35.206 72.809 35.0526C72.809 35.0909 72.8474 35.1293 72.8474 35.1676L72.8858 35.1293Z" fill="#E5F6FF"/>
<path d="M73.1926 37.4304C73.2694 37.277 73.116 37.1236 72.9625 37.162C72.9242 37.2387 72.9242 37.3154 72.9242 37.3921C72.9625 37.4688 73.0009 37.5455 73.1159 37.5455C73.1927 37.5455 73.2694 37.4304 73.231 37.3537L73.1926 37.4304Z" fill="#E5F6FF"/>
<path d="M69.2041 36.4331C69.2808 36.2797 69.1274 36.1263 68.974 36.1647C68.9357 36.2414 68.9357 36.3181 68.9357 36.3948C68.974 36.4715 69.0124 36.5482 69.1274 36.5482C69.2041 36.5482 69.2808 36.4331 69.2425 36.3564L69.2041 36.4331Z" fill="#E5F6FF"/>
<path d="M73.3076 36.3182C73.3843 36.3949 73.4994 36.3182 73.5378 36.2031C73.5761 36.0881 73.5378 36.0114 73.5378 35.8963C73.5378 35.7813 73.6145 35.7046 73.6912 35.6662C73.7295 35.6279 73.8062 35.6279 73.8446 35.6662C73.8829 35.7046 73.8829 35.7046 73.9213 35.7429C73.998 35.9347 74.0747 36.1264 74.0747 36.3182C74.0747 36.5099 73.9213 36.7017 73.7679 36.7784C73.6528 36.8167 73.4994 36.7784 73.3843 36.7017C73.3076 36.5483 73.2693 36.3949 73.3076 36.3182Z" fill="#E5F6FF"/>
<path d="M61.649 36.3565C61.7257 36.4332 61.8407 36.3565 61.8791 36.2415C61.9174 36.1264 61.8791 36.0497 61.8791 35.9346C61.8791 35.8196 61.9558 35.7429 62.0325 35.7045C62.0708 35.6662 62.1475 35.6662 62.1859 35.7045C62.2242 35.7429 62.2242 35.7429 62.2626 35.7812C62.3393 35.973 62.416 36.1648 62.416 36.3565C62.416 36.5483 62.2626 36.74 62.1092 36.8167C61.9941 36.8551 61.8407 36.8167 61.7257 36.74C61.649 36.5866 61.6106 36.4332 61.649 36.3565Z" fill="#E5F6FF"/>
<path d="M61.4572 35.0526C61.5339 35.1293 61.6489 35.0526 61.6873 34.9375C61.7256 34.8224 61.6873 34.7457 61.6873 34.6307C61.6873 34.5156 61.764 34.4389 61.8407 34.4006C61.879 34.3622 61.9557 34.3622 61.9941 34.4006C62.0324 34.4389 62.0324 34.4389 62.0708 34.4773C62.1475 34.669 62.2242 34.8608 62.2242 35.0526C62.2242 35.2443 62.0708 35.4361 61.9174 35.5128C61.8023 35.5511 61.6489 35.5128 61.5339 35.4361C61.4572 35.321 61.3805 35.1676 61.4572 35.0526Z" fill="#E5F6FF"/>
<path d="M63.4514 35.1675C63.5281 35.2442 63.6432 35.1675 63.6816 35.0525C63.7199 34.9374 63.6816 34.8607 63.6816 34.7457C63.6816 34.6306 63.7583 34.5539 63.835 34.5156C63.8733 34.4772 63.95 34.4772 63.9884 34.5156C64.0267 34.5539 64.0267 34.5539 64.0651 34.5923C64.1418 34.784 64.2185 34.9758 64.2185 35.1675C64.2185 35.3593 64.0651 35.5511 63.9117 35.6278C63.7966 35.6661 63.6432 35.6278 63.5281 35.5511C63.4514 35.3976 63.4131 35.2442 63.4514 35.1675Z" fill="#E5F6FF"/>
<path d="M59.8848 48.7437C59.9615 48.8204 60.0766 48.7437 60.1149 48.6287C60.1533 48.5136 60.1149 48.4369 60.1149 48.3219C60.1149 48.2068 60.1916 48.1301 60.2683 48.0918C60.3067 48.0534 60.3834 48.0534 60.4217 48.0918C60.4601 48.1301 60.4601 48.1301 60.4984 48.1685C60.5751 48.3602 60.6518 48.552 60.6518 48.7437C60.6518 48.9355 60.4984 49.1272 60.345 49.2039C60.23 49.2423 60.0766 49.2039 59.9615 49.1272C59.8848 48.9738 59.8081 48.8204 59.8848 48.7437Z" fill="#E5F6FF"/>
<path d="M71.8119 37.7755C71.7736 37.7755 71.6969 37.7755 71.6585 37.7755C71.6202 37.8522 71.6202 37.9289 71.6585 38.0056C71.6969 38.0823 71.8119 38.0823 71.8503 38.0056C71.8503 37.9672 71.8503 37.9289 71.8503 37.9289C71.8503 37.8138 71.8119 37.7371 71.8119 37.6221V37.7755Z" fill="#E5F6FF"/>
<path d="M62.5694 42.7994C62.4544 42.7227 62.3393 42.6843 62.2243 42.646C62.1092 42.646 61.9558 42.6843 61.8791 42.7994C61.8408 42.8761 61.8408 42.9145 61.8791 42.9912C61.9175 43.1829 62.1476 43.298 62.3393 43.2596C62.5311 43.2213 62.6078 42.9912 62.5694 42.7994Z" fill="#E5F6FF"/>
<path d="M69.626 34.3622C69.8177 34.3238 69.9711 34.5539 69.8944 34.7073C69.8177 34.7457 69.7027 34.784 69.5876 34.784C69.5493 34.669 69.5493 34.5539 69.5876 34.4389L69.626 34.3622Z" fill="#E5F6FF"/>
<path opacity="0.5" d="M60.997 42.1858C60.9203 42.1475 60.8436 42.1475 60.7669 42.1475C60.6902 42.1475 60.6135 42.1858 60.6135 42.2625C60.5751 42.3776 60.7285 42.4926 60.7285 42.6077C60.7669 42.7227 60.6902 42.8761 60.7285 42.9912C60.8052 43.1062 60.9586 43.0679 61.0353 42.9912C61.112 42.9145 61.1504 42.7611 61.1504 42.646C61.1504 42.531 61.1504 42.4159 61.112 42.3392C61.0737 42.2242 60.9586 42.1858 60.8436 42.2242L60.997 42.1858Z" fill="#E5F6FF"/>
<path d="M64.4869 36.3566C64.4102 35.8197 64.0267 35.3595 63.5282 35.1677C63.1063 35.5129 62.8378 36.0114 62.8762 36.5484C62.9145 37.0853 63.4515 37.5455 63.95 37.4688C64.4869 37.3537 64.717 36.5867 64.2952 36.2799L64.4869 36.3566Z" fill="#E5F6FF"/>
<path d="M69.5109 33.1351C69.5109 33.2118 69.4725 33.2885 69.3958 33.2885C69.3191 33.2885 69.2424 33.2885 69.2041 33.2118C69.1657 33.1735 69.1274 33.1735 69.1274 33.0968C69.089 33.0201 69.1657 32.905 69.2424 32.8666C69.3191 32.8283 69.4342 32.905 69.4725 32.9817C69.5109 33.0584 69.4342 33.1735 69.3575 33.2118L69.5109 33.1351Z" fill="#E5F6FF"/>
<path d="M67.0949 34.7458C67.0182 34.8609 67.0949 35.0143 67.1716 35.1294C67.2483 35.2444 67.325 35.3595 67.2866 35.4745C67.2866 35.5129 67.2483 35.5512 67.2099 35.5512C67.1332 35.5896 67.0565 35.4362 67.0182 35.3978C66.9798 35.3595 66.9031 35.3211 66.8264 35.2828C66.673 35.1677 66.6347 34.976 66.673 34.8226C66.7497 34.7459 66.8648 34.7458 66.9415 34.7458C67.0182 34.7842 67.0949 34.8609 67.0949 34.976V34.7458Z" fill="#E5F6FF"/>
<path d="M64.6404 38.1973C64.602 38.1973 64.5253 38.1973 64.487 38.2356C64.4486 38.3123 64.487 38.4274 64.5637 38.4657C64.6404 38.5041 64.7554 38.4657 64.7554 38.389C64.8321 38.3123 64.7554 38.1973 64.6404 38.1973Z" fill="#E5F6FF"/>
<path d="M67.0565 36.5098C67.0948 36.5098 67.1332 36.5865 67.1332 36.6633C67.1332 36.7016 67.0565 36.74 67.0181 36.7783C66.9798 36.8167 66.9414 36.8167 66.9031 36.8167C66.8264 36.8167 66.7113 36.74 66.7113 36.6633C66.673 36.5865 66.7113 36.4715 66.788 36.3948C66.8264 36.3564 66.8647 36.3564 66.9031 36.3564C66.9414 36.3564 66.9798 36.3948 66.9798 36.4331L67.0565 36.5098Z" fill="#E5F6FF"/>
<path d="M68.7822 40.5751C69.0507 40.1148 69.089 39.5396 68.8206 39.041C68.2837 39.041 67.7468 39.2328 67.4399 39.6546C67.1331 40.0765 67.2098 40.7668 67.6701 41.0353C68.1303 41.3037 68.8206 40.8819 68.7055 40.3449L68.7822 40.5751Z" fill="#E5F6FF"/>
<path d="M44.0842 68.763C44.3527 68.3028 44.391 67.7276 44.1226 67.229C43.5857 67.229 43.0488 67.4208 42.7419 67.8426C42.4351 68.2645 42.5118 68.9548 42.9721 69.2233C43.4323 69.4917 44.1226 69.0698 44.0075 68.5329L44.0842 68.763Z" fill="#E5F6FF"/>
<path d="M71.2367 37.2386C71.1217 37.1619 70.9683 37.3536 71.0066 37.507C71.0833 37.6604 71.2367 37.6988 71.3901 37.7755C71.5052 37.5837 71.4668 37.3536 71.3134 37.1619L71.2367 37.2386Z" fill="#E5F6FF"/>
<path d="M67.8235 32.7897C67.7851 32.7897 67.7084 32.7897 67.6701 32.8281C67.6317 32.9048 67.6701 33.0199 67.7468 33.0582C67.8235 33.0966 67.9385 33.0582 67.9385 32.9815C67.9769 32.8665 67.9385 32.7514 67.8235 32.7897Z" fill="#E5F6FF"/>
<path d="M67.8618 35.5894C67.3249 35.5127 66.7496 35.5894 66.2127 35.7428C66.136 35.7812 66.0593 35.8195 65.9826 35.8579C65.8675 35.9729 65.8292 36.1647 65.8675 36.3564C65.9442 36.7783 66.3277 37.0851 66.7496 37.1618C67.1715 37.2385 67.5933 37.0468 67.9001 36.7399C68.0535 36.5482 68.1686 36.3564 68.1686 36.1263C68.1686 35.8962 67.9768 35.6661 67.7467 35.6278C67.7084 35.6661 67.7467 35.7812 67.7851 35.8195L67.8618 35.5894Z" fill="#E5F6FF"/>
<path d="M66.136 44.6402C65.7525 44.2951 65.1772 44.1417 64.6787 44.2951C64.5636 44.7936 64.6403 45.4072 64.9855 45.7907C65.3306 46.1743 66.0209 46.251 66.4044 45.8674C66.7496 45.4839 66.4811 44.6786 65.9826 44.7169L66.136 44.6402Z" fill="#E5F6FF"/>
<path d="M58.3125 38.4274C58.1208 38.274 57.8523 38.1973 57.6222 38.2356C57.6222 38.3507 57.6605 38.4657 57.6989 38.5424C57.7372 38.6191 57.8523 38.6958 57.9673 38.6958C58.1208 38.6575 58.1975 38.5041 58.2358 38.3507C58.2358 38.389 58.2742 38.4274 58.2742 38.4657L58.3125 38.4274Z" fill="#E5F6FF"/>
<path d="M56.8551 39.4245C56.7784 39.4245 56.7017 39.3862 56.6634 39.4245C56.5867 39.4629 56.5483 39.5012 56.51 39.5779C56.3949 39.7313 56.2798 39.8847 56.1648 39.9998C56.4716 39.9614 56.7784 39.9231 57.0852 39.8847C57.1236 39.8847 57.1236 39.8847 57.1619 39.8847C57.2386 39.9231 57.2386 40.0381 57.3153 40.0765C57.392 40.1532 57.5454 40.1148 57.6605 40.0765C58.3891 39.6546 57.2386 39.5396 56.8551 39.4245Z" fill="#E5F6FF"/>
<path d="M66.4812 34.6691C66.4045 34.6691 66.2895 34.6691 66.2128 34.6691C66.2511 34.8608 66.3662 35.0142 66.5196 35.0526C66.7113 35.0909 66.8647 34.8992 66.788 34.7074C66.7497 34.5924 66.6346 34.4773 66.7113 34.439L66.4812 34.6691Z" fill="#E5F6FF"/>
<path d="M60.9204 39.8849C60.9971 39.8849 61.0738 39.8849 61.1505 39.8849C61.0738 40.0383 60.8437 40.115 60.6519 40.115C60.5369 40.115 60.4218 40.115 60.3835 40.0383C60.3451 39.9616 60.3835 39.8849 60.3835 39.8082C60.3835 39.6548 60.2301 39.5013 60.3068 39.3863C60.3451 39.3096 60.4602 39.3096 60.5369 39.3479C60.6136 39.3863 60.6519 39.463 60.6903 39.5397C60.8053 39.6931 60.882 39.8465 60.9971 39.9999L60.9204 39.8849Z" fill="#E5F6FF"/>
<path d="M61.5723 42.7227C61.4572 42.646 61.3038 42.8378 61.3422 42.9912C61.4189 43.1446 61.5723 43.1829 61.7257 43.2596C61.8407 43.0679 61.8024 42.8378 61.649 42.646L61.5723 42.7227Z" fill="#E5F6FF"/>
<path opacity="0.5" d="M58.4275 41.6873C58.4658 41.7257 58.4658 41.8407 58.4275 41.8791C58.3891 41.9174 58.3124 41.9558 58.2357 41.9558C58.1974 41.9558 58.159 41.9558 58.1207 41.9174C58.044 41.8791 58.0056 41.7257 58.0823 41.649C58.159 41.5723 58.2741 41.5723 58.3508 41.6106C58.4275 41.6873 58.4658 41.8024 58.3891 41.8791L58.4275 41.6873Z" fill="#E5F6FF"/>
<path d="M58.6193 40.7285C58.696 40.5751 58.5426 40.4217 58.3892 40.4601C58.3508 40.5368 58.3508 40.6135 58.3508 40.6902C58.3892 40.7669 58.4275 40.8436 58.5426 40.8436C58.6193 40.8436 58.696 40.7285 58.6576 40.6518L58.6193 40.7285Z" fill="#E5F6FF"/>
<path d="M59.6164 37.392C59.5397 37.2386 59.3479 37.1236 59.1562 37.0852C59.1562 37.2386 59.1561 37.392 59.1178 37.5454C59.1178 37.6221 59.1178 37.6988 59.1562 37.7372C59.2329 37.8522 59.4246 37.8906 59.5013 37.7755C59.6547 37.7372 59.6547 37.5454 59.6164 37.392Z" fill="#E5F6FF"/>
<path opacity="0.5" d="M59.7698 43.3748C59.8465 43.4515 59.8849 43.5665 59.8465 43.6816C59.8082 43.7966 59.7315 43.8733 59.6164 43.8733C59.5397 43.8733 59.463 43.835 59.463 43.7583C59.463 43.7199 59.5014 43.7199 59.5014 43.6816C59.5781 43.5665 59.6548 43.4515 59.7315 43.3748H59.7698Z" fill="#E5F6FF"/>
<path opacity="0.5" d="M59.1945 45.4073C59.0794 45.484 59.1178 45.6374 59.1562 45.7908C59.1945 45.9059 59.2329 46.0593 59.1562 46.1744C59.1178 46.2127 59.0795 46.2127 59.0795 46.2127C59.0028 46.2127 58.9644 46.0593 58.9644 45.9826C58.926 45.9059 58.8877 45.8675 58.8493 45.7908C58.7343 45.6374 58.7726 45.4457 58.8493 45.2923C58.926 45.2539 59.0411 45.2539 59.1178 45.3306C59.1945 45.4073 59.2329 45.484 59.1945 45.5991V45.4073Z" fill="#E5F6FF"/>
<path opacity="0.5" d="M62.0708 33.672C61.9558 33.7487 61.9941 33.9021 62.0325 34.0555C62.0708 34.1705 62.1092 34.3239 62.0325 34.439C61.9941 34.4774 61.9558 34.4774 61.9558 34.4774C61.8791 34.4774 61.8407 34.3239 61.8407 34.2472C61.8024 34.1705 61.764 34.1322 61.7257 34.0555C61.6106 33.9021 61.649 33.7103 61.7257 33.5569C61.8024 33.5186 61.9174 33.5186 61.9941 33.5953C62.0708 33.672 62.1092 33.7487 62.0708 33.8637V33.672Z" fill="#E5F6FF"/>
<path opacity="0.5" d="M57.929 45.0237C57.8906 45.0237 57.8139 45.0237 57.7756 44.9854C57.7372 45.0621 57.7372 45.1771 57.7756 45.2155C57.8139 45.2538 57.929 45.2922 58.0057 45.2155C58.044 45.1388 58.0057 45.0237 57.929 45.0237Z" fill="#E5F6FF"/>
<path d="M58.7343 39.6163C58.811 39.693 58.926 39.6163 58.9644 39.5012C59.0027 39.3862 58.9644 39.3095 58.9644 39.1944C58.9644 39.0794 59.0411 39.0027 59.1178 38.9643C59.1561 38.926 59.2328 38.926 59.2712 38.9643C59.3096 39.0027 59.3095 39.0027 59.3479 39.041C59.4246 39.2328 59.5013 39.4245 59.5013 39.6163C59.5013 39.808 59.3479 39.9998 59.1945 40.0765C59.0794 40.1148 58.926 40.0765 58.811 39.9998C58.7343 39.8464 58.6959 39.693 58.7343 39.6163Z" fill="#E5F6FF"/>
<path d="M57.2003 37.4304C57.1236 37.3154 56.9702 37.3154 56.8551 37.3921C56.7401 37.4688 56.7017 37.5838 56.7401 37.7372C56.7401 37.7756 56.7784 37.8523 56.8168 37.8523C56.8551 37.8523 56.8935 37.8139 56.8935 37.8139C57.0085 37.6989 57.0852 37.5838 57.2003 37.4688V37.4304Z" fill="#E5F6FF"/>
<path d="M63.0297 41.1121C63.1447 41.3422 62.953 41.649 62.7229 41.6874C62.6462 41.4956 62.6078 41.3039 62.6461 41.1121C62.6845 40.9204 62.9146 40.767 63.1064 40.8437C63.1447 40.9587 63.1831 41.0354 63.2598 41.1505L63.0297 41.1121Z" fill="#E5F6FF"/>
<path opacity="0.5" d="M57.2387 41.0736C57.2003 41.0736 57.1236 41.0736 57.0853 41.0736C57.0469 41.1503 57.0469 41.227 57.0853 41.3037C57.1236 41.3804 57.2387 41.3804 57.277 41.3037C57.277 41.2653 57.277 41.227 57.277 41.227C57.277 41.1119 57.2387 41.0352 57.2387 40.9202V41.0736Z" fill="#E5F6FF"/>
<path d="M70.2013 35.4361C70.0862 35.3594 69.9711 35.3211 69.8561 35.2827C69.741 35.2827 69.5876 35.3211 69.5109 35.4361C69.4726 35.5128 69.4726 35.5512 69.5109 35.6279C69.5493 35.8196 69.7794 35.9347 69.9712 35.8963C70.1629 35.858 70.278 35.6279 70.2013 35.4361Z" fill="#E5F6FF"/>
<path d="M66.4812 42.3008C66.4045 42.3008 66.2895 42.3008 66.2128 42.3391C66.2128 42.4158 66.2128 42.4925 66.2128 42.5309C66.3278 42.5692 66.4812 42.4925 66.5196 42.3775L66.4812 42.3008Z" fill="#E5F6FF"/>
<path d="M77.066 34.5157C77.1044 34.5541 77.1044 34.6691 77.066 34.7075C77.0277 34.7458 76.951 34.7842 76.8743 34.7842C76.8359 34.7842 76.7976 34.7842 76.7592 34.7458C76.6825 34.7075 76.6442 34.5541 76.7209 34.4774C76.7976 34.4007 76.9126 34.4007 76.9893 34.439C77.066 34.5157 77.1044 34.6308 77.0277 34.7075L77.066 34.5157Z" fill="#E5F6FF"/>
<path d="M64.602 41.1121C64.5252 41.1121 64.4102 41.1121 64.3335 41.1504C64.3335 41.2271 64.3335 41.3038 64.3335 41.3422C64.4485 41.3805 64.602 41.3038 64.6403 41.1888L64.602 41.1121Z" fill="#E5F6FF"/>
<path d="M63.8349 33.8253C63.7966 33.7486 63.6432 33.7869 63.6048 33.8636C63.5665 33.9403 63.5281 34.0554 63.4898 34.1321C63.4514 34.2088 63.3747 34.2855 63.2597 34.3238C63.183 34.3238 63.1446 34.3238 63.1063 34.2855C63.0679 34.2471 63.0679 34.2088 63.0679 34.1704C63.0296 33.9787 63.0296 33.7869 63.1063 33.5952C63.183 33.4034 63.3364 33.25 63.5665 33.25C63.7199 33.25 63.8349 33.3267 63.9116 33.4418C63.8733 33.5568 63.8733 33.7486 63.8349 33.8253Z" fill="#E5F6FF"/>
<path d="M68.1686 36.8933C68.2453 36.9317 68.2837 36.9701 68.3604 37.0084C68.4371 37.0084 68.5138 37.0084 68.5521 36.9317C68.6288 36.8166 68.5138 36.7016 68.5521 36.5482C68.5521 36.4331 68.6672 36.3181 68.6288 36.203C68.5905 36.088 68.4371 36.0496 68.322 36.1263C68.207 36.203 68.1686 36.3181 68.1303 36.4331C68.0919 36.5482 68.0536 36.6632 68.0919 36.7399C68.1303 36.855 68.207 36.9317 68.322 36.9317L68.1686 36.8933Z" fill="#E5F6FF"/>
<path d="M62.416 37.3152C62.8762 37.2385 63.2981 37.0468 63.6433 36.7783C63.72 36.74 63.7583 36.7016 63.7967 36.6249C63.8734 36.5098 63.835 36.3564 63.7583 36.203C63.6049 35.8962 63.2214 35.7428 62.8762 35.7812C62.5311 35.8195 62.2243 36.088 62.1092 36.3948C62.0325 36.5866 61.9942 36.7783 62.0709 36.9317C62.1476 37.1235 62.3393 37.2385 62.5311 37.2002C62.5694 37.1618 62.4927 37.0851 62.4544 37.0851L62.416 37.3152Z" fill="#E5F6FF"/>
<path d="M62.8762 34.0553C62.8762 33.9786 62.8378 33.9019 62.7995 33.8636C62.7611 33.8252 62.6844 33.8252 62.6077 33.8252C62.416 33.8252 62.2626 33.7869 62.0708 33.7485C62.2626 33.9786 62.416 34.2471 62.6077 34.4772C62.6077 34.5156 62.6461 34.5156 62.6461 34.5539C62.6844 34.6306 62.5694 34.7073 62.531 34.784C62.4927 34.8991 62.6077 35.0141 62.6844 35.0908C63.4514 35.5127 62.9912 34.4005 62.8762 34.0553Z" fill="#E5F6FF"/>
<path d="M62.3776 37.2002C62.3393 37.2002 62.2626 37.1619 62.2242 37.1619C62.1859 37.2386 62.1475 37.3153 62.2242 37.392C62.2626 37.4687 62.3776 37.4687 62.4543 37.392C62.4927 37.3536 62.4543 37.2386 62.3776 37.2002Z" fill="#E5F6FF"/>
<path d="M61.6873 34.8609C61.7256 34.7459 61.6873 34.5925 61.5722 34.5541C61.4572 34.5158 61.3038 34.5541 61.2271 34.6308C61.1887 34.6692 61.1504 34.7075 61.1887 34.7842C61.1887 34.8226 61.2654 34.8226 61.3038 34.8226C61.4572 34.8609 61.6106 34.8993 61.764 34.9376L61.6873 34.8609Z" fill="#E5F6FF"/>
<path d="M61.764 36.5099C61.8023 36.2798 61.764 36.0113 61.5722 35.8196C61.4955 35.8963 61.3805 35.9346 61.3421 36.0497C61.3038 36.1264 61.2654 36.2798 61.3421 36.3565C61.4188 36.4715 61.6106 36.4715 61.764 36.4332C61.7256 36.4715 61.7256 36.5099 61.6873 36.5482L61.764 36.5099Z" fill="#E5F6FF"/>
<path d="M61.2655 37.5069C61.3039 37.5453 61.3422 37.622 61.3806 37.6987C61.1888 37.6987 61.0354 37.5453 60.9204 37.3919C60.8437 37.3152 60.8053 37.2001 60.8437 37.0851C60.882 37.0084 60.9587 37.0084 61.0354 36.97C61.1505 36.8933 61.2272 36.6632 61.3806 36.7015C61.4573 36.7015 61.534 36.8166 61.534 36.8933C61.534 36.97 61.4956 37.0467 61.4573 37.1234C61.3806 37.2768 61.3039 37.4302 61.1888 37.622L61.2655 37.5069Z" fill="#E5F6FF"/>
<path d="M62.7612 35.1292C62.8379 34.9758 62.8763 34.784 62.7996 34.5923C62.6462 34.669 62.5311 34.7457 62.3777 34.784C62.301 34.8224 62.2627 34.8607 62.2243 34.8991C62.1476 35.0141 62.2243 35.2059 62.3777 35.2443C62.4928 35.2826 62.6462 35.2443 62.7612 35.1292Z" fill="#E5F6FF"/>
<path d="M60.4217 35.4361C60.4217 35.5511 60.5368 35.5895 60.6518 35.5895C60.7669 35.5511 60.8436 35.4744 60.9203 35.4361C61.0353 35.3977 61.112 35.3977 61.2271 35.4744C61.2654 35.5128 61.3421 35.5511 61.3421 35.6278C61.3421 35.6662 61.3038 35.7045 61.3038 35.7429C61.1887 35.8963 61.0737 36.0497 60.8819 36.1647C60.6902 36.2414 60.4601 36.2414 60.345 36.1264C60.23 36.0497 60.1916 35.8963 60.23 35.7429C60.1916 35.5895 60.3067 35.4744 60.4217 35.4361Z" fill="#E5F6FF"/>
<path d="M66.1361 38.5042C66.1361 38.3892 66.1361 38.2358 66.0977 38.1207C66.0594 38.0057 65.9443 37.8906 65.7909 37.8906C65.7142 37.8906 65.6759 37.929 65.5992 37.9673C65.4458 38.0824 65.4458 38.3508 65.5992 38.5042C65.7142 38.6193 65.9827 38.6193 66.1361 38.5042Z" fill="#E5F6FF"/>
<path d="M66.5196 35.5895C66.558 35.3594 66.5196 35.0909 66.3279 34.8992C66.2512 34.9759 66.1361 35.0142 66.0978 35.1293C66.0594 35.206 66.021 35.3594 66.0978 35.4361C66.1745 35.5511 66.3662 35.5511 66.5196 35.5128C66.4813 35.5511 66.4813 35.5895 66.4429 35.6278L66.5196 35.5895Z" fill="#E5F6FF"/>
<path d="M60.882 37.7755C60.7669 37.8522 60.7669 38.0056 60.8053 38.159C60.8436 38.274 60.882 38.4274 60.7669 38.5425C60.7285 38.5808 60.6902 38.5808 60.6518 38.5808C60.5751 38.5808 60.5751 38.4274 60.5368 38.3507C60.4984 38.274 60.4601 38.2357 60.4217 38.159C60.345 38.0056 60.345 37.8138 60.4601 37.6604C60.5368 37.6221 60.6518 37.6604 60.7285 37.6988C60.8052 37.7755 60.8053 37.8905 60.8053 37.9672L60.882 37.7755Z" fill="#E5F6FF"/>
<path d="M71.0833 39.0027C71.045 39.041 71.0066 39.041 70.9299 39.0794C70.9299 39.1561 70.9683 39.2328 71.0833 39.2711C71.16 39.2711 71.2751 39.2328 71.2751 39.1561C71.2751 39.041 71.16 38.9643 71.0833 39.0027Z" fill="#E5F6FF"/>
<path d="M63.6816 35.973C63.6432 35.9346 63.6432 35.8579 63.6049 35.8196C63.5282 35.8579 63.4515 35.8579 63.4131 35.9346C63.3748 36.0113 63.4131 36.1264 63.4898 36.1264C63.5282 36.1264 63.5282 36.088 63.5665 36.088C63.6432 36.0113 63.7199 35.973 63.7966 35.8963L63.6816 35.973Z" fill="#E5F6FF"/>
<path d="M14.9377 54.7648C15.7431 55.11 16.6635 55.225 17.5072 55.1483C17.6606 55.1483 17.7757 55.11 17.9291 55.0333C18.1592 54.9182 18.2742 54.6114 18.2742 54.343C18.3126 53.691 17.8524 53.039 17.2388 52.7706C16.6252 52.5021 15.8965 52.6172 15.3212 53.0007C15.0144 53.1924 14.746 53.4992 14.6693 53.8444C14.5926 54.1896 14.7843 54.6114 15.1295 54.7265C15.2445 54.6498 15.2062 54.4964 15.1295 54.458L14.9377 54.7648Z" fill="white"/>
<path d="M17.3921 53.5377C17.5839 53.8445 17.929 54.0362 18.2742 54.0362C18.4659 53.7294 18.5043 53.3076 18.3509 53.0008C18.1975 52.694 17.7373 52.5022 17.4304 52.694C17.1236 52.8857 17.162 53.461 17.5072 53.5377H17.3921Z" fill="white"/>
<path d="M20.5369 54.1128C20.5369 54.2662 20.5752 54.4579 20.7286 54.573C20.767 54.5347 20.8437 54.4579 20.882 54.3812C20.9204 54.3045 20.9204 54.2278 20.8437 54.1895C20.767 54.1128 20.6519 54.1511 20.5369 54.1895C20.5369 54.1511 20.5752 54.1511 20.5752 54.1128H20.5369Z" fill="white"/>
<path d="M19.885 54.1129C19.8466 54.1129 19.7699 54.1129 19.7316 54.0745C19.8083 53.9978 19.9617 53.9978 20.1151 54.0362C20.1918 54.0362 20.2685 54.0745 20.2685 54.1512C20.2685 54.1896 20.2301 54.2663 20.2301 54.3046C20.2301 54.4197 20.2685 54.5347 20.1918 54.6114C20.1534 54.6498 20.0767 54.6114 20.0384 54.5731C20 54.5347 20 54.458 19.9617 54.4197C19.9233 54.3046 19.885 54.1896 19.8466 54.0745L19.885 54.1129Z" fill="white"/>
<path opacity="0.5" d="M28.3222 54.6882C28.3989 54.7649 28.5523 54.6498 28.5139 54.5731C28.5139 54.4581 28.3989 54.3814 28.3222 54.343C28.2071 54.4581 28.2071 54.6115 28.2455 54.7649L28.3222 54.6882Z" fill="white"/>
<path d="M29.0125 50.968C28.9741 50.9297 29.0125 50.853 29.0508 50.853C29.0892 50.8146 29.1659 50.8146 29.2042 50.853C29.2426 50.853 29.2426 50.8913 29.2809 50.8913C29.3193 50.9297 29.3193 51.0447 29.2809 51.0831C29.2426 51.1214 29.1275 51.1214 29.0892 51.0447C29.0508 51.0064 29.0508 50.8913 29.0892 50.853L29.0125 50.968Z" fill="white"/>
<path d="M21.6874 53.0007C21.5724 53.039 21.534 53.1924 21.6491 53.2308C21.6874 53.2308 21.7641 53.1924 21.8025 53.1541C21.8408 53.1157 21.8408 53.039 21.8025 53.0007C21.7641 52.9623 21.6874 52.9623 21.6491 53.0007H21.6874Z" fill="white"/>
<path d="M19.4631 53.8443C19.4247 53.9594 19.4247 54.1128 19.5014 54.2278C19.5781 54.1511 19.6548 54.1128 19.7699 54.0361C19.8082 53.9977 19.8466 53.9977 19.8849 53.921C19.9233 53.8443 19.8466 53.7293 19.7699 53.6909C19.6165 53.6909 19.5398 53.7293 19.4631 53.8443Z" fill="white"/>
<path opacity="0.5" d="M27.7469 51.6969C27.7853 51.6969 27.8236 51.6585 27.8236 51.6585C27.8236 51.6202 27.7853 51.5435 27.7086 51.5435C27.6702 51.5435 27.5935 51.5818 27.5935 51.6585C27.5935 51.7352 27.7086 51.7352 27.7469 51.6969Z" fill="white"/>
<path d="M21.0355 53.4225C21.0355 53.3458 20.9588 53.3075 20.8821 53.3458C20.8054 53.3842 20.767 53.4225 20.7287 53.4609C20.652 53.4992 20.5753 53.4992 20.5369 53.4609C20.4986 53.4609 20.4602 53.4225 20.4602 53.3842C20.4602 53.3458 20.4602 53.3458 20.4986 53.3075C20.5753 53.1924 20.6136 53.0773 20.7287 53.0006C20.8437 52.9239 20.9971 52.9239 21.1122 53.0006C21.1889 53.039 21.2272 53.154 21.2272 53.2307C21.1505 53.3075 21.0738 53.3842 21.0355 53.4225Z" fill="white"/>
<path d="M20.4603 55.1485C20.4219 55.2252 20.4986 55.3402 20.5753 55.3402C20.652 55.3786 20.7671 55.3402 20.8054 55.2635C20.8438 55.2252 20.8438 55.1868 20.8438 55.1485C20.8438 55.1101 20.8054 55.1101 20.7671 55.1101C20.652 55.1485 20.5753 55.1101 20.4603 55.1485Z" fill="white"/>
<path d="M24.487 54.9949C24.4487 54.8415 24.6404 54.6497 24.7938 54.6881C24.7938 54.8415 24.7938 54.9565 24.7171 55.0716C24.6404 55.1866 24.487 55.2633 24.372 55.1483C24.372 55.0716 24.3336 54.9949 24.3336 54.9182L24.487 54.9949Z" fill="white"/>
<path d="M11.0643 53.6527C11.0259 53.6527 10.9875 53.6144 10.9875 53.576C10.9875 53.5377 11.0259 53.4993 11.0259 53.461C11.0643 53.4226 11.0643 53.4226 11.1026 53.3843C11.141 53.3459 11.2177 53.3843 11.256 53.4226C11.2944 53.461 11.2944 53.5377 11.256 53.6144C11.256 53.6528 11.2177 53.6528 11.1793 53.6911C11.141 53.6911 11.1026 53.6911 11.1026 53.6527H11.0643Z" fill="white"/>
<path d="M22.4161 53.6143C22.4161 53.6527 22.4544 53.691 22.4544 53.691C22.4928 53.6527 22.5695 53.6527 22.5695 53.576C22.6078 53.5376 22.5695 53.4609 22.4928 53.4609C22.4544 53.4609 22.4544 53.4993 22.4544 53.4993C22.4161 53.5376 22.3777 53.6143 22.301 53.6527L22.4161 53.6143Z" fill="white"/>
<path d="M24.3721 53.3842C24.4488 53.4609 24.4871 53.4992 24.6022 53.5376C24.6789 53.5759 24.7939 53.5759 24.8323 53.4992C24.8706 53.4609 24.8706 53.4225 24.8706 53.3842C24.8706 53.2308 24.7556 53.1157 24.6405 53.1157C24.4871 53.1157 24.3721 53.2691 24.3721 53.3842Z" fill="white"/>
<path d="M25.0624 54.0362C25.1391 54.0362 25.1774 54.0746 25.2541 54.0746C25.2925 54.0362 25.2925 53.9979 25.2925 53.9212C25.2158 53.8828 25.1007 53.8828 25.0624 53.9595V54.0362Z" fill="white"/>
<path d="M20.9205 58.1015C21.2656 58.1015 21.6108 57.9864 21.9176 57.7947C21.9559 57.7563 22.0326 57.7179 22.0326 57.6796C22.1093 57.6029 22.071 57.4495 22.0326 57.3728C21.9176 57.1427 21.6491 56.9509 21.3807 56.9893C21.1122 56.9893 20.8438 57.181 20.7287 57.4111C20.652 57.5262 20.6137 57.6796 20.652 57.833C20.6904 57.9864 20.8438 58.1015 20.9588 58.1015C20.9972 58.0631 20.9588 57.9864 20.9205 57.9864V58.1015Z" fill="white"/>
<path d="M18.6577 51.1983C18.7344 51.3517 18.8878 51.4284 19.0796 51.4668C19.0796 51.3901 19.1179 51.3134 19.0796 51.2367C19.0796 51.16 19.0029 51.0833 18.9262 51.0833C18.8111 51.0833 18.7344 51.16 18.6961 51.2367C18.6961 51.1983 18.6961 51.1983 18.6961 51.16L18.6577 51.1983Z" fill="white"/>
<path d="M19.8083 50.8148C19.8466 50.8531 19.885 50.8531 19.9233 50.8531C19.9617 50.8531 20 50.8148 20.0384 50.7764C20.1151 50.6997 20.2301 50.623 20.3452 50.5463C20.1534 50.508 19.9233 50.4696 19.7316 50.4313H19.6932C19.6549 50.3929 19.6549 50.3162 19.6549 50.2779C19.6165 50.2012 19.5015 50.2012 19.4248 50.2012C18.8495 50.3929 19.5782 50.6997 19.8083 50.8148Z" fill="white"/>
<path d="M17.6223 51.62C17.6607 51.735 17.7374 51.8501 17.8524 51.8884C17.8908 51.7734 17.9291 51.6967 17.9675 51.5816C17.9675 51.5433 18.0058 51.5049 18.0058 51.4282C17.9675 51.3515 17.8524 51.2748 17.7757 51.3132C17.6607 51.4282 17.6223 51.5433 17.6223 51.62Z" fill="white"/>
<path d="M11.4477 51.6585C11.4861 51.6585 11.5244 51.6202 11.5244 51.6202C11.5244 51.5818 11.4861 51.5051 11.4094 51.5051C11.371 51.5051 11.2943 51.5435 11.2943 51.6202C11.2943 51.6202 11.371 51.6969 11.4477 51.6585Z" fill="white"/>
<path d="M19.1947 52.0802C19.2331 52.1569 19.3098 52.1952 19.3865 52.1569C19.4632 52.1185 19.5015 52.0418 19.5399 51.9651C19.5399 51.9268 19.5399 51.8884 19.5015 51.8884C19.4632 51.8884 19.4632 51.8884 19.4248 51.9268C19.3481 51.9651 19.2714 52.0035 19.1947 52.0802Z" fill="white"/>
<path d="M18.6577 53.4608C18.7344 53.5375 18.7728 53.5759 18.8878 53.6142C18.9645 53.6526 19.0796 53.6526 19.1179 53.5759C19.1563 53.5375 19.1563 53.4992 19.1563 53.4608C19.1563 53.3074 19.0412 53.1924 18.9262 53.1924C18.7728 53.1924 18.6577 53.3074 18.6577 53.4608Z" fill="white"/>
<path d="M22.7612 55.3401C22.8379 55.3017 22.8763 55.1867 22.8763 55.11C22.8763 55.0333 22.8763 54.9182 22.953 54.8415C22.9913 54.8415 22.9913 54.8032 23.0297 54.8415C23.1064 54.8799 23.068 54.9566 23.068 55.0333C23.068 55.0716 23.1064 55.1483 23.1064 55.1867C23.1447 55.3017 23.1064 55.4551 22.9913 55.5318C22.9146 55.5318 22.8763 55.5318 22.8379 55.4551C22.7996 55.4168 22.7996 55.3401 22.8379 55.2634L22.7612 55.3401Z" fill="white"/>
<path d="M24.5637 53.9978C24.6404 53.9594 24.6788 53.8444 24.6788 53.7677C24.6788 53.691 24.6788 53.5759 24.7555 53.4992C24.7938 53.4992 24.7938 53.4609 24.8322 53.4992C24.9089 53.5376 24.8705 53.6143 24.8705 53.691C24.8705 53.7293 24.9089 53.806 24.9089 53.8444C24.9472 53.9594 24.9089 54.1128 24.7938 54.1895C24.7171 54.1895 24.6788 54.1895 24.6404 54.1128C24.6021 54.0745 24.6021 53.9978 24.6404 53.9211L24.5637 53.9978Z" fill="white"/>
<path d="M26.2128 54.3812C26.2895 54.4196 26.3662 54.4196 26.4429 54.4196H26.4813C26.5196 54.4196 26.5196 54.3812 26.5196 54.3429C26.5196 54.3045 26.4813 54.2278 26.4429 54.2278C26.4046 54.1894 26.3279 54.2278 26.2895 54.2662C26.2512 54.2662 26.2512 54.3045 26.2512 54.3429C26.1745 54.3429 26.2128 54.3429 26.2128 54.3812C26.2512 54.3812 26.2512 54.3429 26.2128 54.3812Z" fill="white"/>
<path d="M15.5896 53.1924C15.6663 53.3459 15.8197 53.4226 16.0115 53.4609C16.0115 53.3842 16.0498 53.3075 16.0115 53.2308C16.0115 53.1541 15.9348 53.0774 15.8581 53.0774C15.743 53.0774 15.6663 53.1541 15.6279 53.2308C15.6279 53.1924 15.6279 53.1924 15.6279 53.1541L15.5896 53.1924Z" fill="white"/>
<path d="M15.8198 51.6201C15.7431 51.6968 15.8198 51.8502 15.9349 51.8502C15.9732 51.8119 16.0116 51.7735 16.0116 51.6968C16.0116 51.6585 15.9732 51.5818 15.9349 51.5818C15.8965 51.5818 15.8198 51.6201 15.8198 51.6585V51.6201Z" fill="white"/>
<path d="M18.2358 53.0391C18.1591 53.1158 18.2358 53.2692 18.3509 53.2692C18.3892 53.2308 18.4276 53.1925 18.4276 53.1158C18.4276 53.0774 18.3892 53.0007 18.3509 53.0007C18.3125 53.0007 18.2358 53.0391 18.2358 53.0774V53.0391Z" fill="white"/>
<path d="M15.5129 52.3488C15.4746 52.3105 15.3979 52.3105 15.3595 52.3872C15.3212 52.4639 15.3212 52.5022 15.2828 52.5789C15.2445 52.6557 15.2061 52.694 15.1294 52.694C15.0911 52.694 15.0527 52.694 15.0144 52.6556C15.0144 52.6173 14.976 52.6173 14.976 52.5789C14.9377 52.4639 14.9377 52.3105 14.976 52.1954C15.0144 52.0804 15.1294 51.9653 15.2828 51.9653C15.3595 51.9653 15.4746 52.0037 15.5129 52.0804C15.5896 52.1954 15.5896 52.2721 15.5129 52.3488Z" fill="white"/>
<path d="M23.1831 54.4963C23.1448 54.458 23.0681 54.4579 23.0297 54.5346C22.9914 54.6114 22.9914 54.6497 22.953 54.7264C22.9147 54.8031 22.8763 54.8415 22.7996 54.8415C22.7612 54.8415 22.7229 54.8415 22.6845 54.8031C22.6845 54.7648 22.6462 54.7648 22.6462 54.7264C22.6078 54.6114 22.6078 54.4579 22.6462 54.3429C22.6845 54.2278 22.7996 54.1128 22.953 54.1128C23.0297 54.1128 23.1448 54.1511 23.1831 54.2278C23.2215 54.3429 23.2215 54.458 23.1831 54.4963Z" fill="white"/>
<path d="M23.0681 55.3784C23.0298 55.34 22.9531 55.34 22.9147 55.4167C22.8764 55.4934 22.8764 55.5318 22.838 55.6085C22.7997 55.6852 22.7613 55.7235 22.6846 55.7235C22.6463 55.7235 22.6079 55.7235 22.5696 55.6852C22.5696 55.6468 22.5312 55.6468 22.5312 55.6085C22.4929 55.4934 22.4929 55.34 22.5312 55.225C22.5696 55.1099 22.6846 54.9949 22.838 54.9949C22.9147 54.9949 23.0298 55.0332 23.0681 55.1099C23.1065 55.225 23.1065 55.34 23.0681 55.3784Z" fill="white"/>
<path d="M21.7642 54.9565C21.7258 54.9182 21.6491 54.9182 21.6108 54.9949C21.5724 55.0716 21.5724 55.1099 21.5341 55.1866C21.4957 55.2633 21.4574 55.3017 21.3807 55.3017C21.3423 55.3017 21.304 55.3017 21.2656 55.2633C21.2656 55.225 21.2272 55.225 21.2272 55.1866C21.1889 55.0716 21.1889 54.9182 21.2272 54.8031C21.2656 54.688 21.3807 54.573 21.5341 54.573C21.6108 54.573 21.7258 54.6114 21.7642 54.6881C21.8409 54.8031 21.8409 54.8798 21.7642 54.9565Z" fill="white"/>
<path d="M26.6731 46.7111C26.6347 46.6728 26.558 46.6728 26.5197 46.7495C26.4813 46.8262 26.4813 46.8645 26.443 46.9413C26.4046 47.018 26.3663 47.0563 26.2896 47.0563C26.2512 47.0563 26.2129 47.0563 26.1745 47.018C26.1745 46.9796 26.1362 46.9796 26.1362 46.9413C26.0978 46.8262 26.0978 46.6728 26.1362 46.5577C26.1745 46.4427 26.2896 46.3276 26.443 46.3276C26.5197 46.3276 26.6347 46.366 26.6731 46.4427C26.7114 46.5577 26.7114 46.6728 26.6731 46.7111Z" fill="white"/>
<path d="M16.7786 51.6583C16.8169 51.6583 16.8553 51.6967 16.8936 51.6967C16.932 51.6583 16.932 51.5816 16.932 51.5432C16.932 51.5049 16.8553 51.4665 16.8169 51.5049C16.8169 51.5049 16.8169 51.5432 16.8169 51.5816C16.8169 51.6583 16.8169 51.735 16.7786 51.7734V51.6583Z" fill="white"/>
<path d="M23.7968 50.1244C23.8735 50.2011 23.9118 50.2395 24.0269 50.2778C24.1036 50.3162 24.2186 50.3162 24.257 50.2395C24.2953 50.2011 24.2953 50.1628 24.2953 50.1244C24.2953 49.971 24.1803 49.856 24.0652 49.856C23.9118 49.856 23.7968 49.971 23.7968 50.1244Z" fill="white"/>
<path d="M17.5456 54.3046C17.4305 54.3046 17.3538 54.1129 17.4305 53.9978C17.5072 53.9978 17.5839 53.9978 17.6606 53.9978C17.6606 54.0745 17.6223 54.1512 17.5839 54.2279L17.5456 54.3046Z" fill="white"/>
<path opacity="0.5" d="M24.6788 50.8146C24.7172 50.853 24.7555 50.8913 24.8322 50.8913C24.8706 50.8913 24.9473 50.8913 24.9856 50.853C25.024 50.7763 24.9473 50.6996 24.9856 50.6229C24.9856 50.5462 25.0623 50.4695 25.0623 50.3928C25.024 50.3161 24.9089 50.2777 24.8706 50.3161C24.7939 50.3544 24.7555 50.4311 24.7172 50.5078C24.6788 50.5845 24.6788 50.6612 24.6788 50.7379C24.6788 50.8146 24.7555 50.8913 24.8322 50.853L24.6788 50.8146Z" fill="white"/>
<path d="M21.3423 53.9594C21.304 54.3045 21.4574 54.688 21.7642 54.9181C22.1094 54.7647 22.3778 54.4963 22.4545 54.1511C22.5312 53.806 22.2628 53.3841 21.9176 53.3458C21.5724 53.3074 21.2273 53.7676 21.4574 54.0744L21.3423 53.9594Z" fill="white"/>
<path d="M17.4305 55.1482C17.4305 55.1099 17.4689 55.0715 17.5456 55.0715C17.5839 55.0715 17.6223 55.1099 17.6606 55.1482C17.6606 55.1866 17.699 55.1866 17.699 55.2249C17.699 55.3016 17.6606 55.34 17.5839 55.34C17.5072 55.34 17.4689 55.2633 17.4689 55.2249C17.4689 55.1482 17.5072 55.1099 17.5839 55.0715L17.4305 55.1482Z" fill="white"/>
<path d="M19.3097 54.5347C19.3864 54.458 19.348 54.3813 19.3097 54.2663C19.2713 54.1896 19.233 54.0745 19.3097 53.9978C19.3097 53.9595 19.348 53.9595 19.3864 53.9595C19.4631 53.9595 19.4631 54.0362 19.5014 54.1129C19.5398 54.1512 19.5781 54.1896 19.5781 54.2279C19.6548 54.343 19.6548 54.458 19.5781 54.5731C19.5398 54.6114 19.4631 54.6114 19.3864 54.5731C19.348 54.5347 19.3097 54.458 19.3097 54.3813V54.5347Z" fill="white"/>
<path d="M21.5723 52.7322C21.6107 52.7322 21.649 52.7322 21.6874 52.7322C21.7258 52.6939 21.7258 52.6172 21.6874 52.5788C21.649 52.5405 21.5723 52.5405 21.534 52.5788C21.4573 52.6172 21.4956 52.6939 21.5723 52.7322Z" fill="white"/>
<path d="M19.6932 53.3841C19.6548 53.3841 19.6548 53.3074 19.6932 53.2691C19.7315 53.2307 19.7699 53.2307 19.8082 53.1924C19.8466 53.1924 19.8849 53.1924 19.8849 53.1924C19.9616 53.1924 20 53.2691 20 53.3458C20 53.4225 19.9616 53.4608 19.8849 53.4992C19.8466 53.4992 19.8082 53.5375 19.8082 53.4992C19.7699 53.4992 19.7699 53.4608 19.7699 53.4225L19.6932 53.3841Z" fill="white"/>
<path d="M19.3097 50.3927C19.0413 50.6228 18.9262 51.0447 19.0029 51.3898C19.3481 51.5049 19.7316 51.4665 20.0384 51.2364C20.3069 51.0063 20.4219 50.5461 20.1535 50.2777C19.9234 50.0092 19.3481 50.1626 19.3481 50.5461L19.3097 50.3927Z" fill="white"/>
<path d="M17.0854 52.1186C17.1621 52.1953 17.3155 52.0802 17.2771 52.0035C17.2771 51.8885 17.1621 51.8118 17.0854 51.7734C16.9703 51.8885 16.9703 52.0419 17.0087 52.1953L17.0854 52.1186Z" fill="white"/>
<path d="M18.466 55.6853C18.5044 55.6853 18.5427 55.6853 18.5811 55.6853C18.6194 55.647 18.6194 55.5703 18.5811 55.5319C18.5427 55.4936 18.466 55.4936 18.4277 55.5319C18.351 55.6086 18.3893 55.6853 18.466 55.6853Z" fill="white"/>
<path d="M18.9645 53.8445C19.3097 53.9979 19.6932 54.0746 20.0767 54.0362C20.1534 54.0362 20.1918 54.0362 20.2685 53.9979C20.3835 53.9595 20.4219 53.8061 20.4219 53.6911C20.4602 53.3842 20.2685 53.1158 20 53.0007C19.7316 52.8857 19.4248 52.924 19.1563 53.0774C19.0029 53.1541 18.8878 53.2692 18.8495 53.4609C18.8111 53.6143 18.8878 53.8061 19.0412 53.8445C19.0796 53.8061 19.0796 53.7294 19.0412 53.7294L18.9645 53.8445Z" fill="white"/>
<path d="M21.8025 48.2452C21.9943 48.552 22.3394 48.7438 22.6846 48.7438C22.8763 48.437 22.9147 48.0151 22.7613 47.7083C22.6079 47.4015 22.1477 47.2097 21.8408 47.4015C21.534 47.5932 21.5724 48.1685 21.9176 48.2452H21.8025Z" fill="white"/>
<path d="M25.7527 53.7676C25.8294 53.921 25.9828 53.9977 26.1745 54.0361C26.1745 53.9594 26.2129 53.8827 26.1745 53.806C26.1745 53.7293 26.0978 53.6526 26.0211 53.6526C25.9061 53.6526 25.8294 53.7293 25.791 53.806C25.791 53.7676 25.791 53.7676 25.791 53.7293L25.7527 53.7676Z" fill="white"/>
<path d="M26.9031 53.3841C26.9415 53.4225 26.9798 53.4225 27.0182 53.4225C27.0565 53.4225 27.0949 53.3841 27.1332 53.3458C27.2099 53.2691 27.325 53.1924 27.44 53.1157C27.2483 53.0773 27.0182 53.039 26.8264 53.0006H26.7881C26.7497 52.9623 26.7497 52.8856 26.7497 52.8472C26.7114 52.7705 26.5963 52.7705 26.5196 52.7705C25.906 52.9623 26.673 53.2691 26.9031 53.3841Z" fill="white"/>
<path d="M19.6932 54.6881C19.7699 54.6881 19.8083 54.7265 19.885 54.7265C19.885 54.6114 19.8466 54.458 19.7316 54.4196C19.6165 54.3813 19.4631 54.458 19.5015 54.5731C19.5015 54.6498 19.5782 54.7648 19.5015 54.7648L19.6932 54.6881Z" fill="white"/>
<path d="M24.3337 52.3104C24.2954 52.3104 24.2186 52.3104 24.1803 52.272C24.257 52.1953 24.4104 52.1953 24.5638 52.2337C24.6405 52.2337 24.7172 52.272 24.7172 52.3487C24.7172 52.3871 24.6789 52.4638 24.6789 52.5021C24.6789 52.6172 24.7172 52.7322 24.6405 52.8089C24.6022 52.8473 24.5255 52.809 24.4871 52.7706C24.4488 52.7323 24.4488 52.6555 24.4104 52.6172C24.3721 52.5021 24.3337 52.3871 24.2954 52.272L24.3337 52.3104Z" fill="white"/>
<path d="M24.4488 50.3544C24.5255 50.4311 24.6789 50.3161 24.6405 50.2394C24.6405 50.1243 24.5255 50.0476 24.4488 50.0093C24.3337 50.1243 24.3337 50.2777 24.3721 50.4311L24.4488 50.3544Z" fill="white"/>
<path opacity="0.5" d="M26.2896 51.6201C26.2512 51.5818 26.2896 51.5051 26.3279 51.5051C26.3663 51.4667 26.443 51.4667 26.4813 51.5051C26.5197 51.5051 26.5197 51.5434 26.558 51.5434C26.5964 51.5818 26.5964 51.6968 26.558 51.7352C26.5197 51.7735 26.4046 51.7735 26.3663 51.6968C26.3279 51.6585 26.3279 51.5434 26.3663 51.5051L26.2896 51.6201Z" fill="white"/>
<path d="M25.9828 52.1953C25.9061 52.272 25.9828 52.4254 26.0978 52.4254C26.1362 52.3871 26.1745 52.3487 26.1745 52.272C26.1745 52.2337 26.1362 52.157 26.0978 52.157C26.0595 52.157 25.9828 52.1953 25.9828 52.2337V52.1953Z" fill="white"/>
<path d="M24.7172 54.1896C24.7555 54.3046 24.8322 54.4197 24.9473 54.458C24.9856 54.343 25.024 54.2663 25.0623 54.1512C25.0623 54.1129 25.1007 54.0745 25.1007 53.9978C25.0623 53.9211 24.9473 53.8444 24.8706 53.8828C24.7555 53.9978 24.7172 54.0745 24.7172 54.1896Z" fill="white"/>
<path opacity="0.5" d="M25.7143 50.2394C25.676 50.1627 25.676 50.086 25.7143 50.0476C25.7527 49.9709 25.8294 49.9709 25.9061 49.9709C25.9444 49.9709 26.0211 50.0093 25.9828 50.086C25.9828 50.1244 25.9444 50.1243 25.9444 50.1243C25.9061 50.1627 25.8294 50.2394 25.7143 50.2394C25.7527 50.2778 25.7143 50.2394 25.7143 50.2394Z" fill="white"/>
<path opacity="0.5" d="M26.4813 49.0122C26.558 48.9738 26.5964 48.8588 26.5964 48.7821C26.5964 48.7054 26.5964 48.5903 26.6731 48.5136C26.7114 48.5136 26.7114 48.4753 26.7498 48.5136C26.8265 48.552 26.7881 48.6287 26.7881 48.7054C26.7881 48.7437 26.8265 48.8204 26.8265 48.8588C26.8648 48.9738 26.8265 49.1272 26.7114 49.2039C26.6347 49.2039 26.5964 49.2039 26.558 49.1272C26.5197 49.0889 26.5197 49.0122 26.558 48.9355L26.4813 49.0122Z" fill="white"/>
<path opacity="0.5" d="M22.4161 56.1838C22.4928 56.1455 22.5312 56.0304 22.5312 55.9537C22.5312 55.877 22.5312 55.762 22.6079 55.6853C22.6462 55.6853 22.6462 55.6469 22.6846 55.6853C22.7613 55.7236 22.7229 55.8003 22.7229 55.877C22.7229 55.9154 22.7613 55.9921 22.7613 56.0304C22.7996 56.1455 22.7613 56.2989 22.6462 56.3756C22.5695 56.3756 22.5312 56.3756 22.4928 56.2989C22.4545 56.2605 22.4545 56.1838 22.4928 56.1071L22.4161 56.1838Z" fill="white"/>
<path opacity="0.5" d="M27.2484 49.5108C27.2867 49.5108 27.3251 49.5492 27.3251 49.5492C27.3634 49.5108 27.4018 49.4341 27.3634 49.3958C27.3251 49.3574 27.2484 49.3191 27.21 49.3574C27.1717 49.3958 27.1717 49.4725 27.2484 49.5108Z" fill="white"/>
<path d="M25.7144 52.924C25.676 52.8857 25.5993 52.8857 25.561 52.9624C25.5226 53.0391 25.5226 53.0774 25.4843 53.1541C25.4459 53.2308 25.4075 53.2692 25.3308 53.2692C25.2925 53.2692 25.2541 53.2692 25.2158 53.2308C25.2158 53.1925 25.1774 53.1925 25.1774 53.1541C25.1391 53.0391 25.1391 52.8857 25.1774 52.7706C25.2158 52.6556 25.3308 52.5405 25.4843 52.5405C25.561 52.5405 25.676 52.5789 25.7144 52.6556C25.7527 52.7706 25.7527 52.8473 25.7144 52.924Z" fill="white"/>
<path d="M26.2896 54.6498C26.3279 54.7265 26.4046 54.7648 26.4813 54.7265C26.558 54.6881 26.5964 54.6114 26.6347 54.5347C26.6347 54.4964 26.6347 54.458 26.5964 54.458C26.558 54.458 26.558 54.458 26.5197 54.4964C26.443 54.5347 26.3663 54.5731 26.2896 54.6498Z" fill="white"/>
<path d="M23.1832 51.1216C23.1448 50.9682 23.3366 50.7764 23.49 50.8148C23.49 50.9682 23.49 51.0832 23.4133 51.1983C23.3366 51.3133 23.1832 51.39 23.0681 51.275C23.0681 51.1983 23.0298 51.1216 23.0298 51.0449L23.1832 51.1216Z" fill="white"/>
<path opacity="0.5" d="M26.9415 52.2337C26.9799 52.2337 27.0182 52.2721 27.0566 52.2721C27.0949 52.2337 27.0949 52.157 27.0949 52.1187C27.0949 52.0803 27.0182 52.042 26.9799 52.0803C26.9799 52.0803 26.9799 52.1187 26.9799 52.157C26.9799 52.2337 26.9799 52.3104 26.9415 52.3488V52.2337Z" fill="white"/>
<path d="M17.3921 53.4992C17.4688 53.5759 17.5071 53.6142 17.6222 53.6526C17.6989 53.6909 17.8139 53.6909 17.8523 53.6142C17.8907 53.5759 17.8907 53.5375 17.8907 53.4992C17.8907 53.3458 17.7756 53.2307 17.6605 53.2307C17.5071 53.2307 17.3921 53.3458 17.3921 53.4992Z" fill="white"/>
<path d="M21.1505 49.7025C21.2272 49.7025 21.2656 49.7408 21.3423 49.7408C21.3806 49.7025 21.3806 49.6641 21.3806 49.5874C21.3039 49.5491 21.1889 49.5491 21.1505 49.6258V49.7025Z" fill="white"/>
<path d="M12.7134 52.8089C12.675 52.7705 12.7134 52.6938 12.7517 52.6938C12.7901 52.6555 12.8668 52.6555 12.9051 52.6938C12.9435 52.6938 12.9435 52.7322 12.9819 52.7322C13.0202 52.7705 13.0202 52.8856 12.9819 52.9239C12.9435 52.9623 12.8284 52.9623 12.7901 52.8856C12.7517 52.8472 12.7517 52.7322 12.7901 52.6938L12.7134 52.8089Z" fill="white"/>
<path d="M22.1477 50.8531C22.2244 50.8531 22.2628 50.8915 22.3395 50.8915C22.3778 50.8531 22.3778 50.8148 22.3778 50.7381C22.3011 50.6997 22.1861 50.6997 22.1477 50.7764V50.8531Z" fill="white"/>
<path d="M21.2655 55.7618C21.3039 55.8385 21.3806 55.8385 21.4189 55.7618C21.4573 55.6851 21.4957 55.6468 21.534 55.6084C21.5724 55.5701 21.6491 55.5317 21.7258 55.5317C21.7641 55.5317 21.8025 55.5317 21.8408 55.5701C21.8408 55.6084 21.8408 55.6084 21.8408 55.6468C21.8408 55.7618 21.8025 55.9152 21.7258 56.0303C21.6491 56.1454 21.4957 56.2221 21.3806 56.1837C21.3039 56.1454 21.2272 56.0686 21.1888 55.9919C21.1888 55.9152 21.2272 55.8002 21.2655 55.7618Z" fill="white"/>
<path d="M19.0029 52.9241C18.9646 52.8857 18.9262 52.8474 18.8879 52.809C18.8495 52.7707 18.7728 52.7707 18.7345 52.809C18.6578 52.8474 18.6961 52.9624 18.6961 53.0391C18.6578 53.1158 18.5811 53.1542 18.5811 53.2692C18.5811 53.3459 18.6961 53.4227 18.7728 53.3843C18.8495 53.3459 18.9262 53.3076 18.9646 53.2309C19.0029 53.1542 19.0413 53.1158 19.0413 53.0391C19.0413 52.9624 19.0029 52.8857 18.9262 52.8474L19.0029 52.9241Z" fill="white"/>
<path d="M22.8764 53.7295C22.5696 53.6911 22.2627 53.7295 21.9559 53.8445C21.9176 53.8445 21.8792 53.8829 21.8409 53.9212C21.7642 53.9979 21.7642 54.113 21.8025 54.1897C21.8409 54.4198 22.071 54.6115 22.3011 54.6115C22.5312 54.6499 22.7613 54.5348 22.9147 54.3431C22.9914 54.228 23.0681 54.113 23.0681 53.9979C23.0681 53.8829 22.9531 53.7295 22.838 53.7295C22.7997 53.7678 22.838 53.8062 22.8764 53.8062V53.7295Z" fill="white"/>
<path d="M21.9176 55.8004C21.9176 55.8388 21.9176 55.9155 21.956 55.9538C21.9943 55.9922 22.0327 55.9922 22.071 56.0305C22.1861 56.0689 22.3011 56.1072 22.4162 56.1839C22.3395 55.9922 22.2628 55.8004 22.1861 55.6087V55.5703C22.1861 55.532 22.2628 55.4936 22.3011 55.4553C22.3395 55.3786 22.3011 55.3019 22.2628 55.2252C21.8409 54.7266 21.956 55.532 21.9176 55.8004Z" fill="white"/>
<path d="M22.8763 53.806C22.9147 53.806 22.953 53.8444 22.953 53.8444C22.9914 53.806 23.0297 53.7293 22.9914 53.691C22.953 53.6526 22.8763 53.6143 22.838 53.6526C22.838 53.691 22.7996 53.7677 22.8763 53.806Z" fill="white"/>
<path d="M22.8763 55.4934C22.7996 55.5701 22.8379 55.6468 22.9146 55.7235C22.9913 55.7619 23.068 55.8002 23.1447 55.7619C23.1831 55.7619 23.2214 55.7235 23.2214 55.6852C23.2214 55.6468 23.1831 55.6468 23.1831 55.6468C23.068 55.5318 22.953 55.4934 22.8763 55.4934Z" fill="white"/>
<path d="M23.1448 54.3813C23.0681 54.5348 23.0681 54.7265 23.1448 54.8799C23.2215 54.8416 23.2982 54.8416 23.3366 54.7649C23.3749 54.7265 23.4133 54.6498 23.4133 54.5731C23.3749 54.4964 23.2599 54.458 23.1448 54.458C23.1832 54.458 23.1832 54.4197 23.2215 54.4197L23.1448 54.3813Z" fill="white"/>
<path d="M23.6434 53.8443C23.605 53.806 23.605 53.7293 23.605 53.6909C23.7201 53.7293 23.7968 53.8443 23.8351 53.9977C23.8735 54.0744 23.8735 54.1511 23.8351 54.1895C23.7968 54.2278 23.7584 54.2278 23.6817 54.2278C23.605 54.2662 23.4899 54.3812 23.4132 54.3429C23.3749 54.3045 23.3365 54.2662 23.3749 54.1895C23.3749 54.1511 23.4132 54.0744 23.4899 54.0361C23.5666 53.9594 23.6817 53.8443 23.7584 53.7676L23.6434 53.8443Z" fill="white"/>
<path d="M22.2244 55.11C22.1477 55.1867 22.071 55.3401 22.1093 55.4552C22.2244 55.4168 22.3011 55.4168 22.4161 55.3785C22.4545 55.3785 22.5312 55.3401 22.5695 55.3401C22.6462 55.2634 22.6079 55.1484 22.5312 55.11C22.4161 55.0333 22.3011 55.0333 22.2244 55.11Z" fill="white"/>
<path d="M23.8351 55.3401C23.8735 55.2634 23.7968 55.2251 23.7201 55.2251C23.6434 55.2251 23.605 55.2634 23.5283 55.2634C23.4516 55.2634 23.3749 55.225 23.3366 55.1867C23.2982 55.1483 23.2982 55.11 23.2982 55.0716C23.2982 55.0333 23.3366 55.0333 23.3366 54.9949C23.4516 54.9182 23.5667 54.8415 23.6817 54.8032C23.7968 54.7648 23.9502 54.8415 24.0269 54.9566C24.0652 55.0333 24.0652 55.1483 24.0269 55.2251C23.9885 55.3018 23.8735 55.3401 23.8351 55.3401Z" fill="white"/>
<path d="M20.652 52.2721C20.6136 52.3488 20.6136 52.4638 20.6136 52.5405C20.6136 52.6172 20.6903 52.7323 20.7671 52.7323C20.8054 52.7323 20.8438 52.7323 20.8821 52.6939C20.9972 52.6172 21.0355 52.4638 20.9972 52.3488C20.9205 52.2337 20.7671 52.1954 20.652 52.2721Z" fill="white"/>
<path d="M19.8466 54.1128C19.7699 54.2662 19.7699 54.4579 19.8466 54.6114C19.9233 54.573 20 54.573 20.0383 54.4963C20.0767 54.4196 20.115 54.3812 20.115 54.3045C20.0767 54.2278 19.9616 54.1895 19.8466 54.1895C19.8849 54.1895 19.8849 54.1511 19.9233 54.1511L19.8466 54.1128Z" fill="white"/>
<path d="M23.9502 53.6909C24.0269 53.6526 24.0652 53.5375 24.0652 53.4608C24.0652 53.3841 24.0652 53.2691 24.1419 53.2307C24.1803 53.2307 24.1803 53.2307 24.2187 53.2307C24.2954 53.2691 24.257 53.3458 24.257 53.4225C24.257 53.4608 24.2954 53.5375 24.2954 53.5759C24.3337 53.6909 24.257 53.8443 24.1803 53.8827C24.1036 53.8827 24.0652 53.8443 24.0269 53.806C23.9885 53.7676 23.9885 53.6909 24.0269 53.6142L23.9502 53.6909Z" fill="white"/>
<path d="M17.5072 51.0064C17.5455 51.0064 17.5839 51.0064 17.6222 51.0064C17.6222 50.9681 17.6222 50.8914 17.5839 50.853C17.5455 50.8147 17.4688 50.853 17.4305 50.8914C17.3921 50.9297 17.4305 51.0064 17.5072 51.0064Z" fill="white"/>
<path d="M21.7641 54.3814C21.7641 54.4197 21.7641 54.4581 21.7641 54.4964C21.8025 54.4964 21.8792 54.4964 21.9175 54.4581C21.9559 54.4197 21.9559 54.343 21.8792 54.3047C21.8408 54.3047 21.8408 54.3047 21.8025 54.3047C21.7258 54.343 21.6874 54.343 21.6107 54.3814H21.7641Z" fill="white"/>
<path opacity="0.5" d="M34.8034 79.9999C43.4451 79.9999 50.4506 78.4374 50.4506 76.51C50.4506 74.5825 43.4451 73.02 34.8034 73.02C26.1617 73.02 19.1562 74.5825 19.1562 76.51C19.1562 78.4374 26.1617 79.9999 34.8034 79.9999Z" fill="url(#paint0_radial_147_5138)"/>
<path d="M42.9339 59.3671C42.9339 59.3671 42.2052 60.4409 41.2464 61.8215C39.674 64.0842 37.488 67.1139 36.6443 67.6509C36.2608 67.9193 35.9923 66.9605 35.8773 65.5416C35.5705 62.1667 35.8389 55.9922 35.8389 55.9922C35.8389 55.9922 41.093 57.1044 42.9339 59.3671Z" fill="url(#paint1_linear_147_5138)"/>
<path opacity="0.5" d="M42.9339 59.3671C42.9339 59.3671 42.2052 60.4409 41.2464 61.8215C41.2464 61.8215 39.8274 61.5914 37.4497 63.0104C36.5293 63.5473 36.1074 64.5061 35.8773 65.5032C35.5705 62.1284 35.8389 55.9539 35.8389 55.9539C35.8389 55.9539 41.093 57.1044 42.9339 59.3671Z" fill="url(#paint2_linear_147_5138)"/>
<path d="M52.7901 53.5378C51.256 53.1159 49.3768 51.6586 47.9578 49.5109C44.8514 44.8705 41.5149 35.1677 45.5034 33.1734C45.8869 32.9817 47.7661 35.3594 49.7987 38.5042C52.1764 42.2242 54.746 47.0565 55.2829 50.0478C55.7431 53.0392 54.5159 53.998 52.7901 53.5378Z" fill="url(#paint3_linear_147_5138)"/>
<path d="M50.7191 52.4641C50.7191 52.4641 52.0614 47.2484 53.7105 47.3251C55.3596 47.4018 55.5897 52.1956 54.5159 53.1927C53.442 54.1515 51.3327 53.0777 50.7191 52.4641Z" fill="url(#paint4_linear_147_5138)"/>
<path opacity="0.3" d="M52.7901 53.5378C51.256 53.1159 49.3768 51.6586 47.9578 49.5109C44.8514 44.8705 41.5149 35.1677 45.5034 33.1734C45.8869 32.9817 47.7661 35.3594 49.7987 38.5042C49.7987 38.5042 48.8783 45.4457 49.5302 47.9002C50.1822 50.3546 52.4065 51.8887 52.4065 51.8887L52.7901 53.5378Z" fill="url(#paint5_linear_147_5138)"/>
<path d="M28.8591 49.1274C28.629 55.4169 31.3902 58.8685 37.5264 60.3259C43.5475 61.7832 48.8783 56.2223 48.8783 48.0919C48.8783 42.9145 48.5714 38.2357 46.6923 34.8992C45.6184 33.02 44.0844 31.5627 41.8217 30.6806C40.0575 29.9903 38.255 30.6039 36.6443 31.9462C32.3874 35.5128 29.0508 44.2568 28.8591 49.1274Z" fill="url(#paint6_linear_147_5138)"/>
<path opacity="0.3" d="M34.9569 38.7344C34.9569 38.7344 33.116 43.2214 32.349 46.3279C31.4286 50.0095 32.7325 54.0747 32.7325 54.0747L29.2426 52.9626C29.2426 52.9626 28.2838 47.9002 29.511 45.139C30.5465 42.7996 30.8533 41.649 30.8533 41.649L34.9569 38.7344Z" fill="url(#paint7_linear_147_5138)"/>
<path d="M48.9549 49.1658C48.9549 49.1658 48.7247 44.2952 44.3911 43.2214C39.2137 41.9175 34.3048 46.7114 33.6145 50.6615C32.9242 54.6116 33.1926 58.5234 38.0248 59.9424C38.0632 59.9041 47.2674 62.0517 48.9549 49.1658Z" fill="url(#paint8_linear_147_5138)"/>
<path d="M48.8399 49.6643C48.8399 49.6643 48.6098 44.7938 44.2761 43.72C39.0987 42.416 34.1898 47.2099 33.4995 51.16C32.8092 55.1102 33.0776 59.022 37.9099 60.441C37.9482 60.4026 47.1141 62.5503 48.8399 49.6643Z" fill="url(#paint9_radial_147_5138)"/>
<path d="M31.2368 43.1065C31.467 43.1448 31.7354 43.0298 32.0806 42.7613C33.5379 41.6108 35.7239 37.7373 36.2992 35.4363C36.5293 34.5542 36.4909 33.8639 36.1074 33.7105C35.4554 33.4037 33.4612 35.3979 31.9272 38.466C31.0451 40.2685 30.2781 42.8764 31.2368 43.1065Z" fill="url(#paint10_linear_147_5138)"/>
<path d="M32.0421 42.7996C33.4994 41.6491 35.6855 37.7757 36.2607 35.4746C35.3786 36.1649 34.1131 37.7757 33.0776 39.8466C32.6557 40.767 32.2339 41.8792 32.0421 42.7996Z" fill="#6340A2"/>
<path opacity="0.72" d="M48.3413 49.1274C47.3825 50.2012 45.3499 47.9769 42.2435 47.555C39.137 47.1331 37.1044 48.322 36.3374 47.6701C35.5704 47.0181 39.4822 43.183 44.161 44.1801C47.9194 45.0238 48.6864 48.7822 48.3413 49.1274Z" fill="url(#paint11_linear_147_5138)"/>
<path opacity="0.72" d="M42.1667 59.4822C42.1667 59.4822 40.556 60.4409 38.4467 59.9807C36.3374 59.5205 35.8772 58.3316 35.8772 58.3316C35.8772 58.3316 36.9127 58.1782 38.3317 58.8302C39.7123 59.4822 41.1313 59.6356 42.1667 59.4822Z" fill="url(#paint12_linear_147_5138)"/>
<path d="M38.7153 38.7343C39.0604 38.8494 38.9837 41.8408 38.6385 41.8791C38.3317 41.9175 37.7181 41.8024 37.7565 40.5368C37.7565 39.3096 38.3701 38.6576 38.7153 38.7343Z" fill="white"/>
<path d="M35.532 73.135C33.5378 73.1734 25.254 54.88 27.2482 53.4227C30.6231 50.9682 35.2636 55.8771 36.9894 58.6767C37.3729 59.3287 37.6413 59.8656 37.6797 60.1724C37.8331 61.7832 37.5263 73.0967 35.532 73.135Z" fill="url(#paint13_linear_147_5138)"/>
<path d="M34.9568 35.1677C36.069 36.2798 32.8475 42.4927 30.0863 43.5282C27.2866 44.5636 21.2655 43.2981 20.3068 42.9145C19.348 42.531 19.0028 39.3096 19.8849 38.0823C20.767 36.8168 33.4228 33.6336 34.9568 35.1677Z" fill="url(#paint14_linear_147_5138)"/>
<path opacity="0.5" d="M30.4314 34.976C30.4314 34.976 34.7267 38.3892 41.0546 38.044C47.3825 37.6989 47.8427 35.6663 47.8427 35.6663C47.8427 35.6663 45.7718 32.5982 44.0843 32.0613C43.4324 31.8695 36.4525 30.604 34.1898 34.7459C32.6557 34.7459 30.4314 34.976 30.4314 34.976Z" fill="url(#paint15_linear_147_5138)"/>
<path d="M45.58 1.6106C45.58 1.6106 48.8015 3.75825 50.2205 8.78222C51.6395 13.7678 44.1227 7.78509 44.1227 7.78509L45.58 1.6106Z" fill="url(#paint16_linear_147_5138)"/>
<path d="M47.8427 7.7085C47.8427 7.7085 46.9607 1.03544 44.7363 0.153366C42.512 -0.728705 39.5973 2.53112 39.5973 2.53112L47.8427 7.7085Z" fill="url(#paint17_linear_147_5138)"/>
<path d="M29.9328 4.0267C19.9232 10.1245 20.4602 25.3115 24.2952 30.834C28.7823 37.2386 52.2531 33.2117 55.5512 22.6652C58.9261 12.042 42.3969 -3.56678 29.9328 4.0267Z" fill="url(#paint18_linear_147_5138)"/>
<path opacity="0.5" d="M26.9032 19.9424C26.9032 19.9424 25.6759 25.4266 22.5312 26.8072C22.5312 26.8072 21.8025 24.1226 21.8025 22.4352C21.8025 20.7861 26.9032 19.9424 26.9032 19.9424Z" fill="url(#paint19_linear_147_5138)"/>
<path d="M35.8389 5.48421C28.092 9.35765 26.9031 24.9665 32.0421 30.1822C37.1812 35.3596 54.6692 29.8754 55.8964 20.5945C57.0086 12.3107 45.1198 0.843746 35.8389 5.48421Z" fill="url(#paint20_linear_147_5138)"/>
<path opacity="0.5" d="M37.488 30.4123C37.488 30.4123 33.8063 30.9875 32.1956 28.8399C30.5848 26.6922 31.3135 25.0048 31.8504 24.8897C32.349 24.7747 33.9981 27.9961 35.302 29.1467C36.6059 30.2588 37.488 30.4123 37.488 30.4123Z" fill="url(#paint21_linear_147_5138)"/>
<path d="M28.744 10.0863C28.744 10.0863 29.7794 19.5206 23.9501 22.8955C23.9501 22.8955 21.0738 23.2023 19.4247 21.4765C19.4247 21.4765 22.0325 23.8926 24.7555 21.3614C27.4784 18.8303 26.8264 11.8504 24.7555 9.54934C22.6845 7.28663 19.6931 7.8619 19.6931 7.8619L20.882 6.78807C20.882 6.78807 25.2924 5.86765 28.744 10.0863Z" fill="url(#paint22_linear_147_5138)"/>
<path d="M20.882 6.78803C20.882 6.78803 24.1419 6.48122 26.4046 10.2396C28.8207 14.2281 27.0565 21.1313 24.1419 22.2051C21.2272 23.2406 18.2742 12.0805 18.2742 12.0805L19.9616 7.63175C19.9616 7.63175 20.3068 7.01813 20.882 6.78803Z" fill="url(#paint23_linear_147_5138)"/>
<path d="M16.7018 16.299C17.1237 18.4467 18.0058 20.2108 19.1563 21.323L19.5014 21.6298C20.4602 22.3968 21.5724 22.7803 22.7996 22.6269C26.7498 22.1284 27.2867 16.4141 26.8265 13.1542C26.2896 9.39586 23.0681 7.17151 20.5369 7.47831C17.5072 7.90017 15.8581 12.0804 16.7018 16.299Z" fill="url(#paint24_linear_147_5138)"/>
<path opacity="0.72" d="M26.1744 17.718C26.1744 17.718 25.7526 21.2079 23.1831 21.975C20.6136 22.742 18.5043 20.8628 17.8523 18.2549C17.8523 18.2549 18.6577 20.5176 22.0325 19.9424C25.3691 19.3671 26.1744 17.718 26.1744 17.718Z" fill="url(#paint25_linear_147_5138)"/>
<path opacity="0.72" d="M25.7142 11.0833C25.6759 11.7353 20.9587 10.393 19.463 10.5847C17.9673 10.7765 17.3154 12.6173 17.0853 12.579C16.8552 12.5406 17.4688 8.20699 20.2684 7.90018C23.0297 7.59338 25.7142 10.6614 25.7142 11.0833Z" fill="url(#paint26_linear_147_5138)"/>
<path d="M49.7219 17.488C51.3327 18.3701 53.6721 16.4142 53.0968 14.0365C52.5215 11.6587 49.7603 9.74115 48.3796 10.5082C46.999 11.2368 47.0757 15.9924 49.7219 17.488Z" fill="url(#paint27_linear_147_5138)"/>
<path d="M35.2253 22.7804C37.7565 24.5445 40.4794 21.6682 40.4794 19.0987C40.441 16.5292 38.1016 14.0364 35.7622 14.65C33.1927 15.3786 32.6174 20.9779 35.2253 22.7804Z" fill="url(#paint28_linear_147_5138)"/>
<path d="M42.9722 23.6624C42.7421 24.0842 45.8102 26.1552 47.2675 25.5416C48.9933 24.8512 48.7249 21.1696 48.418 20.9395C48.0729 20.7093 43.3557 22.972 42.9722 23.6624Z" fill="#2F95CD"/>
<path opacity="0.5" d="M30.4314 18.9453C31.8121 20.8245 35.7239 14.3816 39.9808 12.1956C44.813 9.70276 51.8312 12.349 52.2914 11.582C52.7517 10.8149 46.7689 4.06518 39.022 5.25406C31.2752 6.48129 29.1275 17.2195 30.4314 18.9453Z" fill="url(#paint29_linear_147_5138)"/>
<path d="M19.7315 22.0133C19.7315 22.0133 19.463 20.1341 20.6519 19.5205C20.6519 19.5205 22.4544 19.4438 22.8763 21.1696C22.8763 21.1696 19.348 32.4831 22.2243 34.2856C24.9089 35.9731 32.0038 32.5215 32.0038 32.5215L32.579 32.9817C32.579 32.9817 26.5579 36.7401 22.7612 35.5896C18.9645 34.4007 19.7315 22.0133 19.7315 22.0133Z" fill="url(#paint30_linear_147_5138)"/>
<path d="M30.2397 32.6749C29.6261 33.9021 31.8121 34.4773 33.3844 34.2089C35.1486 33.9021 38.0249 32.4064 37.3729 30.719C36.721 29.0699 31.6587 29.7985 30.2397 32.6749Z" fill="url(#paint31_linear_147_5138)"/>
<path d="M30.4314 32.8284C30.4698 33.1352 36.6059 31.4861 36.4525 30.3739C36.2991 29.2617 30.2013 30.5273 30.4314 32.8284Z" fill="url(#paint32_linear_147_5138)"/>
<path d="M15.3212 36.7785C15.3212 36.7785 15.5513 35.9731 16.5867 35.5896L17.2387 37.8907L15.3212 36.7785Z" fill="url(#paint33_linear_147_5138)"/>
<path d="M15.5513 30.8341C15.5513 30.8341 18.8111 28.8399 25.6759 28.9933C25.6759 28.9933 28.5522 39.4631 28.8974 46.9415C28.8974 46.9415 24.8705 48.0537 20.4602 47.9003C20.4985 47.9386 17.3154 40.1917 15.5513 30.8341Z" fill="url(#paint34_linear_147_5138)"/>
<path d="M25.7142 28.9932L27.2866 28.418C27.2866 28.418 29.626 38.9261 29.8178 46.7497L28.9741 46.9798L25.7142 28.9932Z" fill="url(#paint35_linear_147_5138)"/>
<path opacity="0.5" d="M18.5426 42.3777L19.3863 44.6788C19.3863 44.6788 21.6874 41.8791 21.4189 39.1946L18.5426 42.3777Z" fill="url(#paint36_linear_147_5138)"/>
<path d="M15.5513 30.8341C15.5513 30.8341 17.9674 28.8782 27.2483 28.418L25.6759 28.9932C25.7143 28.9932 21.4573 28.9165 15.5513 30.8341Z" fill="#FF91FF"/>
<path d="M16.0881 38.0441C16.0881 38.0441 16.2799 42.0325 17.7756 42.8763C17.7756 42.8763 22.0709 40.4602 21.4573 37.9674C21.0354 36.2416 16.0881 38.0441 16.0881 38.0441Z" fill="url(#paint37_linear_147_5138)"/>
<path d="M15.3212 36.7784C15.3212 36.7784 15.3212 40.0382 17.2004 42.0708C17.2004 42.0708 19.6932 41.0737 20.5369 40.0382C21.8792 38.3891 21.3423 37.4687 20.882 37.0852C20.1534 36.5099 15.3212 36.7784 15.3212 36.7784Z" fill="url(#paint38_linear_147_5138)"/>
<path d="M26.7881 32.0996C26.7881 32.0996 27.2483 31.6777 27.7469 31.7544C27.7469 31.7544 28.6673 34.3623 28.4755 36.4716L27.7469 36.6634L26.7881 32.0996Z" fill="url(#paint39_linear_147_5138)"/>
<path d="M26.7881 32.0997C26.7881 32.0997 27.9003 34.6309 28.092 36.5868L28.744 36.3567C28.744 36.3567 28.2838 33.0201 27.7469 31.7929C27.7469 31.7546 27.0949 31.7162 26.7881 32.0997Z" fill="url(#paint40_linear_147_5138)"/>
<path d="M22.4545 33.5571C22.6462 34.5159 22.2244 35.3979 21.534 35.513C20.8437 35.6664 20.1151 35.0144 19.9233 34.0557C19.7316 33.0969 20.1534 32.2148 20.8437 32.0998C21.534 31.9464 22.2627 32.5983 22.4545 33.5571Z" fill="url(#paint41_linear_147_5138)"/>
<path d="M22.301 33.5953C22.4544 34.324 22.1092 35.0143 21.5723 35.1294C21.0354 35.2444 20.4602 34.7458 20.3067 33.9788C20.1533 33.2502 20.4985 32.5598 21.0354 32.4448C21.6107 32.3681 22.1859 32.8666 22.301 33.5953Z" fill="url(#paint42_radial_147_5138)"/>
<path d="M21.649 46.9031V46.0977L26.2895 45.4841L26.6347 46.2128C26.6347 46.2128 24.0268 46.7497 21.649 46.9031Z" fill="url(#paint43_linear_147_5138)"/>
<path opacity="0.5" d="M25.9443 30.2971L19.463 45.1006L20.0383 46.7113C20.0383 46.7113 25.2924 43.4131 27.5167 39.3863C27.5167 39.4246 26.1744 31.6011 25.9443 30.2971Z" fill="url(#paint44_linear_147_5138)"/>
<path opacity="0.5" d="M42.9338 30.3738C42.9338 30.3738 46.1937 29.6835 48.418 26.8072C50.6424 23.9692 53.6337 24.4295 53.6337 24.4295C53.6337 24.4295 49.4151 30.3738 42.9338 30.3738Z" fill="url(#paint45_linear_147_5138)"/>
<path d="M28.9358 7.13326C28.9358 7.74687 32.7709 4.64045 32.2723 4.41035C31.8121 4.14189 28.9358 6.44294 28.9358 7.13326Z" fill="white"/>
<path opacity="0.3" d="M35.8773 51.5052L35.7622 51.3135C35.8006 51.3518 35.8389 51.4285 35.8773 51.5052Z" fill="url(#paint46_linear_147_5138)"/>
<path opacity="0.3" d="M35.532 73.1352C33.5378 73.1736 25.254 54.8802 27.2482 53.4229C27.2482 53.4229 29.7411 64.8898 32.7324 67.8811C35.7621 70.8342 37.718 63.0489 37.1811 59.6741C37.1428 59.3289 37.0661 58.9837 36.9894 58.6769C37.3729 59.3289 37.6413 59.8658 37.6797 60.1726C37.8331 61.7833 37.5263 73.0969 35.532 73.1352Z" fill="url(#paint47_linear_147_5138)"/>
<path d="M30.7765 56.6059C30.4697 57.1045 31.2368 60.0959 31.6586 60.0575C32.0805 59.9808 32.1572 58.4084 31.9654 57.9099C31.7737 57.3729 30.8532 56.4909 30.7765 56.6059Z" fill="white"/>
<path d="M31.7736 60.5561C31.4285 60.7479 31.8503 61.63 32.0805 61.63C32.3489 61.5916 32.0805 60.4027 31.7736 60.5561Z" fill="white"/>
<path d="M41.7066 1.61062C41.9367 2.10918 43.5475 1.07371 43.3174 0.613495C43.0873 0.191635 41.4765 1.11206 41.7066 1.61062Z" fill="white"/>
<path d="M15.743 37.5839C15.743 37.8907 17.3538 37.5456 17.2387 37.2771C17.1237 37.0087 15.743 37.0854 15.743 37.5839Z" fill="white"/>
<path d="M20.2301 21.0547C19.8083 20.9013 19.6165 26.7307 19.9617 26.8074C20.3068 26.8841 20.8821 21.2465 20.2301 21.0547Z" fill="url(#paint48_linear_147_5138)"/>
<path d="M58.1208 50.8148C58.1208 50.8148 56.7786 49.089 54.9377 48.9356C53.0969 48.7822 52.4833 49.3191 52.1764 50.6231C51.8696 51.927 54.7076 56.4524 58.0825 59.8273C59.4631 59.8656 59.8083 58.1398 59.9617 57.0277C59.885 56.0689 59.4631 53.0008 58.1208 50.8148Z" fill="url(#paint49_linear_147_5138)"/>
<path d="M53.5571 48.974C53.5571 48.974 57.2004 53.5761 58.4276 56.2607C59.0796 57.718 59.4631 58.6768 59.4631 58.6768C59.4631 58.6768 58.6961 60.9778 57.1237 59.1753C54.8993 56.6058 51.908 52.7324 52.3298 50.7381C52.675 49.0507 52.9434 48.7439 53.5571 48.974Z" fill="url(#paint50_linear_147_5138)"/>
<path opacity="0.5" d="M56.6634 53.2309C56.6634 53.2309 56.3183 55.8004 54.7842 56.2606L54.2473 50.1628C54.2473 50.1628 56.1649 52.4639 56.6634 53.2309Z" fill="url(#paint51_linear_147_5138)"/>
<path d="M55.091 51.582C55.3595 52.1572 55.091 56.0307 54.7075 56.4909C54.324 56.9511 53.3269 56.2608 53.0201 55.4938C52.7133 54.7267 51.2943 50.5465 52.79 49.1275C52.7516 49.0892 54.0172 49.1659 55.091 51.582Z" fill="url(#paint52_linear_147_5138)"/>
<path d="M54.4007 52.1188C54.5541 52.1571 54.8225 53.4611 54.7075 53.6912C54.5924 53.9213 54.2856 53.9213 54.1322 53.6145C53.9788 53.346 54.1322 52.0804 54.4007 52.1188Z" fill="white"/>
</g>
<defs>
<radialGradient id="paint0_radial_147_5138" cx="0" cy="0" r="1" gradientUnits="userSpaceOnUse" gradientTransform="translate(34.7846 76.5087) scale(15.6423 3.48042)">
<stop stop-color="#BE9DEA"/>
<stop offset="0.3883" stop-color="#E0BFF5"/>
<stop offset="1" stop-color="white"/>
</radialGradient>
<linearGradient id="paint1_linear_147_5138" x1="36.52" y1="67.7108" x2="39.6043" y2="57.0285" gradientUnits="userSpaceOnUse">
<stop stop-color="#CBC1F7"/>
<stop offset="1" stop-color="#D4BEF1"/>
</linearGradient>
<linearGradient id="paint2_linear_147_5138" x1="39.3567" y1="65.5557" x2="39.3567" y2="55.9921" gradientUnits="userSpaceOnUse">
<stop stop-color="#8DA4E5"/>
<stop offset="1" stop-color="#755CBB"/>
</linearGradient>
<linearGradient id="paint3_linear_147_5138" x1="48.3786" y1="53.0206" x2="50.7882" y2="33.8344" gradientUnits="userSpaceOnUse">
<stop stop-color="#CBC1F7"/>
<stop offset="1" stop-color="#D4BEF1"/>
</linearGradient>
<linearGradient id="paint4_linear_147_5138" x1="53.777" y1="53.5618" x2="51.9205" y2="47.867" gradientUnits="userSpaceOnUse">
<stop stop-color="#BE9DEA"/>
<stop offset="1" stop-color="#9E8CEF"/>
</linearGradient>
<linearGradient id="paint5_linear_147_5138" x1="48.2088" y1="53.5388" x2="48.2088" y2="33.1737" gradientUnits="userSpaceOnUse">
<stop stop-color="#9D68C2"/>
<stop offset="1" stop-color="#CCEDFF"/>
</linearGradient>
<linearGradient id="paint6_linear_147_5138" x1="37.4581" y1="60.3552" x2="41.2171" y2="30.4536" gradientUnits="userSpaceOnUse">
<stop stop-color="#CBC1F7"/>
<stop offset="1" stop-color="#E8DCF7"/>
</linearGradient>
<linearGradient id="paint7_linear_147_5138" x1="30.0726" y1="53.4218" x2="33.8903" y2="38.4702" gradientUnits="userSpaceOnUse">
<stop stop-color="#9D68C2"/>
<stop offset="1" stop-color="#CCEDFF"/>
</linearGradient>
<linearGradient id="paint8_linear_147_5138" x1="48.0853" y1="53.3006" x2="33.8777" y2="49.6728" gradientUnits="userSpaceOnUse">
<stop stop-color="#BE9DEA"/>
<stop offset="1" stop-color="#9E8CEF"/>
</linearGradient>
<radialGradient id="paint9_radial_147_5138" cx="0" cy="0" r="1" gradientUnits="userSpaceOnUse" gradientTransform="translate(39.1007 57.8654) rotate(-165.676) scale(11.0817 11.0817)">
<stop stop-color="#45FFCD"/>
<stop offset="1" stop-color="#22E0FF"/>
</radialGradient>
<linearGradient id="paint10_linear_147_5138" x1="35.4139" y1="38.8593" x2="31.7559" y2="37.9253" gradientUnits="userSpaceOnUse">
<stop stop-color="#8879EA"/>
<stop offset="1" stop-color="#9E8CEF"/>
</linearGradient>
<linearGradient id="paint11_linear_147_5138" x1="48.621" y1="48.1192" x2="36.8324" y2="45.1091" gradientUnits="userSpaceOnUse">
<stop/>
<stop offset="1" stop-color="#D4E2FF"/>
</linearGradient>
<linearGradient id="paint12_linear_147_5138" x1="38.7245" y1="60.0543" x2="39.0721" y2="58.6929" gradientUnits="userSpaceOnUse">
<stop stop-color="#D4E2FF"/>
<stop offset="1"/>
</linearGradient>
<linearGradient id="paint13_linear_147_5138" x1="29.7313" y1="71.8238" x2="33.9062" y2="53.7543" gradientUnits="userSpaceOnUse">
<stop stop-color="#CBC1F7"/>
<stop offset="1" stop-color="#E8DCF7"/>
</linearGradient>
<linearGradient id="paint14_linear_147_5138" x1="26.5009" y1="43.9922" x2="27.7531" y2="34.0214" gradientUnits="userSpaceOnUse">
<stop stop-color="#CBC1F7"/>
<stop offset="1" stop-color="#E8DCF7"/>
</linearGradient>
<linearGradient id="paint15_linear_147_5138" x1="38.4013" y1="38.1478" x2="40.2018" y2="31.0963" gradientUnits="userSpaceOnUse">
<stop stop-color="#8DA4E5"/>
<stop offset="1" stop-color="#755CBB"/>
</linearGradient>
<linearGradient id="paint16_linear_147_5138" x1="47.8194" y1="11.192" x2="45.6681" y2="1.59763" gradientUnits="userSpaceOnUse">
<stop stop-color="#45FFCD"/>
<stop offset="1" stop-color="#22E0FF"/>
</linearGradient>
<linearGradient id="paint17_linear_147_5138" x1="44.4972" y1="8.46011" x2="42.6475" y2="0.210846" gradientUnits="userSpaceOnUse">
<stop stop-color="#B9ACF4"/>
<stop offset="1" stop-color="#E1D1F5"/>
</linearGradient>
<linearGradient id="paint18_linear_147_5138" x1="37.0163" y1="34.5536" x2="41.0546" y2="2.40078" gradientUnits="userSpaceOnUse">
<stop stop-color="#CBC1F7"/>
<stop offset="1" stop-color="#E8DCF7"/>
</linearGradient>
<linearGradient id="paint19_linear_147_5138" x1="24.3422" y1="26.8164" x2="24.3422" y2="19.9423" gradientUnits="userSpaceOnUse">
<stop stop-color="#8DA4E5"/>
<stop offset="1" stop-color="#755CBB"/>
</linearGradient>
<linearGradient id="paint20_linear_147_5138" x1="42.451" y1="32.1723" x2="42.451" y2="4.4136" gradientUnits="userSpaceOnUse">
<stop stop-color="#0665BD"/>
<stop offset="1" stop-color="#1A1F77"/>
</linearGradient>
<linearGradient id="paint21_linear_147_5138" x1="34.0849" y1="30.2571" x2="34.7175" y2="25.2206" gradientUnits="userSpaceOnUse">
<stop/>
<stop offset="1" stop-color="#6A9BFF"/>
</linearGradient>
<linearGradient id="paint22_linear_147_5138" x1="24.131" y1="22.8869" x2="24.131" y2="6.69852" gradientUnits="userSpaceOnUse">
<stop stop-color="#B9ACF4"/>
<stop offset="1" stop-color="#E1D1F5"/>
</linearGradient>
<linearGradient id="paint23_linear_147_5138" x1="22.8909" y1="22.2721" x2="22.8909" y2="6.77372" gradientUnits="userSpaceOnUse">
<stop stop-color="#BE9DEA"/>
<stop offset="1" stop-color="#9E8CEF"/>
</linearGradient>
<linearGradient id="paint24_linear_147_5138" x1="21.7212" y1="22.657" x2="21.7212" y2="7.46554" gradientUnits="userSpaceOnUse">
<stop stop-color="#45FFCD"/>
<stop offset="1" stop-color="#22E0FF"/>
</linearGradient>
<linearGradient id="paint25_linear_147_5138" x1="22.0119" y1="22.1607" x2="22.0119" y2="17.7239" gradientUnits="userSpaceOnUse">
<stop stop-color="#D4E2FF"/>
<stop offset="1"/>
</linearGradient>
<linearGradient id="paint26_linear_147_5138" x1="25.7002" y1="10.2443" x2="17.0071" y2="10.2443" gradientUnits="userSpaceOnUse">
<stop/>
<stop offset="1" stop-color="#D4E2FF"/>
</linearGradient>
<linearGradient id="paint27_linear_147_5138" x1="52.1787" y1="17.0735" x2="48.0245" y2="10.7112" gradientUnits="userSpaceOnUse">
<stop stop-color="#45FFCD"/>
<stop offset="1" stop-color="#22E0FF"/>
</linearGradient>
<linearGradient id="paint28_linear_147_5138" x1="38.7237" y1="22.7223" x2="34.9576" y2="15.0179" gradientUnits="userSpaceOnUse">
<stop stop-color="#45FFCD"/>
<stop offset="1" stop-color="#22E0FF"/>
</linearGradient>
<linearGradient id="paint29_linear_147_5138" x1="30.0746" y1="12.2107" x2="52.3158" y2="12.2107" gradientUnits="userSpaceOnUse">
<stop/>
<stop offset="1" stop-color="#6A9BFF"/>
</linearGradient>
<linearGradient id="paint30_linear_147_5138" x1="24.0241" y1="35.8948" x2="27.5834" y2="21.1181" gradientUnits="userSpaceOnUse">
<stop stop-color="#BE9DEA"/>
<stop offset="1" stop-color="#9E8CEF"/>
</linearGradient>
<linearGradient id="paint31_linear_147_5138" x1="33.8902" y1="34.2572" x2="33.7219" y2="29.9113" gradientUnits="userSpaceOnUse">
<stop stop-color="#DD1A8F"/>
<stop offset="1" stop-color="#FE117E"/>
</linearGradient>
<linearGradient id="paint32_linear_147_5138" x1="33.5873" y1="32.1559" x2="33.095" y2="30.3761" gradientUnits="userSpaceOnUse">
<stop stop-color="#D93DE3"/>
<stop offset="1" stop-color="#FF6DBA"/>
</linearGradient>
<linearGradient id="paint33_linear_147_5138" x1="16.3457" y1="38.0022" x2="16.1061" y2="35.6502" gradientUnits="userSpaceOnUse">
<stop stop-color="#BE9DEA"/>
<stop offset="1" stop-color="#9E8CEF"/>
</linearGradient>
<linearGradient id="paint34_linear_147_5138" x1="20.4519" y1="47.9086" x2="24.2719" y2="28.7118" gradientUnits="userSpaceOnUse">
<stop stop-color="#D93DE3"/>
<stop offset="1" stop-color="#FF6DBA"/>
</linearGradient>
<linearGradient id="paint35_linear_147_5138" x1="27.1021" y1="46.8314" x2="28.4035" y2="28.4946" gradientUnits="userSpaceOnUse">
<stop stop-color="#A242EA"/>
<stop offset="1" stop-color="#FE117E"/>
</linearGradient>
<linearGradient id="paint36_linear_147_5138" x1="18.5255" y1="41.9432" x2="21.4221" y2="41.9432" gradientUnits="userSpaceOnUse">
<stop stop-color="#8DA4E5"/>
<stop offset="1" stop-color="#755CBB"/>
</linearGradient>
<linearGradient id="paint37_linear_147_5138" x1="18.1817" y1="42.9439" x2="18.9852" y2="37.0506" gradientUnits="userSpaceOnUse">
<stop stop-color="#BE9DEA"/>
<stop offset="1" stop-color="#9E8CEF"/>
</linearGradient>
<linearGradient id="paint38_linear_147_5138" x1="16.7524" y1="41.9051" x2="18.8726" y2="36.3056" gradientUnits="userSpaceOnUse">
<stop stop-color="#CBC1F7"/>
<stop offset="1" stop-color="#E8DCF7"/>
</linearGradient>
<linearGradient id="paint39_linear_147_5138" x1="27.1676" y1="36.5442" x2="28.1081" y2="31.8179" gradientUnits="userSpaceOnUse">
<stop stop-color="#D93DE3"/>
<stop offset="1" stop-color="#FF6DBA"/>
</linearGradient>
<linearGradient id="paint40_linear_147_5138" x1="27.5922" y1="36.5239" x2="27.9304" y2="31.7581" gradientUnits="userSpaceOnUse">
<stop stop-color="#B31A8F"/>
<stop offset="1" stop-color="#92117E"/>
</linearGradient>
<linearGradient id="paint41_linear_147_5138" x1="21.3895" y1="35.5366" x2="20.9544" y2="32.0743" gradientUnits="userSpaceOnUse">
<stop stop-color="#B31A8F"/>
<stop offset="1" stop-color="#FE117E"/>
</linearGradient>
<radialGradient id="paint42_radial_147_5138" cx="0" cy="0" r="1" gradientUnits="userSpaceOnUse" gradientTransform="translate(21.3349 33.8053) rotate(-11.2212) scale(1.19496)">
<stop stop-color="#45FFCD"/>
<stop offset="1" stop-color="#22E0FF"/>
</radialGradient>
<linearGradient id="paint43_linear_147_5138" x1="21.6576" y1="46.1894" x2="26.6484" y2="46.1894" gradientUnits="userSpaceOnUse">
<stop stop-color="#B31A8F"/>
<stop offset="1" stop-color="#92117E"/>
</linearGradient>
<linearGradient id="paint44_linear_147_5138" x1="23.494" y1="46.7349" x2="23.494" y2="30.3064" gradientUnits="userSpaceOnUse">
<stop/>
<stop offset="1" stop-color="#6A9BFF"/>
</linearGradient>
<linearGradient id="paint45_linear_147_5138" x1="47.8365" y1="30.9928" x2="48.7379" y2="23.8157" gradientUnits="userSpaceOnUse">
<stop/>
<stop offset="1" stop-color="#6A9BFF"/>
</linearGradient>
<linearGradient id="paint46_linear_147_5138" x1="35.8365" y1="51.5029" x2="35.8365" y2="51.3164" gradientUnits="userSpaceOnUse">
<stop stop-color="#9D68C2"/>
<stop offset="1" stop-color="#CCEDFF"/>
</linearGradient>
<linearGradient id="paint47_linear_147_5138" x1="33.1536" y1="73.2782" x2="32.0674" y2="53.1942" gradientUnits="userSpaceOnUse">
<stop stop-color="#9D68C2"/>
<stop offset="1" stop-color="#CCEDFF"/>
</linearGradient>
<linearGradient id="paint48_linear_147_5138" x1="20.1679" y1="26.8174" x2="20.1679" y2="21.0466" gradientUnits="userSpaceOnUse">
<stop stop-color="#CBC1F7"/>
<stop offset="1" stop-color="#E8DCF7"/>
</linearGradient>
<linearGradient id="paint49_linear_147_5138" x1="57.1319" y1="60.0166" x2="55.1558" y2="48.6921" gradientUnits="userSpaceOnUse">
<stop stop-color="#CBC1F7"/>
<stop offset="1" stop-color="#E8DCF7"/>
</linearGradient>
<linearGradient id="paint50_linear_147_5138" x1="55.6246" y1="59.7044" x2="56.1966" y2="49.0643" gradientUnits="userSpaceOnUse">
<stop stop-color="#BE9DEA"/>
<stop offset="1" stop-color="#9E8CEF"/>
</linearGradient>
<linearGradient id="paint51_linear_147_5138" x1="55.215" y1="56.2572" x2="55.5396" y2="50.2194" gradientUnits="userSpaceOnUse">
<stop stop-color="#8DA4E5"/>
<stop offset="1" stop-color="#755CBB"/>
</linearGradient>
<linearGradient id="paint52_linear_147_5138" x1="54.4377" y1="56.5903" x2="53.1155" y2="49.0132" gradientUnits="userSpaceOnUse">
<stop stop-color="#CBC1F7"/>
<stop offset="1" stop-color="#E8DCF7"/>
</linearGradient>
<clipPath id="clip0_147_5138">
<rect width="78.5043" height="80" fill="white" transform="translate(0.747803)"/>
</clipPath>
</defs>
</svg>
