<svg width="11" height="9" viewBox="0 0 11 9" fill="none" xmlns="http://www.w3.org/2000/svg">
<path d="M4.01924 8.2591C3.92521 8.2588 3.83225 8.23917 3.74613 8.20142C3.66001 8.16367 3.58258 8.10861 3.51864 8.03966L0.185882 4.49432C0.0612988 4.36156 -0.00543988 4.18474 0.000347276 4.00276C0.00613444 3.82079 0.0839734 3.64857 0.216741 3.52398C0.349508 3.3994 0.526328 3.33266 0.708302 3.33845C0.890276 3.34424 1.0625 3.42208 1.18708 3.55484L4.01238 6.5653L9.77956 0.256373C9.83809 0.183492 9.9109 0.123347 9.99351 0.079629C10.0761 0.0359114 10.1668 0.00954519 10.26 0.00214979C10.3532 -0.00524561 10.4469 0.00648602 10.5354 0.0366239C10.6238 0.0667619 10.7052 0.11467 10.7745 0.177405C10.8438 0.240141 10.8995 0.316379 10.9383 0.401438C10.977 0.486497 10.998 0.578581 10.9999 0.672034C11.0017 0.765486 10.9845 0.858334 10.9492 0.944875C10.9138 1.03142 10.8612 1.10982 10.7945 1.17528L4.5267 8.03281C4.46336 8.103 4.3862 8.15933 4.30005 8.19828C4.2139 8.23722 4.12063 8.25793 4.0261 8.2591H4.01924Z" fill="white"/>
</svg>
