<svg width="58" height="24" viewBox="0 0 58 24" fill="none" xmlns="http://www.w3.org/2000/svg">
<path d="M34.2972 8.12571C34.2972 8.54211 34.2014 8.92437 34.01 9.27251C33.8186 9.61382 33.5246 9.89028 33.1281 10.1019C32.7316 10.3135 32.2393 10.4193 31.6514 10.4193H30.5644V12.9996H28.8108V5.81165H31.6514C32.2257 5.81165 32.7111 5.91062 33.1076 6.10858C33.5041 6.30654 33.8015 6.57959 33.9998 6.92772C34.198 7.27586 34.2972 7.67519 34.2972 8.12571ZM31.5181 9.02677C31.8531 9.02677 32.1026 8.94827 32.2667 8.79126C32.4308 8.63426 32.5128 8.41241 32.5128 8.12571C32.5128 7.83902 32.4308 7.61717 32.2667 7.46016C32.1026 7.30316 31.8531 7.22466 31.5181 7.22466H30.5644V9.02677H31.5181Z" fill="#1C1F5A"/>
<path d="M36.9637 8.23835C37.1688 7.92434 37.4251 7.6786 37.7328 7.50112C38.0404 7.31681 38.3823 7.22466 38.7583 7.22466V9.07796H38.2763C37.8388 9.07796 37.5106 9.17353 37.2918 9.36466C37.0731 9.54897 36.9637 9.87662 36.9637 10.3476V12.9996H35.2101V7.2861H36.9637V8.23835Z" fill="#1C1F5A"/>
<path d="M42.2012 13.0815C41.6406 13.0815 41.1347 12.962 40.6835 12.7231C40.2391 12.4842 39.887 12.1429 39.6272 11.6992C39.3743 11.2555 39.2478 10.7367 39.2478 10.1428C39.2478 9.55579 39.3777 9.04042 39.6375 8.59672C39.8973 8.14619 40.2528 7.80147 40.704 7.56256C41.1552 7.32364 41.6611 7.20418 42.2217 7.20418C42.7823 7.20418 43.2882 7.32364 43.7394 7.56256C44.1906 7.80147 44.5462 8.14619 44.8059 8.59672C45.0657 9.04042 45.1956 9.55579 45.1956 10.1428C45.1956 10.7299 45.0623 11.2487 44.7957 11.6992C44.5359 12.1429 44.177 12.4842 43.7189 12.7231C43.2677 12.962 42.7618 13.0815 42.2012 13.0815ZM42.2012 11.5661C42.5362 11.5661 42.8199 11.4432 43.0524 11.1975C43.2916 10.9517 43.4113 10.6002 43.4113 10.1428C43.4113 9.68549 43.2951 9.33394 43.0626 9.0882C42.837 8.84246 42.5567 8.71959 42.2217 8.71959C41.8799 8.71959 41.5962 8.84246 41.3706 9.0882C41.1449 9.32712 41.0321 9.67866 41.0321 10.1428C41.0321 10.6002 41.1415 10.9517 41.3603 11.1975C41.5859 11.4432 41.8662 11.5661 42.2012 11.5661Z" fill="#1C1F5A"/>
<path d="M49.5101 12.9996L48.4128 11.4125L47.4898 12.9996H45.5927L47.4796 10.0814L45.5414 7.2861H47.5103L48.6076 8.86294L49.5306 7.2861H51.4277L49.5101 10.1633L51.479 12.9996H49.5101Z" fill="#1C1F5A"/>
<path d="M58 7.2861L54.4108 15.713H52.5239L53.8365 12.805L51.5086 7.2861H53.4673L54.7902 10.8596L56.1028 7.2861H58Z" fill="#1C1F5A"/>
<path d="M32.9539 15.2769L32.198 18.1556H31.3429L30.8803 16.2611L30.4011 18.1556H29.5461L28.8108 15.2769H29.5667L29.9839 17.3723L30.5003 15.2769H31.2769L31.7725 17.3723L32.1939 15.2769H32.9539Z" fill="#1C1F5A"/>
<path d="M33.1677 17.0074C33.1677 16.7723 33.2118 16.5659 33.2999 16.3882C33.3908 16.2105 33.5133 16.0738 33.6676 15.9781C33.8218 15.8824 33.9939 15.8346 34.1839 15.8346C34.3464 15.8346 34.4882 15.8674 34.6094 15.933C34.7333 15.9986 34.8283 16.0847 34.8944 16.1914V15.8674H35.6008V18.1556H34.8944V17.8316C34.8256 17.9382 34.7292 18.0243 34.6052 18.0899C34.4841 18.1556 34.3423 18.1884 34.1798 18.1884C33.9925 18.1884 33.8218 18.1405 33.6676 18.0448C33.5133 17.9464 33.3908 17.8084 33.2999 17.6307C33.2118 17.4502 33.1677 17.2425 33.1677 17.0074ZM34.8944 17.0115C34.8944 16.8365 34.8448 16.6985 34.7457 16.5973C34.6493 16.4962 34.5309 16.4456 34.3904 16.4456C34.25 16.4456 34.1302 16.4962 34.0311 16.5973C33.9347 16.6957 33.8865 16.8324 33.8865 17.0074C33.8865 17.1823 33.9347 17.3218 34.0311 17.4256C34.1302 17.5268 34.25 17.5774 34.3904 17.5774C34.5309 17.5774 34.6493 17.5268 34.7457 17.4256C34.8448 17.3245 34.8944 17.1864 34.8944 17.0115Z" fill="#1C1F5A"/>
<path d="M36.8181 15.1211V18.1556H36.1118V15.1211H36.8181Z" fill="#1C1F5A"/>
<path d="M38.0364 15.1211V18.1556H37.33V15.1211H38.0364Z" fill="#1C1F5A"/>
<path d="M40.7211 16.9746C40.7211 17.0402 40.7169 17.1085 40.7087 17.1796H39.1101C39.1211 17.3218 39.1665 17.4311 39.2464 17.5077C39.329 17.5815 39.4295 17.6184 39.5479 17.6184C39.7242 17.6184 39.8467 17.5446 39.9156 17.3969H40.6674C40.6288 17.5473 40.5586 17.6826 40.4567 17.8029C40.3575 17.9232 40.2322 18.0175 40.0808 18.0858C39.9293 18.1542 39.76 18.1884 39.5727 18.1884C39.3469 18.1884 39.1459 18.1405 38.9696 18.0448C38.7934 17.9492 38.6557 17.8125 38.5565 17.6348C38.4574 17.4571 38.4078 17.2493 38.4078 17.0115C38.4078 16.7736 38.456 16.5659 38.5524 16.3882C38.6515 16.2105 38.7892 16.0738 38.9655 15.9781C39.1417 15.8824 39.3441 15.8346 39.5727 15.8346C39.7958 15.8346 39.994 15.8811 40.1675 15.974C40.341 16.067 40.476 16.1996 40.5723 16.3718C40.6715 16.544 40.7211 16.7449 40.7211 16.9746ZM39.9982 16.79C39.9982 16.6698 39.9569 16.5741 39.8742 16.503C39.7916 16.4319 39.6884 16.3964 39.5644 16.3964C39.446 16.3964 39.3455 16.4306 39.2629 16.4989C39.183 16.5672 39.1335 16.6643 39.1142 16.79H39.9982Z" fill="#1C1F5A"/>
<path d="M42.3784 17.561V18.1556H42.019C41.7629 18.1556 41.5632 18.094 41.42 17.971C41.2768 17.8453 41.2052 17.6416 41.2052 17.36V16.4497H40.9243V15.8674H41.2052V15.3097H41.9116V15.8674H42.3742V16.4497H41.9116V17.3682C41.9116 17.4366 41.9281 17.4858 41.9612 17.5159C41.9942 17.5459 42.0493 17.561 42.1264 17.561H42.3784Z" fill="#1C1F5A"/>
<ellipse cx="12.0541" cy="12" rx="12.0541" ry="12" fill="#F5F7FB"/>
<g clip-path="url(#clip0_941_448)">
<path d="M16.3987 6.8042C16.3987 6.8042 17.4499 5.90636 18.7179 5.75671C18.7179 5.75671 19.1017 5.93961 19.5689 7.35289C20.0194 8.74954 19.1851 11.5262 19.1851 11.5262L16.3987 6.8042Z" fill="url(#paint0_linear_941_448)"/>
<path d="M18.0505 8.7661C18.0505 8.7661 17.7835 7.25306 18.7846 6.12244C18.7846 6.12244 19.9192 6.6545 20.3864 8.63309C20.8536 10.6117 19.6356 11.7922 19.6356 11.7922L18.0505 8.7661Z" fill="#22E0FF"/>
<path d="M18.2674 6.03932C18.2174 5.97281 17.6835 6.0892 17.4666 6.20559L18.2674 6.03932Z" fill="#F5F7FB"/>
<path d="M7.6389 7.03699C7.6389 7.03699 6.58772 6.13914 5.31964 5.9895C5.31964 5.9895 4.93588 6.1724 4.46869 7.58568C4.01818 8.98233 4.85245 11.759 4.85245 11.759L7.6389 7.03699Z" fill="url(#paint1_linear_941_448)"/>
<path d="M5.31958 5.97278C5.31958 5.97278 6.35407 7.07015 6.35407 8.84922L5.31958 5.97278Z" fill="url(#paint2_linear_941_448)"/>
<path d="M6.00373 8.99889C6.00373 8.99889 6.27069 7.48585 5.26957 6.35522C5.26957 6.35522 4.13497 6.88728 3.66778 8.86588C3.20059 10.8445 4.5521 12.158 4.5521 12.158L6.00373 8.99889Z" fill="#22E0FF"/>
<path d="M6.35407 6.68779C5.95363 6.63791 5.73672 6.322 5.78677 6.25549L6.35407 6.68779Z" fill="#F5F7FB"/>
<path d="M4.71891 16.6473C6.3207 20.3218 18.2841 19.1746 19.719 16.1651C21.2874 12.8564 17.6834 4.70921 11.9603 5.09163C7.10491 5.39091 2.66662 11.9253 4.71891 16.6473Z" fill="url(#paint3_linear_941_448)"/>
<path d="M5.36958 16.1152C6.90463 19.1413 17.3496 18.6425 18.868 15.8658C20.1695 13.5048 17.0994 6.35523 11.8602 6.60463C6.62098 6.85403 3.90127 13.2221 5.36958 16.1152Z" fill="url(#paint4_linear_941_448)"/>
<path d="M16.7156 12.5737C16.5154 13.1224 13.7623 13.0559 13.7623 12.8564C13.779 11.759 14.363 10.3291 15.4642 10.3291C16.5988 10.3457 17.0994 11.5429 16.7156 12.5737Z" fill="#37F3E2"/>
<path d="M7.43866 12.6402C7.67225 13.1723 10.4253 12.9561 10.4086 12.7566C10.3252 11.6592 9.65781 10.2626 8.57326 10.3291C7.42197 10.4122 6.98816 11.6426 7.43866 12.6402Z" fill="#45FFE9"/>
<path d="M10.442 14.6687C10.0249 14.7684 10.8925 16.1484 12.2774 16.1484C13.5121 16.1484 14.2129 14.7352 14.0461 14.6687C13.8959 14.6021 13.1451 14.9846 12.1273 14.9846C11.1094 14.9846 10.6256 14.6354 10.442 14.6687Z" fill="#2F95CD"/>
<path d="M13.6288 5.75671C13.512 5.88973 14.7968 6.43841 14.9637 6.35528L13.6288 5.75671Z" fill="#F5F7FB"/>
<path opacity="0.5" d="M7.22165 9.63071C7.10486 10.3457 8.47305 10.2625 10.6421 10.196C13.2617 10.1129 15.898 12.3575 17.4331 10.7447C17.6834 10.4787 15.1806 6.98704 12.1438 7.05355C9.12378 7.13668 7.32177 8.99889 7.22165 9.63071Z" fill="url(#paint5_linear_941_448)"/>
</g>
<defs>
<linearGradient id="paint0_linear_941_448" x1="18.0512" y1="11.5199" x2="18.0512" y2="5.75454" gradientUnits="userSpaceOnUse">
<stop stop-color="#B9ACF4"/>
<stop offset="1" stop-color="#E1D1F5"/>
</linearGradient>
<linearGradient id="paint1_linear_941_448" x1="5.99787" y1="11.7448" x2="5.99787" y2="5.97939" gradientUnits="userSpaceOnUse">
<stop stop-color="#B9ACF4"/>
<stop offset="1" stop-color="#E1D1F5"/>
</linearGradient>
<linearGradient id="paint2_linear_941_448" x1="5.84273" y1="8.86199" x2="5.84273" y2="5.9793" gradientUnits="userSpaceOnUse">
<stop stop-color="#BE9DEA"/>
<stop offset="1" stop-color="#9E8CEF"/>
</linearGradient>
<linearGradient id="paint3_linear_941_448" x1="11.5062" y1="19.1331" x2="13.2588" y2="5.12988" gradientUnits="userSpaceOnUse">
<stop stop-color="#CBC1F7"/>
<stop offset="1" stop-color="#E8DCF7"/>
</linearGradient>
<linearGradient id="paint4_linear_941_448" x1="12.0743" y1="18.1744" x2="12.0743" y2="6.59958" gradientUnits="userSpaceOnUse">
<stop stop-color="#0665BD"/>
<stop offset="1" stop-color="#1A1F77"/>
</linearGradient>
<linearGradient id="paint5_linear_941_448" x1="7.20916" y1="9.18824" x2="17.4556" y2="9.18824" gradientUnits="userSpaceOnUse">
<stop stop-color="#2548A5"/>
<stop offset="1" stop-color="#6A9BFF"/>
</linearGradient>
<clipPath id="clip0_941_448">
<rect width="16.9189" height="13.8834" fill="white" transform="translate(3.56763 5.05835)"/>
</clipPath>
</defs>
</svg>
