<svg width="153" height="66" viewBox="0 0 153 66" fill="none" xmlns="http://www.w3.org/2000/svg">
<path d="M29.1733 12.6601C29.1733 14.8462 28.6732 16.8531 27.6732 18.6808C26.6732 20.4726 25.1374 21.924 23.0659 23.035C20.9945 24.146 18.423 24.7014 15.3514 24.7014H9.6727V38.248H0.511719V0.51123H15.3514C18.3515 0.51123 20.8873 1.03087 22.9588 2.07016C25.0303 3.10944 26.5839 4.54293 27.6196 6.37063C28.6554 8.19834 29.1733 10.2948 29.1733 12.6601ZM14.655 17.3906C16.405 17.3906 17.7086 16.9785 18.5658 16.1542C19.423 15.33 19.8516 14.1653 19.8516 12.6601C19.8516 11.1549 19.423 9.99021 18.5658 9.16595C17.7086 8.34169 16.405 7.92956 14.655 7.92956H9.6727V17.3906H14.655Z" fill="#1C1F5A"/>
<path d="M43.1035 13.2514C44.1749 11.6029 45.5143 10.3127 47.1215 9.38097C48.7287 8.41336 50.5144 7.92956 52.4788 7.92956V17.6594H49.9608C47.6751 17.6594 45.9607 18.1611 44.8178 19.1646C43.6749 20.1322 43.1035 21.8524 43.1035 24.3251V38.248H33.9425V8.2521H43.1035V13.2514Z" fill="#1C1F5A"/>
<path d="M70.465 38.678C67.5364 38.678 64.8934 38.0508 62.5362 36.7965C60.2147 35.5422 58.3754 33.7504 57.0182 31.4209C55.6968 29.0915 55.036 26.3679 55.036 23.25C55.036 20.168 55.7146 17.4623 57.0718 15.1329C58.429 12.7676 60.2862 10.9578 62.6434 9.70351C65.0006 8.4492 67.6435 7.82205 70.5722 7.82205C73.5008 7.82205 76.1438 8.4492 78.501 9.70351C80.8582 10.9578 82.7154 12.7676 84.0726 15.1329C85.4298 17.4623 86.1084 20.168 86.1084 23.25C86.1084 26.332 85.4119 29.0557 84.019 31.4209C82.6618 33.7504 80.7868 35.5422 78.3939 36.7965C76.0366 38.0508 73.3937 38.678 70.465 38.678ZM70.465 30.7221C72.2151 30.7221 73.6973 30.077 74.9116 28.7869C76.1616 27.4967 76.7867 25.6511 76.7867 23.25C76.7867 20.8489 76.1795 19.0033 74.9652 17.7132C73.7866 16.423 72.3222 15.7779 70.5722 15.7779C68.7864 15.7779 67.3042 16.423 66.1256 17.7132C64.947 18.9675 64.3577 20.8131 64.3577 23.25C64.3577 25.6511 64.9292 27.4967 66.0721 28.7869C67.2507 30.077 68.715 30.7221 70.465 30.7221Z" fill="#1C1F5A"/>
<path d="M108.648 38.248L102.915 29.9158L98.0936 38.248H88.1826L98.0401 22.9275L87.9148 8.2521H98.2008L103.933 16.5305L108.755 8.2521H118.666L108.648 23.3575L118.934 38.248H108.648Z" fill="#1C1F5A"/>
<path d="M153 8.2521L134.25 52.4933H124.392L131.249 37.2266L119.088 8.2521H129.321L136.232 27.0129L143.089 8.2521H153Z" fill="#1C1F5A"/>
<path d="M22.1561 50.2037L18.207 65.3165H13.74L11.3231 55.3705L8.81989 65.3165H4.3529L0.511719 50.2037H4.4608L6.64034 61.2046L9.3378 50.2037H13.3948L15.9843 61.2046L18.1855 50.2037H22.1561Z" fill="#1C1F5A"/>
<path d="M23.273 59.2886C23.273 58.0543 23.5032 56.9707 23.9636 56.0379C24.4383 55.105 25.0785 54.3874 25.8842 53.885C26.6898 53.3827 27.589 53.1315 28.5816 53.1315C29.4304 53.1315 30.1713 53.3038 30.8043 53.6482C31.4517 53.9927 31.948 54.4448 32.2933 55.0045V53.3038H35.9834V65.3165H32.2933V63.6158C31.9337 64.1755 31.4301 64.6276 30.7827 64.9721C30.1497 65.3165 29.4088 65.4888 28.56 65.4888C27.5818 65.4888 26.6898 65.2376 25.8842 64.7353C25.0785 64.2186 24.4383 63.4938 23.9636 62.5609C23.5032 61.6137 23.273 60.5229 23.273 59.2886ZM32.2933 59.3101C32.2933 58.3916 32.0344 57.6668 31.5165 57.1358C31.0129 56.6048 30.3943 56.3393 29.6606 56.3393C28.9269 56.3393 28.3011 56.6048 27.7832 57.1358C27.2796 57.6525 27.0279 58.3701 27.0279 59.2886C27.0279 60.2072 27.2796 60.9391 27.7832 61.4845C28.3011 62.0155 28.9269 62.281 29.6606 62.281C30.3943 62.281 31.0129 62.0155 31.5165 61.4845C32.0344 60.9535 32.2933 60.2287 32.2933 59.3101Z" fill="#1C1F5A"/>
<path d="M42.3432 49.3856V65.3165H38.6531V49.3856H42.3432Z" fill="#1C1F5A"/>
<path d="M48.7075 49.3856V65.3165H45.0174V49.3856H48.7075Z" fill="#1C1F5A"/>
<path d="M62.7326 59.1164C62.7326 59.4608 62.711 59.8197 62.6679 60.1928H54.3165C54.3741 60.9391 54.6114 61.5132 55.0287 61.9151C55.4602 62.3026 55.9854 62.4963 56.604 62.4963C57.5247 62.4963 58.1649 62.1088 58.5246 61.3338H62.4521C62.2506 62.1232 61.8838 62.8336 61.3515 63.4651C60.8336 64.0966 60.179 64.5917 59.3877 64.9506C58.5965 65.3094 57.7117 65.4888 56.7334 65.4888C55.5538 65.4888 54.5035 65.2376 53.5828 64.7353C52.6621 64.2329 51.9428 63.5153 51.4248 62.5824C50.9069 61.6496 50.648 60.5588 50.648 59.3101C50.648 58.0615 50.8997 56.9707 51.4033 56.0379C51.9212 55.105 52.6405 54.3874 53.5612 53.885C54.482 53.3827 55.5394 53.1315 56.7334 53.1315C57.8987 53.1315 58.9346 53.3755 59.8409 53.8635C60.7472 54.3515 61.4522 55.0476 61.9557 55.9517C62.4736 56.8559 62.7326 57.9108 62.7326 59.1164ZM58.9561 58.1476C58.9561 57.5161 58.7403 57.0138 58.3088 56.6406C57.8772 56.2675 57.3377 56.0809 56.6903 56.0809C56.0717 56.0809 55.5466 56.2603 55.115 56.6191C54.6978 56.9779 54.4388 57.4874 54.3381 58.1476H58.9561Z" fill="#1C1F5A"/>
<path d="M71.3906 62.1949V65.3165H69.5131C68.1752 65.3165 67.1322 64.9936 66.3841 64.3478C65.636 63.6876 65.262 62.6183 65.262 61.1401V56.3608H63.7945V53.3038H65.262V50.3759H68.9521V53.3038H71.369V56.3608H68.9521V61.1831C68.9521 61.5419 69.0384 61.8003 69.211 61.9581C69.3837 62.116 69.6714 62.1949 70.0742 62.1949H71.3906Z" fill="#1C1F5A"/>
</svg>
