<svg width="126" height="126" viewBox="0 0 126 126" fill="none" xmlns="http://www.w3.org/2000/svg">
<ellipse cx="62.972" cy="63" rx="62.972" ry="63" fill="white"/>
<g clip-path="url(#clip0_941_409)">
<path d="M85.6685 35.7216C85.6685 35.7216 91.1599 31.0079 97.7846 30.2223C97.7846 30.2223 99.7894 31.1825 102.23 38.6022C104.584 45.9347 100.225 60.5122 100.225 60.5122L85.6685 35.7216Z" fill="url(#paint0_linear_941_409)"/>
<path d="M94.2981 46.022C94.2981 46.022 92.9035 38.0785 98.1334 32.1427C98.1334 32.1427 104.061 34.936 106.501 45.3236C108.942 55.7112 102.579 61.9089 102.579 61.9089L94.2981 46.022Z" fill="#22E0FF"/>
<path d="M95.4315 31.7062C95.17 31.3571 92.3807 31.9681 91.2476 32.5791L95.4315 31.7062Z" fill="white"/>
<path d="M39.9064 36.9437C39.9064 36.9437 34.4149 32.23 27.7903 31.4443C27.7903 31.4443 25.7855 32.4045 23.3448 39.8243C20.9913 47.1567 25.3496 61.7343 25.3496 61.7343L39.9064 36.9437Z" fill="url(#paint1_linear_941_409)"/>
<path d="M27.79 31.3571C27.79 31.3571 33.1944 37.1183 33.1944 46.4584L27.79 31.3571Z" fill="url(#paint2_linear_941_409)"/>
<path d="M31.3638 47.244C31.3638 47.244 32.7584 39.3005 27.5285 33.3647C27.5285 33.3647 21.6011 36.1581 19.1605 46.5457C16.7198 56.9333 23.7803 63.8293 23.7803 63.8293L31.3638 47.244Z" fill="#22E0FF"/>
<path d="M33.1946 35.1105C31.1027 34.8486 29.9695 33.1901 30.231 32.8409L33.1946 35.1105Z" fill="white"/>
<path d="M24.6521 87.3977C33.0201 106.689 95.5184 100.666 103.015 84.8663C111.208 67.4954 92.3804 24.7229 62.4823 26.7306C37.1169 28.3018 13.9307 62.6071 24.6521 87.3977Z" fill="url(#paint3_linear_941_409)"/>
<path d="M28.0514 84.6044C36.0708 100.491 90.6369 97.8727 98.5691 83.2951C105.368 70.8998 89.3295 33.3647 61.9592 34.674C34.5889 35.9834 20.3808 69.4158 28.0514 84.6044Z" fill="url(#paint4_linear_941_409)"/>
<path d="M87.3249 66.0116C86.2789 68.8922 71.8965 68.543 71.8965 67.4955C71.9837 61.7343 75.0345 54.2273 80.7875 54.2273C86.7148 54.3146 89.3298 60.5995 87.3249 66.0116Z" fill="#37F3E2"/>
<path d="M38.8605 66.3607C40.0808 69.154 54.4632 68.0192 54.3761 66.9717C53.9402 61.2105 50.4536 53.8781 44.7878 54.2272C38.7733 54.6637 36.507 61.1232 38.8605 66.3607Z" fill="#45FFE9"/>
<path d="M54.5502 77.0101C52.371 77.5339 56.9036 84.779 64.1385 84.779C70.5888 84.779 74.2498 77.3593 73.3781 77.0101C72.5936 76.661 68.6711 78.6687 63.354 78.6687C58.0368 78.6687 55.509 76.8356 54.5502 77.0101Z" fill="#2F95CD"/>
<path d="M71.1988 30.2223C70.5886 30.9206 77.3005 33.8012 78.1721 33.3648L71.1988 30.2223Z" fill="white"/>
<path opacity="0.5" d="M37.7271 50.561C37.117 54.3145 44.2646 53.8781 55.5963 53.5289C69.2814 53.0924 83.0537 64.8767 91.073 56.4095C92.3805 55.0128 79.3055 36.6818 63.4412 37.0309C47.6641 37.4674 38.2501 47.244 37.7271 50.561Z" fill="url(#paint5_linear_941_409)"/>
</g>
<defs>
<linearGradient id="paint0_linear_941_409" x1="94.3013" y1="60.4792" x2="94.3013" y2="30.2109" gradientUnits="userSpaceOnUse">
<stop stop-color="#B9ACF4"/>
<stop offset="1" stop-color="#E1D1F5"/>
</linearGradient>
<linearGradient id="paint1_linear_941_409" x1="31.3334" y1="61.6596" x2="31.3334" y2="31.3913" gradientUnits="userSpaceOnUse">
<stop stop-color="#B9ACF4"/>
<stop offset="1" stop-color="#E1D1F5"/>
</linearGradient>
<linearGradient id="paint2_linear_941_409" x1="30.5231" y1="46.5254" x2="30.5231" y2="31.3913" gradientUnits="userSpaceOnUse">
<stop stop-color="#BE9DEA"/>
<stop offset="1" stop-color="#9E8CEF"/>
</linearGradient>
<linearGradient id="paint3_linear_941_409" x1="60.1097" y1="100.448" x2="69.3549" y2="26.9426" gradientUnits="userSpaceOnUse">
<stop stop-color="#CBC1F7"/>
<stop offset="1" stop-color="#E8DCF7"/>
</linearGradient>
<linearGradient id="paint4_linear_941_409" x1="63.078" y1="95.4151" x2="63.078" y2="34.6475" gradientUnits="userSpaceOnUse">
<stop stop-color="#0665BD"/>
<stop offset="1" stop-color="#1A1F77"/>
</linearGradient>
<linearGradient id="paint5_linear_941_409" x1="37.6618" y1="48.238" x2="91.1908" y2="48.238" gradientUnits="userSpaceOnUse">
<stop stop-color="#2548A5"/>
<stop offset="1" stop-color="#6A9BFF"/>
</linearGradient>
<clipPath id="clip0_941_409">
<rect width="88.3868" height="72.8879" fill="white" transform="translate(18.6377 26.556)"/>
</clipPath>
</defs>
</svg>
