<svg width="82" height="80" viewBox="0 0 82 80" fill="none" xmlns="http://www.w3.org/2000/svg">
<g clip-path="url(#clip0_147_4108)">
<path opacity="0.5" d="M43.6375 79.9999C52.5748 79.9999 59.82 78.3839 59.82 76.3906C59.82 74.3972 52.5748 72.7812 43.6375 72.7812C34.7002 72.7812 27.4551 74.3972 27.4551 76.3906C27.4551 78.3839 34.7002 79.9999 43.6375 79.9999Z" fill="url(#paint0_radial_147_4108)"/>
<path d="M20.8711 64.0158C24.1631 69.4893 51.8478 67.9821 62.1998 62.9449C72.5518 57.8681 73.5831 14.3579 68.6649 7.85323C63.7467 1.34852 32.4923 -0.713953 19.6416 6.30638C6.79079 13.3267 16.4685 56.7575 20.8711 64.0158Z" fill="#E5F6FF"/>
<path d="M68.9425 4.99762C68.9822 2.34021 74.9713 -0.713833 78.422 0.198413C81.8726 1.11066 82.4279 13.0095 77.1527 13.4061C71.8776 13.7631 68.9029 8.28964 68.9425 4.99762Z" fill="#E5F6FF"/>
<path d="M14.3664 61.2792C13.8905 59.296 15.4373 57.1542 16.8652 57.5112C18.293 57.8682 19.8796 64.5315 17.7378 64.6902C15.596 64.8885 14.6837 62.6277 14.3664 61.2792Z" fill="#E5F6FF"/>
<path d="M29.8746 4.20435C29.8746 4.20435 26.6222 6.54445 25.3134 11.7403C24.0045 16.9361 31.5801 10.5107 31.5801 10.5107L29.8746 4.20435Z" fill="url(#paint1_linear_147_4108)"/>
<path d="M27.0188 9.63828C27.0188 9.63828 29.4779 3.37154 31.7783 2.37997C34.0788 1.3884 37.4501 3.33188 37.4501 3.33188L27.0188 9.63828Z" fill="url(#paint2_linear_147_4108)"/>
<path d="M55.2191 30.8183C49.2697 37.1247 26.3446 33.912 23.1715 29.5491C21.9023 27.8039 21.2677 25.7415 21.1884 23.5203C20.8314 14.0013 30.5092 1.82476 42.527 2.77666C50.6579 3.41127 56.0521 11.2645 57.4799 18.8401C58.3525 23.56 57.7179 28.2006 55.2191 30.8183Z" fill="url(#paint3_linear_147_4108)"/>
<path d="M50.1026 33.436C47.0882 34.1103 42.646 34.4673 39.711 34.3086C34.3168 33.9913 30.4695 33.1584 28.3277 32.1668C26.9395 31.4926 26.2652 30.7786 26.4239 30.1044C26.5032 29.6681 27.5741 29.3508 29.2796 29.1524C34.2375 28.5575 44.3912 28.8748 49.825 29.9854C50.3009 30.1044 50.7372 30.1837 51.0942 30.3027C51.1735 30.3423 51.2528 30.3423 51.3322 30.382H51.3718C52.2841 30.6596 52.9583 30.9769 53.236 31.3339C53.3153 31.4132 53.355 31.5322 53.3946 31.6115C53.5533 32.3651 52.1651 32.9601 50.1026 33.436Z" fill="url(#paint4_linear_147_4108)"/>
<path opacity="0.3" d="M55.2191 30.8183C49.2697 37.1247 26.3445 33.912 23.1715 29.5491C21.9023 27.804 21.2677 25.7415 21.1884 23.5204C21.1884 23.5204 22.5369 26.6141 27.1774 27.447C31.818 28.2799 45.462 28.3989 48.3574 26.4951C51.2528 24.5913 50.6975 15.1912 50.6975 15.1912L57.4799 18.8401C58.3525 23.56 57.7178 28.2006 55.2191 30.8183Z" fill="url(#paint5_linear_147_4108)"/>
<path opacity="0.5" d="M50.1026 33.436C47.8418 32.2858 41.1785 29.2714 35.6653 30.1837C28.883 31.2942 28.3277 32.1668 28.3277 32.1668C26.9395 31.4926 26.2652 30.7786 26.4239 30.1044C26.5032 29.6681 27.5741 29.3508 29.2796 29.1524C34.2375 28.5575 44.3912 28.8748 49.825 29.9854C50.3803 30.1044 50.8959 30.263 51.3718 30.382H51.4115C52.3237 30.6596 52.998 30.9769 53.2757 31.3339C53.355 31.4132 53.3946 31.5322 53.4343 31.6115C53.5533 32.3651 52.1651 32.9601 50.1026 33.436Z" fill="url(#paint6_linear_147_4108)"/>
<path d="M51.0942 30.3027C49.7457 31.4529 43.5583 32.1668 40.0679 31.9685C33.8012 31.6115 30.0729 30.382 29.24 29.1524C34.6738 28.4782 46.176 28.9145 51.0942 30.3027Z" fill="url(#paint7_linear_147_4108)"/>
<path d="M21.0694 23.9566C21.8627 26.852 41.6545 29.0335 47.0089 24.3532C52.3634 19.673 48.5955 2.77664 38.0055 3.68889C27.9311 4.56147 19.6019 18.6815 21.0694 23.9566Z" fill="#DFE3FB"/>
<path d="M21.1884 23.5204C21.9816 26.4158 41.7734 28.5972 47.1279 23.917C52.4824 19.2368 48.6747 2.38006 38.0848 3.25264C28.0104 4.12522 19.6812 18.2452 21.1884 23.5204Z" fill="url(#paint8_linear_147_4108)"/>
<path d="M48.7144 6.14791C48.7144 6.14791 47.6832 15.9446 53.7516 19.3556C53.7516 19.3556 56.7263 19.6729 58.4318 17.8485C58.4318 17.8485 55.7744 20.3869 52.9187 17.7691C50.063 15.1514 50.7372 7.93274 52.8394 5.55297C54.9812 3.17319 58.0749 3.8078 58.0749 3.8078L56.8453 2.69724C56.8453 2.69724 52.2841 1.78499 48.7144 6.14791Z" fill="url(#paint9_linear_147_4108)"/>
<path d="M56.8453 2.69721C56.8453 2.69721 53.474 2.41957 51.1735 6.30653C48.7144 10.4711 50.5389 17.6104 53.593 18.6813C56.6074 19.7522 59.6217 8.17069 59.6217 8.17069L57.8369 3.56979C57.8369 3.56979 57.4799 2.93519 56.8453 2.69721Z" fill="url(#paint10_linear_147_4108)"/>
<path d="M61.2478 12.5337C60.8115 14.7549 59.9389 16.5794 58.7094 17.7692L58.3524 18.0865C57.3609 18.8798 56.2106 19.2764 54.9414 19.1178C50.8561 18.6022 50.2612 12.6924 50.7372 9.36071C51.2924 5.47375 54.5844 3.13364 57.2022 3.49061C60.3752 3.84757 62.0411 8.17083 61.2478 12.5337Z" fill="url(#paint11_linear_147_4108)"/>
<path d="M21.0694 20.8628C21.0694 20.8628 18.2137 21.4974 15.5166 23.7185C12.8195 25.9396 12.1056 28.6367 15.4373 28.3987L16.9841 27.4865C16.9841 27.4865 15.001 27.7641 15.2786 25.7413C15.5562 23.7185 21.0297 21.2198 21.0297 21.2198L21.0694 20.8628Z" fill="url(#paint12_linear_147_4108)"/>
<path d="M14.8423 26.733C13.8507 27.7643 15.7942 28.6765 17.4204 28.9541C19.2449 29.2714 22.5765 29.0731 22.4576 27.1693C22.3782 25.3052 17.1824 24.3532 14.8423 26.733Z" fill="url(#paint13_linear_147_4108)"/>
<path d="M14.9613 26.9314C14.882 27.2487 21.466 27.6453 21.704 26.4951C21.9023 25.3846 15.5166 24.631 14.9613 26.9314Z" fill="url(#paint14_linear_147_4108)"/>
<path d="M38.164 15.1118C38.0054 15.3101 40.7421 13.5252 45.105 15.2307C45.581 15.3894 40.9801 11.2645 38.164 15.1118Z" fill="url(#paint15_linear_147_4108)"/>
<path d="M24.4407 15.1117C24.2821 15.31 25.7496 13.9218 29.5572 14.8341C29.9935 14.9531 26.9395 11.7007 24.4407 15.1117Z" fill="url(#paint16_linear_147_4108)"/>
<path opacity="0.5" d="M26.6619 11.3835C27.0982 12.0578 30.8662 10.1143 34.9911 10.5506C39.116 10.9869 43.6376 15.0325 47.0089 14.5169C49.706 14.1203 46.1364 4.4822 39.3144 3.60961C32.4923 2.73703 26.2256 10.7093 26.6619 11.3835Z" fill="url(#paint17_linear_147_4108)"/>
<path opacity="0.5" d="M25.4323 24.3928C25.4323 24.3928 29.7158 23.2426 35.0307 23.8376C40.3455 24.4325 41.1784 24.9878 41.0991 25.5034C41.0198 26.019 37.1328 27.0106 32.2939 26.495C27.4154 25.9794 25.4323 24.3928 25.4323 24.3928Z" fill="url(#paint18_linear_147_4108)"/>
<path opacity="0.5" d="M21.3074 22.7667C21.3074 22.7667 20.7521 19.0384 24.1235 13.7632C24.1235 13.7632 24.8374 12.9303 25.1944 13.2476C25.5513 13.5253 22.18 17.3329 21.3074 22.7667Z" fill="url(#paint19_linear_147_4108)"/>
<path opacity="0.72" d="M51.4512 14.0408C51.4512 14.0408 51.8875 17.6501 54.5845 18.4433C57.242 19.1969 59.4234 17.2931 60.0977 14.5564C60.0977 14.5564 59.2648 16.8965 55.8141 16.3412C52.2841 15.7463 51.4512 14.0408 51.4512 14.0408Z" fill="url(#paint20_linear_147_4108)"/>
<path opacity="0.72" d="M51.8875 7.17918C51.9271 7.85345 56.8056 6.42559 58.3525 6.6239C59.8994 6.82222 60.5736 8.72604 60.8116 8.68637C61.0496 8.64671 60.3753 4.16481 57.4799 3.8475C54.6242 3.56986 51.8875 6.74289 51.8875 7.17918Z" fill="url(#paint21_linear_147_4108)"/>
<path d="M28.9226 18.8401C28.9226 18.8401 33.8011 18.9987 36.5379 18.3245C36.5379 18.3245 35.9033 22.8857 32.7302 22.8857C29.5572 22.8857 28.9226 18.8401 28.9226 18.8401Z" fill="#2F95CD"/>
<path d="M28.7244 45.7316C28.7244 45.7316 20.5538 50.3722 18.65 50.1738C16.7462 49.9755 17.5791 45.6126 17.5791 45.6126C17.8171 45.2953 18.1344 45.0177 18.412 44.7004C21.4661 41.448 26.7016 37.3231 29.7159 35.3796C30.9851 34.5467 31.8577 34.1104 32.0164 34.269C33.1666 35.4986 28.7244 45.7316 28.7244 45.7316Z" fill="url(#paint22_linear_147_4108)"/>
<path d="M17.5791 45.6522C17.5791 45.6522 18.65 44.74 19.9589 45.9695C21.2677 47.1594 19.9192 50.0548 18.65 50.2135C17.3808 50.3324 16.6272 47.5164 17.5791 45.6522Z" fill="url(#paint23_linear_147_4108)"/>
<path opacity="0.3" d="M28.7244 45.7315C28.7244 45.7315 20.5538 50.372 18.65 50.1737C16.7462 49.9754 17.5791 45.6125 17.5791 45.6125C17.8171 45.2952 18.1344 45.0175 18.412 44.7002C18.412 44.7002 20.3952 45.8901 24.0838 45.2952C27.7725 44.7399 29.7159 35.3398 29.7159 35.3398C30.9851 34.5069 31.8577 34.0706 32.0164 34.2292C33.1666 35.4985 28.7244 45.7315 28.7244 45.7315Z" fill="url(#paint24_linear_147_4108)"/>
<path d="M38.2434 60.8429C38.3624 62.5881 36.4982 68.4582 34.5944 70.2827C34.2374 70.6397 33.8408 70.838 33.5235 70.7983C31.937 70.719 30.1125 63.54 29.3986 59.4151C29.1209 57.8286 29.0416 56.718 29.2002 56.6387C30.5091 56.0834 38.1244 58.7805 38.2434 60.8429Z" fill="url(#paint25_linear_147_4108)"/>
<path d="M38.3624 61.3983C38.3624 61.3983 36.6569 62.7072 33.4838 61.6759C31.0247 60.8827 28.9226 57.3527 29.2002 56.6388C29.4779 55.9248 38.997 58.5822 38.3624 61.3983Z" fill="url(#paint26_linear_147_4108)"/>
<path opacity="0.3" d="M38.2434 60.8431C38.3624 62.5883 36.4982 68.4584 34.5944 70.2829C35.9033 68.2204 35.3876 64.4525 34.1184 62.9056C33.1665 61.7157 30.5884 60.1292 29.3986 59.4549C29.1209 57.8684 29.0416 56.7579 29.2002 56.6785C30.5091 56.0836 38.1244 58.7807 38.2434 60.8431Z" fill="url(#paint27_linear_147_4108)"/>
<path d="M32.2543 63.4608C31.7783 63.4212 32.0956 64.7301 32.1749 64.8094C32.2543 64.8887 32.4922 64.4524 32.4922 64.0955C32.5319 63.7385 32.4129 63.4608 32.2543 63.4608Z" fill="white"/>
<path d="M49.587 50.2927C50.063 56.7974 47.3659 60.4464 41.0595 62.2312C34.9118 63.9763 29.1607 58.4632 28.8037 50.0547C28.5657 44.7002 28.7244 39.8613 30.5092 36.3313C31.5404 34.3482 33.0476 32.7617 35.3481 31.7701C37.1726 30.9768 38.997 31.5321 40.7819 32.8807C45.3828 36.371 49.1904 45.2951 49.587 50.2927Z" fill="url(#paint28_linear_147_4108)"/>
<path opacity="0.3" d="M42.884 39.8218C42.884 39.8218 44.9465 44.383 45.8984 47.556C47.009 51.324 45.9777 55.6076 45.9777 55.6076L49.6664 51.4033C49.6664 51.4033 49.825 48.6666 48.8335 46.2472C47.8816 43.7881 47.3263 42.7172 47.3263 42.7172L42.884 39.8218Z" fill="url(#paint29_linear_147_4108)"/>
<path d="M28.7244 51.1258C28.7244 51.1258 28.764 46.0886 33.1666 44.7797C38.4418 43.1932 43.7566 47.9924 44.5895 52.038C45.4621 56.0836 45.3431 60.1689 40.3852 61.7951C40.4646 61.7951 31.0645 64.3732 28.7244 51.1258Z" fill="url(#paint30_linear_147_4108)"/>
<path d="M28.9623 51.681C28.9623 51.681 29.0019 46.6438 33.4045 45.3349C38.6797 43.7484 43.9945 48.5476 44.8274 52.5932C45.7 56.6388 45.581 60.7241 40.6232 62.3503C40.6628 62.3503 31.2627 64.9284 28.9623 51.681Z" fill="url(#paint31_radial_147_4108)"/>
<path d="M46.8503 44.1846C46.6123 44.2639 46.3347 44.1449 45.9777 43.8673C44.4309 42.717 42.0114 38.8301 41.2975 36.4503C41.0199 35.5381 41.0199 34.8638 41.4165 34.6258C42.0908 34.3085 44.2326 36.252 45.8984 39.3854C46.89 41.2099 47.8022 43.8673 46.8503 44.1846Z" fill="url(#paint32_linear_147_4108)"/>
<path d="M45.938 43.8674C44.3912 42.7172 41.9717 38.8302 41.2578 36.4504C42.2097 37.1247 43.5583 38.7112 44.7085 40.853C45.2638 41.8049 45.7397 42.9155 45.938 43.8674Z" fill="#6340A2"/>
<path opacity="0.5" d="M40.7422 32.8411C40.7422 32.8411 35.0307 37.204 32.4527 37.6403C29.9539 38.0766 30.4299 36.3711 30.4695 36.2918C31.5008 34.3086 33.0079 32.7221 35.3084 31.7305C37.1329 30.9373 38.997 31.4926 40.7422 32.8411Z" fill="url(#paint33_linear_147_4108)"/>
<path opacity="0.72" d="M29.3986 51.086C30.4299 52.1569 32.4527 49.7772 35.6257 49.2219C38.8384 48.6666 40.9802 49.8168 41.7338 49.1029C42.4874 48.389 38.3228 44.621 33.5236 45.8109C29.6763 46.8024 29.0417 50.7291 29.3986 51.086Z" fill="url(#paint34_linear_147_4108)"/>
<path opacity="0.72" d="M36.2603 61.5571C36.2603 61.5571 37.9658 62.4694 40.1076 61.9141C42.289 61.3588 42.6856 60.0896 42.6856 60.0896C42.6856 60.0896 41.6147 59.9706 40.1869 60.7242C38.759 61.4778 37.3312 61.6761 36.2603 61.5571Z" fill="url(#paint35_linear_147_4108)"/>
<path d="M37.7278 37.8385C37.3708 37.9575 37.7675 41.8048 38.1244 41.8445C38.4814 41.8841 38.64 40.9719 38.5607 39.7027C38.5211 38.4335 38.0848 37.7195 37.7278 37.8385Z" fill="white"/>
<path d="M64.0242 49.3011C64.6192 51.7602 62.3187 53.3864 61.3272 53.307C60.4546 53.2277 57.5592 52.2361 53.7516 49.5787C53.1963 49.1821 52.6013 48.7458 52.0064 48.2698C47.3658 44.5812 40.7818 36.6486 42.8839 35.8554C48.9523 33.5946 63.4293 46.842 64.0242 49.3011Z" fill="url(#paint36_linear_147_4108)"/>
<path d="M59.3837 52.7122C59.3837 52.7122 58.2731 50.8084 59.582 49.1425C60.8512 47.4767 63.8259 48.7459 63.8259 48.7459C63.8259 48.7459 65.0951 50.848 62.874 52.2362C60.5735 53.6641 59.3837 52.7122 59.3837 52.7122Z" fill="url(#paint37_linear_147_4108)"/>
<path opacity="0.3" d="M64.0242 49.3011C64.6192 51.7602 62.3187 53.3864 61.3271 53.307C60.4546 53.2277 57.5592 52.2361 53.7515 49.5787C54.1085 49.777 56.6073 51.3239 57.6782 50.6893C58.8284 50.015 59.1457 45.4934 52.9186 40.139C46.9295 34.9035 43.1219 35.776 42.8839 35.8554C48.9523 33.5946 63.4293 46.842 64.0242 49.3011Z" fill="url(#paint38_linear_147_4108)"/>
<path d="M60.4546 49.9357C61.2478 49.1028 63.1913 48.9838 64.1829 49.4598C65.1745 49.9357 68.3872 52.3948 70.1323 57.0354C70.1323 57.0354 69.815 59.7721 67.9905 60.2877C66.6023 60.6844 64.1432 57.2734 62.3187 54.8936C60.4546 52.4742 59.1457 51.2843 60.4546 49.9357Z" fill="url(#paint39_linear_147_4108)"/>
<path d="M68.3079 60.2083C68.3079 60.2083 63.9053 51.4825 59.6614 52.1568C59.6614 52.1568 60.4546 53.545 63.0327 56.2817C65.5711 59.0185 67.3956 60.486 68.3079 60.2083Z" fill="url(#paint40_linear_147_4108)"/>
<path opacity="0.5" d="M65.3331 55.7661C65.3331 55.7661 65.4125 57.4716 65.0158 58.0665C64.6192 58.6615 64.0639 58.7805 64.0639 58.7805L63.4293 53.783C63.4293 53.783 64.8175 54.8935 65.3331 55.7661Z" fill="url(#paint41_linear_147_4108)"/>
<path d="M63.4292 53.783C63.4292 53.783 61.4064 51.9585 59.7009 52.3948C59.7009 52.3948 59.3836 54.4573 63.1119 58.8598C63.1119 58.8598 64.4605 59.2565 64.7381 57.67C64.7381 57.67 64.3415 55.4885 63.4292 53.783Z" fill="url(#paint42_linear_147_4108)"/>
<path d="M62.1204 53.5846C62.5567 53.2673 63.35 55.6867 63.0723 55.8453C62.7947 55.9247 61.7238 53.8622 62.1204 53.5846Z" fill="white"/>
<path d="M48.4764 42.8756C47.9608 43.8672 49.6663 44.5811 50.1026 44.4225C50.5389 44.3035 48.8334 42.241 48.4764 42.8756Z" fill="white"/>
<path d="M50.4595 44.8193C50.3008 44.9383 50.9751 45.5729 51.1734 45.6522C51.4907 45.8505 52.1253 45.9298 52.165 45.8109C52.165 45.6919 50.6578 44.6606 50.4595 44.8193Z" fill="white"/>
<path d="M21.3471 42.5584C21.4264 42.836 23.3699 41.9634 23.3699 41.1305C23.3699 40.3372 21.2281 42.1617 21.3471 42.5584Z" fill="white"/>
<path d="M55.8537 68.8944C55.4967 69.2514 54.8621 69.2117 54.0688 68.9737C53.1963 68.6961 52.0857 68.1408 50.9751 67.4269C47.8021 65.4834 44.3514 62.4293 44.1531 61.5568C43.5185 58.5027 46.6122 54.5761 48.5954 52.6326C49.349 51.879 49.9836 51.4031 50.1026 51.4427C50.5785 51.4824 57.5988 67.1492 55.8537 68.8944Z" fill="url(#paint43_linear_147_4108)"/>
<path opacity="0.3" d="M55.8537 68.8945C55.4968 69.2515 54.8622 69.2118 54.0689 68.9738L50.9752 67.427C51.2528 67.546 54.6242 68.8945 53.474 64.0556C52.2841 59.0184 48.4368 52.9897 48.4368 52.9897L48.5558 52.5931C49.3093 51.8395 49.944 51.3635 50.0629 51.4032C50.5786 51.4825 57.5989 67.1493 55.8537 68.8945Z" fill="url(#paint44_linear_147_4108)"/>
<path d="M46.6122 60.5255C45.8586 61.0015 47.7228 62.5483 47.9211 62.5483C48.1194 62.5483 48.0004 61.6758 47.6434 61.1205C47.3261 60.6445 46.8502 60.3669 46.6122 60.5255Z" fill="white"/>
<path d="M48.1591 62.7072C48.0401 62.8658 48.6351 63.3814 48.7144 63.1831C48.7937 62.9848 48.6747 62.7072 48.5557 62.6278C48.4367 62.5485 48.2384 62.6278 48.1591 62.7072Z" fill="white"/>
<path d="M11.8279 46.4058C11.8675 46.7231 14.168 45.6522 14.168 45.2555C14.168 44.8589 11.7882 45.8505 11.8279 46.4058Z" fill="white"/>
<path d="M7.22705 50.491C7.22705 50.491 7.26671 51.2049 7.66334 51.9982C7.66334 51.9982 8.81357 52.7914 10.995 52.6724C13.2161 52.5931 17.7774 50.253 18.412 49.8564C19.0466 49.4201 19.3639 48.1509 19.3639 48.1509L7.22705 50.491Z" fill="url(#paint45_linear_147_4108)"/>
<path d="M19.2052 45.7712C18.0947 45.3349 15.1993 45.9298 13.4541 46.6041C11.6693 47.2387 8.81357 49.2615 7.22705 50.4911C7.22705 50.4911 7.26671 51.6809 9.56716 51.9586C11.8676 52.2362 18.0947 49.6185 19.1259 48.5079C20.1571 47.3577 19.2052 45.7712 19.2052 45.7712Z" fill="url(#paint46_linear_147_4108)"/>
<path d="M11.233 47.7146C11.233 47.7146 15.1597 47.199 17.1428 45.6918C17.1428 45.6918 13.7715 45.5331 11.233 47.7146Z" fill="url(#paint47_linear_147_4108)"/>
<path d="M16.5478 45.7712C16.5478 45.7712 14.2474 47.1197 11.828 47.1991C11.828 47.1991 9.36885 47.2387 9.24987 46.9611C9.13088 46.6835 9.05155 45.6126 9.68616 45.3349C10.2811 45.0176 14.525 44.5417 16.5478 45.7712Z" fill="url(#paint48_linear_147_4108)"/>
<path d="M11.59 47.6353C11.59 47.6353 14.525 47.8336 17.698 49.4597L18.055 49.2614C18.055 49.2614 15.7546 47.6353 11.59 47.6353Z" fill="url(#paint49_linear_147_4108)"/>
<path d="M6.27513 26.5347C6.27513 26.5347 8.02029 26.2174 9.84478 27.1693C9.84478 27.1693 13.8507 29.549 13.4938 37.2833C13.1368 45.0969 9.7258 46.8024 9.7258 46.8024C9.7258 46.8024 7.10805 47.9129 5.75951 47.318C4.41097 46.6834 6.27513 26.5347 6.27513 26.5347Z" fill="url(#paint50_linear_147_4108)"/>
<path d="M6.27514 47.2782C9.23234 47.2782 11.6296 42.6257 11.6296 36.8865C11.6296 31.1474 9.23234 26.4949 6.27514 26.4949C3.31794 26.4949 0.920654 31.1474 0.920654 36.8865C0.920654 42.6257 3.31794 47.2782 6.27514 47.2782Z" fill="#FF7AE8"/>
<path d="M6.11649 47.2782C8.98607 47.2782 11.3123 42.6257 11.3123 36.8865C11.3123 31.1474 8.98607 26.4949 6.11649 26.4949C3.24691 26.4949 0.920654 31.1474 0.920654 36.8865C0.920654 42.6257 3.24691 47.2782 6.11649 47.2782Z" fill="url(#paint51_linear_147_4108)"/>
<path d="M10.3208 36.8866C10.3208 41.4082 8.45662 45.0572 6.15618 45.0572C5.83888 45.0572 5.52157 44.9778 5.24393 44.8589C3.37978 44.0656 1.99158 40.7736 1.99158 36.8866C1.99158 32.365 3.85573 28.7161 6.15618 28.7161C6.63213 28.7161 7.10809 28.8747 7.54438 29.192C9.17056 30.3422 10.3208 33.3566 10.3208 36.8866Z" fill="url(#paint52_linear_147_4108)"/>
<path d="M10.3208 36.8866C10.3208 41.4081 8.45662 45.0571 6.15618 45.0571C5.83887 45.0571 5.52157 44.9778 5.24393 44.8588C3.61775 43.7482 2.46753 40.7339 2.46753 37.1642C2.46753 32.6426 4.33168 28.9937 6.63213 28.9937C6.94943 28.9937 7.22707 29.073 7.54438 29.192C9.17055 30.3422 10.3208 33.3566 10.3208 36.8866Z" fill="url(#paint53_linear_147_4108)"/>
<path d="M8.65491 34.6259C8.65491 34.8638 8.61524 35.1415 8.57558 35.3795C8.53592 35.6571 8.45659 35.8951 8.3376 36.1331C8.21861 36.371 8.05996 36.609 7.90131 36.8073C7.74266 37.0056 7.50468 37.1643 7.26671 37.3229C7.50468 37.4419 7.703 37.5609 7.82199 37.7196C7.94097 37.8782 8.05996 38.0369 8.13929 38.1955C8.21861 38.3542 8.25828 38.5128 8.25828 38.6715C8.29794 38.8301 8.29794 38.9491 8.29794 39.0284C8.29794 39.3457 8.25828 39.5837 8.17895 39.8217C8.09963 40.02 7.98064 40.2183 7.82199 40.377C7.66333 40.5356 7.54435 40.6546 7.34603 40.7339C7.18738 40.8133 6.98906 40.8926 6.83041 40.9323C6.67176 40.9719 6.51311 41.0116 6.35446 41.0116C6.19581 41.0116 6.07682 41.0512 5.99749 41.0512C5.8785 41.0512 5.75952 41.0512 5.64053 41.0116C5.52154 41.0116 5.44221 40.9719 5.32322 40.9323C5.20424 40.8926 5.12491 40.8529 5.00592 40.8133C5.04558 40.0597 5.04558 39.3061 5.04558 38.5525C5.04558 37.5213 5.00592 36.5297 4.96626 35.4984C4.9266 34.5069 4.84727 33.4756 4.76794 32.4841C4.96626 32.4444 5.12491 32.3651 5.32322 32.3651C5.52154 32.3254 5.68019 32.3254 5.79918 32.2858C5.95783 32.2858 6.11648 32.2461 6.27513 32.2461C6.39412 32.2461 6.55277 32.2461 6.71143 32.2858C6.87008 32.3254 7.02873 32.3651 7.22704 32.4444C7.38569 32.5237 7.58401 32.6031 7.74266 32.722C7.90131 32.841 8.05996 32.9997 8.17895 33.1583C8.29794 33.317 8.41693 33.555 8.49625 33.7929C8.61524 34.0309 8.65491 34.3086 8.65491 34.6259ZM7.18738 38.8301C7.18738 38.6318 7.14772 38.4732 7.06839 38.3145C7.02873 38.2352 6.98906 38.1955 6.9494 38.1162C6.90974 38.0369 6.87008 37.9972 6.79075 37.9179C6.71143 37.8782 6.6321 37.7989 6.55277 37.7592C6.47345 37.7196 6.35446 37.6799 6.23547 37.6799C6.23547 38.1162 6.19581 38.5128 6.19581 38.9095C6.19581 39.3061 6.19581 39.7424 6.19581 40.139C6.3148 40.0993 6.43378 40.0597 6.51311 39.9804C6.59244 39.901 6.67176 39.8614 6.75109 39.782C6.83041 39.7027 6.87008 39.6234 6.90974 39.5837C6.9494 39.5044 6.98906 39.4251 7.02873 39.3457C7.10805 39.1871 7.14772 39.0284 7.18738 38.8301ZM7.50468 34.8638C7.50468 34.8638 7.50468 34.8242 7.50468 34.7449C7.50468 34.6655 7.50468 34.5862 7.46502 34.4672C7.46502 34.3482 7.42536 34.2292 7.38569 34.1102C7.34603 33.9913 7.26671 33.8326 7.18738 33.7136C7.10805 33.5946 6.98906 33.4756 6.87008 33.3963C6.75109 33.317 6.55277 33.2377 6.35446 33.2377C6.3148 33.9119 6.3148 34.5465 6.27513 35.2208C6.23547 35.8554 6.23547 36.5297 6.23547 37.204C6.39412 37.1643 6.51311 37.085 6.6321 36.966C6.75109 36.8866 6.83041 36.7677 6.9494 36.6487C7.02873 36.5297 7.10805 36.4107 7.14772 36.2917C7.22704 36.1727 7.26671 36.0141 7.30637 35.8951C7.42536 35.5778 7.46502 35.2208 7.50468 34.8638Z" fill="url(#paint54_linear_147_4108)"/>
<path d="M6.7511 30.9373H5.79919V32.5238H6.7511V30.9373Z" fill="url(#paint55_linear_147_4108)"/>
<path d="M6.7511 40.4961H5.79919V42.2809H6.7511V40.4961Z" fill="url(#paint56_linear_147_4108)"/>
<path d="M8.09961 34.5465C8.09961 34.7845 8.05994 35.0621 8.02028 35.3001C7.98062 35.5778 7.90129 35.8157 7.7823 36.0537C7.66332 36.2917 7.50466 36.5297 7.34601 36.728C7.18736 36.9263 6.94938 37.0849 6.71141 37.2436C6.94938 37.3626 7.1477 37.4816 7.26669 37.6402C7.38568 37.7989 7.50466 37.9575 7.58399 38.1162C7.66332 38.2748 7.70298 38.4335 7.70298 38.5921C7.74264 38.7508 7.74264 38.8698 7.74264 38.9491C7.74264 39.2664 7.70298 39.5044 7.62365 39.7424C7.54433 39.9407 7.42534 40.139 7.26669 40.2976C7.10804 40.4563 6.98905 40.5753 6.79073 40.6546C6.63208 40.7339 6.43377 40.8133 6.27512 40.8529C6.11646 40.8926 5.95781 40.9322 5.79916 40.9322C5.64051 40.9322 5.52152 40.9719 5.4422 40.9719C5.32321 40.9719 5.20422 40.9719 5.08523 40.9322C4.96624 40.9322 4.88692 40.8926 4.76793 40.8529C4.64894 40.8133 4.56961 40.7736 4.45062 40.7339C4.49029 39.9803 4.49029 39.2267 4.49029 38.4731C4.49029 37.4419 4.45062 36.4503 4.41096 35.4191C4.3713 34.4275 4.29197 33.3963 4.21265 32.4047C4.41096 32.3651 4.56961 32.2857 4.76793 32.2857C4.96624 32.2461 5.12489 32.2461 5.24388 32.2064C5.40253 32.2064 5.56118 32.1667 5.71984 32.1667C5.83882 32.1667 5.99748 32.1667 6.15613 32.2064C6.31478 32.2461 6.47343 32.2857 6.67174 32.3651C6.8304 32.4444 7.02871 32.5237 7.18736 32.6427C7.34601 32.7617 7.50466 32.9203 7.62365 33.079C7.74264 33.2376 7.86163 33.4756 7.94096 33.7136C8.05994 33.9516 8.09961 34.2292 8.09961 34.5465ZM6.59242 38.7904C6.59242 38.5921 6.55276 38.4335 6.47343 38.2748C6.43377 38.1955 6.3941 38.1558 6.35444 38.0765C6.31478 37.9972 6.27512 37.9575 6.19579 37.8782C6.11646 37.8385 6.03714 37.7592 5.95781 37.7195C5.87849 37.6799 5.7595 37.6402 5.64051 37.6402C5.64051 38.0765 5.60085 38.4731 5.60085 38.8698C5.60085 39.2664 5.60085 39.7027 5.60085 40.0993C5.71984 40.0597 5.83882 40.02 5.91815 39.9407C5.99748 39.8613 6.0768 39.8217 6.15613 39.7424C6.23545 39.663 6.27512 39.5837 6.31478 39.544C6.35444 39.4647 6.3941 39.3854 6.43377 39.3061C6.55276 39.1474 6.59242 38.9491 6.59242 38.7904ZM6.90972 34.8242C6.90972 34.8242 6.90972 34.7845 6.90972 34.7052C6.90972 34.6258 6.90972 34.5465 6.87006 34.4275C6.87006 34.3085 6.8304 34.1896 6.79073 34.0706C6.75107 33.9516 6.67174 33.7929 6.59242 33.6739C6.51309 33.5549 6.3941 33.436 6.27512 33.3566C6.15613 33.2773 5.95781 33.198 5.7595 33.198C5.71984 33.8723 5.71984 34.5069 5.68017 35.1811C5.64051 35.8157 5.64051 36.49 5.64051 37.1643C5.79916 37.1246 5.91815 37.0453 6.03714 36.9263C6.15613 36.847 6.23545 36.728 6.35444 36.609C6.43377 36.49 6.51309 36.371 6.55276 36.252C6.63208 36.133 6.67174 35.9744 6.71141 35.8554C6.8304 35.4984 6.90972 35.1811 6.90972 34.8242Z" fill="#FF7AE8"/>
<path d="M6.15613 30.8579H5.20422V32.4444H6.15613V30.8579Z" fill="#FF7AE8"/>
<path d="M6.15613 40.4167H5.20422V42.2016H6.15613V40.4167Z" fill="#FF7AE8"/>
<path opacity="0.3" d="M1 38.5524L10.6777 30.8975C10.6777 30.8975 11.471 32.9599 11.59 34.9431L1.35697 40.9322C1.35697 40.9322 1.03966 39.306 1 38.5524Z" fill="url(#paint57_linear_147_4108)"/>
<path opacity="0.72" d="M10.6777 30.8579L12.5816 30.6992C12.5816 30.6992 13.4541 32.841 13.5335 34.7448L11.6296 34.9431C11.59 34.9431 11.2727 32.2461 10.6777 30.8579Z" fill="url(#paint58_linear_147_4108)"/>
<path opacity="0.5" d="M9.68612 44.9778H11.5106C11.5106 44.9778 10.6777 46.247 9.76545 46.7626L8.09961 46.6833C8.09961 46.6833 9.09118 46.009 9.68612 44.9778Z" fill="#C44FE5"/>
<path opacity="0.72" d="M8.37728 27.3675C8.37728 27.3675 9.96379 27.5658 10.7571 27.9227C10.7571 27.9227 10.2414 27.3278 9.92413 27.2088C9.60683 27.0502 8.29795 26.4155 6.27515 26.5345C6.27515 26.5345 7.42537 26.6139 8.37728 27.3675Z" fill="url(#paint59_linear_147_4108)"/>
<path d="M11.4709 51.086C11.4709 51.086 12.7798 50.2927 14.168 50.372C14.168 50.4117 12.3039 51.2446 11.4709 51.086Z" fill="white"/>
</g>
<defs>
<radialGradient id="paint0_radial_147_4108" cx="0" cy="0" r="1" gradientUnits="userSpaceOnUse" gradientTransform="translate(43.6423 76.385) scale(16.1775 3.59948)">
<stop stop-color="#BE9DEA"/>
<stop offset="0.3883" stop-color="#E0BFF5"/>
<stop offset="1" stop-color="white"/>
</radialGradient>
<linearGradient id="paint1_linear_147_4108" x1="27.8425" y1="14.1549" x2="29.7676" y2="4.16972" gradientUnits="userSpaceOnUse">
<stop stop-color="#45FFCD"/>
<stop offset="1" stop-color="#22E0FF"/>
</linearGradient>
<linearGradient id="paint2_linear_147_4108" x1="31.4542" y1="10.492" x2="33.0976" y2="1.96774" gradientUnits="userSpaceOnUse">
<stop stop-color="#B9ACF4"/>
<stop offset="1" stop-color="#E1D1F5"/>
</linearGradient>
<linearGradient id="paint3_linear_147_4108" x1="35.6423" y1="34.7709" x2="45.8551" y2="3.47065" gradientUnits="userSpaceOnUse">
<stop stop-color="#CBC1F7"/>
<stop offset="1" stop-color="#E8DCF7"/>
</linearGradient>
<linearGradient id="paint4_linear_147_4108" x1="26.6552" y1="28.909" x2="52.9857" y2="33.9852" gradientUnits="userSpaceOnUse">
<stop stop-color="#8879EA"/>
<stop offset="1" stop-color="#9E8CEF"/>
</linearGradient>
<linearGradient id="paint5_linear_147_4108" x1="37.5011" y1="34.3909" x2="41.5389" y2="13.4467" gradientUnits="userSpaceOnUse">
<stop stop-color="#9D68C2"/>
<stop offset="1" stop-color="#CCEDFF"/>
</linearGradient>
<linearGradient id="paint6_linear_147_4108" x1="39.2766" y1="34.2682" x2="40.4508" y2="28.1772" gradientUnits="userSpaceOnUse">
<stop stop-color="#8DA4E5"/>
<stop offset="1" stop-color="#755CBB"/>
</linearGradient>
<linearGradient id="paint7_linear_147_4108" x1="39.7272" y1="32.2592" x2="40.4653" y2="28.2545" gradientUnits="userSpaceOnUse">
<stop stop-color="#5E36CC"/>
<stop offset="1" stop-color="#6C4A96"/>
</linearGradient>
<linearGradient id="paint8_linear_147_4108" x1="33.8458" y1="27.2796" x2="38.5275" y2="2.99565" gradientUnits="userSpaceOnUse">
<stop stop-color="#0665BD"/>
<stop offset="1" stop-color="#1A1F77"/>
</linearGradient>
<linearGradient id="paint9_linear_147_4108" x1="53.5796" y1="19.38" x2="53.4959" y2="2.63808" gradientUnits="userSpaceOnUse">
<stop stop-color="#B9ACF4"/>
<stop offset="1" stop-color="#E1D1F5"/>
</linearGradient>
<linearGradient id="paint10_linear_147_4108" x1="54.8589" y1="18.7379" x2="54.7788" y2="2.70941" gradientUnits="userSpaceOnUse">
<stop stop-color="#BE9DEA"/>
<stop offset="1" stop-color="#9E8CEF"/>
</linearGradient>
<linearGradient id="paint11_linear_147_4108" x1="56.0706" y1="19.13" x2="55.992" y2="3.41903" gradientUnits="userSpaceOnUse">
<stop stop-color="#45FFCD"/>
<stop offset="1" stop-color="#22E0FF"/>
</linearGradient>
<linearGradient id="paint12_linear_147_4108" x1="15.5531" y1="28.7722" x2="18.4136" y2="20.0055" gradientUnits="userSpaceOnUse">
<stop stop-color="#BE9DEA"/>
<stop offset="1" stop-color="#9E8CEF"/>
</linearGradient>
<linearGradient id="paint13_linear_147_4108" x1="17.9788" y1="29.1728" x2="19.1553" y2="25.1654" gradientUnits="userSpaceOnUse">
<stop stop-color="#DD1A8F"/>
<stop offset="1" stop-color="#FE117E"/>
</linearGradient>
<linearGradient id="paint14_linear_147_4108" x1="18.2866" y1="27.3223" x2="18.3903" y2="25.4153" gradientUnits="userSpaceOnUse">
<stop stop-color="#D93DE3"/>
<stop offset="1" stop-color="#FF6DBA"/>
</linearGradient>
<linearGradient id="paint15_linear_147_4108" x1="41.557" y1="15.7589" x2="41.9864" y2="13.5314" gradientUnits="userSpaceOnUse">
<stop stop-color="#45FFCD"/>
<stop offset="1" stop-color="#22E0FF"/>
</linearGradient>
<linearGradient id="paint16_linear_147_4108" x1="26.8883" y1="15.6048" x2="27.2869" y2="13.5371" gradientUnits="userSpaceOnUse">
<stop stop-color="#45FFCD"/>
<stop offset="1" stop-color="#22E0FF"/>
</linearGradient>
<linearGradient id="paint17_linear_147_4108" x1="27.5697" y1="6.48146" x2="48.4398" y2="10.505" gradientUnits="userSpaceOnUse">
<stop/>
<stop offset="1" stop-color="#6A9BFF"/>
</linearGradient>
<linearGradient id="paint18_linear_147_4108" x1="25.609" y1="23.5857" x2="40.9027" y2="26.5341" gradientUnits="userSpaceOnUse">
<stop/>
<stop offset="1" stop-color="#6A9BFF"/>
</linearGradient>
<linearGradient id="paint19_linear_147_4108" x1="22.1581" y1="22.9203" x2="24.0794" y2="12.9544" gradientUnits="userSpaceOnUse">
<stop/>
<stop offset="1" stop-color="#6A9BFF"/>
</linearGradient>
<linearGradient id="paint20_linear_147_4108" x1="55.7674" y1="18.618" x2="55.7444" y2="14.0296" gradientUnits="userSpaceOnUse">
<stop stop-color="#D4E2FF"/>
<stop offset="1"/>
</linearGradient>
<linearGradient id="paint21_linear_147_4108" x1="51.8912" y1="6.31334" x2="60.8816" y2="6.26839" gradientUnits="userSpaceOnUse">
<stop/>
<stop offset="1" stop-color="#D4E2FF"/>
</linearGradient>
<linearGradient id="paint22_linear_147_4108" x1="23.5931" y1="50.811" x2="25.7723" y2="33.4601" gradientUnits="userSpaceOnUse">
<stop stop-color="#CBC1F7"/>
<stop offset="1" stop-color="#D4BEF1"/>
</linearGradient>
<linearGradient id="paint23_linear_147_4108" x1="19.1011" y1="50.1446" x2="18.6083" y2="45.3078" gradientUnits="userSpaceOnUse">
<stop stop-color="#BE9DEA"/>
<stop offset="1" stop-color="#9E8CEF"/>
</linearGradient>
<linearGradient id="paint24_linear_147_4108" x1="24.8091" y1="50.1959" x2="24.8091" y2="34.2358" gradientUnits="userSpaceOnUse">
<stop stop-color="#9D68C2"/>
<stop offset="1" stop-color="#CCEDFF"/>
</linearGradient>
<linearGradient id="paint25_linear_147_4108" x1="33.993" y1="70.8148" x2="33.6167" y2="56.4715" gradientUnits="userSpaceOnUse">
<stop stop-color="#CBC1F7"/>
<stop offset="1" stop-color="#E8DCF7"/>
</linearGradient>
<linearGradient id="paint26_linear_147_4108" x1="29.5987" y1="59.8013" x2="37.9942" y2="58.5224" gradientUnits="userSpaceOnUse">
<stop stop-color="#8879EA"/>
<stop offset="1" stop-color="#9E8CEF"/>
</linearGradient>
<linearGradient id="paint27_linear_147_4108" x1="35.3498" y1="70.175" x2="33.1932" y2="56.0181" gradientUnits="userSpaceOnUse">
<stop stop-color="#9D68C2"/>
<stop offset="1" stop-color="#CCEDFF"/>
</linearGradient>
<linearGradient id="paint28_linear_147_4108" x1="41.1602" y1="62.2761" x2="36.0566" y2="31.5289" gradientUnits="userSpaceOnUse">
<stop stop-color="#CBC1F7"/>
<stop offset="1" stop-color="#E8DCF7"/>
</linearGradient>
<linearGradient id="paint29_linear_147_4108" x1="48.5622" y1="54.8388" x2="43.9953" y2="39.5027" gradientUnits="userSpaceOnUse">
<stop stop-color="#9D68C2"/>
<stop offset="1" stop-color="#CCEDFF"/>
</linearGradient>
<linearGradient id="paint30_linear_147_4108" x1="29.8246" y1="55.3836" x2="44.3589" y2="51.0555" gradientUnits="userSpaceOnUse">
<stop stop-color="#BE9DEA"/>
<stop offset="1" stop-color="#9E8CEF"/>
</linearGradient>
<radialGradient id="paint31_radial_147_4108" cx="0" cy="0" r="1" gradientUnits="userSpaceOnUse" gradientTransform="translate(39.3612 59.7702) rotate(-16.5829) scale(11.4608 11.4608)">
<stop stop-color="#45FFCD"/>
<stop offset="1" stop-color="#22E0FF"/>
</radialGradient>
<linearGradient id="paint32_linear_147_4108" x1="42.3308" y1="39.9431" x2="46.0729" y2="38.8288" gradientUnits="userSpaceOnUse">
<stop stop-color="#8879EA"/>
<stop offset="1" stop-color="#9E8CEF"/>
</linearGradient>
<linearGradient id="paint33_linear_147_4108" x1="36.0997" y1="36.5972" x2="34.6982" y2="31.8909" gradientUnits="userSpaceOnUse">
<stop stop-color="#8DA4E5"/>
<stop offset="1" stop-color="#755CBB"/>
</linearGradient>
<linearGradient id="paint34_linear_147_4108" x1="29.0598" y1="50.051" x2="41.1195" y2="46.4597" gradientUnits="userSpaceOnUse">
<stop/>
<stop offset="1" stop-color="#D4E2FF"/>
</linearGradient>
<linearGradient id="paint35_linear_147_4108" x1="39.8391" y1="62.017" x2="39.4243" y2="60.6244" gradientUnits="userSpaceOnUse">
<stop stop-color="#D4E2FF"/>
<stop offset="1"/>
</linearGradient>
<linearGradient id="paint36_linear_147_4108" x1="58.3596" y1="54.7555" x2="48.9524" y2="33.2017" gradientUnits="userSpaceOnUse">
<stop stop-color="#CBC1F7"/>
<stop offset="1" stop-color="#E8DCF7"/>
</linearGradient>
<linearGradient id="paint37_linear_147_4108" x1="62.5798" y1="52.4106" x2="60.2843" y2="48.5504" gradientUnits="userSpaceOnUse">
<stop stop-color="#BE9DEA"/>
<stop offset="1" stop-color="#9E8CEF"/>
</linearGradient>
<linearGradient id="paint38_linear_147_4108" x1="60.3978" y1="54.1566" x2="47.7833" y2="32.9432" gradientUnits="userSpaceOnUse">
<stop stop-color="#9D68C2"/>
<stop offset="1" stop-color="#CCEDFF"/>
</linearGradient>
<linearGradient id="paint39_linear_147_4108" x1="69.7507" y1="58.9286" x2="60.8163" y2="49.5836" gradientUnits="userSpaceOnUse">
<stop stop-color="#CBC1F7"/>
<stop offset="1" stop-color="#E8DCF7"/>
</linearGradient>
<linearGradient id="paint40_linear_147_4108" x1="67.583" y1="60.7581" x2="60.6622" y2="51.4238" gradientUnits="userSpaceOnUse">
<stop stop-color="#BE9DEA"/>
<stop offset="1" stop-color="#9E8CEF"/>
</linearGradient>
<linearGradient id="paint41_linear_147_4108" x1="65.2502" y1="58.0099" x2="62.5742" y2="54.4007" gradientUnits="userSpaceOnUse">
<stop stop-color="#8DA4E5"/>
<stop offset="1" stop-color="#755CBB"/>
</linearGradient>
<linearGradient id="paint42_linear_147_4108" x1="64.8817" y1="58.0191" x2="59.5963" y2="52.4908" gradientUnits="userSpaceOnUse">
<stop stop-color="#CBC1F7"/>
<stop offset="1" stop-color="#E8DCF7"/>
</linearGradient>
<linearGradient id="paint43_linear_147_4108" x1="51.3387" y1="69.9849" x2="47.5074" y2="51.9617" gradientUnits="userSpaceOnUse">
<stop stop-color="#CBC1F7"/>
<stop offset="1" stop-color="#E8DCF7"/>
</linearGradient>
<linearGradient id="paint44_linear_147_4108" x1="54.4925" y1="69.4489" x2="48.4242" y2="51.9835" gradientUnits="userSpaceOnUse">
<stop stop-color="#9D68C2"/>
<stop offset="1" stop-color="#CCEDFF"/>
</linearGradient>
<linearGradient id="paint45_linear_147_4108" x1="15.1668" y1="52.2561" x2="11.5031" y2="47.3144" gradientUnits="userSpaceOnUse">
<stop stop-color="#BE9DEA"/>
<stop offset="1" stop-color="#9E8CEF"/>
</linearGradient>
<linearGradient id="paint46_linear_147_4108" x1="12.9877" y1="52.3909" x2="13.9118" y2="45.0336" gradientUnits="userSpaceOnUse">
<stop stop-color="#E8DCF7"/>
<stop offset="1" stop-color="#CBC1F7"/>
</linearGradient>
<linearGradient id="paint47_linear_147_4108" x1="14.742" y1="47.4485" x2="13.6024" y2="45.9113" gradientUnits="userSpaceOnUse">
<stop stop-color="#BE9DEA"/>
<stop offset="1" stop-color="#9E8CEF"/>
</linearGradient>
<linearGradient id="paint48_linear_147_4108" x1="12.6531" y1="47.4683" x2="12.9751" y2="44.9044" gradientUnits="userSpaceOnUse">
<stop stop-color="#CBC1F7"/>
<stop offset="1" stop-color="#E8DCF7"/>
</linearGradient>
<linearGradient id="paint49_linear_147_4108" x1="12.3384" y1="46.6223" x2="17.3143" y2="50.2776" gradientUnits="userSpaceOnUse">
<stop stop-color="#BE9DEA"/>
<stop offset="1" stop-color="#9E8CEF"/>
</linearGradient>
<linearGradient id="paint50_linear_147_4108" x1="9.4104" y1="47.447" x2="9.4104" y2="26.4794" gradientUnits="userSpaceOnUse">
<stop stop-color="#DD1A8F"/>
<stop offset="1" stop-color="#FE117E"/>
</linearGradient>
<linearGradient id="paint51_linear_147_4108" x1="4.12561" y1="46.9342" x2="8.1176" y2="26.8729" gradientUnits="userSpaceOnUse">
<stop stop-color="#D93DE3"/>
<stop offset="1" stop-color="#FF6DBA"/>
</linearGradient>
<linearGradient id="paint52_linear_147_4108" x1="4.59116" y1="44.799" x2="7.73377" y2="29.0061" gradientUnits="userSpaceOnUse">
<stop stop-color="#DD1A8F"/>
<stop offset="1" stop-color="#FE117E"/>
</linearGradient>
<linearGradient id="paint53_linear_147_4108" x1="4.85266" y1="44.8509" x2="7.96143" y2="29.2281" gradientUnits="userSpaceOnUse">
<stop stop-color="#D93DE3"/>
<stop offset="1" stop-color="#E652AD"/>
</linearGradient>
<linearGradient id="paint54_linear_147_4108" x1="4.83041" y1="36.6127" x2="8.67148" y2="36.6127" gradientUnits="userSpaceOnUse">
<stop stop-color="#DD1A8F"/>
<stop offset="1" stop-color="#FE117E"/>
</linearGradient>
<linearGradient id="paint55_linear_147_4108" x1="5.78821" y1="31.7187" x2="6.75098" y2="31.7187" gradientUnits="userSpaceOnUse">
<stop stop-color="#DD1A8F"/>
<stop offset="1" stop-color="#FE117E"/>
</linearGradient>
<linearGradient id="paint56_linear_147_4108" x1="5.78821" y1="41.3722" x2="6.75098" y2="41.3722" gradientUnits="userSpaceOnUse">
<stop stop-color="#DD1A8F"/>
<stop offset="1" stop-color="#FE117E"/>
</linearGradient>
<linearGradient id="paint57_linear_147_4108" x1="0.987189" y1="35.9041" x2="11.5703" y2="35.9041" gradientUnits="userSpaceOnUse">
<stop/>
<stop offset="1" stop-color="#FF955C"/>
</linearGradient>
<linearGradient id="paint58_linear_147_4108" x1="10.6635" y1="32.8167" x2="13.4843" y2="32.8167" gradientUnits="userSpaceOnUse">
<stop/>
<stop offset="1" stop-color="#FF955C"/>
</linearGradient>
<linearGradient id="paint59_linear_147_4108" x1="6.29434" y1="27.2146" x2="10.7889" y2="27.2146" gradientUnits="userSpaceOnUse">
<stop/>
<stop offset="1" stop-color="#FF955C"/>
</linearGradient>
<clipPath id="clip0_147_4108">
<rect width="80.1587" height="80" fill="white" transform="translate(0.920654)"/>
</clipPath>
</defs>
</svg>
