<svg width="74" height="80" viewBox="0 0 74 80" fill="none" xmlns="http://www.w3.org/2000/svg">
<g clip-path="url(#clip0_147_4659)">
<path d="M70.544 60C69.2796 62.5288 67.7854 64.0613 66.2145 64.8276C63.7624 66.0537 61.0421 65.5939 58.2068 64.5211C58.1302 64.4828 58.0536 64.4445 57.9386 64.4445C57.5555 64.2912 57.1724 64.138 56.7892 63.9847C52.3448 62.1073 47.7471 59.2337 43.7624 59.6169C41.9616 59.8085 39.9693 60.5364 37.862 61.5326C35.9463 62.4138 33.954 63.5249 31.8084 64.5594C31.4252 64.751 31.0421 64.9426 30.659 65.0958C29.6628 65.5556 28.6666 66.0154 27.6704 66.3985C21.9233 68.659 15.5249 69.6552 8.66661 65.4406C3.87734 62.4905 -5.73952 45.8238 5.25665 29.3487C17.4789 11.0345 50.1609 11.3027 59.6245 16.5134C76.3294 25.7472 75.8697 49.5019 70.544 60Z" fill="#E5F6FF"/>
<path d="M57.3256 6.24529C56.9041 7.54797 56.8275 8.92728 57.0191 10.2683C57.0574 10.4982 57.0957 10.6897 57.2106 10.8813C57.4405 11.2261 57.9003 11.3794 58.3217 11.3411C59.3562 11.3028 60.2758 10.5365 60.6206 9.5403C60.9271 8.54414 60.6972 7.43302 60.0459 6.62843C59.7011 6.16866 59.203 5.82383 58.6283 5.7472C58.0535 5.67057 57.4405 6.0154 57.2873 6.5518C57.4022 6.70506 57.6704 6.66674 57.7087 6.47517L57.3256 6.24529Z" fill="#E5F6FF"/>
<path d="M1.08039 65.2873C0.658936 66.59 0.582308 67.9693 0.773879 69.3103C0.812193 69.5401 0.850507 69.7317 0.96545 69.9233C1.19533 70.2681 1.6551 70.4214 2.07656 70.3831C3.11104 70.3447 4.03058 69.5785 4.37541 68.5823C4.68192 67.5861 4.45204 66.475 3.8007 65.6704C3.45587 65.2106 2.95779 64.8658 2.38307 64.7892C1.80836 64.7126 1.19533 65.0574 1.04208 65.5938C1.15702 65.747 1.42522 65.7087 1.46353 65.5172L1.08039 65.2873Z" fill="#E5F6FF"/>
<path d="M59.4712 9.8467C59.0115 10.1532 58.7433 10.7279 58.7816 11.3026C59.2797 11.5325 59.8927 11.6092 60.3908 11.3026C60.8505 10.9961 61.0804 10.3065 60.7739 9.88502C60.4291 9.42525 59.5862 9.54019 59.4712 10.1149V9.8467Z" fill="#E5F6FF"/>
<path d="M58.9731 14.7893C58.7049 14.7893 58.475 14.9042 58.3218 15.1341C58.3984 15.2108 58.5133 15.2874 58.59 15.3257C58.7049 15.364 58.8199 15.364 58.8965 15.2491C59.0114 15.1341 58.9348 14.9426 58.8965 14.7893C58.9348 14.7893 58.9731 14.8276 59.0114 14.8276L58.9731 14.7893Z" fill="#E5F6FF"/>
<path d="M58.8965 13.7548C58.8965 13.6782 58.8965 13.6015 58.9731 13.5249C59.1264 13.6398 59.1264 13.908 59.088 14.0996C59.088 14.2146 59.0497 14.3295 58.9348 14.3678C58.8582 14.4061 58.7815 14.3295 58.7049 14.3295C58.5517 14.3295 58.3601 14.4444 58.2451 14.2912C58.2068 14.2146 58.2068 14.0996 58.2834 14.0613C58.3601 13.9847 58.4367 13.9464 58.5133 13.9464C58.7049 13.8697 58.8582 13.7931 59.0497 13.7548H58.8965Z" fill="#E5F6FF"/>
<path opacity="0.5" d="M59.0881 26.82C58.9731 26.9349 59.1647 27.1265 59.3179 27.1265C59.4712 27.0882 59.5861 26.9349 59.6628 26.82C59.4712 26.6667 59.2413 26.6667 59.0497 26.7816L59.0881 26.82Z" fill="#E5F6FF"/>
<path d="M64.8352 27.4329C64.9118 27.3946 64.9885 27.3946 65.0268 27.4712C65.0651 27.5478 65.0651 27.6245 65.0651 27.7011C65.0651 27.7394 65.0268 27.7777 65.0268 27.816C64.9502 27.8927 64.8352 27.8927 64.7586 27.816C64.682 27.7394 64.682 27.6245 64.7586 27.5478C64.8352 27.4712 64.9502 27.4712 65.0268 27.5478L64.8352 27.4329Z" fill="#E5F6FF"/>
<path d="M60.8122 16.3602C60.7739 16.207 60.5057 16.1687 60.4291 16.3219C60.4674 16.3986 60.5057 16.4752 60.5823 16.5135C60.659 16.5518 60.7739 16.5518 60.8122 16.5135C60.8888 16.4369 60.8505 16.3219 60.7739 16.3219L60.8122 16.3602Z" fill="#E5F6FF"/>
<path d="M59.2796 13.065C59.088 12.9884 58.8965 13.0267 58.7049 13.1416C58.8198 13.2566 58.8965 13.3715 59.0114 13.5248C59.0497 13.6014 59.1263 13.6397 59.1647 13.678C59.3179 13.7164 59.4712 13.6014 59.4712 13.4482C59.5095 13.3332 59.4329 13.18 59.2796 13.065Z" fill="#E5F6FF"/>
<path opacity="0.5" d="M63.6091 25.5556C63.6474 25.5939 63.6858 25.6322 63.6858 25.6705C63.7624 25.6705 63.839 25.5939 63.839 25.4789C63.839 25.4023 63.7624 25.3257 63.6858 25.3257C63.6091 25.3257 63.5325 25.4789 63.6091 25.5556Z" fill="#E5F6FF"/>
<path d="M60.1225 15.4406C60.2375 15.4406 60.2758 15.2873 60.2375 15.2107C60.1992 15.134 60.0842 15.0574 60.0459 14.9808C59.9693 14.9042 59.9693 14.7892 60.0076 14.6743C60.0076 14.5976 60.0842 14.5593 60.1225 14.5593C60.1608 14.5593 60.1992 14.5593 60.2375 14.5976C60.429 14.6743 60.6206 14.7892 60.7356 14.9425C60.8505 15.0957 60.8888 15.3639 60.8122 15.5172C60.7356 15.6321 60.5823 15.7088 60.429 15.7088C60.3141 15.6321 60.1608 15.5172 60.1225 15.4406Z" fill="#E5F6FF"/>
<path d="M57.4022 14.7893C57.2873 14.751 57.134 14.8659 57.0957 14.9809C57.0574 15.0958 57.134 15.2491 57.249 15.3257C57.2873 15.364 57.3639 15.4023 57.4022 15.364C57.4405 15.3257 57.4405 15.2874 57.4405 15.2491C57.4405 15.0958 57.4405 14.9425 57.4405 14.751L57.4022 14.7893Z" fill="#E5F6FF"/>
<path d="M58.1302 20.9196C58.3984 20.843 58.6666 21.1112 58.6283 21.3794C58.4367 21.4177 58.2068 21.4177 58.0153 21.3411C57.8237 21.2644 57.7087 20.9962 57.8237 20.843C57.9386 20.8047 58.0536 20.8047 58.1685 20.7664L58.1302 20.9196Z" fill="#E5F6FF"/>
<path d="M58.5133 0.114943C58.5133 0.0383142 58.5516 0 58.6283 0C58.7049 0 58.7432 0.0383142 58.7815 0.0383142C58.8198 0.0766283 58.8582 0.114943 58.8965 0.153257C58.9348 0.229885 58.8965 0.344828 58.8198 0.421456C58.7432 0.498084 58.6283 0.498084 58.5516 0.45977C58.5133 0.45977 58.475 0.421456 58.4367 0.383142C58.4367 0.344828 58.4367 0.268199 58.475 0.268199L58.5133 0.114943Z" fill="#E5F6FF"/>
<path d="M59.9693 17.6245C59.931 17.6628 59.8927 17.7011 59.816 17.7394C59.8544 17.8161 59.8927 17.8927 59.9693 17.931C60.0459 17.9693 60.1609 17.8927 60.1226 17.8161C60.1226 17.7777 60.0842 17.7777 60.0459 17.7394C59.9693 17.6628 59.8927 17.6245 59.816 17.5479L59.9693 17.6245Z" fill="#E5F6FF"/>
<path d="M60.5823 20.5364C60.5057 20.6513 60.3907 20.7663 60.3524 20.8812C60.3141 20.9961 60.3524 21.1877 60.4291 21.2643C60.4674 21.3027 60.544 21.341 60.6206 21.341C60.8122 21.341 61.0038 21.1494 61.0038 20.9195C61.0038 20.6896 60.7739 20.5364 60.5823 20.5364Z" fill="#E5F6FF"/>
<path d="M59.6628 21.6858C59.6628 21.7624 59.6245 21.8773 59.6245 21.954C59.7011 21.9923 59.7777 21.9923 59.8543 21.9923C59.931 21.8773 59.8543 21.6858 59.7394 21.6475L59.6628 21.6858Z" fill="#E5F6FF"/>
<path d="M52.8812 15.862C52.9578 16.3984 53.1494 16.9348 53.4559 17.3562C53.4942 17.4329 53.5708 17.5095 53.6474 17.5478C53.8007 17.6244 53.9923 17.6244 54.1455 17.5478C54.5287 17.3562 54.7202 16.9348 54.6819 16.5133C54.6436 16.0919 54.3371 15.747 53.9923 15.5555C53.8007 15.4405 53.5325 15.4022 53.3409 15.4788C53.111 15.5555 52.9578 15.7853 52.9961 16.0152C53.0727 16.0535 53.1494 15.9769 53.1494 15.9003L52.8812 15.862Z" fill="#E5F6FF"/>
<path d="M63.226 11.5325C63.0344 11.6857 62.8812 11.9539 62.8812 12.1838C62.9961 12.1838 63.1111 12.1838 63.226 12.1838C63.3409 12.1455 63.4176 12.0689 63.4559 11.9539C63.4559 11.8007 63.3026 11.6857 63.1877 11.6091C63.226 11.6091 63.2643 11.5708 63.3026 11.5708L63.226 11.5325Z" fill="#E5F6FF"/>
<path d="M63.954 13.2566C63.9157 13.3333 63.8773 13.4099 63.9157 13.4482C63.9157 13.5248 63.9923 13.5631 64.0306 13.6015C64.1839 13.7164 64.2988 13.8697 64.4137 14.0229C64.452 13.7164 64.452 13.3716 64.4904 13.0651C64.4904 13.0267 64.4904 13.0267 64.4904 12.9884C64.5287 12.9118 64.6436 12.9118 64.7203 12.8735C64.8352 12.7969 64.8352 12.6436 64.7969 12.5287C64.4904 11.6857 64.1072 12.9118 63.954 13.2566Z" fill="#E5F6FF"/>
<path d="M62.4214 9.99996C62.2298 10.0766 62.0766 10.2298 62.0383 10.3831C62.1915 10.4214 62.3448 10.4597 62.498 10.498C62.5747 10.498 62.6513 10.5364 62.7279 10.498C62.8812 10.4597 62.9195 10.2682 62.8429 10.1532C62.7662 10.0383 62.613 9.96164 62.4214 9.99996Z" fill="#E5F6FF"/>
<path d="M61.9616 12.4905C61.8466 12.5288 61.8083 12.7203 61.8466 12.8353C61.885 12.9502 62.0382 13.0269 62.1532 13.0269C62.2298 13.0269 62.2681 13.0269 62.3064 12.9502C62.3064 12.9119 62.3064 12.8736 62.2681 12.8353C62.1915 12.7203 62.0765 12.5671 61.9999 12.4521L61.9616 12.4905Z" fill="#E5F6FF"/>
<path d="M59.7777 11.7625C59.7011 11.8774 59.5861 11.9923 59.5478 12.1073C59.5095 12.2222 59.5478 12.4138 59.6244 12.4904C59.6627 12.5287 59.7394 12.567 59.816 12.567C60.0076 12.567 60.1991 12.3755 60.1991 12.1456C60.1991 11.954 59.9693 11.7625 59.7777 11.7625Z" fill="#E5F6FF"/>
<path d="M57.3639 18.3525C57.4405 18.4675 57.5938 18.5058 57.747 18.4675C57.9003 18.4675 58.0535 18.4292 58.1302 18.5441C58.1685 18.5824 58.1685 18.6207 58.1685 18.6591C58.1302 18.7357 58.0152 18.7357 57.9003 18.7357C57.8237 18.7357 57.747 18.8123 57.6704 18.8123C57.4788 18.8889 57.2873 18.8506 57.1723 18.6974C57.134 18.5824 57.1723 18.5058 57.2489 18.4292C57.3256 18.3525 57.4405 18.3525 57.5171 18.3909L57.3639 18.3525Z" fill="#E5F6FF"/>
<path d="M59.6244 20.9578C59.7011 21.0727 59.8543 21.111 60.0076 21.0727C60.1608 21.0727 60.3141 21.0344 60.3907 21.1493C60.429 21.1876 60.429 21.226 60.429 21.2643C60.3907 21.3409 60.2758 21.3409 60.1609 21.3409C60.0842 21.3409 60.0076 21.4175 59.931 21.4175C59.7394 21.4942 59.5478 21.4558 59.4329 21.3026C59.3946 21.1876 59.4329 21.111 59.5095 21.0344C59.5861 20.9578 59.7011 20.9578 59.7777 20.9961L59.6244 20.9578Z" fill="#E5F6FF"/>
<path d="M59.2797 23.5249C59.2413 23.6398 59.2413 23.7548 59.2797 23.8697V23.908C59.318 23.9463 59.3563 23.9463 59.3563 23.9463C59.4329 23.9463 59.5095 23.8697 59.5478 23.7931C59.5862 23.7165 59.5478 23.6015 59.5095 23.5632C59.4712 23.5249 59.4329 23.4866 59.3946 23.4866C59.3563 23.4866 59.2797 23.4866 59.2797 23.5249C59.2797 23.5632 59.318 23.5632 59.318 23.5632L59.2797 23.5249Z" fill="#E5F6FF"/>
<path d="M59.816 7.01147C59.6244 7.16473 59.4712 7.43293 59.4712 7.66282C59.5861 7.66282 59.7011 7.66282 59.816 7.66282C59.931 7.6245 60.0076 7.54787 60.0459 7.43293C60.0459 7.27967 59.8926 7.16473 59.7777 7.0881C59.816 7.0881 59.8543 7.04979 59.8926 7.04979L59.816 7.01147Z" fill="#E5F6FF"/>
<path d="M62.2298 7.20311C62.1149 7.12648 61.885 7.24142 61.885 7.39468C61.9616 7.43299 62.0383 7.47131 62.1149 7.47131C62.1915 7.47131 62.2681 7.39468 62.3065 7.31805C62.3065 7.24142 62.2298 7.16479 62.1532 7.16479L62.2298 7.20311Z" fill="#E5F6FF"/>
<path d="M60.3524 11.0727C60.2375 10.9961 60.0076 11.1111 60.0076 11.2643C60.0842 11.3026 60.1608 11.3409 60.2375 11.3409C60.3141 11.3409 60.3907 11.2643 60.429 11.1877C60.429 11.1111 60.3524 11.0344 60.2758 11.0344L60.3524 11.0727Z" fill="#E5F6FF"/>
<path d="M61.0804 6.85829C61.157 6.78167 61.1187 6.66672 61.0037 6.59009C60.9271 6.55178 60.8122 6.55178 60.6972 6.51347C60.5823 6.47515 60.5056 6.39852 60.4673 6.28358C60.429 6.20695 60.429 6.16864 60.4673 6.09201C60.5056 6.0537 60.544 6.0537 60.5823 6.0537C60.7738 6.01538 61.0037 5.97707 61.1953 6.01538C61.3869 6.0537 61.5784 6.24527 61.5784 6.43684C61.5784 6.59009 61.5401 6.74335 61.3869 6.81998C61.2719 6.89661 61.1187 6.89661 60.9654 6.85829H61.0804Z" fill="#E5F6FF"/>
<path d="M58.7049 18.8888C58.7816 18.8122 58.7433 18.6972 58.6283 18.6206C58.5517 18.5823 58.4367 18.5823 58.3218 18.544C58.2069 18.5057 58.1302 18.429 58.0919 18.3141C58.0536 18.2375 58.0536 18.1992 58.0919 18.1225C58.1302 18.0842 58.1685 18.0842 58.2069 18.0842C58.3984 18.0459 58.6283 18.0076 58.8199 18.0459C59.0115 18.0842 59.203 18.2758 59.203 18.4674C59.203 18.6206 59.1647 18.7739 59.0115 18.8505C58.8582 18.9271 58.7432 18.9271 58.59 18.8888H58.7049Z" fill="#E5F6FF"/>
<path d="M57.3256 18.8122C57.4022 18.7355 57.3639 18.6206 57.249 18.544C57.1723 18.5056 57.0574 18.5056 56.9425 18.4673C56.8275 18.429 56.7509 18.3524 56.7126 18.2374C56.6743 18.1608 56.6743 18.1225 56.7126 18.0459C56.7509 18.0076 56.7892 18.0076 56.8275 18.0076C57.0191 17.9692 57.249 17.9309 57.4405 17.9692C57.6321 18.0076 57.8237 18.1991 57.8237 18.3907C57.8237 18.544 57.7854 18.6972 57.6321 18.7738C57.5172 18.8505 57.3639 18.8505 57.2107 18.8122H57.3256Z" fill="#E5F6FF"/>
<path d="M57.862 16.7816C57.9386 16.705 57.9003 16.5901 57.7853 16.5134C57.7087 16.4751 57.5938 16.4751 57.4788 16.4368C57.3639 16.3985 57.2873 16.3219 57.249 16.2069C57.2106 16.1303 57.2106 16.092 57.249 16.0154C57.2873 15.977 57.3256 15.977 57.3639 15.977C57.5555 15.9387 57.7853 15.9004 57.9769 15.9387C58.1685 15.977 58.3601 16.1686 58.3601 16.3602C58.3601 16.5134 58.3217 16.6667 58.1685 16.7433C58.0535 16.8199 57.9003 16.8199 57.747 16.7816H57.862Z" fill="#E5F6FF"/>
<path d="M71.0804 23.2951C71.157 23.2184 71.1187 23.1035 71.0037 23.0269C70.9271 22.9885 70.8122 22.9885 70.6972 22.9502C70.5823 22.9119 70.5056 22.8353 70.4673 22.7203C70.429 22.6437 70.429 22.6054 70.4673 22.5288C70.5056 22.4905 70.544 22.4905 70.5823 22.4905C70.7738 22.4522 71.0037 22.4138 71.1953 22.4521C71.3869 22.4905 71.5784 22.682 71.5784 22.8736C71.5784 23.0269 71.5401 23.1801 71.3869 23.2567C71.2719 23.3334 71.1187 23.3334 70.9654 23.2951H71.0804Z" fill="#E5F6FF"/>
<path d="M62.2682 8.69725C62.2682 8.73556 62.2298 8.81219 62.2298 8.85051C62.3065 8.88882 62.3831 8.92713 62.498 8.88882C62.5747 8.85051 62.613 8.73556 62.5747 8.69725C62.5364 8.69725 62.498 8.65894 62.498 8.65894C62.3831 8.65894 62.3065 8.65894 62.1915 8.65894L62.2682 8.69725Z" fill="#E5F6FF"/>
<path d="M65.5248 19.272C65.4482 19.3869 65.3333 19.5019 65.2949 19.6168C65.2566 19.7317 65.2949 19.9233 65.3716 19.9999C65.4099 20.0383 65.4865 20.0766 65.5631 20.0766C65.7547 20.0766 65.9463 19.885 65.9463 19.6551C65.9463 19.4635 65.7164 19.272 65.5248 19.272Z" fill="#E5F6FF"/>
<path d="M58.3218 10.23C58.3218 10.0384 58.59 9.88513 58.7432 10.0384C58.7815 10.1533 58.7815 10.2683 58.7815 10.3449C58.6666 10.3449 58.5517 10.3449 58.4367 10.2683L58.3218 10.23Z" fill="#E5F6FF"/>
<path opacity="0.5" d="M64.567 20.7663C64.5287 20.8429 64.4904 20.9195 64.4904 20.9961C64.4904 21.0728 64.5287 21.1494 64.567 21.1877C64.6819 21.2643 64.7969 21.1494 64.9501 21.1494C65.0651 21.1494 65.2183 21.2643 65.3333 21.226C65.4482 21.1877 65.4865 20.9961 65.4099 20.8812C65.3333 20.7663 65.2183 20.7279 65.0651 20.6896C64.9501 20.6513 64.8352 20.6513 64.7202 20.6896C64.6053 20.7279 64.5287 20.8429 64.5287 20.9578L64.567 20.7663Z" fill="#E5F6FF"/>
<path d="M59.2796 15.9771C58.7049 15.9771 58.1685 16.2452 57.862 16.705C58.1302 17.2031 58.59 17.6246 59.1264 17.6629C59.6628 17.7012 60.2758 17.2797 60.2758 16.7433C60.2758 16.2069 59.5095 15.7472 59.1264 16.1303L59.2796 15.9771Z" fill="#E5F6FF"/>
<path d="M57.0191 10.115C57.0957 10.115 57.1724 10.1916 57.1724 10.2682C57.1724 10.3449 57.134 10.4215 57.0574 10.4598C57.0191 10.4981 56.9808 10.4981 56.9425 10.5364C56.8275 10.5748 56.7509 10.4598 56.7126 10.3832C56.7126 10.2682 56.7892 10.1916 56.9042 10.1533C57.0191 10.1533 57.0957 10.2299 57.134 10.3066L57.0191 10.115Z" fill="#E5F6FF"/>
<path d="M58.1685 12.9502C58.2835 13.0651 58.4367 12.9885 58.5517 12.9502C58.6666 12.8736 58.8199 12.8353 58.9348 12.9119C58.9731 12.9502 59.0114 12.9502 59.0114 12.9885C59.0114 13.1035 58.8965 13.1035 58.7815 13.1418C58.7049 13.1801 58.6666 13.2567 58.59 13.295C58.4367 13.41 58.2452 13.4483 58.0536 13.3717C58.0153 13.295 57.977 13.1801 58.0536 13.1035C58.0919 13.0268 58.2068 12.9885 58.3218 12.9885L58.1685 12.9502Z" fill="#E5F6FF"/>
<path d="M61.2336 16.1686C61.2336 16.2069 61.2336 16.2836 61.2336 16.3219C61.3103 16.3602 61.4252 16.3602 61.4635 16.2836C61.5018 16.2069 61.5018 16.092 61.4252 16.0537C61.3486 16.0154 61.2336 16.0537 61.2336 16.1686Z" fill="#E5F6FF"/>
<path d="M60.0076 13.3716C60.0459 13.3333 60.1226 13.2949 60.1609 13.3333C60.1992 13.3716 60.2375 13.4099 60.2758 13.4865C60.2758 13.5248 60.3141 13.6015 60.3141 13.6398C60.3141 13.7547 60.1992 13.793 60.1226 13.8313C60.0076 13.8313 59.931 13.793 59.8927 13.6781C59.8544 13.6398 59.8544 13.6015 59.8544 13.5248C59.8544 13.4865 59.931 13.4482 59.9693 13.4482L60.0076 13.3716Z" fill="#E5F6FF"/>
<path d="M64.5287 12.4139C64.1072 12.0307 63.4942 11.8775 62.9578 12.069C62.8428 12.6054 62.9195 13.2185 63.3026 13.6399C63.6858 14.0231 64.4137 14.0997 64.7969 13.7166C65.18 13.2951 64.8735 12.4905 64.2988 12.4905L64.5287 12.4139Z" fill="#E5F6FF"/>
<path d="M61.6168 9.19544C61.5019 9.31038 61.6934 9.50196 61.8467 9.50196C61.9999 9.46364 62.1149 9.31038 62.1915 9.19544C61.9999 9.04219 61.7701 9.04219 61.5785 9.15713L61.6168 9.19544Z" fill="#E5F6FF"/>
<path d="M56.2911 11.7624C56.2911 11.8007 56.2911 11.8773 56.2911 11.9156C56.3678 11.9539 56.4827 11.9539 56.521 11.8773C56.5593 11.8007 56.5593 11.6857 56.4827 11.6474C56.4061 11.6091 56.2911 11.6474 56.2911 11.7624Z" fill="#E5F6FF"/>
<path d="M59.203 12.3371C59.0114 12.9118 58.9348 13.4865 59.0114 14.0612C59.0114 14.1379 59.0497 14.2528 59.088 14.3294C59.203 14.4827 59.3946 14.5593 59.5861 14.5593C60.0459 14.5593 60.4674 14.2145 60.6206 13.793C60.7739 13.3716 60.6589 12.8735 60.3907 12.5287C60.2375 12.3371 60.0459 12.1455 59.7777 12.1455C59.5478 12.1072 59.2413 12.2605 59.203 12.4903C59.2413 12.567 59.3562 12.5287 59.3946 12.452L59.203 12.3371Z" fill="#E5F6FF"/>
<path d="M68.1685 15.9771C67.7087 16.2836 67.4405 16.8583 67.4788 17.433C67.9769 17.6629 68.59 17.7395 69.088 17.433C69.5478 17.1265 69.7777 16.4368 69.4712 16.0154C69.1263 15.5556 68.2834 15.6706 68.1685 16.2453V15.9771Z" fill="#E5F6FF"/>
<path d="M6.40604 67.0882C5.94627 67.3947 5.67807 67.9694 5.71639 68.5441C6.21447 68.774 6.8275 68.8506 7.32558 68.5441C7.78535 68.2376 8.01524 67.5479 7.70873 67.1265C7.3639 66.6667 6.52099 66.7816 6.40604 67.3564V67.0882Z" fill="#E5F6FF"/>
<path d="M60.1609 22.7202C59.9693 22.8735 59.816 23.1417 59.816 23.3716C59.931 23.3716 60.0459 23.3716 60.1609 23.3716C60.2758 23.3332 60.3524 23.2566 60.3908 23.1417C60.3908 22.9884 60.2375 22.8735 60.1226 22.7968C60.1609 22.7968 60.1992 22.7585 60.2375 22.7585L60.1609 22.7202Z" fill="#E5F6FF"/>
<path d="M60.8888 24.4444C60.8505 24.521 60.8122 24.5977 60.8505 24.636C60.8505 24.7126 60.9272 24.7509 60.9655 24.7892C61.1187 24.9042 61.2337 25.0574 61.3486 25.2107C61.3869 24.9042 61.3869 24.5594 61.4252 24.2528C61.4252 24.2145 61.4252 24.2145 61.4252 24.1762C61.4636 24.0996 61.5785 24.0996 61.6551 24.0613C61.7701 23.9846 61.7701 23.8314 61.7318 23.7164C61.4252 22.9118 61.0421 24.0996 60.8888 24.4444Z" fill="#E5F6FF"/>
<path d="M57.9769 13.525C57.9769 13.6016 57.9386 13.7166 57.9386 13.7932C58.1302 13.7932 58.3218 13.7166 58.3984 13.525C58.475 13.3334 58.2834 13.1035 58.1302 13.1802C58.0152 13.2185 57.862 13.2951 57.8237 13.1802L57.9769 13.525Z" fill="#E5F6FF"/>
<path d="M62.1915 20.3449C62.1915 20.2682 62.1915 20.1916 62.2682 20.115C62.4214 20.2299 62.4214 20.4981 62.3831 20.6897C62.3831 20.8046 62.3448 20.9196 62.2298 20.9579C62.1532 20.9962 62.0766 20.9196 61.9999 20.9196C61.8467 20.9196 61.6551 21.0345 61.5402 20.8813C61.5019 20.8046 61.5019 20.6897 61.5785 20.6514C61.6551 20.5748 61.7318 20.5364 61.8084 20.5364C61.9999 20.4598 62.1532 20.3832 62.3448 20.3449H62.1915Z" fill="#E5F6FF"/>
<path d="M65.2566 20.3065C65.1417 20.4215 65.3333 20.613 65.4865 20.613C65.6398 20.5747 65.7547 20.4215 65.8313 20.3065C65.6398 20.1533 65.4099 20.1533 65.2183 20.2682L65.2566 20.3065Z" fill="#E5F6FF"/>
<path opacity="0.5" d="M63.5325 23.2949C63.6091 23.2566 63.6857 23.2566 63.724 23.3333C63.7624 23.4099 63.7624 23.4865 63.7624 23.5631C63.7624 23.6015 63.724 23.6398 63.724 23.6781C63.6474 23.7547 63.5325 23.7547 63.4558 23.6781C63.3792 23.6015 63.3792 23.4865 63.4558 23.4099C63.5325 23.3333 63.6474 23.3333 63.724 23.4099L63.5325 23.2949Z" fill="#E5F6FF"/>
<path d="M62.5746 22.9118C62.4597 22.8352 62.2298 22.9502 62.2298 23.1034C62.3064 23.1417 62.3831 23.18 62.4597 23.18C62.5363 23.18 62.6129 23.1034 62.6513 23.0268C62.6513 22.9502 62.5746 22.8735 62.498 22.8735L62.5746 22.9118Z" fill="#E5F6FF"/>
<path d="M59.3562 21.1877C59.1647 21.2644 59.0114 21.4176 58.9731 21.5709C59.1263 21.6092 59.2796 21.6475 59.4329 21.6858C59.5095 21.6858 59.5861 21.7241 59.6627 21.6858C59.816 21.6475 59.8543 21.4559 59.7777 21.341C59.7011 21.2261 59.5478 21.1877 59.3562 21.1877Z" fill="#E5F6FF"/>
<path opacity="0.5" d="M65.5632 22.2988C65.6398 22.2222 65.793 22.2222 65.8697 22.2605C65.9846 22.2988 66.0229 22.4521 66.0229 22.5287C66.0229 22.6053 65.9463 22.682 65.8697 22.682C65.8314 22.682 65.8314 22.6437 65.793 22.6053C65.7164 22.4904 65.6015 22.3755 65.5248 22.2988C65.5248 22.2988 65.5632 22.2988 65.5632 22.2988Z" fill="#E5F6FF"/>
<path opacity="0.5" d="M67.5171 23.2949C67.5938 23.4099 67.747 23.4482 67.9003 23.4099C68.0535 23.4099 68.2068 23.3716 68.2834 23.4865C68.3217 23.5248 68.3217 23.5631 68.3217 23.6014C68.2834 23.6781 68.1685 23.6781 68.0535 23.6781C67.9769 23.6781 67.9003 23.7547 67.8237 23.7547C67.6321 23.8313 67.4405 23.793 67.3256 23.6398C67.2873 23.5248 67.3256 23.4482 67.4022 23.3716C67.4788 23.2949 67.5938 23.2949 67.6704 23.3332L67.5171 23.2949Z" fill="#E5F6FF"/>
<path opacity="0.5" d="M56.0229 17.8928C56.0996 18.0078 56.2528 18.0461 56.4061 18.0078C56.5593 18.0078 56.7126 17.9695 56.7892 18.0844C56.8275 18.1227 56.8275 18.161 56.8275 18.1993C56.7892 18.276 56.6743 18.276 56.5593 18.276C56.4827 18.276 56.4061 18.3526 56.3295 18.3526C56.1379 18.4292 55.9463 18.3909 55.8314 18.2376C55.7931 18.1227 55.8314 18.0461 55.908 17.9695C55.9846 17.8928 56.0996 17.8928 56.1762 17.9311L56.0229 17.8928Z" fill="#E5F6FF"/>
<path opacity="0.5" d="M66.8658 24.521C66.8658 24.5593 66.8275 24.6359 66.8275 24.6743C66.9041 24.7509 66.9808 24.7509 67.0574 24.7126C67.134 24.6743 67.1723 24.5593 67.0957 24.4827C67.0191 24.4061 66.9041 24.4444 66.8658 24.521Z" fill="#E5F6FF"/>
<path d="M61.4635 22.567C61.5402 22.4904 61.5019 22.3755 61.3869 22.2988C61.3103 22.2605 61.1953 22.2605 61.0804 22.2222C60.9655 22.1839 60.8888 22.1073 60.8505 21.9923C60.8122 21.9157 60.8122 21.8774 60.8505 21.8008C60.8888 21.7624 60.9271 21.7624 60.9655 21.7624C61.157 21.7241 61.3869 21.6858 61.5785 21.7241C61.7701 21.7624 61.9616 21.954 61.9616 22.1456C61.9616 22.2988 61.9233 22.4521 61.7701 22.5287C61.6551 22.6053 61.5019 22.6053 61.3486 22.567H61.4635Z" fill="#E5F6FF"/>
<path d="M58.8582 23.6782C58.7433 23.7165 58.7049 23.9081 58.7432 24.023C58.7816 24.138 58.9348 24.2146 59.0498 24.2146C59.1264 24.2146 59.1647 24.2146 59.203 24.138C59.203 24.0997 59.203 24.0613 59.1647 24.023C59.0881 23.9081 58.9731 23.7548 58.8965 23.6399L58.8582 23.6782Z" fill="#E5F6FF"/>
<path d="M63.9157 18.4675C64.1839 18.3908 64.4521 18.659 64.4137 18.9272C64.2222 18.9656 63.9923 18.9655 63.8007 18.8889C63.6092 18.8123 63.4942 18.5441 63.6092 18.3908C63.7241 18.3525 63.839 18.3525 63.954 18.3142L63.9157 18.4675Z" fill="#E5F6FF"/>
<path opacity="0.5" d="M62.6513 24.4062C62.6513 24.4445 62.613 24.5212 62.613 24.5595C62.6896 24.5978 62.7662 24.6361 62.8812 24.5978C62.9578 24.5595 62.9961 24.4445 62.9578 24.4062C62.9195 24.4062 62.8812 24.3679 62.8812 24.3679C62.7662 24.3679 62.6896 24.3679 62.5746 24.3679L62.6513 24.4062Z" fill="#E5F6FF"/>
<path d="M59.5478 9.84668C59.4712 9.96162 59.3563 10.0766 59.3179 10.1915C59.2796 10.3064 59.318 10.498 59.3946 10.5746C59.4329 10.613 59.5095 10.6513 59.5862 10.6513C59.7777 10.6513 59.9693 10.4597 59.9693 10.2298C59.9693 9.99994 59.7777 9.84668 59.5478 9.84668Z" fill="#E5F6FF"/>
<path d="M65.8313 15.134C65.8313 15.2106 65.793 15.3256 65.793 15.4022C65.8697 15.4405 65.9463 15.4405 66.0229 15.4405C66.0995 15.3256 66.0229 15.134 65.908 15.0957L65.8313 15.134Z" fill="#E5F6FF"/>
<path d="M60.0459 2.60524C60.1225 2.56693 60.1992 2.56693 60.2375 2.64356C60.2758 2.72019 60.2758 2.79682 60.2758 2.87344C60.2758 2.91176 60.2375 2.95007 60.2375 2.98839C60.1608 3.06502 60.0459 3.06502 59.9693 2.98839C59.8926 2.91176 59.8926 2.79682 59.9693 2.72019C60.0459 2.64356 60.1608 2.64356 60.2375 2.72019L60.0459 2.60524Z" fill="#E5F6FF"/>
<path d="M64.2221 16.8198C64.2221 16.8964 64.1838 17.0114 64.1838 17.088C64.2605 17.1263 64.3371 17.1263 64.4137 17.1263C64.4903 17.0114 64.4137 16.8198 64.2988 16.7815L64.2221 16.8198Z" fill="#E5F6FF"/>
<path d="M56.521 16.092C56.406 16.1303 56.4444 16.2836 56.521 16.3602C56.5976 16.4368 56.7126 16.4751 56.7892 16.5134C56.8658 16.5901 56.9424 16.6667 56.9424 16.7816C56.9424 16.8583 56.9424 16.8966 56.8658 16.9349C56.8275 16.9732 56.7892 16.9732 56.7509 16.9732C56.5593 16.9732 56.3294 16.9349 56.1378 16.82C55.9463 16.705 55.8313 16.5134 55.8696 16.2836C55.908 16.1303 56.0229 16.0154 56.1378 15.9771C56.2911 15.9771 56.4827 16.0154 56.521 16.092Z" fill="#E5F6FF"/>
<path d="M60.6206 12.2605C60.6972 12.2222 60.7356 12.1455 60.7739 12.0689C60.8122 11.9923 60.8122 11.9157 60.7356 11.839C60.6589 11.7624 60.4674 11.8007 60.3524 11.8007C60.2375 11.7624 60.1225 11.6091 60.0076 11.6475C59.8926 11.6475 59.816 11.839 59.8543 11.954C59.8926 12.0689 60.0076 12.1455 60.1225 12.2222C60.2375 12.2988 60.3141 12.3371 60.429 12.3371C60.544 12.3371 60.6589 12.2605 60.6972 12.1455L60.6206 12.2605Z" fill="#E5F6FF"/>
<path d="M59.8543 18.2759C59.8543 17.8161 59.7777 17.318 59.5478 16.8966C59.5095 16.8199 59.4712 16.7433 59.4329 16.705C59.3179 16.5901 59.1647 16.5901 59.0114 16.6667C58.6666 16.7816 58.4367 17.1265 58.3984 17.5096C58.3984 17.8927 58.5899 18.2376 58.8965 18.4291C59.0497 18.5441 59.2796 18.6207 59.4712 18.5824C59.6627 18.5441 59.8543 18.3908 59.8543 18.1609C59.816 18.1226 59.7011 18.1609 59.7011 18.2376L59.8543 18.2759Z" fill="#E5F6FF"/>
<path d="M56.5976 17.1263C56.521 17.1263 56.4444 17.1263 56.4061 17.1647C56.3678 17.203 56.3294 17.2796 56.3294 17.3562C56.2911 17.5478 56.2145 17.7394 56.1379 17.8926C56.4444 17.7394 56.7126 17.6244 57.0191 17.4712C57.0574 17.4712 57.0574 17.4329 57.0957 17.4329C57.1724 17.4329 57.2107 17.5478 57.2873 17.5861C57.4022 17.6627 57.5555 17.5478 57.6321 17.4712C58.2068 16.8198 56.9808 17.088 56.5976 17.1263Z" fill="#E5F6FF"/>
<path d="M59.7394 18.3142C59.7011 18.3525 59.7011 18.4292 59.6628 18.4675C59.7011 18.5441 59.816 18.5441 59.8927 18.5058C59.9693 18.4675 60.0076 18.3525 59.931 18.2759C59.931 18.2376 59.7777 18.2376 59.7394 18.3142Z" fill="#E5F6FF"/>
<path d="M57.1723 18.5057C57.0574 18.4291 56.9041 18.4674 56.8275 18.5823C56.7509 18.6973 56.7509 18.8505 56.8275 18.9655C56.8658 19.0038 56.9041 19.0804 56.9424 19.0421C56.9807 19.0421 57.0191 19.0038 57.0191 18.9655C57.0957 18.8122 57.134 18.6589 57.2106 18.5057H57.1723Z" fill="#E5F6FF"/>
<path d="M58.8965 18.8123C58.6666 18.6974 58.3601 18.7357 58.1685 18.8506C58.2068 18.9656 58.2835 19.0805 58.3601 19.1571C58.4367 19.2338 58.59 19.2721 58.6666 19.2338C58.8199 19.1571 58.8199 18.9656 58.8199 18.8123C58.8582 18.8506 58.8965 18.889 58.8965 18.889V18.8123Z" fill="#E5F6FF"/>
<path d="M59.816 19.502C59.8926 19.4637 59.9693 19.4254 60.0459 19.4254C60.0076 19.617 59.816 19.7319 59.6244 19.8085C59.5095 19.8469 59.3946 19.8852 59.3179 19.8085C59.2796 19.7702 59.2796 19.6553 59.2413 19.5787C59.1647 19.4254 58.9731 19.3105 59.0497 19.1955C59.0881 19.1189 59.203 19.0806 59.2796 19.0806C59.3563 19.0806 59.4329 19.1572 59.5095 19.1955C59.6628 19.3105 59.816 19.4254 59.9693 19.5787L59.816 19.502Z" fill="#E5F6FF"/>
<path d="M57.6704 17.4713C57.5172 17.3564 57.3256 17.2798 57.134 17.3181C57.1723 17.4713 57.2107 17.6246 57.249 17.7778C57.2873 17.8545 57.2873 17.9311 57.3639 17.9694C57.4789 18.0844 57.6704 18.0077 57.7471 17.8928C57.7854 17.7778 57.7471 17.6246 57.6704 17.4713Z" fill="#E5F6FF"/>
<path d="M57.5172 19.9618C57.6321 20.0001 57.7087 19.8852 57.7087 19.7702C57.7087 19.6553 57.6321 19.5787 57.6321 19.4637C57.6321 19.3488 57.6321 19.2338 57.7087 19.1572C57.747 19.1189 57.8237 19.0806 57.862 19.0806C57.9003 19.0806 57.9386 19.1189 57.9769 19.1572C58.1302 19.3105 58.2451 19.4637 58.3218 19.6553C58.3601 19.8468 58.3218 20.0767 58.1302 20.23C58.0152 20.3066 57.862 20.3449 57.7087 20.2683C57.5938 20.1917 57.5172 20.0767 57.5172 19.9618Z" fill="#E5F6FF"/>
<path d="M61.8467 14.7126C61.6934 14.6743 61.5785 14.6743 61.4252 14.6743C61.272 14.7126 61.157 14.7893 61.157 14.9425C61.157 15.0191 61.157 15.0958 61.1954 15.1341C61.3103 15.3257 61.5785 15.364 61.7318 15.249C61.9233 15.1341 61.9616 14.8659 61.8467 14.7126Z" fill="#E5F6FF"/>
<path d="M58.9348 13.7164C58.7049 13.6014 58.3984 13.6397 58.2068 13.7547C58.2452 13.8696 58.3218 13.9846 58.3984 14.0612C58.475 14.1378 58.6283 14.1761 58.7049 14.1378C58.8582 14.0612 58.8582 13.8696 58.8582 13.7164C58.8965 13.7547 58.9348 13.793 58.9348 13.793V13.7164Z" fill="#E5F6FF"/>
<path d="M60.0076 19.9617C60.0459 20.0766 60.2375 20.1149 60.3524 20.1149C60.5057 20.1149 60.6589 20.1149 60.7356 20.2299C60.7739 20.2682 60.7739 20.3065 60.7739 20.3448C60.7356 20.4214 60.6206 20.4214 60.5057 20.4214C60.429 20.4214 60.3524 20.4598 60.2758 20.4981C60.0842 20.5747 59.8927 20.4981 59.7777 20.3448C59.7777 20.2299 59.816 20.1532 59.8926 20.0766C59.9693 20.0383 60.0842 20 60.1609 20.0766L60.0076 19.9617Z" fill="#E5F6FF"/>
<path d="M63.4175 9.69352C63.4175 9.73184 63.4559 9.80847 63.4559 9.84678C63.5325 9.8851 63.6474 9.80847 63.6857 9.73184C63.7241 9.65521 63.6857 9.54027 63.6091 9.50195C63.4942 9.54027 63.3792 9.6169 63.4175 9.69352Z" fill="#E5F6FF"/>
<path d="M58.7049 16.705C58.6666 16.705 58.5899 16.7433 58.5516 16.7433C58.5516 16.82 58.5516 16.9349 58.6283 16.9732C58.7049 17.0499 58.8198 17.0115 58.8198 16.9349C58.8198 16.8966 58.8198 16.8583 58.7815 16.8583C58.7432 16.7817 58.6666 16.6667 58.6283 16.5901L58.7049 16.705Z" fill="#E5F6FF"/>
<path d="M11.3103 58.7356C11.6169 57.8544 11.7701 56.9348 11.6552 56.0153C11.6552 55.862 11.6169 55.7088 11.5402 55.5938C11.387 55.3256 11.0805 55.249 10.8123 55.2107C10.1226 55.2107 9.43295 55.6705 9.16475 56.3601C8.89655 57.0498 9.0498 57.7777 9.43295 58.3908C9.66283 58.6973 9.96934 58.9655 10.3525 59.0421C10.7356 59.1187 11.1571 58.8889 11.272 58.544C11.1954 58.4291 11.0038 58.4674 10.9655 58.5823L11.3103 58.7356Z" fill="white"/>
<path d="M10.0077 56.2069C10.3142 56.0154 10.5441 55.6322 10.5441 55.2491C10.1992 55.0575 9.77778 55.0192 9.47127 55.1724C9.12644 55.364 8.97318 55.8238 9.16475 56.1303C9.35632 56.4368 9.96935 56.3985 10.046 56.0537L10.0077 56.2069Z" fill="white"/>
<path d="M10.5057 52.8353C10.6973 52.8353 10.8505 52.7587 10.9655 52.6438C10.9272 52.6054 10.8505 52.5288 10.7739 52.4905C10.6973 52.4522 10.6207 52.4522 10.544 52.5288C10.4674 52.6054 10.5057 52.7204 10.544 52.8353C10.5057 52.8353 10.5057 52.797 10.4674 52.797L10.5057 52.8353Z" fill="white"/>
<path d="M10.544 53.5633C10.544 53.6016 10.544 53.6782 10.5057 53.7166C10.3908 53.6016 10.4291 53.4484 10.4291 53.3334C10.4291 53.2568 10.4674 53.1802 10.544 53.1418C10.5824 53.1418 10.659 53.1802 10.6973 53.1802C10.8122 53.1802 10.9272 53.1418 11.0038 53.2185C11.0421 53.2568 11.0038 53.3334 10.9655 53.3717C10.9272 53.41 10.8506 53.4484 10.8122 53.4484C10.6973 53.4867 10.544 53.525 10.4291 53.5633H10.544Z" fill="white"/>
<path opacity="0.5" d="M10.9271 44.6361C11.0038 44.5595 10.8888 44.4062 10.7739 44.4445C10.6589 44.4445 10.5823 44.5595 10.544 44.6361C10.6589 44.751 10.8505 44.751 10.9655 44.6744L10.9271 44.6361Z" fill="white"/>
<path d="M7.01915 44.023C6.98084 44.0613 6.90421 44.023 6.86589 43.9847C6.82758 43.9464 6.82758 43.8698 6.86589 43.8314C6.86589 43.7931 6.90421 43.7548 6.90421 43.7548C6.94252 43.7165 7.05746 43.7165 7.09578 43.7548C7.13409 43.7931 7.13409 43.9081 7.05746 43.9464C7.01915 43.9847 6.90421 43.9847 6.86589 43.9464L7.01915 44.023Z" fill="white"/>
<path d="M9.31799 51.6859C9.35631 51.8009 9.50956 51.8392 9.58619 51.7242C9.58619 51.6859 9.54788 51.6093 9.50956 51.571C9.47125 51.5327 9.39462 51.5327 9.35631 51.571C9.31799 51.6093 9.31799 51.6859 9.39462 51.7242L9.31799 51.6859Z" fill="white"/>
<path d="M10.2375 53.9846C10.3525 54.0229 10.5057 54.0229 10.6207 53.9463C10.5441 53.8697 10.5057 53.7547 10.4291 53.6781C10.3908 53.6398 10.3525 53.6015 10.3142 53.5632C10.2375 53.5249 10.1226 53.6015 10.0843 53.6781C10.0843 53.8314 10.1609 53.9463 10.2375 53.9846Z" fill="white"/>
<path opacity="0.5" d="M7.78544 45.3257C7.74713 45.2873 7.74713 45.249 7.70882 45.249C7.63219 45.249 7.59387 45.2873 7.59387 45.364C7.59387 45.4406 7.63219 45.4789 7.70882 45.4789C7.78544 45.4789 7.82376 45.4023 7.78544 45.3257Z" fill="white"/>
<path d="M9.73944 52.3756C9.66281 52.3756 9.6245 52.4906 9.66281 52.5289C9.70112 52.6055 9.73944 52.6438 9.77775 52.7205C9.81607 52.7971 9.81607 52.8737 9.77775 52.9503C9.77775 52.9886 9.73944 53.027 9.70112 53.027C9.66281 53.027 9.66281 53.027 9.6245 53.027C9.50955 52.9503 9.3563 52.8737 9.27967 52.7588C9.20304 52.6438 9.16473 52.4906 9.24135 52.3756C9.27967 52.299 9.39461 52.2607 9.50955 52.2607C9.66281 52.2224 9.73944 52.299 9.73944 52.3756Z" fill="white"/>
<path d="M11.5785 52.912C11.6552 52.9503 11.7701 52.8736 11.7701 52.797C11.8084 52.7204 11.7701 52.6054 11.6935 52.5671C11.6552 52.5288 11.6168 52.5288 11.5785 52.5288C11.5402 52.5288 11.5402 52.5671 11.5402 52.6054C11.5785 52.7204 11.5785 52.8353 11.5785 52.912Z" fill="white"/>
<path d="M11.3487 48.6974C11.1571 48.7357 10.9655 48.5441 11.0038 48.3909C11.1571 48.3909 11.3103 48.3909 11.4253 48.4292C11.5402 48.5058 11.6169 48.6974 11.5402 48.774C11.4636 48.774 11.387 48.8123 11.3103 48.8123L11.3487 48.6974Z" fill="white"/>
<path d="M10.2375 62.8353C10.2375 62.8736 10.1992 62.9119 10.1609 62.9119C10.1226 62.9119 10.0842 62.8736 10.0459 62.8736C10.0076 62.8353 10.0076 62.8353 9.9693 62.797C9.93099 62.7203 9.9693 62.6437 10.0076 62.6054C10.0459 62.5671 10.1226 62.5671 10.1992 62.6054C10.2375 62.6054 10.2375 62.6437 10.2758 62.682C10.2758 62.7203 10.2758 62.7587 10.2375 62.7587V62.8353Z" fill="white"/>
<path d="M9.931 50.8812C9.96932 50.8429 10.0076 50.8429 10.0459 50.8046C10.0076 50.7663 10.0076 50.6896 9.931 50.6513C9.89269 50.613 9.77775 50.6896 9.81606 50.7279C9.81606 50.7663 9.85437 50.7663 9.85437 50.7663C9.89269 50.8046 9.96932 50.8812 10.0076 50.9195L9.931 50.8812Z" fill="white"/>
<path d="M9.66279 48.8506C9.73942 48.774 9.77773 48.6974 9.81605 48.6207C9.85436 48.5441 9.85436 48.4292 9.77773 48.3525C9.73942 48.3142 9.70111 48.3142 9.66279 48.3142C9.50953 48.3142 9.39459 48.4292 9.39459 48.5824C9.39459 48.7357 9.50953 48.8506 9.66279 48.8506Z" fill="white"/>
<path d="M10.3141 48.1227C10.3141 48.0461 10.3524 48.0078 10.3524 47.9311C10.3141 47.8928 10.2758 47.8928 10.1992 47.8928C10.1609 47.9695 10.1609 48.0844 10.2758 48.1227H10.3141Z" fill="white"/>
<path d="M14.7203 52.3755C14.682 51.9924 14.567 51.6476 14.3755 51.3411C14.3372 51.3027 14.2988 51.2261 14.2605 51.1878C14.1839 51.1112 14.0306 51.1495 13.9157 51.1878C13.6475 51.3027 13.4942 51.6092 13.5326 51.8774C13.5326 52.1456 13.7241 52.4138 13.954 52.5671C14.069 52.6437 14.2605 52.682 14.4138 52.6437C14.567 52.6054 14.682 52.4522 14.682 52.2989C14.6437 52.2606 14.567 52.2989 14.567 52.3755H14.7203Z" fill="white"/>
<path d="M7.4789 54.9043C7.63215 54.7893 7.70878 54.6361 7.74709 54.4445C7.67047 54.4445 7.59384 54.4062 7.51721 54.4445C7.44058 54.4828 7.36395 54.5211 7.36395 54.5978C7.36395 54.7127 7.44058 54.7893 7.55552 54.866C7.51721 54.866 7.4789 54.866 7.4789 54.866V54.9043Z" fill="white"/>
<path d="M7.05744 53.7166C7.09575 53.6782 7.09575 53.6399 7.09575 53.5633C7.09575 53.525 7.05744 53.4867 7.01913 53.4484C6.9425 53.3334 6.86587 53.2568 6.78924 53.1418C6.75093 53.3717 6.71261 53.5633 6.71261 53.7932V53.8315C6.6743 53.8698 6.59767 53.8698 6.55936 53.9081C6.48273 53.9464 6.48273 54.0614 6.48273 54.138C6.63598 54.751 6.9425 53.9464 7.05744 53.7166Z" fill="white"/>
<path d="M7.97696 55.9771C8.09191 55.9388 8.20685 55.8622 8.28348 55.7089C8.16853 55.6706 8.09191 55.6323 7.97696 55.594C7.93865 55.594 7.86202 55.5557 7.82371 55.5557C7.70876 55.594 7.67045 55.7089 7.70876 55.7856C7.74708 55.9388 7.86202 55.9771 7.97696 55.9771Z" fill="white"/>
<path d="M8.13023 62.4905C8.09192 62.4521 8.09192 62.4138 8.0536 62.4138C7.97697 62.4138 7.93866 62.4521 7.93866 62.5288C7.93866 62.6054 7.97697 62.6437 8.0536 62.6437C8.13023 62.6437 8.16854 62.5288 8.13023 62.4905Z" fill="white"/>
<path d="M8.39846 54.2911C8.47509 54.2528 8.51341 54.1378 8.47509 54.0612C8.43678 53.9846 8.36015 53.908 8.28352 53.908C8.24521 53.908 8.20689 53.908 8.16858 53.9463C8.16858 53.9846 8.16858 53.9846 8.20689 54.0229C8.28352 54.1378 8.32184 54.2528 8.39846 54.2911Z" fill="white"/>
<path d="M9.85438 54.866C9.93101 54.7894 9.96932 54.7127 10.0076 54.6361C10.046 54.5595 10.046 54.4445 9.96932 54.3679C9.93101 54.3296 9.89269 54.3296 9.85438 54.3296C9.70112 54.3296 9.58618 54.4445 9.58618 54.5978C9.58618 54.751 9.70112 54.866 9.85438 54.866Z" fill="white"/>
<path d="M11.7318 50.4981C11.6935 50.4215 11.5785 50.3832 11.5019 50.3832C11.4253 50.3832 11.3103 50.3832 11.2337 50.3065C11.2337 50.2682 11.1954 50.2682 11.2337 50.2299C11.272 50.1533 11.3486 50.1916 11.4253 50.1916C11.4636 50.1916 11.5402 50.1533 11.5785 50.1533C11.6935 50.115 11.8467 50.1533 11.9234 50.2682C11.9234 50.3449 11.9234 50.4215 11.8467 50.4598C11.8084 50.4981 11.6935 50.4981 11.6552 50.4598L11.7318 50.4981Z" fill="white"/>
<path d="M10.3141 48.6207C10.2758 48.544 10.1609 48.5057 10.0842 48.5057C10.0076 48.5057 9.89267 48.5057 9.81604 48.4291C9.81604 48.3908 9.77773 48.3908 9.81604 48.3525C9.85435 48.2758 9.93098 48.3142 10.0076 48.3142C10.0459 48.3142 10.1226 48.2758 10.1609 48.2758C10.2758 48.2375 10.4291 48.2758 10.5057 48.3908C10.5057 48.4674 10.5057 48.544 10.4291 48.5824C10.3908 48.6207 10.2758 48.6207 10.2375 48.5824L10.3141 48.6207Z" fill="white"/>
<path d="M10.659 46.8966C10.6973 46.82 10.6973 46.7433 10.6973 46.6667V46.6284C10.6973 46.5901 10.659 46.5901 10.6207 46.5901C10.5441 46.5901 10.5057 46.6284 10.5057 46.705C10.4674 46.7433 10.5057 46.82 10.5441 46.8583C10.5824 46.8966 10.5824 46.8966 10.6207 46.8966C10.5824 46.9349 10.6207 46.8966 10.659 46.8966C10.659 46.8583 10.6207 46.8583 10.659 46.8966Z" fill="white"/>
<path d="M9.66279 58.0842C9.81605 57.9693 9.89268 57.816 9.93099 57.6245C9.85436 57.6245 9.77774 57.5861 9.70111 57.6245C9.62448 57.6628 9.54785 57.7011 9.54785 57.7777C9.54785 57.8927 9.62448 57.9693 9.73942 58.0459C9.70111 58.0459 9.66279 58.0459 9.66279 58.0459V58.0842Z" fill="white"/>
<path d="M8.0153 57.8927C8.09193 57.9694 8.24519 57.8927 8.24519 57.7778C8.20688 57.7395 8.13025 57.7012 8.09193 57.7012C8.05362 57.7012 7.97699 57.7395 7.97699 57.8161C7.97699 57.8544 8.0153 57.9311 8.09193 57.9311L8.0153 57.8927Z" fill="white"/>
<path d="M9.43291 55.3256C9.50953 55.4022 9.66279 55.3256 9.66279 55.2107C9.62448 55.1724 9.54785 55.134 9.50953 55.134C9.47122 55.134 9.39459 55.1723 9.39459 55.249C9.39459 55.3256 9.43291 55.3639 9.50953 55.3639L9.43291 55.3256Z" fill="white"/>
<path d="M8.78158 58.1609C8.70495 58.1992 8.74327 58.3142 8.81989 58.3525C8.89652 58.3908 8.97315 58.3908 9.01146 58.4291C9.08809 58.4674 9.12641 58.5057 9.16472 58.5824C9.16472 58.6207 9.16472 58.659 9.16472 58.6973C9.12641 58.7356 9.12641 58.7356 9.08809 58.7356C8.93484 58.7739 8.81989 58.7739 8.66664 58.7356C8.51338 58.6973 8.39844 58.5824 8.39844 58.4291C8.39844 58.3142 8.43675 58.2375 8.51338 58.1992C8.59001 58.1226 8.70495 58.1226 8.78158 58.1609Z" fill="white"/>
<path d="M10.8505 50.0767C10.7739 50.115 10.8122 50.2299 10.8889 50.2683C10.9655 50.3066 11.0421 50.3066 11.0804 50.3449C11.1571 50.3832 11.1954 50.4215 11.2337 50.4981C11.2337 50.5365 11.2337 50.5748 11.2337 50.6131C11.1954 50.6514 11.1954 50.6514 11.1571 50.6514C11.0038 50.6897 10.8889 50.6897 10.7356 50.6514C10.5824 50.6131 10.4674 50.4981 10.4674 50.3449C10.4674 50.2299 10.5057 50.1533 10.5824 50.115C10.6973 50.0384 10.8122 50.0384 10.8505 50.0767Z" fill="white"/>
<path d="M11.8084 50.1533C11.7317 50.1917 11.7701 50.3066 11.8467 50.3449C11.9233 50.3832 11.9999 50.3832 12.0383 50.4215C12.1149 50.4599 12.1532 50.4982 12.1915 50.5748C12.1915 50.6131 12.1915 50.6514 12.1915 50.6897C12.1532 50.7281 12.1532 50.7281 12.1149 50.7281C11.9616 50.7664 11.8467 50.7664 11.6934 50.7281C11.5402 50.6897 11.4252 50.5748 11.4252 50.4215C11.4252 50.3066 11.4635 50.23 11.5402 50.1917C11.6168 50.115 11.7317 50.115 11.8084 50.1533Z" fill="white"/>
<path d="M11.3487 51.5325C11.272 51.5708 11.3103 51.6857 11.387 51.7241C11.4636 51.7624 11.5402 51.7624 11.5785 51.8007C11.6552 51.839 11.6935 51.8773 11.7318 51.9539C11.7318 51.9923 11.7318 52.0306 11.7318 52.0689C11.6935 52.1072 11.6935 52.1072 11.6552 52.1072C11.5019 52.1455 11.387 52.1455 11.2337 52.1072C11.0805 52.0689 10.9655 51.9539 10.9655 51.8007C10.9655 51.6857 11.0038 51.6091 11.0805 51.5708C11.1954 51.4942 11.3103 51.4942 11.3487 51.5325Z" fill="white"/>
<path d="M2.613 46.5901C2.53637 46.6284 2.57469 46.7434 2.65131 46.7817C2.72794 46.82 2.80457 46.82 2.84289 46.8583C2.91951 46.8966 2.95783 46.9349 2.99614 47.0116C2.99614 47.0499 2.99614 47.0882 2.99614 47.1265C2.95783 47.1648 2.95783 47.1648 2.91951 47.1648C2.76626 47.2031 2.65131 47.2031 2.49806 47.1648C2.3448 47.1265 2.22986 47.0116 2.22986 46.8583C2.22986 46.7434 2.26817 46.6667 2.3448 46.6284C2.42143 46.5518 2.53637 46.5518 2.613 46.5901Z" fill="white"/>
<path d="M8.01532 56.8967C8.01532 56.8583 8.05363 56.82 8.05363 56.7817C8.01532 56.7434 7.93869 56.7434 7.90038 56.7434C7.86206 56.7434 7.82375 56.8583 7.86206 56.8967C7.86206 56.8967 7.90038 56.8967 7.93869 56.8967C8.01532 56.8967 8.09195 56.8967 8.16857 56.935L8.01532 56.8967Z" fill="white"/>
<path d="M6.21455 49.5403C6.29118 49.4637 6.32949 49.387 6.36781 49.3104C6.40612 49.2338 6.40612 49.1188 6.32949 49.0422C6.29118 49.0039 6.25286 49.0039 6.21455 49.0039C6.06129 49.0039 5.94635 49.1189 5.94635 49.2721C5.94635 49.4254 6.09961 49.5403 6.21455 49.5403Z" fill="white"/>
<path d="M10.7739 55.977C10.7739 56.1303 10.5823 56.2069 10.4674 56.0919C10.4674 56.0153 10.4674 55.9387 10.4674 55.8621C10.544 55.8621 10.6207 55.9004 10.6973 55.9387L10.7739 55.977Z" fill="white"/>
<path opacity="0.5" d="M6.94249 48.5824C6.9808 48.5441 7.01911 48.5058 7.01911 48.4291C7.01911 48.3908 7.01911 48.3142 6.9808 48.2759C6.90417 48.2376 6.82754 48.3142 6.7126 48.3142C6.63597 48.3142 6.55934 48.2376 6.4444 48.2759C6.36777 48.3142 6.32946 48.4291 6.40609 48.5057C6.4444 48.5824 6.55934 48.6207 6.63597 48.659C6.7126 48.6973 6.78923 48.6973 6.86586 48.6973C6.94249 48.6973 7.01911 48.6207 7.01911 48.5441L6.94249 48.5824Z" fill="white"/>
<path d="M10.3524 52.0307C10.7356 52.069 11.1187 51.8774 11.3486 51.5709C11.1954 51.2261 10.8888 50.9196 10.5057 50.8813C10.1226 50.8046 9.70111 51.0728 9.66279 51.456C9.62448 51.8391 10.1226 52.1456 10.4291 51.9158L10.3524 52.0307Z" fill="white"/>
<path d="M11.6551 56.1303C11.6168 56.1303 11.5785 56.0919 11.5785 56.0153C11.5785 55.9387 11.6168 55.9004 11.6551 55.9004C11.6934 55.9004 11.6934 55.8621 11.7317 55.8621C11.8084 55.8621 11.885 55.9004 11.885 55.977C11.885 56.0536 11.8084 56.1303 11.7701 56.1303C11.6934 56.1303 11.6168 56.0919 11.6168 56.0153L11.6551 56.1303Z" fill="white"/>
<path d="M11.0038 54.1381C10.9272 54.0614 10.8122 54.0997 10.7356 54.1381C10.659 54.1764 10.544 54.2147 10.4674 54.1381C10.4291 54.1381 10.4291 54.0998 10.4291 54.0614C10.4291 53.9848 10.5057 53.9848 10.5823 53.9465C10.6206 53.9082 10.659 53.8699 10.6973 53.8315C10.8122 53.7549 10.9655 53.7549 11.0421 53.7932C11.0804 53.8699 11.0804 53.9465 11.0421 53.9848C11.0038 54.0231 10.9272 54.0614 10.8505 54.0614L11.0038 54.1381Z" fill="white"/>
<path d="M9.01146 51.8391C9.01146 51.8008 9.01146 51.7625 9.01146 51.7241C8.97315 51.6858 8.89652 51.6858 8.8582 51.7625C8.81989 51.8008 8.81989 51.8774 8.8582 51.9157C8.93483 51.9157 9.01146 51.8774 9.01146 51.8391Z" fill="white"/>
<path d="M9.77775 53.7931C9.77775 53.8314 9.70112 53.8314 9.66281 53.8314C9.6245 53.7931 9.6245 53.7548 9.58618 53.7165C9.58618 53.6781 9.58618 53.6398 9.58618 53.6015C9.58618 53.5249 9.66281 53.4866 9.73944 53.4866C9.81607 53.4866 9.85438 53.5249 9.89269 53.6015C9.89269 53.6398 9.93101 53.6781 9.89269 53.6781C9.89269 53.7165 9.85438 53.7165 9.81607 53.7165L9.77775 53.7931Z" fill="white"/>
<path d="M6.63601 54.253C6.90421 54.5212 7.32567 54.6361 7.6705 54.5595C7.78544 54.2146 7.74712 53.7549 7.51724 53.4867C7.28735 53.1802 6.78927 53.1035 6.52107 53.3717C6.25287 53.6399 6.40613 54.2146 6.78927 54.2146L6.63601 54.253Z" fill="white"/>
<path d="M8.51339 56.5519C8.59002 56.4752 8.47508 56.322 8.36013 56.3603C8.24519 56.3986 8.16856 56.4752 8.13025 56.5519C8.24519 56.6668 8.43676 56.6668 8.55171 56.5902L8.51339 56.5519Z" fill="white"/>
<path d="M12.2298 55.0193C12.2298 54.9809 12.2298 54.9426 12.2298 54.9043C12.1915 54.866 12.1149 54.866 12.0766 54.9426C12.0383 54.9809 12.0383 55.0576 12.0766 55.0959C12.1149 55.1342 12.1915 55.0959 12.2298 55.0193Z" fill="white"/>
<path d="M10.2758 54.5211C10.4291 54.138 10.5057 53.7548 10.4674 53.3334C10.4674 53.2567 10.4674 53.2184 10.4291 53.1418C10.3525 53.0268 10.2375 52.9885 10.1226 52.9885C9.81607 52.9885 9.50955 53.1801 9.39461 53.4483C9.27967 53.7165 9.31798 54.0613 9.50955 54.3295C9.58618 54.4828 9.73944 54.5977 9.8927 54.636C10.046 54.6744 10.2375 54.5977 10.3142 54.4445C10.2758 54.4062 10.1992 54.4062 10.1992 54.4445L10.2758 54.5211Z" fill="white"/>
<path d="M4.2988 51.6859C4.60532 51.4944 4.8352 51.1112 4.8352 50.7281C4.49037 50.5365 4.06892 50.4982 3.7624 50.6515C3.41758 50.843 3.26432 51.3028 3.45589 51.6093C3.64746 51.9158 4.26049 51.8775 4.33712 51.5327L4.2988 51.6859Z" fill="white"/>
<path d="M10.0076 47.3948C10.1609 47.2798 10.2375 47.1266 10.2758 46.935C10.1992 46.935 10.1226 46.8967 10.046 46.935C9.96933 46.9733 9.8927 47.0116 9.8927 47.0883C9.8927 47.2032 9.96933 47.2798 10.0843 47.3565C10.046 47.3565 10.0076 47.3565 10.0076 47.3565V47.3948Z" fill="white"/>
<path d="M9.58619 46.207C9.6245 46.1687 9.6245 46.1304 9.6245 46.0538C9.6245 46.0155 9.58619 45.9772 9.54787 45.9388C9.47124 45.8239 9.39462 45.7473 9.31799 45.6323C9.27967 45.8622 9.24136 46.0538 9.24136 46.2837V46.322C9.20305 46.3603 9.12642 46.3603 9.0881 46.3986C9.01147 46.4369 9.01147 46.5519 9.01147 46.6285C9.16473 47.2415 9.47124 46.4369 9.58619 46.207Z" fill="white"/>
<path d="M11.1571 53.7548C11.1571 53.6782 11.1954 53.6399 11.1954 53.5632C11.0804 53.5632 10.9272 53.6015 10.8889 53.7165C10.8505 53.8314 10.9272 53.9847 11.0804 53.9847C11.1571 53.9847 11.272 53.9081 11.272 53.9847L11.1571 53.7548Z" fill="white"/>
<path d="M8.55168 48.9273C8.55168 48.9656 8.55168 49.0423 8.51336 49.0806C8.39842 48.9656 8.43673 48.8124 8.43673 48.6974C8.43673 48.6208 8.47505 48.5442 8.55168 48.5059C8.58999 48.5059 8.66662 48.5442 8.70493 48.5442C8.81987 48.5442 8.93482 48.5059 9.01145 48.5825C9.04976 48.6208 9.01145 48.6974 8.97313 48.7357C8.93482 48.7741 8.85819 48.8124 8.81988 48.8124C8.70493 48.8507 8.55168 48.889 8.43673 48.9273H8.55168Z" fill="white"/>
<path d="M6.44442 48.8507C6.52105 48.7741 6.40611 48.6208 6.29116 48.6591C6.17622 48.6591 6.09959 48.7741 6.06128 48.8507C6.17622 48.9656 6.36779 48.9656 6.48274 48.889L6.44442 48.8507Z" fill="white"/>
<path opacity="0.5" d="M7.74712 46.8965C7.7088 46.9349 7.63217 46.8965 7.59386 46.8582C7.55555 46.8199 7.55555 46.7433 7.59386 46.705C7.59386 46.6667 7.63217 46.6283 7.63217 46.6283C7.67049 46.59 7.78543 46.59 7.82375 46.6283C7.86206 46.6667 7.86206 46.7816 7.78543 46.8199C7.74712 46.8582 7.63217 46.8582 7.59386 46.8199L7.74712 46.8965Z" fill="white"/>
<path d="M8.39842 47.1647C8.47505 47.2413 8.62831 47.1647 8.62831 47.0498C8.58999 47.0115 8.51336 46.9731 8.47505 46.9731C8.43674 46.9731 8.36011 47.0115 8.36011 47.0881C8.36011 47.1264 8.39842 47.203 8.47505 47.203L8.39842 47.1647Z" fill="white"/>
<path d="M10.5057 48.4674C10.6207 48.429 10.7356 48.3524 10.8122 48.1992C10.6973 48.1608 10.6207 48.1225 10.5057 48.0842C10.4674 48.0842 10.3908 48.0459 10.3525 48.0459C10.2375 48.0842 10.1992 48.1992 10.2375 48.2758C10.2758 48.429 10.3908 48.4674 10.5057 48.4674Z" fill="white"/>
<path opacity="0.5" d="M6.32948 47.5096C6.25285 47.5479 6.17622 47.5479 6.09959 47.5096C6.02297 47.4713 5.98465 47.3947 6.02297 47.318C6.02297 47.2797 6.06128 47.2031 6.13791 47.2414C6.17622 47.2414 6.17622 47.2797 6.17622 47.2797C6.25285 47.318 6.29116 47.3947 6.32948 47.5096C6.32948 47.5096 6.32948 47.4713 6.32948 47.5096Z" fill="white"/>
<path opacity="0.5" d="M5.02677 46.7432C4.98846 46.6666 4.87351 46.6283 4.79689 46.6283C4.72026 46.6283 4.60531 46.6283 4.52869 46.5517C4.52869 46.5133 4.49037 46.5133 4.52869 46.475C4.567 46.3984 4.64363 46.4367 4.72026 46.4367C4.75857 46.4367 4.8352 46.3984 4.87351 46.3984C4.98846 46.3601 5.14171 46.3984 5.21834 46.5133C5.21834 46.59 5.21834 46.6666 5.14171 46.7049C5.1034 46.7432 4.98846 46.7432 4.95014 46.7049L5.02677 46.7432Z" fill="white"/>
<path opacity="0.5" d="M12.6513 50.8428C12.613 50.7662 12.4981 50.7279 12.4215 50.7279C12.3448 50.7279 12.2299 50.7279 12.1533 50.6513C12.1533 50.613 12.1149 50.613 12.1533 50.5746C12.1916 50.498 12.2682 50.5363 12.3448 50.5363C12.3831 50.5363 12.4598 50.498 12.4981 50.498C12.613 50.4597 12.7663 50.498 12.8429 50.613C12.8429 50.6896 12.8429 50.7662 12.7663 50.8045C12.728 50.8428 12.613 50.8428 12.5747 50.8045L12.6513 50.8428Z" fill="white"/>
<path opacity="0.5" d="M5.5249 45.9003C5.5249 45.862 5.56322 45.8237 5.56322 45.7854C5.5249 45.7471 5.44827 45.7088 5.40996 45.7471C5.37164 45.7854 5.33333 45.862 5.37164 45.9003C5.40996 45.977 5.48659 45.977 5.5249 45.9003Z" fill="white"/>
<path d="M9.12643 47.4712C9.0498 47.5095 9.08811 47.6245 9.16474 47.6628C9.24137 47.7011 9.318 47.7011 9.35631 47.7394C9.43294 47.7777 9.47126 47.816 9.50957 47.8927C9.50957 47.931 9.50957 47.9693 9.50957 48.0076C9.47126 48.0459 9.47126 48.0459 9.43294 48.0459C9.27969 48.0842 9.16474 48.0842 9.01149 48.0459C8.85823 48.0076 8.74329 47.8927 8.74329 47.7394C8.74329 47.6245 8.7816 47.5478 8.85823 47.5095C8.97317 47.4329 9.08811 47.4329 9.12643 47.4712Z" fill="white"/>
<path d="M10.9272 46.7816C11.0038 46.7433 11.0421 46.6283 11.0038 46.5517C10.9655 46.4751 10.8888 46.3984 10.8122 46.3984C10.7739 46.3984 10.7356 46.3984 10.6973 46.4368C10.6973 46.4751 10.6973 46.4751 10.7356 46.5134C10.8122 46.6283 10.8505 46.7433 10.9272 46.7816Z" fill="white"/>
<path d="M7.28732 50.1532C7.09575 50.1915 6.90418 49.9999 6.94249 49.8467C7.09575 49.8467 7.24901 49.8467 7.36395 49.885C7.47889 49.9616 7.55552 50.1532 7.47889 50.2298C7.40226 50.2298 7.32563 50.2681 7.24901 50.2681L7.28732 50.1532Z" fill="white"/>
<path opacity="0.5" d="M8.39844 46.1686C8.39844 46.1303 8.43675 46.092 8.43675 46.0537C8.39844 46.0154 8.32181 46.0154 8.28349 46.0154C8.24518 46.0154 8.20687 46.1303 8.24518 46.1686C8.24518 46.1686 8.28349 46.1686 8.32181 46.1686C8.39844 46.1686 8.47506 46.1686 8.55169 46.207L8.39844 46.1686Z" fill="white"/>
<path d="M9.93098 56.1687C10.0076 56.0921 10.0459 56.0155 10.0842 55.9388C10.1226 55.8622 10.1226 55.7473 10.0459 55.6706C10.0076 55.6323 9.96929 55.6323 9.93098 55.6323C9.77772 55.6323 9.66278 55.7473 9.66278 55.9005C9.66278 56.0538 9.77772 56.1687 9.93098 56.1687Z" fill="white"/>
<path d="M5.86973 52.3373C5.86973 52.2607 5.90804 52.2224 5.90804 52.1457C5.86973 52.1074 5.83142 52.1074 5.75479 52.1074C5.71647 52.1841 5.71647 52.299 5.83142 52.3373H5.86973Z" fill="white"/>
<path d="M9.31798 61.1111C9.27966 61.1495 9.20304 61.1111 9.16472 61.0728C9.12641 61.0345 9.12641 60.9579 9.16472 60.9196C9.16472 60.8813 9.20304 60.8429 9.20304 60.8429C9.24135 60.8046 9.35629 60.8046 9.39461 60.8429C9.43292 60.8813 9.43292 60.9962 9.35629 61.0345C9.31798 61.0728 9.20304 61.0728 9.16472 61.0345L9.31798 61.1111Z" fill="white"/>
<path d="M7.01914 51.2643C7.01914 51.1877 7.05746 51.1494 7.05746 51.0727C7.01914 51.0344 6.98083 51.0344 6.9042 51.0344C6.86589 51.1111 6.86589 51.226 6.98083 51.2643H7.01914Z" fill="white"/>
<path d="M12.2299 52.0308C12.3065 51.9924 12.3065 51.9158 12.2299 51.8392C12.1916 51.8009 12.1149 51.7626 12.0383 51.7242C12 51.6859 11.9617 51.6093 11.9617 51.5327C11.9617 51.4944 11.9617 51.456 12 51.4177C12.0383 51.4177 12.0383 51.4177 12.0766 51.4177C12.2299 51.4177 12.3448 51.456 12.4598 51.5327C12.5747 51.6093 12.6513 51.7626 12.613 51.9158C12.5747 51.9924 12.4981 52.1074 12.4214 52.1074C12.3831 52.1457 12.2682 52.1074 12.2299 52.0308Z" fill="white"/>
<path d="M9.31799 54.4829C9.27968 54.5212 9.24137 54.5595 9.20305 54.5978C9.16474 54.6361 9.16474 54.7128 9.20305 54.7511C9.27968 54.8277 9.35631 54.7894 9.47125 54.7894C9.54788 54.8277 9.62451 54.9043 9.70114 54.9043C9.77776 54.9043 9.85439 54.7894 9.81608 54.7128C9.77776 54.6361 9.70114 54.5595 9.66282 54.5212C9.58619 54.4829 9.50957 54.4446 9.43294 54.4446C9.35631 54.4446 9.27968 54.4829 9.24137 54.5595L9.31799 54.4829Z" fill="white"/>
<path d="M10.046 50.4216C10.0077 50.7281 10.0843 51.0729 10.1992 51.3794C10.2375 51.4177 10.2375 51.4943 10.2759 51.5327C10.3525 51.6093 10.4674 51.6093 10.5824 51.571C10.8123 51.4943 11.0038 51.2645 11.0421 51.0346C11.0805 50.8047 10.9272 50.5365 10.7356 50.3832C10.6207 50.3066 10.5057 50.23 10.3525 50.23C10.1992 50.23 10.0843 50.3449 10.0843 50.4982C10.1226 50.5365 10.1609 50.4982 10.1992 50.4599L10.046 50.4216Z" fill="white"/>
<path d="M12.2298 51.3411C12.2682 51.3411 12.3448 51.3411 12.3831 51.3028C12.4214 51.2645 12.4214 51.2262 12.4597 51.1878C12.498 51.0729 12.5364 50.958 12.613 50.843C12.4214 50.9196 12.1915 50.9963 12 51.0729H11.9616C11.885 51.0729 11.885 50.9963 11.8084 50.958C11.7318 50.9196 11.6551 50.958 11.5785 51.0346C11.1187 51.4944 11.9616 51.3411 12.2298 51.3411Z" fill="white"/>
<path d="M10.1226 50.4216C10.1226 50.3833 10.1609 50.3449 10.1609 50.3066C10.1226 50.2683 10.0459 50.23 10.0076 50.2683C9.9693 50.3066 9.93099 50.3833 9.9693 50.4216C10.0076 50.4599 10.0842 50.4599 10.1226 50.4216Z" fill="white"/>
<path d="M11.885 50.3831C11.9616 50.4598 12.0766 50.4215 12.1149 50.3448C12.1532 50.2682 12.1915 50.1916 12.1532 50.0766C12.1532 50.0383 12.1149 50 12.0766 50C12.0383 50 12.0383 50.0383 12.0383 50.0383C11.9616 50.1916 11.9233 50.2682 11.885 50.3831Z" fill="white"/>
<path d="M10.7356 50.1149C10.8888 50.1915 11.0804 50.1915 11.2337 50.1149C11.1953 50.0383 11.157 49.9616 11.1187 49.9233C11.0804 49.885 10.9655 49.8467 10.8888 49.885C10.7739 49.9233 10.7739 50.0383 10.7739 50.1532C10.7356 50.1149 10.7356 50.1149 10.6973 50.0766L10.7356 50.1149Z" fill="white"/>
<path d="M10.1226 49.5787C10.0842 49.617 10.0076 49.617 9.9693 49.617C10.0076 49.5021 10.1609 49.4254 10.2758 49.3488C10.3524 49.3105 10.4291 49.3105 10.5057 49.3488C10.544 49.3871 10.544 49.4637 10.544 49.5021C10.5823 49.617 10.6973 49.6936 10.659 49.7703C10.6206 49.8086 10.544 49.8469 10.5057 49.8469C10.4291 49.8469 10.3908 49.7703 10.3524 49.7319C10.2375 49.6553 10.1609 49.5404 10.0459 49.4637L10.1226 49.5787Z" fill="white"/>
<path d="M11.5019 51.0729C11.5785 51.1495 11.7318 51.2261 11.885 51.1878C11.8467 51.0729 11.8467 50.9579 11.8084 50.8813C11.8084 50.843 11.7701 50.7664 11.7318 50.728C11.6551 50.6514 11.5402 50.6897 11.4636 50.7664C11.4252 50.843 11.4636 50.9579 11.5019 51.0729Z" fill="white"/>
<path d="M11.6935 49.387C11.6168 49.3487 11.5785 49.4253 11.5402 49.502C11.5402 49.5786 11.5785 49.6552 11.5785 49.6935C11.5785 49.7702 11.5785 49.8468 11.5019 49.8851C11.4636 49.9234 11.4253 49.9234 11.3869 49.9234C11.3486 49.9234 11.3486 49.8851 11.3103 49.8851C11.1954 49.7702 11.1187 49.6552 11.1187 49.502C11.0804 49.3487 11.1187 49.1955 11.272 49.1188C11.3486 49.0805 11.4636 49.0805 11.5402 49.1188C11.6551 49.2338 11.7318 49.3104 11.6935 49.387Z" fill="white"/>
<path d="M8.55172 52.797C8.62835 52.8354 8.74329 52.8354 8.81992 52.8354C8.89655 52.8354 9.01149 52.7587 9.01149 52.6821C9.01149 52.6438 9.01149 52.6055 8.97317 52.5288C8.89655 52.4139 8.74329 52.3373 8.59003 52.4139C8.5134 52.4905 8.47509 52.6821 8.55172 52.797Z" fill="white"/>
<path d="M10.5057 53.6015C10.659 53.6781 10.8505 53.6781 11.0038 53.6015C10.9655 53.5248 10.9272 53.4482 10.8889 53.4099C10.8505 53.3716 10.7356 53.3333 10.659 53.3716C10.544 53.4099 10.544 53.5248 10.544 53.6398C10.5057 53.6015 10.5057 53.6015 10.4674 53.5632L10.5057 53.6015Z" fill="white"/>
<path d="M10.0077 49.272C9.96935 49.1954 9.85441 49.1571 9.77778 49.1571C9.70115 49.1571 9.58621 49.1571 9.50958 49.0805C9.50958 49.0422 9.47127 49.0422 9.50958 49.0038C9.5479 48.9272 9.62452 48.9655 9.70115 48.9655C9.73947 48.9655 9.8161 48.9272 9.85441 48.9272C9.96935 48.8889 10.1226 48.9272 10.1992 49.0422C10.1992 49.1188 10.1609 49.1954 10.1226 49.2337C10.046 49.272 9.96935 49.272 9.93104 49.2337L10.0077 49.272Z" fill="white"/>
<path d="M7.28735 56.1303C7.28735 56.092 7.28735 56.0537 7.28735 56.0154C7.21072 56.0154 7.17241 56.0154 7.1341 56.092C7.09578 56.1303 7.13409 56.207 7.17241 56.2453C7.24904 56.2453 7.32567 56.207 7.28735 56.1303Z" fill="white"/>
<path d="M10.7739 51.571C10.8122 51.571 10.8505 51.571 10.8888 51.571C10.8888 51.4944 10.8888 51.4561 10.8505 51.4177C10.8122 51.3794 10.7356 51.3794 10.6973 51.4561C10.6973 51.4944 10.6973 51.4944 10.6973 51.5327C10.7356 51.6093 10.7739 51.6476 10.7739 51.7243V51.571Z" fill="white"/>
<path opacity="0.5" d="M38.59 80C47.2234 80 54.2222 78.439 54.2222 76.5134C54.2222 74.5879 47.2234 73.0269 38.59 73.0269C29.9566 73.0269 22.9578 74.5879 22.9578 76.5134C22.9578 78.439 29.9566 80 38.59 80Z" fill="url(#paint0_radial_147_4659)"/>
<path d="M58.4367 43.1035C58.4367 43.1035 58.4367 46.2452 57.1724 48.1992C56.4444 49.3104 55.2183 49.9617 53.7624 50.1533C52.6513 50.3065 51.4636 50.1916 50.2758 49.8084C47.5555 48.9655 45.7931 44.751 44.8352 40.613C43.8774 36.4751 46.1762 35.2107 46.521 35.3257C47.1341 35.5556 48.6283 37.5096 50.3524 39.272C51.2337 40.1533 52.1532 41.0345 53.0728 41.5709C55.7547 43.1418 58.4367 43.1035 58.4367 43.1035Z" fill="url(#paint1_linear_147_4659)"/>
<path opacity="0.3" d="M53.8007 50.1149C52.6896 50.2682 51.5018 50.1533 50.3141 49.7701C47.5938 48.9272 45.8313 44.7126 44.8735 40.5747C43.9156 36.4368 46.2145 35.1724 46.5593 35.2874C47.1723 35.5172 48.6666 37.4713 50.3907 39.2337C50.3907 39.2337 49.0114 42.2222 49.5861 46.2452C50.1608 50.2682 53.8007 50.1149 53.8007 50.1149Z" fill="url(#paint2_linear_147_4659)"/>
<path d="M38.9348 61.1112C38.9348 63.7932 38.0152 70.1916 36.0995 69.8851C35.6781 69.8085 35.2183 69.387 34.6819 68.7357C33.0727 66.7817 31.1187 62.6821 30.0459 59.8851C29.4329 58.3525 29.088 57.2031 29.203 57.0116C29.7777 55.7089 38.2451 59.502 38.7815 60.0001C38.8965 60.0767 38.9348 60.4981 38.9348 61.1112Z" fill="url(#paint3_linear_147_4659)"/>
<path d="M29.203 57.0114C28.5517 58.2375 36.2528 62.0306 38.8965 60.2298C38.8582 60.2298 30.0459 55.3639 29.203 57.0114Z" fill="url(#paint4_linear_147_4659)"/>
<path opacity="0.3" d="M32.9578 61.0729C32.6513 61.6093 34.1839 67.6629 36.0996 69.8851C35.6781 69.8085 35.2183 69.387 34.6819 68.7357C34.2605 67.7012 33.6091 66.1686 32.9961 64.6361C32.1915 62.682 30.7356 60.7663 30.0076 59.8851C29.3946 58.3525 29.0498 57.2031 29.1647 57.0116C29.7394 55.7089 38.2068 59.502 38.7432 60.0001C38.8582 60.0767 38.8965 60.5365 38.8965 61.1495C38.9348 61.1112 33.2643 60.5365 32.9578 61.0729Z" fill="url(#paint5_linear_147_4659)"/>
<path d="M48.0919 58.2375C48.0152 58.4674 47.9386 58.7356 47.862 58.9655C46.7126 62.8735 44.6819 68.544 43.1493 70.498C42.7662 70.9578 42.4597 71.226 42.1532 71.1877C42.0765 71.1877 41.9999 71.1494 41.9233 71.1111C41.6551 70.9961 41.4252 70.7279 41.1953 70.3448C39.7011 68.0459 38.6283 61.5708 38.8581 59.6934C38.8965 59.4636 38.9348 59.3103 39.0114 59.2337C40.2758 58.0076 48.475 54.4061 48.7815 55.0191C48.8581 55.2107 48.5899 56.4751 48.0919 58.2375Z" fill="url(#paint6_linear_147_4659)"/>
<path d="M38.8582 59.6936C38.5516 60.23 46.6359 60.1916 48.7815 55.0575C48.7815 55.0575 41.8467 54.7893 38.8582 59.6936Z" fill="url(#paint7_linear_147_4659)"/>
<path d="M42.9195 62.2604C42.5746 62.2987 42.1149 64.8657 42.613 65.0956C43.111 65.3255 43.6857 62.1454 42.9195 62.2604Z" fill="white"/>
<path opacity="0.3" d="M48.0919 58.2375C48.0919 58.2375 43.5708 58.8506 42.2298 60.7279C40.9271 62.6053 40.5057 67.5479 41.1953 70.3831C39.7011 68.0843 38.6283 61.6092 38.8581 59.7318C38.8965 59.5019 38.9348 59.3486 39.0114 59.272C40.2758 58.046 48.475 54.4444 48.7815 55.0574C48.8581 55.2107 48.5899 56.4751 48.0919 58.2375Z" fill="url(#paint8_linear_147_4659)"/>
<path d="M30.7356 36.5518C30.7356 38.8506 30.3907 42.184 29.3562 44.9043C27.6321 49.387 25.0267 54.9809 24.9501 55.1725C23.3409 56.1303 21.4635 56.092 20.2375 55.9004C19.5095 55.7855 19.0114 55.6322 19.0114 55.6322C19.0114 55.6322 19.5478 50.4981 22.3447 44.7127C23.7624 41.8008 25.5631 39.0805 27.0957 37.0882C27.0957 37.0882 27.0957 37.0882 27.134 37.0499C27.134 37.0115 27.1723 37.0115 27.1723 36.9732L27.2106 36.9349L27.249 36.8966L27.2873 36.8583C28.8582 34.8659 30.1608 33.6399 30.429 33.7932C30.5823 33.9081 30.7356 34.9809 30.7356 36.5518Z" fill="url(#paint9_linear_147_4659)"/>
<path d="M19.0114 55.4788C19.0114 55.4788 21.0804 52.1072 23.1877 52.5286C25.2949 52.9501 24.9118 55.2106 24.9118 55.2106C24.9118 55.2106 22.2298 57.1263 19.0114 55.4788Z" fill="url(#paint10_linear_147_4659)"/>
<path opacity="0.3" d="M30.7355 36.5518C30.7355 38.8506 30.3907 42.1839 29.3562 44.9042C27.6321 49.387 25.0267 54.9809 24.9501 55.1724L20.1991 55.9387C19.4712 55.8238 18.9731 55.6705 18.9731 55.6705C18.9731 55.6705 19.5095 50.5364 22.3064 44.751C23.724 41.8391 25.5248 39.1188 27.0574 37.1265C26.1761 38.3142 22.4597 43.41 21.4635 47.7395C20.3141 52.682 24.9118 50.7663 26.7892 47.7395C28.6666 44.7127 30.6206 36.5901 30.6206 36.5901H30.7355V36.5518Z" fill="url(#paint11_linear_147_4659)"/>
<path d="M25.6014 44.4444C25.2183 44.2911 27.1723 39.9233 27.747 39.885C28.3601 39.8467 25.908 44.5593 25.6014 44.4444Z" fill="white"/>
<path d="M25.4099 44.9041C25.1034 44.7508 24.8352 45.5554 25.1034 45.6704C25.3716 45.8236 25.7164 45.0957 25.4099 44.9041Z" fill="white"/>
<path d="M48.3218 4.17624C48.3218 4.17624 50.7356 2.10728 53.6475 1.76245C53.6475 1.76245 54.5287 2.18391 55.6015 5.44061C56.636 8.659 54.7202 15.0575 54.7202 15.0575L48.3218 4.17624Z" fill="url(#paint12_linear_147_4659)"/>
<path d="M53.6475 1.76244C53.6475 1.76244 51.272 4.29117 51.272 8.39079L52.1915 8.9655L54.8735 3.44826C54.8735 3.44826 53.9923 1.68581 53.6475 1.76244Z" fill="url(#paint13_linear_147_4659)"/>
<path d="M52.1149 8.69718C52.1149 8.69718 51.5018 5.21059 53.8007 2.60522C53.8007 2.60522 56.4061 3.83128 57.4789 8.39067C58.5517 12.9501 55.7547 15.6704 55.7547 15.6704L52.1149 8.69718Z" fill="url(#paint14_linear_147_4659)"/>
<path d="M50.7739 2.75845C50.3141 2.98834 50.3524 3.48642 51.272 3.37148C52.1915 3.25654 52.6896 2.52857 52.5747 2.37531C52.498 2.26037 51.272 2.49025 50.7739 2.75845Z" fill="white"/>
<path d="M28.2068 4.67429C28.2068 4.67429 25.793 2.60533 22.8811 2.2605C22.8811 2.2605 21.9999 2.68195 20.9271 5.93866C19.8926 9.15705 21.8083 15.5555 21.8083 15.5555L28.2068 4.67429Z" fill="url(#paint15_linear_147_4659)"/>
<path d="M22.8811 2.26039C22.8811 2.26039 25.2566 4.78913 25.2566 8.88875L24.3371 9.46346L21.6551 3.94622C21.6551 3.94622 22.5363 2.22208 22.8811 2.26039Z" fill="url(#paint16_linear_147_4659)"/>
<path d="M24.4137 9.19547C24.4137 9.19547 25.0268 5.70888 22.7279 3.10352C22.7279 3.10352 20.1225 4.32957 19.0497 8.88896C17.9769 13.4483 21.1187 16.4752 21.1187 16.4752L24.4137 9.19547Z" fill="url(#paint17_linear_147_4659)"/>
<path d="M25.7547 3.29509C26.2145 3.52497 26.1762 4.02305 25.2566 3.90811C24.3371 3.79317 23.839 3.0652 23.9539 2.91194C24.0306 2.75869 25.2566 3.02689 25.7547 3.29509Z" fill="white"/>
<path d="M48.6666 52.5286C47.9387 56.8198 44.0689 59.6933 38.5517 59.6933C33.7241 59.6933 29.6628 57.8926 28.59 53.9462C27.5172 49.9999 27.9387 42.6818 29.3563 38.1608C29.5862 37.4711 29.816 36.8198 30.1226 36.2067C30.3908 35.632 30.6973 35.0956 31.0421 34.5976C32.8046 31.9539 35.3716 30.2297 38.2835 30.2297C41.3103 30.2297 43.6092 31.4558 45.2183 33.3332C45.9463 34.1761 46.521 35.1723 46.9425 36.2067C47.4023 37.3945 47.8237 38.6972 48.1302 39.9999V40.0382C49.1264 44.1761 49.318 48.6972 48.6666 52.5286Z" fill="url(#paint18_linear_147_4659)"/>
<path opacity="0.3" d="M48.6666 52.5286C47.9387 56.8198 44.0689 59.6934 38.5517 59.6934C33.7241 59.6934 29.6628 57.8926 28.59 53.9463C27.5172 49.9999 27.9387 42.6819 29.3563 38.1608C29.5862 37.4712 29.816 36.8198 30.1226 36.2068C30.1226 36.2068 27.2107 45.862 29.5478 52.0305C31.885 58.1991 42.7279 58.0459 46.4061 53.9463C49.8927 50.0765 48.2835 40.9194 48.1302 40.0382C49.1264 44.1761 49.318 48.6972 48.6666 52.5286Z" fill="url(#paint19_linear_147_4659)"/>
<path d="M28.8199 49.9617C29.6245 44.1763 34.2988 40.2682 39.4329 40.7663C44.9885 41.3027 47.977 46.5901 47.9003 51.1495C47.8237 55.7089 44.4904 59.2338 38.5517 59.2338C32.613 59.2338 28.0536 55.4023 28.8199 49.9617Z" fill="url(#paint20_linear_147_4659)"/>
<path d="M28.8582 50.4598C29.6628 44.6744 34.3371 40.7664 39.4712 41.2261C45.0268 41.7625 48.0153 47.0499 47.9386 51.6093C47.862 56.1686 44.5287 59.6936 38.59 59.6936C32.613 59.7319 28.0919 55.8621 28.8582 50.4598Z" fill="url(#paint21_radial_147_4659)"/>
<path opacity="0.5" d="M45.2183 33.3332C44.0306 35.1723 37.5555 36.2451 33.8007 35.9002C30.544 35.5937 31.0421 34.7125 31.0421 34.5976C32.8046 31.9539 35.3716 30.2297 38.2835 30.2297C41.3103 30.2297 43.6475 31.4558 45.2183 33.3332Z" fill="url(#paint22_linear_147_4659)"/>
<path d="M42.9195 36.5134C42.6129 36.6284 42.6129 39.0422 42.9195 39.4253C43.226 39.8084 43.7241 39.6935 43.9156 39.1188C44.0689 38.5824 43.3792 36.3602 42.9195 36.5134Z" fill="white"/>
<path d="M43.4559 40.0765C43.1877 40.1532 43.1877 40.7279 43.3026 40.9578C43.4176 41.1876 43.839 41.111 43.9157 40.8811C43.9923 40.6129 43.7241 40.0382 43.4559 40.0765Z" fill="white"/>
<path opacity="0.72" d="M32.1149 56.3601C32.1149 56.3601 33.4559 58.6589 38.3984 58.6972C43.3409 58.7355 45.3716 55.747 45.3716 55.747C45.3716 55.747 43.0727 57.2413 39.816 56.3601C36.5593 55.4405 33.3026 54.9424 32.1149 56.3601Z" fill="url(#paint23_linear_147_4659)"/>
<path opacity="0.72" d="M30.8122 46.7816C31.8084 48.3524 35.8314 47.5095 40.3524 47.9693C44.8735 48.4291 45.6781 49.885 46.636 49.5785C47.5938 49.272 46.0996 42.452 39.2797 41.9923C32.5364 41.5325 30.5823 46.3984 30.8122 46.7816Z" fill="url(#paint24_linear_147_4659)"/>
<path d="M21.4635 26.8199C25.1417 35.2873 52.613 32.6436 55.908 25.7088C59.5095 18.0842 51.2337 -0.689702 38.0919 0.15321C26.9425 0.919493 16.7509 15.9387 21.4635 26.8199Z" fill="url(#paint25_linear_147_4659)"/>
<path d="M22.9961 25.632C26.521 32.5669 50.5057 31.4175 53.9923 25.0573C56.9808 19.6167 49.931 3.14161 37.9003 3.71633C25.8313 4.29104 19.6244 18.9654 22.9961 25.632Z" fill="url(#paint26_linear_147_4659)"/>
<path d="M49.0497 17.4329C48.59 18.6973 42.2681 18.544 42.2681 18.0843C42.3064 15.5555 43.6474 12.2605 46.1762 12.2605C48.7815 12.3371 49.931 15.0957 49.0497 17.4329Z" fill="url(#paint27_linear_147_4659)"/>
<path d="M27.7088 17.6244C28.2452 18.8505 34.567 18.3524 34.5287 17.8926C34.3371 15.3639 32.8045 12.1455 30.3141 12.2987C27.7088 12.4903 26.7126 15.3256 27.7088 17.6244Z" fill="url(#paint28_linear_147_4659)"/>
<path d="M34.6436 22.2989C33.6858 22.5288 35.6781 25.7089 38.8582 25.7089C41.6934 25.7089 43.3026 22.4522 42.9195 22.2989C42.5746 22.1456 40.8505 23.0269 38.5133 23.0269C36.1762 23.0269 35.0268 22.184 34.6436 22.2989Z" fill="#2F95CD"/>
<path d="M19.0114 55.6704C19.0114 55.6704 20.2758 53.8696 22.1149 53.6397C23.954 53.4099 24.6053 53.9079 24.9501 55.1723C25.295 56.4367 22.6896 61.111 19.4712 64.6359C18.0919 64.7509 17.6705 63.0267 17.4789 61.9539C17.4406 60.9961 18.3601 57.1647 19.0114 55.6704Z" fill="url(#paint29_linear_147_4659)"/>
<path d="M23.4175 53.6014C23.4175 53.6014 19.9693 58.3523 18.8965 61.1109C18.3218 62.6052 17.9769 63.5631 17.9769 63.5631C17.9769 63.5631 18.8582 65.8236 20.3524 63.9462C22.4597 61.2642 25.2566 57.2412 24.7585 55.3255C24.3371 53.678 24.0306 53.3715 23.4175 53.6014Z" fill="url(#paint30_linear_147_4659)"/>
<path d="M55.908 42.7202C54.3371 43.2182 54.1455 48.5439 55.6398 49.2336C57.134 49.9232 59.2413 45.2489 58.4367 43.1033C58.4367 43.1033 57.0574 42.3753 55.908 42.7202Z" fill="url(#paint31_linear_147_4659)"/>
<path d="M56.0229 43.3334C56.0229 43.3334 54.9118 44.4445 55.3716 46.2453C55.8314 48.046 58.2452 49.2721 61.2337 49.2338C64.2222 49.1955 66.1379 47.0499 66.5593 45.7089C66.5593 45.7089 66.0229 44.5978 63.0727 43.9081C61.0804 43.4483 58.3984 43.1035 58.3984 43.1035C58.3984 43.1035 57.0574 42.9119 56.0229 43.3334Z" fill="url(#paint32_linear_147_4659)"/>
<path d="M55.5248 46.5899C55.5248 46.5899 58.1685 47.4328 61.272 46.8964C64.3754 46.3217 63.4176 44.0995 63.4176 44.0995C63.4176 44.0995 61.885 43.3332 60.5057 43.065C59.1264 42.7968 56.0996 43.065 56.0996 43.065C56.0996 43.065 54.4137 44.4826 55.5248 46.5899Z" fill="url(#paint33_linear_147_4659)"/>
<path opacity="0.5" d="M57.4022 48.4291C57.4022 48.4291 57.6704 46.2068 57.4405 45.134C57.4405 45.134 58.3218 47.4329 58.4367 48.8122L57.4022 48.4291Z" fill="url(#paint34_linear_147_4659)"/>
<path d="M66.3678 56.3218L65.1417 56.3984L66.1379 56.59L65.9846 57.931C65.9846 57.931 65.9463 57.931 65.908 57.931H65.8697C65.6398 57.931 65.0651 57.9693 64.3371 58.0076C62.5747 58.0842 59.7011 58.1609 57.5938 57.931C57.5938 57.931 58.7049 51.1111 57.5938 45.7854L57.4789 44.6743L57.4406 44.4827L61.8467 44.0229C61.8467 44.0229 64.1455 47.8544 65.793 51.8774C66.1379 52.7203 66.4444 53.5632 66.7126 54.4061L66.3678 56.3218Z" fill="url(#paint35_linear_147_4659)"/>
<path opacity="0.5" d="M65.7547 51.9157L59.3179 53.0269L58.0153 45.9771L63.5325 47.9694C63.5708 47.9694 65.5248 51.2644 65.7547 51.9157Z" fill="url(#paint36_linear_147_4659)"/>
<path opacity="0.5" d="M58.1685 57.4712C58.1685 57.4712 62.1532 57.9309 65.9463 57.9693C65.9463 57.9693 65.908 57.9693 65.8697 57.9693H65.8314C65.6015 57.9693 65.0268 58.0076 64.2988 58.0459C62.3831 58.1225 59.203 58.2375 57.5555 57.9693C57.5555 57.9693 58.6666 51.1493 57.5555 45.8237L57.4406 44.7126L57.8237 44.4827L65.1417 51.0727L65.7547 51.8773C66.0996 52.7202 66.4061 53.5631 66.6743 54.406H59.931L59.3179 55.7087L65.1034 56.3601L59.203 55.9769L58.1685 57.4712Z" fill="url(#paint37_linear_147_4659)"/>
<path d="M57.4406 44.5209C57.4406 44.5209 59.1647 43.3715 62.6513 43.1416C62.6513 43.1416 66.0229 46.8198 68.0153 51.1109L59.4712 51.3408C59.4712 51.3408 58.6283 46.8198 57.4406 44.5209Z" fill="url(#paint38_linear_147_4659)"/>
<path opacity="0.5" d="M58.0536 44.2145C58.0536 44.2145 59.4329 45.7088 61.2337 46.1686C63.0344 46.59 64.0689 44.8659 64.0689 44.8659L63.4559 44.0613L58.0536 44.2145Z" fill="url(#paint39_linear_147_4659)"/>
<path d="M56.2528 43.18C55.793 41.8007 62.0382 41.8007 62.8811 42.3371C63.2643 42.567 63.8773 43.4099 63.6091 43.9079C63.3409 44.406 61.3103 44.7125 60.429 44.6359C59.5861 44.5593 56.5593 44.0995 56.2528 43.18Z" fill="url(#paint40_linear_147_4659)"/>
<path d="M61.0421 44.636C61.0421 44.636 60.9654 43.2567 61.6934 42.7203C62.3831 42.1839 63.0344 42.4521 63.0344 42.4521C63.0344 42.4521 63.9539 43.1417 63.6091 43.908C63.2643 44.6743 61.5018 44.8275 61.0421 44.636Z" fill="url(#paint41_linear_147_4659)"/>
<path opacity="0.5" d="M61.0421 45.8237C59.7394 46.4367 60.2375 49.3103 61.885 50.0766C63.5325 50.8429 64.7968 49.0421 64.6053 47.4329C64.3754 45.862 61.9233 45.4023 61.0421 45.8237Z" fill="#D9D2EC"/>
<path d="M62.1532 46.6282C62.2298 46.6282 62.3065 46.5899 62.3831 46.5899C62.4597 46.5899 62.5747 46.5899 62.6513 46.5899L62.7662 47.088C62.7279 47.0497 62.6513 47.0497 62.613 47.0497C62.5747 47.0497 62.5363 47.0497 62.4597 47.0497C62.4214 47.0497 62.3831 47.0497 62.3065 47.0497C62.2681 47.088 62.1915 47.1263 62.1915 47.1646C62.1532 47.2412 62.1532 47.2796 62.1915 47.3562C62.2298 47.4328 62.2298 47.4711 62.3065 47.5094C62.3448 47.5478 62.4214 47.5861 62.4597 47.6244C62.498 47.6627 62.5747 47.6627 62.6513 47.701C62.7279 47.7393 62.7662 47.7776 62.8429 47.816C62.9195 47.8543 62.9578 47.8926 63.0344 47.9692C63.0727 48.0458 63.1494 48.1225 63.1494 48.1991C63.1877 48.314 63.1877 48.3907 63.1877 48.4673C63.1877 48.5439 63.1494 48.6206 63.1494 48.6972C63.1111 48.7738 63.0727 48.8121 63.0344 48.8888C62.9961 48.9271 62.9195 48.9654 62.8812 49.0037L63.3793 49.9615H62.9195L62.6896 49.0803C62.6896 49.0803 62.6513 49.0803 62.613 49.0803C62.5747 49.0803 62.5363 49.0803 62.498 49.0803C62.4597 49.0803 62.4214 49.0803 62.3448 49.0803C62.3065 49.0803 62.2298 49.0803 62.1915 49.042L62.0766 48.5439C62.1532 48.5822 62.1915 48.5822 62.2681 48.5822C62.3448 48.5822 62.3831 48.5822 62.4214 48.5822C62.4597 48.5822 62.5363 48.5822 62.5747 48.5439C62.6513 48.4673 62.6896 48.3907 62.6513 48.2757C62.6513 48.2374 62.613 48.1991 62.5747 48.1608C62.5363 48.1225 62.4597 48.0842 62.4214 48.0458C62.3448 48.0075 62.3065 47.9692 62.2298 47.9309C62.1532 47.8926 62.0766 47.8543 62.0383 47.816C61.9616 47.7776 61.9233 47.701 61.8467 47.6244C61.8084 47.5478 61.7317 47.4711 61.7317 47.3562C61.6934 47.2029 61.6934 47.0497 61.7317 46.8964C61.7701 46.7432 61.8467 46.6665 61.9999 46.5899L61.5785 45.5554L61.9616 45.6704L62.1532 46.6282Z" fill="white"/>
<path d="M41.9616 1.72398C41.6934 2.0305 44.6436 3.29486 45.0267 3.10329C45.4099 2.95004 42.8045 0.727814 41.9616 1.72398Z" fill="white"/>
<path opacity="0.5" d="M27.2107 10.6513C26.9425 12.2988 30.0842 12.1072 35.0651 11.954C41.0804 11.7624 47.1341 16.9348 50.659 13.2184C51.2337 12.6053 45.4865 4.55935 38.5134 4.71261C31.5785 4.90418 27.4789 9.23368 27.2107 10.6513Z" fill="url(#paint42_linear_147_4659)"/>
<path opacity="0.5" d="M30.3141 27.9309C30.0076 29.1186 32.498 30.3447 38.6666 30.0382C46.1379 29.655 47.7087 28.1225 47.3256 27.6627C47.0957 27.3945 44.8735 28.8121 38.7432 27.4711C34.7202 26.5899 30.6589 26.6665 30.3141 27.9309Z" fill="url(#paint43_linear_147_4659)"/>
<path opacity="0.2" d="M23.6474 24.2145C23.6474 24.2145 23.3792 22.4903 23.6857 20.1532C23.9923 17.816 24.6053 16.3217 24.9884 16.5133C25.3716 16.7432 25.2949 19.0037 25.5248 21.2643C25.6781 23.0267 26.0229 24.6742 26.0229 24.6742C26.0229 24.6742 24.452 26.1685 23.6474 24.2145Z" fill="url(#paint44_linear_147_4659)"/>
<path opacity="0.5" d="M24.1838 29.6933C24.1838 29.6933 24.567 29.3102 26.5593 28.1225C27.9003 27.3562 29.2796 26.3983 29.5095 26.0535C29.816 25.2489 23.8007 25.7087 23.8007 25.7087L21.5018 26.8198C21.4635 26.8198 22.383 28.6205 24.1838 29.6933Z" fill="url(#paint45_linear_147_4659)"/>
<path d="M19.5861 11.9922C19.5861 11.9922 21.1187 12.9884 20.1225 15.2872C20.1225 15.2872 12.8812 19.2336 13.3026 23.5248C13.6474 27.1263 23.6474 25.3638 23.6474 25.3638L23.9923 26.5516C23.9923 26.5516 15.4865 28.1991 12.5746 26.2067C12.5746 26.2067 11.5785 23.8313 14.0689 19.5784C16.521 15.3255 19.5861 11.9922 19.5861 11.9922Z" fill="url(#paint46_linear_147_4659)"/>
<path d="M22.3831 25.0573C21.4635 26.0918 23.4175 27.2029 24.9884 27.3945C26.7892 27.5861 29.9309 26.8964 29.7394 25.0957C29.5861 23.2566 24.5286 22.6052 22.3831 25.0573Z" fill="url(#paint47_linear_147_4659)"/>
<path d="M22.498 25.2489C22.4597 25.5554 28.8199 25.632 28.9731 24.4826C29.1264 23.3332 22.9195 22.95 22.498 25.2489Z" fill="url(#paint48_linear_147_4659)"/>
<path opacity="0.72" d="M55.908 4.67421C55.908 4.67421 55.0651 3.63973 53.9157 3.90792C52.7662 4.17612 52.6896 7.81597 53.3793 7.8926C54.0689 7.96923 54.3754 5.90026 54.8735 5.55543C55.4099 5.21061 56.3295 5.36386 56.3295 5.36386L55.908 4.67421Z" fill="url(#paint49_linear_147_4659)"/>
<path opacity="0.72" d="M20.0459 6.20683C20.0459 6.20683 20.5057 5.70875 21.5018 5.862C22.498 6.01526 23.0727 8.08423 23.5708 7.85434C24.0689 7.66277 23.7241 4.32944 22.3447 3.37158C22.3447 3.37158 20.6206 4.86584 20.0459 6.20683Z" fill="url(#paint50_linear_147_4659)"/>
<path opacity="0.5" d="M20.544 58.0077C20.544 58.0077 21.0038 60.5364 22.5747 60.9196L22.8045 54.8276C22.8045 54.8276 21.0038 57.2031 20.544 58.0077Z" fill="url(#paint51_linear_147_4659)"/>
<path d="M22.0383 56.2835C21.8084 56.8582 22.2681 60.7279 22.6896 61.1494C23.1111 61.5708 24.0689 60.8429 24.3371 60.0766C24.6053 59.3103 25.793 55.0574 24.2605 53.7164C24.2605 53.6781 22.9961 53.8314 22.0383 56.2835Z" fill="url(#paint52_linear_147_4659)"/>
<path d="M22.7279 56.7816C22.5746 56.82 22.3831 58.1226 22.498 58.3525C22.6513 58.5824 22.9195 58.5441 23.0727 58.2759C23.226 57.9694 22.9961 56.7433 22.7279 56.7816Z" fill="white"/>
<path d="M18.2068 14.2913C18.2068 14.2913 14.7586 18.3142 14.9501 18.5824C15.18 18.889 18.4367 14.7127 18.2068 14.2913Z" fill="url(#paint53_linear_147_4659)"/>
</g>
<defs>
<radialGradient id="paint0_radial_147_4659" cx="0" cy="0" r="1" gradientUnits="userSpaceOnUse" gradientTransform="translate(38.5865 76.522) scale(15.6274 3.47709)">
<stop stop-color="#BE9DEA"/>
<stop offset="0.3883" stop-color="#E0BFF5"/>
<stop offset="1" stop-color="white"/>
</radialGradient>
<linearGradient id="paint1_linear_147_4659" x1="50.4152" y1="49.9463" x2="52.1663" y2="36.0046" gradientUnits="userSpaceOnUse">
<stop stop-color="#CBC1F7"/>
<stop offset="1" stop-color="#E8DCF7"/>
</linearGradient>
<linearGradient id="paint2_linear_147_4659" x1="49.2056" y1="50.1864" x2="49.2056" y2="35.2918" gradientUnits="userSpaceOnUse">
<stop stop-color="#9D68C2"/>
<stop offset="1" stop-color="#CCEDFF"/>
</linearGradient>
<linearGradient id="paint3_linear_147_4659" x1="34.5721" y1="69.9846" x2="33.9353" y2="56.5339" gradientUnits="userSpaceOnUse">
<stop stop-color="#CBC1F7"/>
<stop offset="1" stop-color="#E8DCF7"/>
</linearGradient>
<linearGradient id="paint4_linear_147_4659" x1="34.4443" y1="61.207" x2="33.5418" y2="56.0194" gradientUnits="userSpaceOnUse">
<stop stop-color="#BE9DEA"/>
<stop offset="1" stop-color="#9E8CEF"/>
</linearGradient>
<linearGradient id="paint5_linear_147_4659" x1="35.9725" y1="69.9162" x2="33.5621" y2="56.061" gradientUnits="userSpaceOnUse">
<stop stop-color="#9D68C2"/>
<stop offset="1" stop-color="#CCEDFF"/>
</linearGradient>
<linearGradient id="paint6_linear_147_4659" x1="40.1091" y1="70.5877" x2="44.9271" y2="53.9005" gradientUnits="userSpaceOnUse">
<stop stop-color="#CBC1F7"/>
<stop offset="1" stop-color="#E8DCF7"/>
</linearGradient>
<linearGradient id="paint7_linear_147_4659" x1="43.3253" y1="60.5306" x2="44.2991" y2="54.344" gradientUnits="userSpaceOnUse">
<stop stop-color="#BE9DEA"/>
<stop offset="1" stop-color="#9E8CEF"/>
</linearGradient>
<linearGradient id="paint8_linear_147_4659" x1="41.7919" y1="70.4403" x2="44.3327" y2="54.3005" gradientUnits="userSpaceOnUse">
<stop stop-color="#9D68C2"/>
<stop offset="1" stop-color="#CCEDFF"/>
</linearGradient>
<linearGradient id="paint9_linear_147_4659" x1="23.6759" y1="56.3602" x2="26.5689" y2="33.3258" gradientUnits="userSpaceOnUse">
<stop stop-color="#CBC1F7"/>
<stop offset="1" stop-color="#E8DCF7"/>
</linearGradient>
<linearGradient id="paint10_linear_147_4659" x1="21.9811" y1="56.1394" x2="21.9811" y2="52.4783" gradientUnits="userSpaceOnUse">
<stop stop-color="#BE9DEA"/>
<stop offset="1" stop-color="#9E8CEF"/>
</linearGradient>
<linearGradient id="paint11_linear_147_4659" x1="24.8578" y1="55.9229" x2="24.8578" y2="36.5678" gradientUnits="userSpaceOnUse">
<stop stop-color="#9D68C2"/>
<stop offset="1" stop-color="#CCEDFF"/>
</linearGradient>
<linearGradient id="paint12_linear_147_4659" x1="52.1042" y1="15.0296" x2="52.1042" y2="1.74406" gradientUnits="userSpaceOnUse">
<stop stop-color="#B9ACF4"/>
<stop offset="1" stop-color="#E1D1F5"/>
</linearGradient>
<linearGradient id="paint13_linear_147_4659" x1="53.069" y1="8.96535" x2="53.069" y2="1.74305" gradientUnits="userSpaceOnUse">
<stop stop-color="#BE9DEA"/>
<stop offset="1" stop-color="#9E8CEF"/>
</linearGradient>
<linearGradient id="paint14_linear_147_4659" x1="54.8645" y1="15.6651" x2="54.8645" y2="2.6117" gradientUnits="userSpaceOnUse">
<stop stop-color="#45FFCD"/>
<stop offset="1" stop-color="#22E0FF"/>
</linearGradient>
<linearGradient id="paint15_linear_147_4659" x1="24.4263" y1="15.5477" x2="24.4263" y2="2.26215" gradientUnits="userSpaceOnUse">
<stop stop-color="#B9ACF4"/>
<stop offset="1" stop-color="#E1D1F5"/>
</linearGradient>
<linearGradient id="paint16_linear_147_4659" x1="23.4615" y1="9.48331" x2="23.4615" y2="2.26105" gradientUnits="userSpaceOnUse">
<stop stop-color="#BE9DEA"/>
<stop offset="1" stop-color="#9E8CEF"/>
</linearGradient>
<linearGradient id="paint17_linear_147_4659" x1="21.6757" y1="16.4781" x2="21.6757" y2="3.12999" gradientUnits="userSpaceOnUse">
<stop stop-color="#45FFCD"/>
<stop offset="1" stop-color="#22E0FF"/>
</linearGradient>
<linearGradient id="paint18_linear_147_4659" x1="37.0321" y1="59.6636" x2="40.7015" y2="30.4479" gradientUnits="userSpaceOnUse">
<stop stop-color="#CBC1F7"/>
<stop offset="1" stop-color="#E8DCF7"/>
</linearGradient>
<linearGradient id="paint19_linear_147_4659" x1="38.5236" y1="59.7136" x2="38.5236" y2="36.2083" gradientUnits="userSpaceOnUse">
<stop stop-color="#9D68C2"/>
<stop offset="1" stop-color="#CCEDFF"/>
</linearGradient>
<linearGradient id="paint20_linear_147_4659" x1="38.2985" y1="59.2359" x2="38.2985" y2="40.7231" gradientUnits="userSpaceOnUse">
<stop stop-color="#BE9DEA"/>
<stop offset="1" stop-color="#9E8CEF"/>
</linearGradient>
<radialGradient id="paint21_radial_147_4659" cx="0" cy="0" r="1" gradientUnits="userSpaceOnUse" gradientTransform="translate(38.6695 56.8417) scale(14.1269 14.1269)">
<stop stop-color="#45FFCD"/>
<stop offset="1" stop-color="#22E0FF"/>
</radialGradient>
<linearGradient id="paint22_linear_147_4659" x1="38.118" y1="35.9593" x2="38.118" y2="30.2292" gradientUnits="userSpaceOnUse">
<stop stop-color="#8DA4E5"/>
<stop offset="1" stop-color="#755CBB"/>
</linearGradient>
<linearGradient id="paint23_linear_147_4659" x1="38.748" y1="58.6819" x2="38.748" y2="55.4752" gradientUnits="userSpaceOnUse">
<stop stop-color="#D4E2FF"/>
<stop offset="1"/>
</linearGradient>
<linearGradient id="paint24_linear_147_4659" x1="30.8065" y1="45.7878" x2="46.9049" y2="45.7878" gradientUnits="userSpaceOnUse">
<stop/>
<stop offset="1" stop-color="#D4E2FF"/>
</linearGradient>
<linearGradient id="paint25_linear_147_4659" x1="37.075" y1="32.573" x2="41.1274" y2="0.308076" gradientUnits="userSpaceOnUse">
<stop stop-color="#CBC1F7"/>
<stop offset="1" stop-color="#E8DCF7"/>
</linearGradient>
<linearGradient id="paint26_linear_147_4659" x1="38.3798" y1="30.3638" x2="38.3798" y2="3.69127" gradientUnits="userSpaceOnUse">
<stop stop-color="#0665BD"/>
<stop offset="1" stop-color="#1A1F77"/>
</linearGradient>
<linearGradient id="paint27_linear_147_4659" x1="45.5476" y1="18.6959" x2="46.4051" y2="12.3007" gradientUnits="userSpaceOnUse">
<stop stop-color="#45FFCD"/>
<stop offset="1" stop-color="#22E0FF"/>
</linearGradient>
<linearGradient id="paint28_linear_147_4659" x1="31.2709" y1="18.667" x2="30.0565" y2="12.3296" gradientUnits="userSpaceOnUse">
<stop stop-color="#45FFCD"/>
<stop offset="1" stop-color="#22E0FF"/>
</linearGradient>
<linearGradient id="paint29_linear_147_4659" x1="20.4305" y1="64.8115" x2="21.8616" y2="53.4165" gradientUnits="userSpaceOnUse">
<stop stop-color="#CBC1F7"/>
<stop offset="1" stop-color="#E8DCF7"/>
</linearGradient>
<linearGradient id="paint30_linear_147_4659" x1="21.8911" y1="64.4244" x2="20.8123" y2="53.8339" gradientUnits="userSpaceOnUse">
<stop stop-color="#BE9DEA"/>
<stop offset="1" stop-color="#9E8CEF"/>
</linearGradient>
<linearGradient id="paint31_linear_147_4659" x1="57.0031" y1="49.183" x2="56.3355" y2="42.6299" gradientUnits="userSpaceOnUse">
<stop stop-color="#BE9DEA"/>
<stop offset="1" stop-color="#9E8CEF"/>
</linearGradient>
<linearGradient id="paint32_linear_147_4659" x1="60.4525" y1="49.2186" x2="61.177" y2="43.4507" gradientUnits="userSpaceOnUse">
<stop stop-color="#CBC1F7"/>
<stop offset="1" stop-color="#E8DCF7"/>
</linearGradient>
<linearGradient id="paint33_linear_147_4659" x1="59.5578" y1="47.0952" x2="59.1152" y2="42.7495" gradientUnits="userSpaceOnUse">
<stop stop-color="#BE9DEA"/>
<stop offset="1" stop-color="#9E8CEF"/>
</linearGradient>
<linearGradient id="paint34_linear_147_4659" x1="57.9325" y1="48.8454" x2="57.9325" y2="45.1598" gradientUnits="userSpaceOnUse">
<stop stop-color="#8DA4E5"/>
<stop offset="1" stop-color="#755CBB"/>
</linearGradient>
<linearGradient id="paint35_linear_147_4659" x1="62.0594" y1="58.1382" x2="62.0594" y2="44.0544" gradientUnits="userSpaceOnUse">
<stop stop-color="#6FCAF4"/>
<stop offset="1" stop-color="#7DFFCF"/>
</linearGradient>
<linearGradient id="paint36_linear_147_4659" x1="61.9027" y1="53.0126" x2="61.9027" y2="45.9535" gradientUnits="userSpaceOnUse">
<stop stop-color="#755CBB"/>
<stop offset="1" stop-color="#CCEDFF"/>
</linearGradient>
<linearGradient id="paint37_linear_147_4659" x1="62.0705" y1="58.1569" x2="62.0705" y2="44.4934" gradientUnits="userSpaceOnUse">
<stop stop-color="#755CBB"/>
<stop offset="1" stop-color="#CCEDFF"/>
</linearGradient>
<linearGradient id="paint38_linear_147_4659" x1="62.7105" y1="51.325" x2="62.7105" y2="43.138" gradientUnits="userSpaceOnUse">
<stop stop-color="#6FCAF4"/>
<stop offset="1" stop-color="#7DFFCF"/>
</linearGradient>
<linearGradient id="paint39_linear_147_4659" x1="58.0489" y1="45.1388" x2="64.073" y2="45.1388" gradientUnits="userSpaceOnUse">
<stop stop-color="#755CBB"/>
<stop offset="1" stop-color="#CCEDFF"/>
</linearGradient>
<linearGradient id="paint40_linear_147_4659" x1="59.1978" y1="44.9124" x2="60.9303" y2="41.3976" gradientUnits="userSpaceOnUse">
<stop stop-color="#CBC1F7"/>
<stop offset="1" stop-color="#E8DCF7"/>
</linearGradient>
<linearGradient id="paint41_linear_147_4659" x1="62.4163" y1="44.6514" x2="62.1911" y2="42.4407" gradientUnits="userSpaceOnUse">
<stop stop-color="#CBC1F7"/>
<stop offset="1" stop-color="#D4BEF1"/>
</linearGradient>
<linearGradient id="paint42_linear_147_4659" x1="27.2081" y1="9.65663" x2="50.7369" y2="9.65663" gradientUnits="userSpaceOnUse">
<stop/>
<stop offset="1" stop-color="#6A9BFF"/>
</linearGradient>
<linearGradient id="paint43_linear_147_4659" x1="30.3022" y1="28.4728" x2="47.4092" y2="28.4728" gradientUnits="userSpaceOnUse">
<stop/>
<stop offset="1" stop-color="#6A9BFF"/>
</linearGradient>
<linearGradient id="paint44_linear_147_4659" x1="24.6765" y1="25.2063" x2="25.2734" y2="16.5002" gradientUnits="userSpaceOnUse">
<stop/>
<stop offset="1" stop-color="#00E3FF"/>
</linearGradient>
<linearGradient id="paint45_linear_147_4659" x1="25.4827" y1="29.6879" x2="25.4827" y2="25.5979" gradientUnits="userSpaceOnUse">
<stop stop-color="#8DA4E5"/>
<stop offset="1" stop-color="#755CBB"/>
</linearGradient>
<linearGradient id="paint46_linear_147_4659" x1="17.958" y1="27.4286" x2="19.894" y2="12.0142" gradientUnits="userSpaceOnUse">
<stop stop-color="#BE9DEA"/>
<stop offset="1" stop-color="#9E8CEF"/>
</linearGradient>
<linearGradient id="paint47_linear_147_4659" x1="25.4751" y1="27.5201" x2="26.471" y2="23.2906" gradientUnits="userSpaceOnUse">
<stop stop-color="#DD1A8F"/>
<stop offset="1" stop-color="#FE117E"/>
</linearGradient>
<linearGradient id="paint48_linear_147_4659" x1="25.7435" y1="25.4159" x2="25.7435" y2="23.5711" gradientUnits="userSpaceOnUse">
<stop stop-color="#D93DE3"/>
<stop offset="1" stop-color="#FF6DBA"/>
</linearGradient>
<linearGradient id="paint49_linear_147_4659" x1="52.9174" y1="5.87099" x2="56.3137" y2="5.87099" gradientUnits="userSpaceOnUse">
<stop/>
<stop offset="1" stop-color="#D4E2FF"/>
</linearGradient>
<linearGradient id="paint50_linear_147_4659" x1="20.0384" y1="5.63438" x2="23.7813" y2="5.63438" gradientUnits="userSpaceOnUse">
<stop stop-color="#D4E2FF"/>
<stop offset="1"/>
</linearGradient>
<linearGradient id="paint51_linear_147_4659" x1="22.1353" y1="60.9652" x2="21.523" y2="54.9555" gradientUnits="userSpaceOnUse">
<stop stop-color="#8DA4E5"/>
<stop offset="1" stop-color="#755CBB"/>
</linearGradient>
<linearGradient id="paint52_linear_147_4659" x1="22.9268" y1="61.2601" x2="23.8844" y2="53.6358" gradientUnits="userSpaceOnUse">
<stop stop-color="#CBC1F7"/>
<stop offset="1" stop-color="#E8DCF7"/>
</linearGradient>
<linearGradient id="paint53_linear_147_4659" x1="16.5783" y1="18.6152" x2="16.5783" y2="14.3016" gradientUnits="userSpaceOnUse">
<stop stop-color="#CBC1F7"/>
<stop offset="1" stop-color="#E8DCF7"/>
</linearGradient>
<clipPath id="clip0_147_4659">
<rect width="73.6782" height="80" fill="white" transform="translate(0.160889)"/>
</clipPath>
</defs>
</svg>
